<?xml version="1.0" encoding="utf-8" standalone="no"?>
<!DOCTYPE svg PUBLIC "-//W3C//DTD SVG 1.1//EN"
  "http://www.w3.org/Graphics/SVG/1.1/DTD/svg11.dtd">
<svg xmlns:xlink="http://www.w3.org/1999/xlink" width="837pt" height="498.96pt" viewBox="0 0 837 498.96" xmlns="http://www.w3.org/2000/svg" version="1.1">
 <metadata>
  <rdf:RDF xmlns:dc="http://purl.org/dc/elements/1.1/" xmlns:cc="http://creativecommons.org/ns#" xmlns:rdf="http://www.w3.org/1999/02/22-rdf-syntax-ns#">
   <cc:Work>
    <dc:type rdf:resource="http://purl.org/dc/dcmitype/StillImage"/>
    <dc:date>2023-06-10T18:18:34.125440</dc:date>
    <dc:format>image/svg+xml</dc:format>
    <dc:creator>
     <cc:Agent>
      <dc:title>Matplotlib v3.7.0, https://matplotlib.org/</dc:title>
     </cc:Agent>
    </dc:creator>
   </cc:Work>
  </rdf:RDF>
 </metadata>
 <defs>
  <style type="text/css">*{stroke-linejoin: round; stroke-linecap: butt}</style>
 </defs>
 <g id="figure_1">
  <g id="patch_1">
   <path d="M 0 498.96 
L 837 498.96 
L 837 -0 
L 0 -0 
L 0 498.96 
z
" style="fill: none"/>
  </g>
  <g id="axes_1">
   <g id="patch_2">
    <path d="M 0 498.96 
L 837 498.96 
L 837 -0 
L 0 -0 
L 0 498.96 
z
" style="fill: none"/>
   </g>
   <g id="matplotlib.axis_1"/>
   <g id="matplotlib.axis_2"/>
   <g id="line2d_1">
    <path d="M -0.114658 248.481849 
L 0 247.762181 
L 0.114658 247.762181 
L 0.343973 250.640858 
L 0.45863 251.673427 
L 0.573288 251.673427 
L 1.031918 249.17023 
L 1.146575 248.982489 
L 1.261233 249.295389 
L 1.490548 250.421828 
L 1.605205 250.108928 
L 1.834521 248.513139 
L 2.178493 244.539313 
L 2.293151 244.288993 
L 2.522466 246.604451 
L 2.866438 250.390538 
L 3.095753 249.545709 
L 3.210411 249.608289 
L 3.325068 249.483129 
L 3.439726 248.919909 
L 3.669041 246.416711 
L 3.783699 246.197681 
L 3.898356 246.416711 
L 4.127671 248.513139 
L 4.471644 254.645975 
L 4.586301 254.990165 
L 4.700959 254.958875 
L 4.930274 253.644696 
L 5.044932 253.707276 
L 5.159589 254.333076 
L 5.274247 253.613406 
L 5.732877 247.417991 
L 6.076849 244.664472 
L 6.306164 242.630624 
L 6.420822 243.099974 
L 6.764795 249.04507 
L 6.879452 248.043791 
L 7.223425 242.411594 
L 7.338082 243.788353 
L 7.796712 253.269216 
L 7.91137 253.394376 
L 8.599315 250.046349 
L 8.943288 252.267937 
L 9.057945 251.266658 
L 9.401918 242.755784 
L 9.516575 243.412873 
L 9.975205 258.432063 
L 10.089863 257.430783 
L 10.433836 247.91863 
L 10.548493 248.10637 
L 10.892466 251.736008 
L 11.007123 251.110208 
L 11.236438 247.79347 
L 11.351096 247.762181 
L 11.580411 248.794749 
L 11.809726 247.94992 
L 12.039041 246.510581 
L 12.153699 246.354131 
L 12.268356 245.728332 
L 12.612329 240.565486 
L 12.726986 241.034836 
L 12.956301 249.32668 
L 13.300274 261.78009 
L 13.414932 260.434621 
L 13.988219 245.071242 
L 14.102877 245.102532 
L 14.217534 246.135102 
L 14.676164 253.175347 
L 14.905479 252.361807 
L 15.36411 248.10637 
L 15.708082 248.70088 
L 15.82274 248.60701 
L 16.052055 247.51186 
L 16.166712 247.82476 
L 16.396027 250.985048 
L 16.74 257.149174 
L 16.854658 255.428225 
L 17.313288 243.193843 
L 17.427945 243.569323 
L 18.001233 252.580837 
L 18.345205 249.670869 
L 18.689178 252.987606 
L 18.918493 251.423108 
L 19.147808 249.295389 
L 19.262466 250.265378 
L 19.491781 254.520815 
L 19.606438 253.300506 
L 19.950411 246.103811 
L 20.065068 245.039953 
L 20.179726 245.290272 
L 20.638356 249.545709 
L 20.867671 250.734728 
L 21.096986 251.423108 
L 21.326301 251.736008 
L 21.555616 253.738566 
L 21.670274 254.927585 
L 21.784932 254.896295 
L 22.014247 254.489525 
L 22.128904 253.488246 
L 22.702192 241.910954 
L 22.816849 242.317725 
L 23.160822 246.009942 
L 23.390137 248.356689 
L 23.504795 248.29411 
L 23.619452 248.70088 
L 24.19274 253.832436 
L 24.307397 253.801146 
L 24.995342 242.630624 
L 25.224658 244.977372 
L 25.797945 251.485687 
L 25.912603 251.141498 
L 26.256575 249.01378 
L 26.48589 250.077638 
L 26.600548 249.764739 
L 27.173836 242.724494 
L 27.288493 243.131264 
L 27.517808 246.291552 
L 27.747123 252.455677 
L 28.205753 266.411007 
L 28.320411 265.941657 
L 28.664384 255.271775 
L 29.008356 246.760901 
L 29.237671 243.631903 
L 29.352329 243.381583 
L 29.581644 246.072521 
L 29.696301 246.041232 
L 29.925616 241.003545 
L 30.154932 236.529078 
L 30.269589 236.247469 
L 30.498904 242.129984 
L 30.842877 252.424387 
L 30.957534 254.176626 
L 31.072192 254.207915 
L 31.416164 251.016338 
L 31.530822 252.174067 
L 31.874795 260.559781 
L 31.989452 259.057863 
L 32.448082 240.346455 
L 32.56274 241.598055 
L 32.906712 253.863726 
L 33.02137 253.331797 
L 33.365342 244.382863 
L 33.48 244.414153 
L 34.053288 256.241764 
L 34.167945 255.928864 
L 34.39726 251.704717 
L 34.741233 244.789632 
L 34.85589 245.227692 
L 35.199863 249.389259 
L 35.314521 247.042511 
L 35.658493 234.74555 
L 35.773151 237.624227 
L 36.117123 254.990165 
L 36.231781 256.398214 
L 36.461096 252.048908 
L 36.690411 249.545709 
L 36.919726 253.456956 
L 37.263699 259.589792 
L 37.378356 257.962713 
L 37.722329 248.513139 
L 37.836986 249.01378 
L 38.180959 256.617244 
L 38.295616 256.210474 
L 38.524932 250.171509 
L 38.868904 241.347735 
L 38.983562 241.879665 
L 39.212877 247.54315 
L 39.442192 253.675986 
L 39.556849 252.518257 
L 39.900822 239.595497 
L 40.015479 239.783236 
L 40.359452 249.076359 
L 40.47411 248.88862 
L 40.818082 244.038673 
L 40.93274 244.883503 
L 41.39137 258.338193 
L 41.506027 258.025293 
L 42.30863 248.356689 
L 42.76726 232.930731 
L 42.881918 234.52652 
L 43.22589 244.695763 
L 43.340548 245.728332 
L 43.455205 245.665752 
L 43.684521 242.943524 
L 43.799178 243.256424 
L 44.257808 255.396935 
L 44.601781 264.971668 
L 44.716438 264.783927 
L 44.945753 258.275613 
L 45.289726 247.35541 
L 45.519041 245.759622 
L 45.863014 244.539313 
L 46.092329 247.94992 
L 46.436301 252.956316 
L 46.550959 252.674707 
L 46.780274 251.141498 
L 47.124247 256.773693 
L 47.238904 255.490804 
L 47.468219 245.884782 
L 47.812192 232.711701 
L 47.926849 233.243631 
L 48.156164 240.878386 
L 48.500137 253.675986 
L 48.614795 253.988886 
L 48.84411 250.766019 
L 48.958767 250.859888 
L 49.073425 253.331797 
L 49.417397 267.662605 
L 49.532055 267.725186 
L 49.76137 258.932702 
L 50.105342 244.288993 
L 50.22 242.943524 
L 50.334658 243.944803 
L 50.67863 250.766019 
L 50.793288 248.982489 
L 51.251918 233.869431 
L 51.481233 246.041232 
L 51.825205 265.441018 
L 51.939863 264.220708 
L 52.513151 251.704717 
L 52.742466 252.205357 
L 52.857123 251.047628 
L 53.315753 240.409036 
L 53.430411 241.285155 
L 53.659726 244.257703 
L 53.889041 242.255144 
L 54.003699 242.568044 
L 54.233014 249.17023 
L 54.576986 258.713672 
L 54.691644 256.742404 
L 55.035616 244.789632 
L 55.150274 245.759622 
L 55.494247 252.048908 
L 55.723562 253.206636 
L 55.952877 251.861167 
L 56.067534 250.922468 
L 56.182192 250.953758 
L 56.296849 252.267937 
L 56.640822 261.123 
L 56.755479 261.029131 
L 56.984795 250.922468 
L 57.21411 237.749388 
L 57.328767 236.310049 
L 57.558082 246.948641 
L 57.787397 260.059142 
L 57.902055 261.154291 
L 58.016712 256.711114 
L 58.475342 229.238514 
L 58.704658 243.068683 
L 59.04863 266.911647 
L 59.163288 265.753917 
L 59.736575 239.094856 
L 60.195205 253.550826 
L 60.309863 251.892458 
L 60.768493 237.154878 
L 60.997808 245.415432 
L 61.341781 258.025293 
L 61.456438 257.368203 
L 61.685753 255.553385 
L 61.800411 255.459515 
L 61.915068 255.709835 
L 62.259041 255.303065 
L 62.373699 256.554664 
L 62.717671 262.218149 
L 62.832329 260.77881 
L 63.061644 252.017617 
L 63.405616 236.403919 
L 63.520274 235.590379 
L 63.749589 239.345176 
L 64.093562 245.571882 
L 64.208219 246.103811 
L 64.322877 245.884782 
L 64.552192 243.319004 
L 64.781507 239.939686 
L 64.896164 239.282597 
L 65.010822 240.127426 
L 65.240137 247.887341 
L 65.58411 259.808821 
L 65.813425 260.77881 
L 66.04274 260.434621 
L 66.272055 262.12428 
L 66.386712 262.09299 
L 66.50137 259.621082 
L 67.074658 237.154878 
L 67.41863 241.973534 
L 67.533288 240.471615 
L 67.87726 231.679132 
L 67.991918 232.962021 
L 68.565205 255.866285 
L 68.679863 255.709835 
L 68.909178 254.896295 
L 69.253151 257.493363 
L 69.482466 259.026572 
L 69.711781 254.896295 
L 70.055753 248.951199 
L 70.170411 248.85733 
L 70.285068 249.138939 
L 70.399726 248.85733 
L 70.629041 245.478011 
L 70.973014 237.561648 
L 71.087671 238.594217 
L 71.316986 248.982489 
L 71.660959 261.40461 
L 71.775616 259.777531 
L 72.119589 246.91735 
L 72.234247 246.729611 
L 72.463562 252.643416 
L 72.692877 259.026572 
L 72.807534 259.402052 
L 73.036849 255.615965 
L 73.266164 251.078918 
L 73.380822 251.391817 
L 73.724795 261.310741 
L 73.839452 261.185581 
L 74.068767 253.144056 
L 74.41274 235.30877 
L 74.527397 233.274921 
L 74.642055 234.30749 
L 74.986027 241.942244 
L 75.100685 242.036115 
L 75.215342 242.380304 
L 75.444658 246.135102 
L 75.78863 254.458236 
L 75.903288 253.112766 
L 76.24726 243.037394 
L 76.361918 242.724494 
L 76.820548 247.63702 
L 77.049863 249.483129 
L 77.164521 249.420549 
L 77.508493 246.291552 
L 77.623151 246.604451 
L 77.852466 249.576999 
L 78.196438 256.867564 
L 78.540411 265.315858 
L 78.655068 265.722627 
L 78.769726 263.563619 
L 79.343014 242.661914 
L 79.572329 241.817084 
L 79.686986 243.006104 
L 79.916301 250.640858 
L 80.260274 265.034248 
L 80.374932 264.314578 
L 80.604247 253.331797 
L 80.948219 238.938406 
L 81.062877 239.751947 
L 81.521507 250.953758 
L 81.636164 249.420549 
L 82.209452 231.960742 
L 82.438767 241.003545 
L 82.78274 255.741125 
L 82.897397 256.022735 
L 83.126712 254.802425 
L 83.24137 255.741125 
L 83.470685 259.120442 
L 83.585342 259.089152 
L 83.814658 251.673427 
L 84.15863 241.034836 
L 84.273288 241.723215 
L 84.846575 252.142777 
L 85.305205 265.190698 
L 85.419863 264.408448 
L 85.649178 258.056583 
L 86.337123 230.959462 
L 86.451781 231.303653 
L 86.681096 238.406477 
L 86.910411 245.853492 
L 87.025068 247.261541 
L 87.369041 245.697042 
L 87.713014 250.327959 
L 87.827671 249.889899 
L 88.056986 247.19896 
L 88.171644 247.292831 
L 88.400959 253.206636 
L 88.630274 260.059142 
L 88.744932 260.622361 
L 88.859589 259.683661 
L 89.203562 254.145336 
L 89.318219 254.958875 
L 89.547534 258.463353 
L 89.662192 258.838832 
L 89.891507 254.145336 
L 90.120822 248.200239 
L 90.235479 247.51186 
L 90.464795 250.327959 
L 90.808767 254.552105 
L 90.923425 254.489525 
L 91.15274 251.297948 
L 91.61137 243.412873 
L 91.726027 243.412873 
L 91.955342 244.195122 
L 92.07 243.819643 
L 92.299315 242.317725 
L 92.413973 242.380304 
L 92.757945 247.48057 
L 92.872603 247.417991 
L 93.216575 241.598055 
L 93.331233 242.192564 
L 93.560548 249.889899 
L 93.789863 257.430783 
L 93.904521 257.900133 
L 94.133836 253.801146 
L 94.363151 250.640858 
L 94.477808 251.642137 
L 94.821781 258.056583 
L 94.936438 258.244322 
L 95.165753 255.553385 
L 95.395068 252.768577 
L 95.624384 252.299227 
L 95.739041 252.299227 
L 95.968356 252.424387 
L 96.083014 251.391817 
L 96.656301 237.311328 
L 96.770959 239.658076 
L 97.344247 265.566177 
L 97.458904 264.408448 
L 98.376164 229.989473 
L 98.605479 220.50861 
L 98.720137 220.63377 
L 98.949452 231.992032 
L 99.293425 249.639578 
L 99.52274 252.768577 
L 99.752055 255.303065 
L 100.096027 259.308182 
L 100.210685 259.276892 
L 100.44 255.396935 
L 100.669315 251.172788 
L 100.783973 250.453119 
L 100.89863 250.578278 
L 101.127945 254.645975 
L 101.471918 265.128118 
L 101.586575 265.972947 
L 101.701233 264.032969 
L 102.159863 249.232809 
L 102.274521 248.513139 
L 102.618493 251.642137 
L 102.733151 249.32668 
L 103.191781 231.929452 
L 103.306438 231.773002 
L 103.879726 241.942244 
L 104.223699 244.695763 
L 104.796986 252.361807 
L 104.911644 250.859888 
L 105.255616 242.943524 
L 105.370274 243.913513 
L 105.599589 250.578278 
L 105.943562 260.77881 
L 106.172877 263.031689 
L 106.287534 263.156849 
L 106.402192 262.15557 
L 106.860822 254.865005 
L 107.090137 253.926305 
L 107.319452 249.483129 
L 107.663425 242.286434 
L 107.778082 243.006104 
L 108.122055 248.669589 
L 108.236712 249.04507 
L 108.580685 247.66831 
L 108.81 251.704717 
L 109.039315 256.335634 
L 109.153973 256.836274 
L 109.26863 255.396935 
L 109.72726 241.379025 
L 109.841918 241.535475 
L 110.18589 245.947361 
L 110.300548 243.225133 
L 110.759178 222.917938 
L 110.873836 227.235955 
L 111.447123 269.039365 
L 111.561781 268.069376 
L 111.905753 259.840111 
L 112.020411 259.746242 
L 112.364384 261.623641 
L 112.479041 260.434621 
L 112.823014 251.360527 
L 113.166986 244.539313 
L 113.281644 245.978652 
L 113.625616 256.648533 
L 113.740274 256.711114 
L 114.198904 245.227692 
L 114.313562 246.510581 
L 114.542877 251.454398 
L 114.657534 251.423108 
L 115.460137 237.592938 
L 115.574795 237.905837 
L 115.80411 243.475453 
L 116.26274 259.621082 
L 116.377397 259.965271 
L 116.492055 258.807542 
L 116.950685 251.423108 
L 117.294658 246.009942 
L 117.63863 239.720656 
L 117.753288 239.908396 
L 118.09726 243.757064 
L 118.785205 255.772414 
L 118.899863 256.304344 
L 119.129178 259.589792 
L 119.358493 264.095548 
L 119.473151 264.408448 
L 119.702466 260.246881 
L 120.275753 239.439047 
L 120.619726 227.955625 
L 120.734384 226.516286 
L 120.849041 226.547576 
L 121.078356 230.458823 
L 122.339589 264.189419 
L 122.568904 266.504876 
L 122.683562 266.004237 
L 123.256849 257.274333 
L 123.715479 249.796028 
L 123.830137 249.608289 
L 124.059452 250.077638 
L 124.17411 249.483129 
L 124.747397 243.381583 
L 125.206027 247.292831 
L 125.435342 243.475453 
L 125.664658 239.689366 
L 125.779315 239.689366 
L 126.237945 243.569323 
L 126.811233 254.020176 
L 126.92589 253.206636 
L 127.269863 245.884782 
L 127.384521 246.228971 
L 127.843151 258.588513 
L 127.957808 258.275613 
L 128.416438 252.643416 
L 128.531096 253.206636 
L 128.645753 253.175347 
L 129.104384 246.385421 
L 129.219041 248.043791 
L 129.677671 260.93526 
L 129.792329 259.933981 
L 130.365616 244.069963 
L 130.480274 244.633182 
L 130.824247 249.483129 
L 130.938904 249.138939 
L 131.626849 241.879665 
L 131.741507 242.411594 
L 131.970822 248.043791 
L 132.314795 256.742404 
L 132.429452 257.117883 
L 132.54411 256.022735 
L 132.888082 247.98121 
L 133.232055 241.441605 
L 133.346712 241.003545 
L 133.46137 241.566765 
L 134.263973 250.640858 
L 134.607945 254.990165 
L 134.722603 255.021455 
L 134.951918 250.734728 
L 135.181233 245.102532 
L 135.29589 244.695763 
L 135.525205 250.797308 
L 135.754521 257.994003 
L 135.869178 259.057863 
L 135.983836 258.651092 
L 136.327808 253.769856 
L 136.442466 254.207915 
L 136.786438 258.525932 
L 136.901096 257.117883 
L 137.130411 247.98121 
L 137.474384 232.993311 
L 137.589041 232.023322 
L 137.818356 237.718098 
L 138.162329 249.076359 
L 138.276986 248.481849 
L 138.735616 239.094856 
L 138.964932 248.13766 
L 139.308904 262.43718 
L 139.423562 260.340752 
L 139.996849 233.556531 
L 140.226164 245.102532 
L 140.570137 262.531049 
L 140.684795 260.997841 
L 141.143425 243.162554 
L 141.258082 244.069963 
L 141.83137 261.4359 
L 142.29 250.922468 
L 142.404658 251.047628 
L 142.74863 255.772414 
L 142.863288 255.522094 
L 143.092603 248.54443 
L 143.321918 238.875827 
L 143.436575 237.686808 
L 143.66589 243.099974 
L 143.895205 248.13766 
L 144.009863 247.79347 
L 144.239178 244.508022 
L 144.353836 245.008662 
L 144.927123 256.116604 
L 145.156438 255.490804 
L 145.271096 256.460794 
L 145.615068 263.532329 
L 145.729726 262.781369 
L 146.303014 246.385421 
L 146.417671 246.479291 
L 146.532329 246.228971 
L 146.646986 245.415432 
L 147.220274 237.373908 
L 147.334932 238.375187 
L 147.678904 248.356689 
L 147.908219 252.580837 
L 148.022877 251.454398 
L 148.366849 245.697042 
L 148.481507 246.948641 
L 148.940137 257.524653 
L 149.054795 257.211753 
L 149.28411 251.955037 
L 149.628082 243.381583 
L 150.086712 237.217458 
L 150.316027 233.77556 
L 150.430685 234.18233 
L 150.66 241.660635 
L 151.003973 253.895016 
L 151.11863 254.239205 
L 151.347945 252.956316 
L 151.462603 253.269216 
L 151.691918 256.711114 
L 151.921233 258.588513 
L 152.03589 256.460794 
L 152.609178 234.5891 
L 152.723836 235.496509 
L 153.297123 251.454398 
L 153.641096 244.038673 
L 153.755753 244.257703 
L 153.985068 252.236647 
L 154.214384 259.402052 
L 154.329041 259.308182 
L 154.902329 247.449281 
L 155.131644 253.644696 
L 155.360959 260.372041 
L 155.475616 260.716231 
L 155.934247 253.832436 
L 156.048904 256.241764 
L 156.736849 281.680515 
L 156.966164 273.138352 
L 157.310137 260.747521 
L 157.424795 260.903971 
L 157.65411 262.03041 
L 157.768767 261.123 
L 158.686027 240.534195 
L 159.373973 208.680999 
L 159.832603 194.068579 
L 159.94726 194.381479 
L 160.176575 205.614581 
L 161.552466 312.970493 
L 161.667123 312.532434 
L 161.896438 302.92641 
L 162.355068 265.785207 
L 162.813699 227.361115 
L 163.043014 218.380892 
L 163.157671 217.629932 
L 163.272329 219.569911 
L 163.501644 232.085902 
L 164.074932 274.233501 
L 164.189589 274.202211 
L 164.304247 270.478704 
L 164.533562 251.767298 
L 165.106849 190.595392 
L 165.221507 188.217354 
L 165.336164 190.532812 
L 165.565479 204.394272 
L 166.48274 276.079609 
L 166.597397 274.734141 
L 166.826712 258.838832 
L 167.4 207.71101 
L 167.514658 208.211649 
L 167.743973 219.851521 
L 168.087945 254.082755 
L 168.77589 348.953967 
L 168.890548 350.142986 
L 169.005205 345.011429 
L 169.234521 318.414948 
L 169.922466 215.251894 
L 170.037123 209.901307 
L 170.151781 209.838728 
L 170.610411 232.336221 
L 170.725068 232.179771 
L 171.069041 222.448589 
L 171.183699 222.448589 
L 171.413014 229.613993 
L 171.756986 239.564206 
L 171.871644 239.783236 
L 172.215616 237.780677 
L 172.559589 239.094856 
L 172.674247 238.625506 
L 172.903562 235.46522 
L 173.132877 232.242351 
L 173.247534 232.148482 
L 173.362192 233.431371 
L 173.591507 241.910954 
L 174.050137 275.32865 
L 174.508767 305.335739 
L 174.623425 305.742508 
L 174.738082 300.110312 
L 175.426027 236.372628 
L 175.77 250.734728 
L 175.884658 249.264099 
L 176.343288 226.234676 
L 176.572603 246.166392 
L 176.916575 276.861859 
L 177.031233 275.172201 
L 177.489863 256.992724 
L 177.604521 256.523374 
L 177.719178 256.554664 
L 177.833836 255.897575 
L 178.177808 251.579558 
L 178.292466 252.205357 
L 178.636438 258.181743 
L 178.751096 256.867564 
L 178.980411 244.946082 
L 179.553699 204.926201 
L 179.668356 203.737182 
L 179.783014 205.489421 
L 181.044247 248.73217 
L 181.158904 248.60701 
L 181.388219 246.854771 
L 181.502877 248.07508 
L 181.732192 259.777531 
L 182.076164 284.434034 
L 182.190822 286.530462 
L 182.305479 284.527903 
L 182.76411 261.09171 
L 183.108082 245.822202 
L 183.22274 244.351572 
L 183.337397 246.385421 
L 183.68137 267.725186 
L 183.910685 277.550238 
L 184.025342 278.332488 
L 184.14 277.331209 
L 184.369315 272.293522 
L 184.59863 257.587233 
L 185.171918 193.31762 
L 185.286575 192.535371 
L 185.51589 206.20909 
L 186.547808 294.196507 
L 186.662466 290.097519 
L 186.891781 263.469749 
L 187.350411 201.202694 
L 187.465068 201.296564 
L 187.694384 217.442193 
L 188.840959 312.313403 
L 188.955616 310.655035 
L 189.184932 289.815909 
L 189.528904 254.051466 
L 189.758219 245.571882 
L 189.987534 241.253865 
L 190.216849 232.430092 
L 190.675479 212.154187 
L 190.790137 213.374495 
L 191.019452 227.986915 
L 191.478082 266.911647 
L 191.936712 280.272466 
L 192.05137 281.993415 
L 192.166027 280.773107 
L 192.853973 259.402052 
L 192.96863 259.558502 
L 193.083288 258.557222 
L 193.312603 250.296669 
L 194.115205 202.078813 
L 194.229863 201.014954 
L 194.344521 201.108824 
L 194.459178 202.767193 
L 194.688493 211.278067 
L 195.835068 269.727744 
L 196.179041 294.352957 
L 196.293699 296.887445 
L 196.408356 296.136485 
L 196.866986 279.771827 
L 197.096301 264.345869 
L 197.554932 224.451148 
L 197.669589 222.323428 
L 197.784247 223.324708 
L 198.013562 233.556531 
L 198.472192 270.697733 
L 198.586849 271.354824 
L 198.816164 254.927585 
L 199.848082 158.178975 
L 199.96274 162.590862 
L 200.192055 202.329133 
L 200.536027 270.885474 
L 200.650685 273.576412 
L 200.88 249.483129 
L 201.109315 225.264687 
L 201.223973 225.076947 
L 201.453288 246.354131 
L 201.79726 282.994695 
L 201.911918 285.935953 
L 202.026575 284.621774 
L 202.599863 266.285847 
L 202.943836 262.12428 
L 203.058493 262.31202 
L 203.287808 268.194536 
L 203.746438 289.87849 
L 203.861096 290.911059 
L 203.975753 288.72076 
L 204.205068 272.512552 
L 204.663699 227.861755 
L 204.778356 225.765326 
L 204.893014 229.707864 
L 205.122329 252.111487 
L 205.580959 299.015163 
L 205.924932 311.937924 
L 206.154247 315.035631 
L 206.268904 313.596292 
L 206.498219 304.522199 
L 206.842192 280.366337 
L 207.415479 236.841978 
L 207.759452 225.765326 
L 207.87411 225.921776 
L 207.988767 227.767884 
L 208.33274 241.222575 
L 209.135342 274.82801 
L 209.25 274.233501 
L 209.479315 269.727744 
L 209.70863 258.432063 
L 209.937945 230.771722 
L 210.396575 170.131746 
L 210.511233 169.036597 
L 210.740548 181.896778 
L 211.199178 209.025188 
L 211.543151 226.422416 
L 211.887123 244.476732 
L 212.116438 247.417991 
L 212.345753 250.922468 
L 212.575068 255.209194 
L 212.689726 254.802425 
L 212.919041 246.510581 
L 213.377671 223.136968 
L 213.492329 222.229559 
L 213.606986 224.451148 
L 213.950959 245.540592 
L 214.180274 256.429504 
L 214.294932 257.274333 
L 214.868219 250.140219 
L 215.097534 249.952478 
L 215.212192 249.983769 
L 215.785479 249.201519 
L 215.900137 250.421828 
L 216.129452 257.962713 
L 216.588082 278.019588 
L 216.70274 277.518948 
L 217.16137 262.15557 
L 217.276027 262.40589 
L 217.505342 266.254557 
L 217.62 266.066817 
L 217.734658 262.75008 
L 218.422603 228.737875 
L 218.651918 230.646562 
L 218.99589 237.499067 
L 219.569178 260.872681 
L 219.683836 258.119163 
L 220.257123 216.002854 
L 220.371781 217.035422 
L 221.518356 267.850346 
L 221.862329 287.281421 
L 221.976986 289.03366 
L 222.091644 288.40786 
L 222.320959 280.335047 
L 222.664932 253.488246 
L 223.008904 230.145923 
L 223.123562 228.675294 
L 223.352877 233.18105 
L 223.811507 243.913513 
L 224.155479 277.331209 
L 224.384795 292.600718 
L 224.499452 290.253969 
L 225.187397 239.282597 
L 225.416712 240.690645 
L 225.53137 238.969697 
L 225.99 225.734037 
L 226.104658 227.799175 
L 226.333973 239.157437 
L 226.90726 276.110899 
L 227.021918 275.015751 
L 227.251233 260.497201 
L 227.824521 216.002854 
L 227.939178 214.876414 
L 228.053836 215.971564 
L 229.085753 237.655517 
L 229.315068 243.475453 
L 230.117671 268.726465 
L 230.232329 267.443576 
L 230.461644 257.837553 
L 230.805616 241.973534 
L 230.920274 240.628065 
L 231.034932 242.098694 
L 231.608219 259.089152 
L 231.952192 262.90653 
L 232.181507 272.856742 
L 232.754795 300.767402 
L 232.869452 300.892562 
L 232.98411 298.107753 
L 233.213425 283.401464 
L 233.557397 235.840699 
L 233.90137 193.19246 
L 234.016027 188.937023 
L 234.130685 189.437662 
L 234.36 201.108824 
L 234.703973 233.024601 
L 235.162603 284.340164 
L 235.27726 286.655622 
L 235.391918 282.525345 
L 235.73589 247.324121 
L 236.079863 221.25957 
L 236.309178 218.443472 
L 236.423836 219.6012 
L 236.653151 226.328545 
L 237.455753 264.596188 
L 237.570411 264.189419 
L 238.029041 253.988886 
L 238.373014 256.867564 
L 238.487671 254.708555 
L 238.946301 238.781956 
L 239.060959 243.193843 
L 239.634247 291.474279 
L 239.748904 289.34656 
L 240.322192 254.239205 
L 240.666164 256.429504 
L 240.780822 255.115325 
L 241.35411 241.598055 
L 241.583425 244.946082 
L 241.81274 248.826039 
L 241.927397 248.669589 
L 242.156712 243.319004 
L 242.500685 235.340059 
L 242.615342 236.654238 
L 242.959315 244.038673 
L 243.417945 247.324121 
L 243.64726 258.432063 
L 244.220548 296.230355 
L 244.335205 291.974918 
L 245.137808 226.046936 
L 245.367123 216.347043 
L 245.825753 189.093473 
L 245.940411 190.564101 
L 246.169726 207.05392 
L 246.628356 242.129984 
L 246.743014 244.601893 
L 246.857671 244.633182 
L 247.086986 243.819643 
L 247.201644 244.758343 
L 247.660274 250.985048 
L 247.889589 247.762181 
L 248.577534 233.3375 
L 248.692192 234.74555 
L 248.921507 245.071242 
L 249.380137 268.601305 
L 249.494795 268.757755 
L 249.838767 262.24944 
L 249.953425 263.407169 
L 250.412055 280.929557 
L 250.526712 280.679236 
L 251.1 265.597468 
L 251.214658 265.660047 
L 251.443973 269.227104 
L 252.01726 283.902104 
L 252.131918 283.870814 
L 252.361233 278.144748 
L 253.278493 245.697042 
L 253.851781 239.595497 
L 253.966438 239.689366 
L 254.195753 243.882223 
L 254.654384 257.180464 
L 254.769041 257.305624 
L 254.998356 250.891178 
L 255.342329 226.923055 
L 255.686301 202.610743 
L 255.915616 197.166287 
L 256.030274 197.479187 
L 256.488904 203.705893 
L 256.603562 204.081372 
L 256.718219 205.082651 
L 256.947534 214.000295 
L 257.635479 256.867564 
L 257.864795 260.278171 
L 258.208767 262.687499 
L 258.323425 262.781369 
L 258.438082 262.34331 
L 258.782055 257.117883 
L 259.01137 254.552105 
L 259.240685 253.550826 
L 259.47 252.799866 
L 259.584658 252.205357 
L 259.699315 252.612127 
L 259.92863 258.525932 
L 260.38726 278.269908 
L 260.501918 279.959567 
L 260.616575 279.865697 
L 261.075205 274.358661 
L 261.419178 277.080888 
L 261.533836 276.32993 
L 261.763151 268.382275 
L 262.107123 254.958875 
L 262.221781 253.801146 
L 262.451096 254.176626 
L 262.565753 253.582116 
L 262.909726 250.766019 
L 263.024384 251.642137 
L 263.253699 258.119163 
L 263.483014 264.502318 
L 263.597671 264.345869 
L 263.826986 256.304344 
L 264.400274 227.298536 
L 264.514932 225.139527 
L 264.629589 225.233397 
L 264.858904 231.115912 
L 265.432192 253.363086 
L 265.661507 256.085314 
L 265.776164 256.241764 
L 265.890822 255.584675 
L 266.120137 249.608289 
L 266.578767 232.117192 
L 266.92274 227.736595 
L 267.037397 227.110795 
L 267.152055 227.454985 
L 267.38137 231.616552 
L 267.954658 246.729611 
L 268.069315 246.479291 
L 268.29863 244.101253 
L 268.413288 243.944803 
L 268.527945 244.946082 
L 268.75726 250.859888 
L 269.330548 269.039365 
L 269.445205 268.476146 
L 269.789178 263.438459 
L 269.903836 263.532329 
L 270.133151 266.098107 
L 270.247808 265.691337 
L 270.477123 257.086593 
L 270.821096 243.131264 
L 270.935753 242.661914 
L 271.165068 243.319004 
L 271.279726 241.879665 
L 271.738356 227.267245 
L 271.853014 228.612714 
L 272.426301 254.771135 
L 272.540959 252.893737 
L 273.114247 229.801733 
L 273.228904 230.552693 
L 273.687534 241.691925 
L 273.802192 241.691925 
L 274.146164 239.313887 
L 274.260822 240.002266 
L 274.83411 251.923747 
L 274.948767 251.704717 
L 275.178082 250.985048 
L 275.29274 251.235368 
L 275.636712 253.175347 
L 275.866027 256.742404 
L 276.324658 267.819055 
L 276.439315 267.756476 
L 276.897945 264.126838 
L 277.12726 265.722627 
L 277.241918 265.378437 
L 277.471233 258.150453 
L 277.929863 238.594217 
L 278.388493 231.647842 
L 278.503151 232.304932 
L 278.732466 239.689366 
L 279.191096 260.278171 
L 279.535068 267.474866 
L 279.764384 269.978064 
L 279.879041 269.946774 
L 280.108356 266.630037 
L 280.337671 263.000399 
L 280.452329 262.90653 
L 280.796301 265.284568 
L 280.910959 264.846508 
L 281.140274 260.872681 
L 281.598904 251.736008 
L 281.942877 247.54315 
L 282.172192 241.191285 
L 282.630822 226.359836 
L 282.745479 226.015646 
L 282.974795 228.362394 
L 283.433425 235.684249 
L 283.777397 241.285155 
L 283.892055 240.721936 
L 284.12137 234.5891 
L 284.58 218.161862 
L 284.694658 218.067992 
L 284.809315 220.38345 
L 285.153288 238.813247 
L 285.611918 261.84267 
L 285.841233 265.441018 
L 286.185205 267.036807 
L 286.299863 266.942936 
L 286.414521 266.160687 
L 286.643836 261.4359 
L 287.331781 241.973534 
L 287.446438 242.849654 
L 287.675753 249.545709 
L 288.134384 264.877798 
L 288.249041 265.159408 
L 288.478356 263.845229 
L 288.593014 263.907809 
L 289.051644 269.790324 
L 289.166301 268.882915 
L 289.395616 262.75008 
L 289.739589 254.301786 
L 290.312877 246.760901 
L 290.656849 245.165112 
L 290.771507 244.946082 
L 291.000822 242.724494 
L 291.459452 235.746829 
L 291.688767 234.80813 
L 291.803425 234.80813 
L 292.03274 235.778119 
L 292.262055 237.905837 
L 292.606027 241.441605 
L 292.720685 241.003545 
L 292.95 236.841978 
L 293.293973 229.551414 
L 293.40863 230.239793 
L 293.981918 241.472894 
L 294.096575 241.285155 
L 294.211233 241.316445 
L 294.32589 242.380304 
L 294.669863 251.892458 
L 295.013836 259.808821 
L 295.587123 268.257115 
L 295.701781 267.912926 
L 295.931096 262.531049 
L 296.275068 251.297948 
L 296.389726 249.952478 
L 296.504384 251.110208 
L 297.077671 266.223266 
L 297.192329 266.066817 
L 297.421644 265.253277 
L 297.536301 265.628758 
L 297.765616 269.070655 
L 298.109589 273.920602 
L 298.224247 273.607702 
L 298.453562 269.696454 
L 298.797534 256.429504 
L 299.141507 244.633182 
L 299.829452 230.177213 
L 299.94411 229.801733 
L 300.058767 231.460103 
L 300.517397 243.068683 
L 300.632055 242.536754 
L 301.090685 236.184888 
L 301.205342 236.091019 
L 301.32 236.341338 
L 301.434658 236.153599 
L 301.549315 235.559089 
L 301.893288 232.774281 
L 302.007945 233.212341 
L 302.23726 236.059728 
L 303.154521 248.513139 
L 303.269178 248.200239 
L 303.727808 243.600614 
L 303.842466 243.757064 
L 304.071781 247.574441 
L 304.759726 263.094269 
L 304.989041 264.971668 
L 305.103699 264.721348 
L 305.333014 261.99912 
L 306.250274 247.85605 
L 306.364932 248.73217 
L 306.938219 259.965271 
L 307.396849 256.742404 
L 307.740822 258.306903 
L 307.970137 254.583395 
L 308.428767 241.817084 
L 308.543425 241.942244 
L 308.77274 247.167671 
L 309.23137 261.21687 
L 309.346027 262.12428 
L 309.460685 261.68622 
L 309.919315 256.460794 
L 310.033973 256.523374 
L 310.263288 258.306903 
L 310.377945 258.338193 
L 310.492603 257.117883 
L 310.836575 246.448002 
L 311.06589 239.939686 
L 311.180548 238.781956 
L 311.295205 239.282597 
L 311.753836 244.539313 
L 311.983151 242.505464 
L 312.212466 239.407756 
L 312.327123 238.781956 
L 312.556438 241.410315 
L 312.785753 244.601893 
L 312.900411 244.789632 
L 313.015068 244.476732 
L 313.359041 242.411594 
L 313.473699 242.693204 
L 314.161644 248.919909 
L 314.276301 248.919909 
L 314.620274 246.322842 
L 314.849589 243.162554 
L 315.308219 233.80685 
L 315.537534 232.711701 
L 315.766849 233.93201 
L 316.110822 238.844537 
L 316.68411 250.515698 
L 317.028082 251.266658 
L 317.257397 255.553385 
L 317.60137 263.188139 
L 317.716027 263.407169 
L 317.945342 260.059142 
L 318.174658 257.024014 
L 318.289315 257.024014 
L 318.51863 259.652371 
L 318.747945 262.687499 
L 318.97726 263.375879 
L 319.091918 263.125559 
L 319.206575 263.188139 
L 319.43589 264.314578 
L 319.665205 265.159408 
L 319.779863 265.315858 
L 320.009178 264.314578 
L 320.353151 260.121721 
L 321.041096 245.165112 
L 321.155753 245.603172 
L 321.614384 251.141498 
L 321.729041 251.454398 
L 321.958356 251.266658 
L 322.187671 253.237926 
L 322.646301 259.433342 
L 322.875616 259.777531 
L 323.219589 256.930143 
L 323.563562 250.421828 
L 324.136849 235.997149 
L 324.251507 236.310049 
L 324.595479 238.625506 
L 324.824795 236.497788 
L 325.05411 233.99459 
L 325.168767 233.77556 
L 325.283425 233.9633 
L 325.398082 233.49395 
L 325.627397 230.083343 
L 325.97137 224.294698 
L 326.086027 225.327266 
L 326.315342 232.179771 
L 326.773973 245.165112 
L 327.003288 246.354131 
L 327.232603 244.664472 
L 327.576575 241.128705 
L 327.691233 240.534195 
L 327.80589 240.690645 
L 327.920548 241.285155 
L 328.493836 247.730891 
L 328.608493 247.91863 
L 328.837808 247.23025 
L 328.952466 247.417991 
L 329.067123 248.3254 
L 329.296438 254.990165 
L 329.755068 272.762872 
L 329.984384 275.76671 
L 330.099041 275.54768 
L 330.328356 273.607702 
L 330.557671 270.541283 
L 331.130959 256.773693 
L 331.245616 257.274333 
L 331.589589 261.21687 
L 331.704247 260.903971 
L 331.933562 257.024014 
L 332.277534 251.923747 
L 332.506849 250.390538 
L 332.736164 246.041232 
L 333.194795 233.587821 
L 333.309452 232.962021 
L 333.42411 233.462661 
L 333.768082 240.158716 
L 334.226712 254.958875 
L 334.685342 270.603864 
L 334.8 271.573853 
L 334.914658 270.854183 
L 335.143973 265.941657 
L 335.831918 246.729611 
L 335.946575 245.947361 
L 336.061233 246.291552 
L 336.290548 249.576999 
L 336.749178 256.554664 
L 336.863836 256.116604 
L 337.093151 252.017617 
L 337.666438 232.148482 
L 338.125068 218.787661 
L 338.239726 218.412182 
L 338.354384 219.78894 
L 338.583699 226.672736 
L 339.156986 247.6996 
L 339.271644 247.85605 
L 339.500959 244.163833 
L 340.074247 233.400081 
L 340.188904 232.367511 
L 340.303562 232.367511 
L 340.418219 233.274921 
L 340.647534 238.781956 
L 341.106164 257.399493 
L 341.564795 270.697733 
L 341.679452 271.824173 
L 341.79411 271.667723 
L 342.023425 269.289685 
L 342.367397 263.407169 
L 342.71137 253.769856 
L 343.055342 246.416711 
L 343.17 247.042511 
L 343.857945 256.648533 
L 343.972603 255.647254 
L 344.201918 250.296669 
L 344.660548 239.689366 
L 345.004521 237.811967 
L 345.119178 237.780677 
L 345.233836 238.187447 
L 345.577808 241.441605 
L 345.807123 243.225133 
L 345.921781 243.256424 
L 346.380411 241.222575 
L 346.495068 241.942244 
L 347.068356 249.702159 
L 347.297671 249.858609 
L 347.412329 250.859888 
L 347.641644 255.866285 
L 347.985616 264.596188 
L 348.100274 265.221987 
L 348.214932 264.032969 
L 349.017534 248.23153 
L 349.132192 247.48057 
L 349.246849 248.23153 
L 349.476164 253.926305 
L 349.820137 266.567457 
L 349.934795 267.474866 
L 350.049452 266.473587 
L 350.62274 251.986327 
L 350.737397 252.111487 
L 351.08137 254.301786 
L 351.196027 253.331797 
L 351.769315 244.476732 
L 351.99863 247.324121 
L 352.45726 255.365644 
L 353.030548 258.306903 
L 353.145205 258.338193 
L 353.374521 255.897575 
L 354.177123 241.347735 
L 354.291781 240.721936 
L 354.406438 240.847095 
L 354.635753 241.754505 
L 354.979726 244.351572 
L 355.323699 248.481849 
L 355.667671 252.705997 
L 355.782329 252.299227 
L 356.355616 246.103811 
L 356.699589 245.352852 
L 357.387534 241.003545 
L 357.502192 241.379025 
L 357.846164 244.132543 
L 358.075479 245.039953 
L 358.419452 248.23153 
L 358.878082 253.081476 
L 358.99274 252.393097 
L 359.795342 242.255144 
L 360.024658 243.569323 
L 360.483288 249.138939 
L 360.712603 251.172788 
L 360.82726 250.703438 
L 361.515205 243.444164 
L 361.859178 242.661914 
L 362.317808 239.658076 
L 362.432466 240.033556 
L 362.661781 242.974814 
L 363.120411 250.484408 
L 363.349726 251.391817 
L 363.693699 251.172788 
L 363.808356 251.204077 
L 364.037671 252.267937 
L 364.381644 255.146615 
L 364.610959 255.553385 
L 364.725616 254.990165 
L 365.184247 251.141498 
L 365.413562 250.734728 
L 365.757534 250.891178 
L 366.101507 252.831157 
L 366.560137 256.836274 
L 367.133425 258.338193 
L 367.248082 258.807542 
L 367.36274 258.557222 
L 367.592055 257.086593 
L 367.82137 255.866285 
L 367.936027 255.866285 
L 368.509315 260.93526 
L 368.623973 260.246881 
L 369.082603 255.772414 
L 369.311918 254.145336 
L 369.65589 251.204077 
L 369.770548 250.985048 
L 369.885205 251.266658 
L 370.229178 252.925026 
L 370.458493 253.300506 
L 370.573151 253.081476 
L 370.802466 251.235368 
L 371.261096 246.072521 
L 371.605068 244.288993 
L 371.719726 243.819643 
L 371.949041 241.379025 
L 372.293014 235.46522 
L 372.407671 235.214899 
L 372.636986 237.592938 
L 372.980959 241.660635 
L 373.210274 242.630624 
L 373.324932 243.006104 
L 373.554247 245.540592 
L 373.898219 249.295389 
L 374.012877 248.73217 
L 374.356849 244.789632 
L 374.471507 244.695763 
L 374.700822 247.762181 
L 375.044795 253.957596 
L 375.159452 254.677265 
L 375.27411 254.395655 
L 375.847397 250.515698 
L 376.076712 249.889899 
L 376.306027 248.26282 
L 376.764658 241.316445 
L 376.993973 238.469057 
L 377.10863 237.811967 
L 377.223288 237.968417 
L 377.337945 239.032277 
L 377.681918 247.19896 
L 377.911233 252.111487 
L 378.02589 252.737287 
L 378.140548 252.361807 
L 378.484521 249.858609 
L 378.599178 250.359248 
L 379.172466 258.651092 
L 379.287123 258.432063 
L 379.631096 256.742404 
L 380.089726 256.711114 
L 380.319041 255.615965 
L 380.548356 253.050187 
L 380.892329 249.076359 
L 381.006986 248.76346 
L 381.121644 248.826039 
L 381.236301 249.295389 
L 381.809589 255.866285 
L 382.153562 260.278171 
L 382.268219 260.653651 
L 382.382877 260.278171 
L 382.612192 257.524653 
L 383.873425 239.564206 
L 384.10274 242.223854 
L 384.446712 246.698321 
L 384.676027 247.85605 
L 384.905342 250.703438 
L 385.363973 259.464632 
L 385.47863 259.683661 
L 385.593288 258.682382 
L 386.281233 246.448002 
L 386.625205 244.414153 
L 386.739863 244.351572 
L 386.969178 247.19896 
L 387.427808 257.336914 
L 387.657123 258.400772 
L 387.886438 256.179184 
L 389.147671 237.561648 
L 389.376986 237.123588 
L 389.491644 237.154878 
L 389.606301 237.311328 
L 389.835616 238.375187 
L 390.982192 249.389259 
L 391.326164 254.739845 
L 391.440822 255.365644 
L 391.555479 255.365644 
L 391.784795 254.020176 
L 392.243425 251.047628 
L 392.587397 247.85605 
L 392.93137 244.226413 
L 393.046027 244.508022 
L 393.619315 252.299227 
L 393.733973 251.736008 
L 394.536575 243.725773 
L 394.76589 242.661914 
L 394.995205 243.131264 
L 395.797808 249.232809 
L 396.371096 256.273054 
L 396.485753 256.241764 
L 396.715068 254.552105 
L 397.403014 245.790911 
L 397.632329 245.321562 
L 397.861644 245.384142 
L 398.090959 246.322842 
L 398.434932 247.98121 
L 398.549589 248.0125 
L 398.893562 247.136381 
L 399.008219 247.167671 
L 399.237534 248.982489 
L 399.581507 254.802425 
L 399.810822 258.588513 
L 399.925479 259.120442 
L 400.040137 258.588513 
L 400.269452 255.052745 
L 400.728082 248.23153 
L 400.84274 247.91863 
L 401.072055 249.264099 
L 401.76 257.524653 
L 401.874658 257.931422 
L 401.989315 257.618524 
L 402.562603 253.957596 
L 402.67726 254.114046 
L 402.906575 254.645975 
L 403.13589 253.769856 
L 403.594521 248.669589 
L 404.282466 241.472894 
L 404.397123 241.723215 
L 405.085068 247.6996 
L 405.314384 247.261541 
L 405.543699 248.76346 
L 405.773014 250.202798 
L 405.887671 250.234088 
L 406.002329 249.545709 
L 406.346301 245.853492 
L 406.575616 245.133822 
L 406.804932 245.728332 
L 407.034247 246.228971 
L 407.148904 246.228971 
L 407.607534 243.882223 
L 407.836849 244.852213 
L 408.75411 254.771135 
L 408.868767 254.802425 
L 409.098082 253.519536 
L 409.327397 252.236647 
L 409.442055 252.393097 
L 409.900685 255.334355 
L 410.13 252.705997 
L 410.473973 248.41927 
L 410.703288 249.389259 
L 410.932603 250.828598 
L 411.161918 249.733449 
L 411.391233 248.23153 
L 411.50589 248.45056 
L 411.735205 251.047628 
L 412.079178 255.834994 
L 412.308493 256.241764 
L 412.537808 255.897575 
L 412.767123 255.303065 
L 412.881781 255.240485 
L 413.111096 254.364365 
L 413.455068 250.296669 
L 414.257671 239.063566 
L 414.372329 238.656797 
L 414.486986 239.032277 
L 414.830959 244.382863 
L 415.060274 247.042511 
L 415.174932 247.417991 
L 415.404247 247.167671 
L 415.518904 247.91863 
L 415.977534 255.334355 
L 416.092192 255.115325 
L 416.321507 249.514419 
L 416.665479 240.440326 
L 416.780137 240.471615 
L 417.009452 245.947361 
L 417.353425 253.519536 
L 417.468082 254.176626 
L 417.697397 253.988886 
L 417.926712 254.489525 
L 418.04137 254.708555 
L 418.156027 254.520815 
L 418.385342 252.518257 
L 418.729315 248.982489 
L 418.95863 248.356689 
L 419.187945 245.947361 
L 419.646575 238.312608 
L 419.761233 239.251306 
L 419.990548 244.633182 
L 420.334521 253.112766 
L 420.563836 254.865005 
L 420.793151 254.520815 
L 421.481096 252.236647 
L 421.825068 252.799866 
L 421.939726 252.612127 
L 422.169041 251.423108 
L 422.283699 250.953758 
L 422.398356 250.985048 
L 422.513014 251.423108 
L 422.971644 255.271775 
L 423.086301 255.084035 
L 423.315616 252.580837 
L 424.003562 243.006104 
L 424.347534 240.221295 
L 424.576849 238.406477 
L 424.691507 238.469057 
L 424.920822 241.504185 
L 425.379452 248.23153 
L 425.608767 249.514419 
L 426.067397 255.021455 
L 426.182055 254.708555 
L 426.41137 250.985048 
L 426.755342 245.321562 
L 426.87 245.509302 
L 427.443288 253.394376 
L 427.557945 253.081476 
L 427.901918 250.296669 
L 428.016575 250.703438 
L 428.360548 253.895016 
L 428.475205 253.112766 
L 428.704521 248.54443 
L 429.048493 242.349014 
L 429.163151 242.880944 
L 429.851096 250.421828 
L 430.539041 259.026572 
L 430.653699 258.776252 
L 430.997671 254.176626 
L 431.226986 251.078918 
L 431.341644 250.640858 
L 431.685616 253.300506 
L 431.914932 254.176626 
L 432.029589 253.707276 
L 432.717534 247.35541 
L 432.832192 247.3867 
L 432.946849 247.261541 
L 433.176164 247.261541 
L 433.749452 245.790911 
L 433.978767 247.35541 
L 434.78137 257.274333 
L 434.896027 256.961433 
L 435.125342 251.141498 
L 435.469315 239.501626 
L 435.583973 238.343897 
L 435.69863 239.564206 
L 436.271918 251.516977 
L 436.61589 249.01378 
L 436.730548 249.639578 
L 436.959863 254.207915 
L 437.303836 260.059142 
L 437.418493 259.996561 
L 437.877123 255.553385 
L 438.221096 250.766019 
L 438.679726 243.350293 
L 438.794384 242.880944 
L 438.909041 243.506743 
L 439.138356 247.23025 
L 439.367671 251.016338 
L 439.482329 251.485687 
L 439.596986 250.766019 
L 440.055616 243.882223 
L 440.170274 244.038673 
L 440.399589 248.23153 
L 440.628904 252.737287 
L 440.743562 253.300506 
L 440.858219 252.799866 
L 441.202192 248.23153 
L 441.316849 248.26282 
L 441.660822 250.985048 
L 441.775479 250.578278 
L 442.348767 244.038673 
L 442.578082 245.947361 
L 442.807397 248.23153 
L 442.922055 248.38798 
L 443.15137 247.605731 
L 443.266027 247.82476 
L 443.495342 250.296669 
L 443.839315 254.301786 
L 443.953973 254.333076 
L 444.297945 252.612127 
L 444.412603 252.925026 
L 444.756575 255.490804 
L 444.871233 254.927585 
L 445.100548 250.327959 
L 445.559178 237.248748 
L 445.673836 237.248748 
L 445.903151 243.506743 
L 446.361781 257.743683 
L 446.476438 257.399493 
L 446.705753 253.738566 
L 447.049726 247.98121 
L 447.164384 247.136381 
L 447.279041 247.35541 
L 447.623014 249.076359 
L 447.737671 248.76346 
L 448.196301 244.445443 
L 448.310959 244.695763 
L 448.998904 251.204077 
L 449.113562 250.797308 
L 449.228219 251.047628 
L 449.457534 253.769856 
L 449.801507 258.995282 
L 450.030822 260.121721 
L 450.145479 259.965271 
L 450.260137 259.214312 
L 450.489452 254.833715 
L 451.06274 240.002266 
L 451.292055 239.063566 
L 451.52137 239.939686 
L 451.865342 241.410315 
L 452.094658 241.504185 
L 452.209315 241.472894 
L 452.323973 241.785794 
L 452.553288 243.913513 
L 452.89726 247.0738 
L 453.011918 247.105091 
L 453.35589 246.604451 
L 453.470548 246.948641 
L 454.158493 251.548267 
L 454.387808 251.861167 
L 454.502466 252.267937 
L 454.961096 256.617244 
L 455.075753 256.116604 
L 455.534384 249.858609 
L 455.649041 249.983769 
L 456.107671 255.115325 
L 456.222329 254.458236 
L 456.451644 249.576999 
L 456.795616 241.879665 
L 456.910274 241.191285 
L 457.024932 241.535475 
L 457.483562 244.320283 
L 457.598219 244.195122 
L 457.827534 243.037394 
L 458.171507 240.940965 
L 458.286164 240.940965 
L 458.515479 243.381583 
L 458.97411 249.514419 
L 459.547397 253.050187 
L 459.89137 256.210474 
L 460.006027 256.147894 
L 460.235342 254.458236 
L 460.464658 252.956316 
L 460.579315 252.956316 
L 460.80863 255.459515 
L 461.26726 262.0617 
L 461.381918 262.46847 
L 461.496575 261.90525 
L 461.72589 258.619803 
L 462.643151 239.720656 
L 462.757808 239.595497 
L 462.987123 241.754505 
L 463.216438 244.069963 
L 463.331096 243.913513 
L 463.789726 240.502905 
L 463.904384 241.347735 
L 464.592329 251.235368 
L 464.821644 251.767298 
L 465.394932 252.831157 
L 465.509589 252.768577 
L 465.624247 252.424387 
L 465.853562 252.956316 
L 466.312192 255.553385 
L 466.426849 255.271775 
L 467.114795 250.985048 
L 467.34411 252.580837 
L 467.688082 255.490804 
L 467.80274 255.772414 
L 468.032055 254.614686 
L 468.376027 251.829877 
L 468.834658 246.729611 
L 468.949315 246.792191 
L 469.17863 249.076359 
L 469.407945 251.642137 
L 469.522603 251.892458 
L 469.63726 251.485687 
L 470.669178 244.633182 
L 470.783836 244.789632 
L 470.898493 245.165112 
L 471.127808 246.448002 
L 471.357123 246.667031 
L 471.930411 246.228971 
L 472.159726 245.790911 
L 472.274384 245.916071 
L 472.503699 247.54315 
L 472.962329 250.891178 
L 473.306301 250.171509 
L 473.535616 248.45056 
L 473.994247 243.225133 
L 474.108904 243.131264 
L 474.338219 245.978652 
L 474.682192 252.393097 
L 474.796849 252.956316 
L 475.026164 250.265378 
L 475.370137 245.603172 
L 475.484795 245.196402 
L 475.599452 245.446722 
L 475.828767 246.698321 
L 476.058082 249.107649 
L 476.516712 255.709835 
L 476.63137 256.147894 
L 476.746027 255.897575 
L 477.09 253.081476 
L 477.319315 251.673427 
L 477.54863 251.329238 
L 477.777945 252.361807 
L 478.236575 256.523374 
L 478.351233 256.022735 
L 478.924521 251.141498 
L 479.268493 252.518257 
L 479.383151 252.612127 
L 479.727123 251.579558 
L 480.644384 246.948641 
L 481.103014 245.102532 
L 481.217671 245.290272 
L 481.446986 246.573161 
L 481.561644 246.667031 
L 481.790959 245.478011 
L 482.020274 244.601893 
L 482.134932 245.039953 
L 482.822877 249.796028 
L 483.052192 250.609569 
L 483.396164 252.174067 
L 483.625479 252.361807 
L 483.740137 252.080197 
L 483.854795 252.142777 
L 483.969452 252.549547 
L 484.54274 257.336914 
L 484.657397 257.180464 
L 484.772055 256.304344 
L 485.46 246.541871 
L 485.574658 246.291552 
L 485.803973 247.23025 
L 486.033288 248.23153 
L 486.147945 248.0125 
L 486.262603 247.51186 
L 486.606575 244.852213 
L 486.721233 245.071242 
L 487.409178 251.986327 
L 487.638493 251.047628 
L 488.097123 246.979931 
L 488.441096 244.633182 
L 488.785068 244.163833 
L 488.899726 244.257703 
L 489.014384 244.163833 
L 489.243699 244.727053 
L 490.160959 250.359248 
L 490.390274 252.361807 
L 490.504932 252.674707 
L 491.078219 250.766019 
L 491.192877 251.047628 
L 491.307534 251.016338 
L 491.536849 250.015059 
L 491.995479 246.009942 
L 492.224795 245.446722 
L 492.339452 245.540592 
L 492.683425 246.91735 
L 492.798082 246.886061 
L 493.37137 243.162554 
L 493.600685 244.288993 
L 494.403288 251.360527 
L 494.517945 251.266658 
L 495.091233 248.07508 
L 495.320548 250.265378 
L 495.779178 256.085314 
L 495.893836 256.585954 
L 496.237808 256.116604 
L 496.352466 255.709835 
L 496.467123 255.741125 
L 496.696438 254.645975 
L 497.384384 248.481849 
L 497.499041 248.45056 
L 498.072329 250.140219 
L 498.301644 251.892458 
L 498.645616 255.271775 
L 498.874932 255.647254 
L 499.906849 250.484408 
L 500.021507 250.327959 
L 500.480137 250.672148 
L 500.938767 248.919909 
L 501.053425 249.451839 
L 501.626712 254.614686 
L 501.74137 254.145336 
L 502.314658 249.201519 
L 502.543973 248.951199 
L 502.65863 248.88862 
L 502.887945 249.01378 
L 503.11726 249.04507 
L 503.57589 249.389259 
L 503.805205 249.576999 
L 504.034521 249.17023 
L 504.263836 247.35541 
L 504.607808 244.695763 
L 504.722466 244.727053 
L 505.181096 246.197681 
L 505.410411 246.166392 
L 505.525068 246.291552 
L 505.754384 247.19896 
L 506.098356 249.264099 
L 506.327671 249.952478 
L 506.671644 250.171509 
L 506.900959 248.60701 
L 507.244932 245.196402 
L 507.474247 244.789632 
L 507.703562 244.977372 
L 508.047534 244.664472 
L 508.162192 245.258982 
L 508.620822 249.608289 
L 508.735479 249.32668 
L 509.308767 244.382863 
L 509.538082 245.321562 
L 510.226027 248.57572 
L 510.799315 252.549547 
L 510.913973 252.299227 
L 511.601918 248.73217 
L 511.94589 248.41927 
L 512.289863 249.764739 
L 513.092466 254.114046 
L 513.321781 254.458236 
L 513.780411 254.802425 
L 514.239041 254.114046 
L 514.353699 254.082755 
L 514.583014 253.675986 
L 514.812329 252.330517 
L 515.270959 246.948641 
L 515.500274 245.102532 
L 515.614932 244.664472 
L 515.729589 244.789632 
L 515.958904 246.541871 
L 516.417534 251.423108 
L 516.761507 253.018897 
L 516.876164 253.206636 
L 516.990822 253.081476 
L 517.220137 251.172788 
L 517.793425 244.508022 
L 518.02274 244.195122 
L 518.252055 244.476732 
L 518.48137 245.665752 
L 518.825342 248.513139 
L 518.94 248.73217 
L 519.054658 248.638299 
L 519.283973 248.26282 
L 519.39863 248.45056 
L 519.627945 249.702159 
L 519.85726 250.421828 
L 519.971918 250.140219 
L 520.31589 247.79347 
L 520.659863 246.416711 
L 521.118493 245.697042 
L 521.233151 246.009942 
L 521.577123 248.57572 
L 522.150411 254.207915 
L 522.379726 254.958875 
L 522.838356 253.957596 
L 523.067671 254.145336 
L 523.182329 253.926305 
L 523.296986 253.425666 
L 524.099589 246.385421 
L 524.328904 246.322842 
L 524.558219 246.604451 
L 525.475479 248.70088 
L 525.704795 248.38798 
L 526.163425 247.887341 
L 526.507397 247.042511 
L 526.85137 247.574441 
L 527.080685 248.70088 
L 527.424658 250.578278 
L 527.653973 250.891178 
L 527.883288 250.640858 
L 528.22726 249.796028 
L 528.341918 249.764739 
L 528.456575 250.108928 
L 528.915205 253.456956 
L 529.029863 253.456956 
L 529.144521 252.893737 
L 529.717808 247.63702 
L 529.832466 247.91863 
L 530.176438 251.579558 
L 530.520411 254.708555 
L 530.635068 254.708555 
L 530.864384 253.269216 
L 531.208356 251.078918 
L 531.323014 250.797308 
L 531.437671 250.828598 
L 531.896301 250.390538 
L 532.469589 251.548267 
L 532.813562 249.576999 
L 533.042877 248.13766 
L 533.157534 247.91863 
L 533.386849 248.73217 
L 533.730822 250.484408 
L 533.845479 250.390538 
L 534.074795 249.545709 
L 534.30411 248.982489 
L 534.648082 248.826039 
L 534.992055 247.19896 
L 535.22137 245.853492 
L 535.336027 245.509302 
L 535.565342 246.541871 
L 536.023973 249.858609 
L 536.482603 251.767298 
L 536.711918 252.455677 
L 536.941233 252.142777 
L 537.285205 249.295389 
L 537.629178 245.697042 
L 537.743836 245.227692 
L 537.858493 245.227692 
L 538.202466 247.105091 
L 538.661096 249.608289 
L 539.349041 252.455677 
L 539.578356 251.892458 
L 539.807671 250.390538 
L 540.380959 244.163833 
L 540.495616 243.850933 
L 540.610274 244.007383 
L 541.068904 246.041232 
L 541.412877 248.26282 
L 541.986164 253.300506 
L 542.100822 253.456956 
L 542.444795 252.299227 
L 542.559452 252.142777 
L 543.018082 253.206636 
L 543.13274 253.050187 
L 543.59137 250.859888 
L 543.706027 250.672148 
L 543.935342 250.797308 
L 544.164658 250.327959 
L 544.50863 247.82476 
L 544.737945 246.260261 
L 544.96726 245.728332 
L 545.196575 245.634461 
L 545.42589 245.227692 
L 545.655205 245.196402 
L 545.884521 246.197681 
L 546.228493 248.043791 
L 546.343151 248.16895 
L 546.457808 248.043791 
L 546.687123 248.60701 
L 547.260411 253.550826 
L 547.375068 253.675986 
L 547.489726 253.363086 
L 547.833699 251.673427 
L 547.948356 251.923747 
L 548.177671 253.769856 
L 548.406986 255.584675 
L 548.521644 255.553385 
L 548.750959 253.519536 
L 548.980274 251.172788 
L 549.094932 250.734728 
L 549.324247 251.297948 
L 549.553562 251.986327 
L 549.782877 251.829877 
L 550.126849 251.548267 
L 550.356164 251.266658 
L 550.585479 250.390538 
L 551.388082 247.292831 
L 551.617397 247.324121 
L 551.96137 247.48057 
L 552.076027 247.417991 
L 552.305342 246.510581 
L 552.42 246.479291 
L 552.649315 247.79347 
L 553.222603 254.426946 
L 553.33726 254.364365 
L 553.566575 252.862447 
L 554.025205 248.513139 
L 554.254521 247.35541 
L 554.827808 245.884782 
L 555.057123 246.854771 
L 555.515753 250.672148 
L 555.630411 250.766019 
L 555.745068 250.640858 
L 556.089041 249.17023 
L 556.318356 248.76346 
L 556.433014 248.45056 
L 556.776986 245.728332 
L 557.120959 242.880944 
L 557.235616 242.724494 
L 557.464932 243.944803 
L 557.808904 246.573161 
L 558.496849 249.076359 
L 558.726164 250.359248 
L 558.955479 250.640858 
L 559.41411 250.046349 
L 560.102055 248.29411 
L 560.33137 248.88862 
L 560.675342 250.046349 
L 561.019315 250.891178 
L 561.24863 250.891178 
L 561.70726 249.514419 
L 561.936575 248.88862 
L 562.16589 249.608289 
L 562.509863 251.110208 
L 562.739178 250.797308 
L 563.197808 248.76346 
L 563.427123 248.54443 
L 563.656438 248.88862 
L 563.771096 249.01378 
L 563.885753 248.951199 
L 564.000411 248.70088 
L 564.229726 248.76346 
L 565.146986 251.485687 
L 565.720274 249.639578 
L 566.064247 248.45056 
L 566.293562 248.29411 
L 566.408219 248.45056 
L 566.752192 249.889899 
L 567.325479 252.956316 
L 567.669452 254.020176 
L 567.78411 254.176626 
L 567.898767 254.114046 
L 568.24274 253.269216 
L 568.930685 249.420549 
L 569.16 249.357969 
L 569.503973 250.578278 
L 569.847945 252.205357 
L 570.07726 252.768577 
L 570.306575 252.612127 
L 570.879863 249.670869 
L 571.223836 247.762181 
L 571.338493 247.574441 
L 571.567808 247.6996 
L 572.026438 248.919909 
L 572.370411 249.733449 
L 572.599726 250.609569 
L 572.714384 250.891178 
L 572.943699 250.578278 
L 573.746301 247.0738 
L 573.975616 246.228971 
L 574.434247 244.414153 
L 574.663562 244.195122 
L 574.778219 244.101253 
L 575.007534 243.694483 
L 575.236849 243.850933 
L 575.810137 245.916071 
L 576.268767 246.698321 
L 577.300685 251.047628 
L 577.53 250.672148 
L 577.873973 249.796028 
L 577.98863 249.764739 
L 578.44726 250.202798 
L 578.791233 249.545709 
L 579.135205 249.076359 
L 579.364521 249.32668 
L 580.396438 252.862447 
L 580.511096 252.893737 
L 581.428356 250.359248 
L 581.772329 249.639578 
L 582.001644 250.077638 
L 582.460274 252.299227 
L 582.689589 252.236647 
L 583.033562 250.703438 
L 583.148219 250.453119 
L 583.262877 250.546988 
L 583.377534 250.453119 
L 583.492192 250.546988 
L 583.721507 250.828598 
L 583.950822 250.578278 
L 584.065479 250.484408 
L 584.294795 250.077638 
L 584.638767 249.889899 
L 584.753425 249.670869 
L 585.212055 246.760901 
L 585.44137 245.571882 
L 585.556027 245.509302 
L 586.243973 247.730891 
L 586.473288 247.94992 
L 586.587945 248.10637 
L 586.931918 249.138939 
L 587.046575 249.232809 
L 587.27589 249.17023 
L 587.734521 250.108928 
L 587.963836 250.766019 
L 588.078493 250.797308 
L 588.422466 251.110208 
L 588.537123 251.078918 
L 588.995753 251.579558 
L 589.110411 251.516977 
L 589.798356 249.138939 
L 590.256986 247.136381 
L 590.371644 247.136381 
L 591.059589 249.420549 
L 591.403562 248.73217 
L 591.518219 248.70088 
L 591.632877 248.794749 
L 592.206164 249.952478 
L 592.664795 249.32668 
L 593.123425 250.672148 
L 594.155342 253.081476 
L 594.384658 252.424387 
L 595.301918 248.356689 
L 595.531233 249.201519 
L 595.989863 251.516977 
L 596.219178 251.204077 
L 596.448493 250.484408 
L 596.907123 249.608289 
L 597.595068 247.54315 
L 597.709726 247.63702 
L 597.939041 247.19896 
L 598.512329 244.601893 
L 598.741644 244.414153 
L 599.429589 246.729611 
L 599.544247 246.823481 
L 599.773562 247.54315 
L 600.117534 249.764739 
L 600.461507 251.454398 
L 600.576164 251.516977 
L 601.034795 249.827319 
L 601.493425 248.57572 
L 601.837397 248.10637 
L 601.952055 248.26282 
L 602.296027 247.98121 
L 602.525342 247.6996 
L 602.64 247.63702 
L 603.327945 249.608289 
L 603.442603 249.514419 
L 603.786575 249.201519 
L 603.901233 249.295389 
L 604.359863 250.766019 
L 604.589178 250.703438 
L 604.933151 249.889899 
L 605.162466 250.265378 
L 605.277123 250.484408 
L 605.621096 251.861167 
L 605.850411 252.330517 
L 605.965068 252.236647 
L 606.194384 251.548267 
L 606.538356 250.546988 
L 606.653014 250.640858 
L 606.767671 250.578278 
L 606.996986 250.766019 
L 607.570274 251.204077 
L 608.258219 251.955037 
L 608.602192 251.579558 
L 609.060822 251.610848 
L 609.863425 250.421828 
L 610.666027 248.10637 
L 610.895342 248.07508 
L 611.01 248.13766 
L 611.239315 248.669589 
L 611.46863 248.826039 
L 611.583288 248.794749 
L 611.697945 248.919909 
L 611.92726 248.85733 
L 612.041918 248.88862 
L 612.156575 249.04507 
L 612.271233 248.85733 
L 612.38589 249.01378 
L 613.073836 248.26282 
L 613.532466 249.357969 
L 614.105753 250.609569 
L 614.449726 250.766019 
L 614.908356 250.046349 
L 615.137671 250.171509 
L 615.596301 249.576999 
L 615.940274 248.57572 
L 616.054932 248.356689 
L 616.169589 248.481849 
L 616.513562 249.733449 
L 616.972192 251.548267 
L 617.086849 251.704717 
L 617.316164 251.141498 
L 617.545479 250.077638 
L 618.00411 248.043791 
L 618.806712 245.540592 
L 618.92137 245.634461 
L 619.036027 245.603172 
L 619.265342 246.448002 
L 619.723973 248.38798 
L 620.067945 248.513139 
L 620.29726 248.3254 
L 620.985205 247.35541 
L 621.443836 248.13766 
L 621.787808 248.919909 
L 622.017123 249.01378 
L 622.590411 247.79347 
L 622.819726 247.011221 
L 623.507671 246.760901 
L 623.851644 247.0738 
L 624.539589 249.357969 
L 625.112877 251.673427 
L 625.227534 251.673427 
L 625.342192 251.548267 
L 625.686164 251.986327 
L 626.259452 253.707276 
L 626.37411 253.675986 
L 626.718082 253.144056 
L 626.947397 252.455677 
L 627.29137 250.985048 
L 627.406027 250.797308 
L 627.635342 251.204077 
L 627.979315 252.893737 
L 628.323288 253.801146 
L 628.552603 253.613406 
L 628.781918 252.643416 
L 629.469863 249.107649 
L 629.699178 249.04507 
L 630.043151 249.295389 
L 630.845753 247.91863 
L 631.075068 248.07508 
L 631.648356 247.449281 
L 632.336301 248.73217 
L 632.450959 248.70088 
L 633.024247 247.79347 
L 633.138904 247.63702 
L 633.253562 247.730891 
L 633.482877 247.48057 
L 633.597534 247.324121 
L 634.170822 245.759622 
L 634.285479 245.790911 
L 634.858767 246.698321 
L 635.66137 248.85733 
L 636.005342 248.76346 
L 636.234658 248.57572 
L 636.57863 250.046349 
L 637.03726 252.549547 
L 637.381233 253.456956 
L 637.49589 253.519536 
L 638.183836 253.081476 
L 638.527808 253.394376 
L 638.642466 253.425666 
L 639.215753 252.737287 
L 639.559726 252.893737 
L 639.789041 252.424387 
L 640.591644 248.41927 
L 640.820959 247.730891 
L 641.050274 247.91863 
L 641.279589 248.85733 
L 641.508904 250.140219 
L 641.738219 250.640858 
L 641.852877 250.766019 
L 642.082192 250.390538 
L 642.540822 249.32668 
L 642.655479 249.545709 
L 642.770137 249.483129 
L 643.343425 250.390538 
L 643.687397 251.297948 
L 643.916712 251.110208 
L 644.260685 250.234088 
L 644.49 250.453119 
L 644.833973 251.204077 
L 645.063288 250.891178 
L 645.521918 248.919909 
L 645.636575 248.826039 
L 646.095205 249.32668 
L 646.439178 248.70088 
L 646.668493 248.70088 
L 647.127123 249.702159 
L 647.585753 248.88862 
L 647.815068 248.3254 
L 648.503014 247.324121 
L 648.617671 247.449281 
L 648.846986 248.3254 
L 649.420274 251.110208 
L 649.649589 251.454398 
L 649.878904 250.985048 
L 650.222877 249.670869 
L 650.452192 249.04507 
L 650.796164 248.638299 
L 651.254795 247.887341 
L 652.40137 244.789632 
L 652.516027 244.695763 
L 652.745342 245.227692 
L 653.089315 246.948641 
L 653.203973 247.35541 
L 653.662603 247.261541 
L 653.891918 247.730891 
L 654.465205 248.88862 
L 654.579863 248.88862 
L 655.153151 250.327959 
L 655.267808 250.546988 
L 655.382466 250.515698 
L 655.497123 250.609569 
L 655.955753 249.827319 
L 656.185068 249.576999 
L 656.299726 249.733449 
L 656.643699 249.576999 
L 656.758356 249.576999 
L 656.987671 249.389259 
L 657.102329 249.232809 
L 657.331644 249.483129 
L 657.790274 249.983769 
L 658.248904 249.451839 
L 658.822192 248.200239 
L 659.051507 248.200239 
L 659.395479 248.356689 
L 659.510137 248.13766 
L 659.624795 248.16895 
L 659.85411 248.0125 
L 659.968767 248.07508 
L 660.198082 248.0125 
L 660.542055 248.07508 
L 660.656712 247.98121 
L 660.886027 247.54315 
L 661.000685 247.417991 
L 661.23 247.105091 
L 661.459315 247.105091 
L 661.573973 247.105091 
L 661.917945 247.574441 
L 662.491233 249.764739 
L 662.835205 251.297948 
L 662.949863 251.266658 
L 663.064521 251.360527 
L 663.179178 251.266658 
L 663.408493 251.360527 
L 663.752466 252.549547 
L 663.981781 252.768577 
L 664.669726 252.330517 
L 664.784384 252.330517 
L 665.701644 250.390538 
L 666.160274 248.3254 
L 666.274932 248.29411 
L 666.389589 248.38798 
L 666.962877 249.733449 
L 667.192192 249.420549 
L 667.650822 248.57572 
L 667.880137 248.669589 
L 667.994795 248.638299 
L 668.109452 248.73217 
L 668.453425 249.483129 
L 668.797397 251.329238 
L 669.370685 252.893737 
L 669.485342 252.831157 
L 669.6 252.925026 
L 669.943973 252.455677 
L 670.05863 252.455677 
L 670.51726 250.953758 
L 671.090548 248.38798 
L 671.205205 248.356689 
L 672.007808 249.827319 
L 672.351781 250.515698 
L 672.466438 250.609569 
L 672.695753 250.484408 
L 673.498356 250.859888 
L 673.727671 250.859888 
L 673.956986 250.828598 
L 674.186301 250.640858 
L 674.300959 250.640858 
L 674.644932 250.108928 
L 674.988904 250.202798 
L 675.218219 250.515698 
L 675.562192 250.515698 
L 675.906164 249.983769 
L 676.135479 250.171509 
L 676.364795 249.702159 
L 676.823425 248.57572 
L 677.05274 248.513139 
L 677.282055 248.23153 
L 677.51137 248.10637 
L 677.740685 248.0125 
L 677.97 248.10637 
L 678.084658 247.94992 
L 678.657945 248.70088 
L 678.772603 248.73217 
L 679.116575 248.0125 
L 679.34589 248.3254 
L 679.460548 248.26282 
L 679.575205 248.38798 
L 679.804521 248.043791 
L 680.033836 247.762181 
L 680.377808 248.88862 
L 680.721781 250.640858 
L 681.065753 251.204077 
L 681.295068 251.016338 
L 681.409726 250.953758 
L 681.524384 250.734728 
L 681.753699 249.420549 
L 682.326986 246.604451 
L 682.670959 247.0738 
L 682.900274 247.63702 
L 683.014932 247.574441 
L 683.358904 247.91863 
L 683.473562 247.94992 
L 684.046849 249.232809 
L 684.276164 249.670869 
L 684.505479 250.015059 
L 684.734795 250.484408 
L 684.849452 250.578278 
L 685.193425 251.454398 
L 685.308082 251.548267 
L 685.537397 252.174067 
L 685.766712 252.236647 
L 685.996027 252.580837 
L 686.110685 252.236647 
L 686.225342 252.267937 
L 686.34 252.174067 
L 686.569315 251.516977 
L 686.913288 249.952478 
L 687.25726 248.200239 
L 687.486575 247.605731 
L 687.601233 247.574441 
L 687.830548 247.82476 
L 688.633151 245.603172 
L 688.747808 245.446722 
L 688.977123 245.665752 
L 689.550411 247.51186 
L 689.779726 248.16895 
L 689.894384 248.356689 
L 690.123699 248.982489 
L 690.238356 249.107649 
L 690.582329 248.70088 
L 690.811644 248.3254 
L 690.926301 248.29411 
L 691.155616 248.60701 
L 691.384932 249.04507 
L 691.958219 249.483129 
L 692.416849 248.88862 
L 692.760822 247.887341 
L 693.104795 247.54315 
L 693.563425 247.85605 
L 694.480685 249.451839 
L 694.71 249.639578 
L 694.824658 249.608289 
L 695.16863 250.327959 
L 695.283288 250.234088 
L 695.512603 250.390538 
L 695.62726 250.327959 
L 695.856575 249.952478 
L 695.971233 250.015059 
L 696.315205 249.639578 
L 696.429863 249.827319 
L 696.544521 249.796028 
L 696.773836 250.140219 
L 696.888493 250.171509 
L 697.003151 250.077638 
L 697.347123 249.295389 
L 697.576438 249.201519 
L 698.149726 250.985048 
L 698.264384 251.141498 
L 698.379041 250.985048 
L 698.723014 251.266658 
L 698.952329 251.423108 
L 699.066986 251.736008 
L 699.181644 251.704717 
L 699.296301 251.798587 
L 699.410959 251.736008 
L 699.984247 253.050187 
L 700.098904 253.144056 
L 700.213562 252.925026 
L 700.442877 252.893737 
L 701.016164 251.423108 
L 701.245479 250.766019 
L 701.818767 250.202798 
L 702.048082 250.546988 
L 702.506712 252.737287 
L 702.736027 253.394376 
L 703.08 253.081476 
L 703.194658 253.175347 
L 703.653288 251.798587 
L 704.45589 247.0738 
L 704.914521 245.540592 
L 705.143836 245.258982 
L 705.258493 245.102532 
L 705.487808 245.321562 
L 705.717123 245.853492 
L 705.946438 246.886061 
L 706.290411 247.48057 
L 706.519726 247.449281 
L 706.863699 248.0125 
L 707.093014 248.16895 
L 707.322329 248.0125 
L 707.551644 248.07508 
L 707.780959 248.638299 
L 708.010274 248.826039 
L 708.354247 249.264099 
L 708.468904 249.295389 
L 708.927534 249.858609 
L 709.156849 249.921188 
L 709.959452 248.41927 
L 710.188767 248.513139 
L 710.303425 248.41927 
L 710.53274 248.88862 
L 711.220685 251.172788 
L 711.335342 250.985048 
L 711.90863 249.32668 
L 712.481918 248.38798 
L 712.596575 248.38798 
L 712.711233 248.200239 
L 713.055205 248.60701 
L 713.628493 249.764739 
L 713.857808 249.858609 
L 713.972466 249.889899 
L 714.545753 248.73217 
L 714.889726 247.82476 
L 715.119041 247.63702 
L 715.577671 248.26282 
L 715.921644 249.04507 
L 716.150959 249.389259 
L 716.953562 250.046349 
L 717.182877 250.296669 
L 717.870822 251.391817 
L 718.214795 251.204077 
L 718.329452 251.516977 
L 719.017397 250.828598 
L 719.132055 250.609569 
L 719.36137 250.734728 
L 719.590685 250.672148 
L 719.82 250.828598 
L 720.049315 250.953758 
L 720.27863 251.360527 
L 720.393288 251.391817 
L 720.507945 251.673427 
L 720.73726 251.642137 
L 720.851918 251.391817 
L 720.966575 251.548267 
L 721.539863 250.766019 
L 721.883836 249.04507 
L 721.998493 248.88862 
L 722.227808 248.13766 
L 722.457123 248.26282 
L 722.686438 248.669589 
L 723.030411 249.483129 
L 723.259726 249.702159 
L 723.833014 249.451839 
L 724.406301 248.45056 
L 724.520959 248.481849 
L 724.750274 248.85733 
L 724.864932 248.951199 
L 725.208904 248.60701 
L 725.323562 248.29411 
L 725.552877 248.26282 
L 726.126164 247.417991 
L 726.928767 248.16895 
L 727.043425 248.23153 
L 727.158082 248.07508 
L 727.27274 248.16895 
L 727.616712 247.35541 
L 727.846027 247.3867 
L 727.960685 247.3867 
L 728.419315 248.45056 
L 728.877945 250.234088 
L 729.221918 250.797308 
L 729.451233 250.797308 
L 729.680548 250.985048 
L 730.024521 250.672148 
L 730.139178 250.578278 
L 730.368493 250.015059 
L 730.483151 249.889899 
L 730.827123 250.265378 
L 731.056438 250.859888 
L 731.400411 251.548267 
L 731.744384 251.329238 
L 731.973699 251.204077 
L 732.546986 249.608289 
L 733.005616 247.605731 
L 733.349589 247.19896 
L 733.693562 246.854771 
L 733.922877 246.854771 
L 734.381507 248.13766 
L 734.954795 249.01378 
L 735.298767 250.234088 
L 735.528082 250.922468 
L 736.10137 251.579558 
L 736.216027 251.454398 
L 736.330685 251.548267 
L 736.789315 250.859888 
L 737.01863 250.953758 
L 737.362603 251.235368 
L 737.47726 251.235368 
L 737.591918 250.985048 
L 737.706575 251.047628 
L 738.050548 250.296669 
L 738.394521 249.796028 
L 738.509178 249.858609 
L 738.738493 249.764739 
L 738.967808 249.702159 
L 739.655753 249.451839 
L 739.770411 249.764739 
L 739.885068 249.733449 
L 740.802329 250.859888 
L 741.146301 250.672148 
L 741.375616 250.609569 
L 741.834247 250.672148 
L 741.948904 250.578278 
L 742.178219 250.734728 
L 742.407534 250.953758 
L 743.324795 249.107649 
L 743.783425 248.826039 
L 744.356712 247.292831 
L 744.586027 246.91735 
L 744.700685 247.011221 
L 744.815342 246.979931 
L 745.159315 247.417991 
L 745.503288 247.63702 
L 745.617945 247.35541 
L 746.764521 248.638299 
L 746.879178 248.45056 
L 747.108493 248.54443 
L 747.223151 248.45056 
L 747.337808 248.513139 
L 747.567123 248.13766 
L 748.025753 247.730891 
L 748.140411 247.82476 
L 748.255068 247.730891 
L 748.599041 248.16895 
L 748.828356 248.45056 
L 749.057671 248.794749 
L 749.401644 249.04507 
L 749.630959 249.076359 
L 749.860274 249.295389 
L 750.548219 248.70088 
L 750.662877 248.76346 
L 751.350822 250.327959 
L 751.694795 250.484408 
L 752.38274 249.389259 
L 752.956027 248.10637 
L 753.414658 248.3254 
L 753.529315 248.41927 
L 753.75863 248.73217 
L 754.102603 249.264099 
L 754.21726 249.420549 
L 754.331918 249.32668 
L 754.561233 249.545709 
L 754.67589 249.764739 
L 754.905205 249.733449 
L 755.019863 249.764739 
L 755.134521 250.077638 
L 755.363836 250.108928 
L 755.478493 250.140219 
L 755.707808 250.046349 
L 756.166438 250.421828 
L 756.281096 250.390538 
L 756.625068 250.703438 
L 757.313014 251.172788 
L 757.427671 251.204077 
L 757.656986 250.985048 
L 757.771644 250.953758 
L 758.000959 250.609569 
L 758.115616 250.672148 
L 758.230274 250.578278 
L 758.803562 249.420549 
L 758.918219 249.357969 
L 759.147534 249.514419 
L 759.376849 249.670869 
L 759.720822 249.858609 
L 759.950137 249.796028 
L 760.064795 249.733449 
L 760.29411 249.389259 
L 760.408767 249.389259 
L 760.638082 249.138939 
L 760.982055 249.01378 
L 761.21137 248.73217 
L 761.899315 248.45056 
L 762.243288 249.232809 
L 762.58726 249.420549 
L 762.816575 249.827319 
L 763.160548 250.140219 
L 763.275205 250.140219 
L 763.389863 249.952478 
L 763.504521 250.140219 
L 763.733836 249.858609 
L 764.077808 249.858609 
L 764.192466 249.858609 
L 764.651096 250.734728 
L 764.765753 250.672148 
L 764.880411 250.828598 
L 766.141644 249.295389 
L 766.600274 248.982489 
L 766.714932 249.04507 
L 766.944247 248.951199 
L 767.173562 248.794749 
L 767.288219 248.826039 
L 767.402877 248.73217 
L 767.632192 248.88862 
L 768.090822 248.85733 
L 768.320137 248.951199 
L 768.434795 248.982489 
L 768.778767 249.483129 
L 769.237397 249.983769 
L 769.352055 249.889899 
L 769.58137 249.576999 
L 770.154658 249.17023 
L 770.383973 248.826039 
L 770.727945 248.45056 
L 771.41589 248.919909 
L 771.530548 248.826039 
L 772.103836 249.357969 
L 772.333151 249.232809 
L 772.677123 249.01378 
L 773.250411 250.265378 
L 774.167671 252.737287 
L 774.396986 252.925026 
L 774.855616 252.580837 
L 775.084932 252.486966 
L 775.314247 252.017617 
L 776.116849 249.514419 
L 776.460822 249.608289 
L 776.919452 249.201519 
L 777.378082 249.670869 
L 777.836712 249.295389 
L 777.95137 249.01378 
L 778.180685 249.076359 
L 778.639315 248.88862 
L 778.86863 248.481849 
L 779.097945 248.3254 
L 779.32726 248.200239 
L 779.441918 248.3254 
L 779.671233 248.200239 
L 779.78589 248.200239 
L 779.900548 248.0125 
L 780.015205 248.07508 
L 780.244521 247.98121 
L 780.473836 247.82476 
L 780.703151 247.82476 
L 781.161781 247.887341 
L 782.308356 249.952478 
L 782.766986 249.983769 
L 782.996301 249.827319 
L 783.225616 249.608289 
L 783.454932 249.201519 
L 783.684247 248.88862 
L 783.913562 248.73217 
L 784.028219 248.73217 
L 784.486849 249.232809 
L 784.601507 249.201519 
L 784.716164 249.608289 
L 785.060137 249.483129 
L 785.174795 249.796028 
L 785.40411 249.702159 
L 785.518767 249.733449 
L 785.633425 249.576999 
L 785.748082 249.921188 
L 785.977397 249.858609 
L 786.092055 249.576999 
L 786.32137 249.545709 
L 786.550685 249.389259 
L 786.78 249.889899 
L 786.894658 249.545709 
L 787.009315 249.733449 
L 787.811918 249.107649 
L 788.041233 248.794749 
L 788.15589 249.17023 
L 788.385205 248.794749 
L 788.614521 249.420549 
L 788.843836 248.70088 
L 789.187808 249.01378 
L 789.417123 248.54443 
L 789.875753 249.138939 
L 789.990411 249.107649 
L 790.105068 249.201519 
L 790.334384 249.733449 
L 790.563699 249.483129 
L 790.907671 250.546988 
L 791.022329 250.546988 
L 791.366301 251.204077 
L 791.595616 250.953758 
L 791.824932 251.110208 
L 791.939589 251.454398 
L 792.168904 250.640858 
L 792.512877 250.734728 
L 792.627534 250.327959 
L 792.856849 250.546988 
L 792.971507 250.390538 
L 793.200822 249.545709 
L 793.315479 249.639578 
L 794.003425 249.357969 
L 794.347397 248.481849 
L 794.462055 248.23153 
L 794.69137 248.513139 
L 794.920685 247.91863 
L 795.035342 247.85605 
L 795.15 248.16895 
L 795.264658 247.54315 
L 795.60863 248.16895 
L 795.723288 248.29411 
L 795.837945 248.23153 
L 795.952603 248.85733 
L 796.06726 248.23153 
L 796.181918 248.38798 
L 796.296575 248.26282 
L 796.52589 248.76346 
L 796.640548 248.38798 
L 796.755205 248.85733 
L 796.869863 248.57572 
L 796.984521 248.60701 
L 797.099178 248.356689 
L 797.557808 248.85733 
L 797.672466 248.88862 
L 798.245753 249.764739 
L 798.360411 249.889899 
L 798.819041 250.828598 
L 799.163014 250.922468 
L 799.392329 251.297948 
L 799.621644 251.047628 
L 799.736301 251.016338 
L 800.194932 250.453119 
L 800.309589 250.484408 
L 800.653562 249.889899 
L 800.768219 249.921188 
L 801.112192 249.232809 
L 801.226849 248.919909 
L 801.341507 249.04507 
L 801.456164 248.826039 
L 801.914795 249.04507 
L 802.029452 249.17023 
L 802.14411 249.733449 
L 802.373425 249.389259 
L 802.488082 249.639578 
L 802.60274 249.514419 
L 802.717397 249.639578 
L 803.290685 249.295389 
L 803.405342 249.264099 
L 803.749315 248.85733 
L 803.97863 248.88862 
L 804.093288 248.70088 
L 804.207945 248.76346 
L 804.89589 247.762181 
L 805.010548 247.887341 
L 805.125205 247.79347 
L 805.698493 248.10637 
L 805.813151 248.481849 
L 806.386438 248.200239 
L 806.959726 248.54443 
L 807.074384 248.513139 
L 807.303699 248.70088 
L 807.991644 250.640858 
L 808.220959 251.329238 
L 808.335616 251.078918 
L 808.564932 251.642137 
L 808.908904 251.485687 
L 809.023562 251.610848 
L 809.482192 251.141498 
L 809.940822 250.234088 
L 810.399452 249.483129 
L 810.743425 249.670869 
L 811.087397 250.234088 
L 811.202055 250.265378 
L 811.316712 250.421828 
L 811.43137 250.359248 
L 811.546027 250.515698 
L 812.119315 250.140219 
L 812.34863 249.764739 
L 812.692603 249.17023 
L 813.26589 249.264099 
L 813.609863 249.514419 
L 813.724521 249.420549 
L 813.839178 249.514419 
L 814.297808 249.295389 
L 814.412466 249.389259 
L 814.527123 249.232809 
L 814.641781 249.389259 
L 814.985753 248.919909 
L 815.100411 248.951199 
L 816.132329 247.730891 
L 816.476301 247.66831 
L 817.049589 248.13766 
L 817.164247 248.043791 
L 818.081507 248.70088 
L 818.196164 248.73217 
L 818.540137 249.04507 
L 818.654795 249.138939 
L 819.113425 250.108928 
L 819.228082 250.108928 
L 819.457397 250.484408 
L 819.572055 250.515698 
L 819.686712 250.672148 
L 819.916027 250.609569 
L 820.030685 250.546988 
L 820.374658 250.766019 
L 820.71863 250.828598 
L 821.750548 251.360527 
L 821.979863 251.235368 
L 822.553151 251.016338 
L 823.355753 250.202798 
L 823.470411 250.234088 
L 823.929041 250.953758 
L 824.502329 251.297948 
L 824.846301 251.391817 
L 825.304932 250.953758 
L 825.419589 250.953758 
L 825.648904 250.202798 
L 826.451507 248.85733 
L 826.910137 247.51186 
L 827.368767 246.854771 
L 827.483425 246.823481 
L 827.598082 246.541871 
L 827.71274 246.635741 
L 828.17137 246.510581 
L 828.400685 246.573161 
L 829.203288 247.98121 
L 829.432603 248.13766 
L 830.00589 248.60701 
L 830.349863 248.76346 
L 830.693836 248.76346 
L 831.381781 249.389259 
L 831.955068 249.796028 
L 832.528356 250.484408 
L 832.643014 250.515698 
L 832.986986 250.140219 
L 833.101644 249.952478 
L 833.216301 250.015059 
L 833.904247 248.60701 
L 834.133562 248.60701 
L 834.821507 250.077638 
L 835.050822 250.171509 
L 835.280137 250.234088 
L 835.394795 250.108928 
L 835.853425 250.390538 
L 836.770685 250.484408 
L 837.114658 251.047628 
L 837.114658 251.047628 
" clip-path="url(#pda495e7cb3)" style="fill: none; stroke: #000000; stroke-width: 0.8; stroke-linecap: square"/>
   </g>
  </g>
 </g>
 <defs>
  <clipPath id="pda495e7cb3">
   <rect x="0" y="-0" width="837" height="498.96"/>
  </clipPath>
 </defs>
</svg>
