<svg width="96" height="96" xmlns="http://www.w3.org/2000/svg" xmlns:xlink="http://www.w3.org/1999/xlink" xml:space="preserve" overflow="hidden"><defs><clipPath id="clip0"><rect x="592" y="312" width="96" height="96"/></clipPath></defs><g clip-path="url(#clip0)" transform="translate(-592 -312)"><path d="M670 331C671.105 331 672 331.895 672 333L672 373C672 374.105 671.105 375 670 375L658 375 658 386.172 647.914 376.086 647.328 375.5 610 375.5C608.895 375.5 608 374.605 608 373.5L608 333C608 331.895 608.895 331 610 331L670 331M670 329 610 329C607.791 329 606 330.791 606 333L606 373.5C606 375.709 607.791 377.5 610 377.5L646.5 377.5 660 391 660 377 670 377C672.209 377 674 375.209 674 373L674 333C674 330.791 672.209 329 670 329Z"/><path d="M659 353C659 354.657 657.657 356 656 356 654.343 356 653 354.657 653 353 653 351.343 654.343 350 656 350 657.657 350 659 351.343 659 353Z"/><path d="M643 353C643 354.657 641.657 356 640 356 638.343 356 637 354.657 637 353 637 351.343 638.343 350 640 350 641.657 350 643 351.343 643 353Z"/><path d="M627 353C627 354.657 625.657 356 624 356 622.343 356 621 354.657 621 353 621 351.343 622.343 350 624 350 625.657 350 627 351.343 627 353Z"/></g></svg>