<svg width="185" height="187" xmlns="http://www.w3.org/2000/svg" xmlns:xlink="http://www.w3.org/1999/xlink" xml:space="preserve" overflow="hidden"><defs><clipPath id="clip0"><rect x="478" y="199" width="185" height="187"/></clipPath></defs><g clip-path="url(#clip0)" transform="translate(-478 -199)"><path d="M116.873 24.3485C65.7408 24.3485 24.3485 65.7408 24.3485 116.873 24.3485 168.004 65.7408 209.397 116.873 209.397 168.004 209.397 209.397 168.004 209.397 116.873 209.397 65.7408 168.004 24.3485 116.873 24.3485ZM112.003 48.6969C118.82 48.6969 124.177 54.0536 124.177 60.8712 124.177 67.6887 118.82 73.0454 112.003 73.0454 105.185 73.0454 99.8287 67.6887 99.8287 60.8712 99.8287 54.0536 105.185 48.6969 112.003 48.6969ZM141.221 185.048 92.5242 185.048 92.5242 170.439 109.568 170.439 109.568 97.3938 94.959 97.3938 94.959 82.7848 124.177 82.7848 124.177 97.3938 124.177 170.439 141.221 170.439 141.221 185.048Z" transform="matrix(1 0 0 1.00096 454.027 173.628)"/></g></svg>