<svg width="308" height="308" xmlns="http://www.w3.org/2000/svg" xmlns:xlink="http://www.w3.org/1999/xlink" xml:space="preserve" overflow="hidden"><defs><clipPath id="clip0"><rect x="541" y="348" width="308" height="308"/></clipPath></defs><g clip-path="url(#clip0)" transform="translate(-541 -348)"><path d="M562.069 514.699 582.888 535.514 598.75 520.493 598.75 623.84 678.958 623.872 678.958 543.763 711.042 543.763 711.042 623.885 791.25 623.917 791.25 520.358 807.192 535.437 827.931 514.702 695 388.425ZM784.833 617.5 717.458 617.471 717.458 537.346 672.542 537.346 672.542 617.452 605.167 617.426 605.167 514.416 695 429.344 784.833 514.291ZM583.01 526.563 571.264 514.833 695 397.267 818.736 514.833 807.067 526.486 695 420.508Z"/></g></svg>