<svg width="495" height="495" xmlns="http://www.w3.org/2000/svg" xmlns:xlink="http://www.w3.org/1999/xlink" xml:space="preserve" overflow="hidden"><defs><clipPath id="clip0"><rect x="646" y="72" width="495" height="495"/></clipPath></defs><g clip-path="url(#clip0)" transform="translate(-646 -72)"><path d="M827.979 290.073 772.772 345.281 827.979 400.489 835.271 393.198 787.353 345.281 835.271 297.364 827.979 290.073Z"/><path d="M951.729 297.364 999.647 345.281 951.729 393.198 959.021 400.489 1014.23 345.281 959.021 290.073 951.729 297.364Z"/><path d="M862.99 405.1 914.552 286.505 924.009 290.617 872.447 409.212Z"/><path d="M687.25 479.344 1099.75 479.344 1099.75 159.656 687.25 159.656ZM697.562 469.031 697.562 242.156 1089.44 242.156 1089.44 469.031ZM1089.44 169.969 1089.44 231.844 697.562 231.844 697.562 169.969Z"/><path d="M981.156 200.906C981.156 206.602 976.539 211.219 970.844 211.219 965.148 211.219 960.531 206.602 960.531 200.906 960.531 195.211 965.148 190.594 970.844 190.594 976.539 190.594 981.156 195.211 981.156 200.906Z"/><path d="M1017.25 200.906C1017.25 206.602 1012.63 211.219 1006.94 211.219 1001.24 211.219 996.625 206.602 996.625 200.906 996.625 195.211 1001.24 190.594 1006.94 190.594 1012.63 190.594 1017.25 195.211 1017.25 200.906Z"/><path d="M1053.34 200.906C1053.34 206.602 1048.73 211.219 1043.03 211.219 1037.34 211.219 1032.72 206.602 1032.72 200.906 1032.72 195.211 1037.34 190.594 1043.03 190.594 1048.73 190.594 1053.34 195.211 1053.34 200.906Z"/></g></svg>