<svg width="75" height="74" viewBox="0 0 75 74" fill="none" xmlns="http://www.w3.org/2000/svg">
<path d="M31.6543 14C31.9289 13.9992 32.1533 14.2205 32.1562 14.4951L32.1699 15.8506V15.8545L32.1992 28.0693L32.2119 34.7432C32.2211 34.7542 32.2301 34.7656 32.2383 34.7773C32.2519 34.7763 32.2654 34.7734 32.2793 34.7734C32.3333 34.7737 32.3849 34.7847 32.4336 34.8008L32.4854 18.1719V18.1523L32.5 17.8154L32.5137 17.7168C32.5684 17.4948 32.7716 17.3327 33.0088 17.3369C33.2798 17.3419 33.498 17.5629 33.5 17.834L33.5283 21.7861L33.5859 30.124L33.6152 33.751C33.6526 33.7716 33.688 33.7951 33.7188 33.8242L33.7275 32.2705L33.7383 32.1709C33.7848 31.9472 33.9807 31.7782 34.2178 31.7734C34.4294 31.7693 34.612 31.8978 34.6885 32.083L34.6963 31.9053L34.71 31.8086C34.7631 31.5887 34.9609 31.427 35.1953 31.4268C35.2825 31.4267 35.364 31.4508 35.4355 31.4902L35.4619 23.9522L35.4717 23.8545C35.5162 23.634 35.7056 23.4649 35.9385 23.4541C36.2049 23.442 36.4339 23.6418 36.459 23.9072L36.4736 24.0605L36.4766 24.1035L36.5049 27.6914V27.6924L36.5264 32.6064C36.6556 32.6923 36.7432 32.8368 36.75 33.0029L36.7646 33.3584L36.7656 33.3721H36.7646L36.7939 35.4404V35.4424L36.8135 37.7666C36.8256 37.7607 36.8379 37.7549 36.8506 37.75L36.8633 35.3574V35.3555L36.8916 32.374L36.9502 23.998L36.96 23.8984C37.007 23.6739 37.2053 23.505 37.4434 23.502C37.7156 23.4986 37.9403 23.7133 37.9492 23.9854L37.9639 24.4385L37.9648 24.4512H37.9639L37.9932 29.5195L38.0332 37.1631C38.0709 37.1835 38.1066 37.2072 38.1377 37.2363L38.1631 32.7031V32.7022L38.207 26.9697V26.959L38.2217 26.4678L38.2334 26.374C38.281 26.1602 38.4653 25.998 38.6914 25.9844C38.9499 25.969 39.1775 26.1531 39.2158 26.4092L39.2305 26.5049L39.2354 26.5645L39.292 28.4561L39.3037 28.5459L39.3076 28.585L39.3223 28.8926V28.9111L39.3516 31.6523V31.6543L39.3721 34.8301C39.4401 34.713 39.5553 34.6253 39.6943 34.5938C39.918 34.543 40.1474 34.6509 40.251 34.8555L40.2656 34.8848L40.3047 34.9902C40.3137 35.0266 40.3187 35.0648 40.3193 35.1025L40.3213 35.2295C40.3688 35.2501 40.4125 35.2777 40.4512 35.3115C40.5265 35.2645 40.6148 35.2364 40.71 35.2354C40.9814 35.2325 41.2055 35.4465 41.2148 35.7178L41.2295 36.1318V36.1494C41.3194 36.2335 41.3793 36.3503 41.3877 36.4824L41.3955 36.6094C41.4419 36.5939 41.4906 36.5832 41.542 36.582C41.5525 36.5818 41.5629 36.5836 41.5732 36.584L41.5879 35.4502L41.5928 35.3887L41.6064 35.2832L41.6289 35.1904C41.6626 35.0905 41.727 35.0062 41.8096 34.9463L41.833 32.9307L41.8477 32.8174C41.8566 32.7808 41.8697 32.7448 41.8867 32.7109L41.9014 32.6826L41.9463 32.6104C42.063 32.4525 42.2645 32.3755 42.4609 32.4209C42.685 32.4729 42.8446 32.6713 42.8477 32.9014L42.877 35.0459V35.0488L42.8965 37.6807C42.8999 37.6776 42.9037 37.6748 42.9072 37.6719L42.9316 36.4277L42.9434 36.3301C42.9916 36.1095 43.185 35.9434 43.4189 35.9375C43.6159 35.9327 43.7896 36.0431 43.875 36.208C43.9719 36.0833 44.1257 36.0065 44.2939 36.0147C44.5548 36.0274 44.7621 36.2389 44.7695 36.5L44.7832 37.0068C44.9072 37.0859 44.9958 37.2178 45.0127 37.374L45.0273 37.5088L45.0293 37.5459L45.0586 38.4219V38.4229L45.0986 39.7695C45.1212 39.7572 45.1444 39.7452 45.1689 39.7363L45.1709 39.623V39.6104L45.2061 39.6113L45.1719 39.6104L45.1865 39.2539L45.1992 39.1582C45.2508 38.9419 45.4427 38.7805 45.6729 38.7744C45.6768 38.7743 45.6807 38.7744 45.6846 38.7744L45.7061 37.7354L45.708 37.7031L45.7363 37.3662L45.7539 37.2715C45.8141 37.06 46.0088 36.9084 46.2363 36.9092C46.4967 36.9103 46.7133 37.1106 46.7334 37.3701L46.7617 37.7451L46.7637 37.7695L46.8047 39.2197L46.8184 38.4102L46.8291 38.3154C46.8445 38.2418 46.8779 38.1751 46.9219 38.1172L46.9346 37.7842L46.9443 37.6992L46.959 37.6318L46.9795 37.5645L47.0059 36.5869L47.0498 34.8096L47.0615 34.7109C47.1116 34.4895 47.3085 34.3239 47.5439 34.3213C47.8132 34.3185 48.0365 34.5298 48.0488 34.7988L48.0635 35.1162V35.1328L48.0898 37.168C48.1808 37.058 48.3172 36.9868 48.4697 36.9854C48.4889 36.9852 48.5077 36.9883 48.5264 36.9902L48.5811 33.1221L48.585 33.0674L48.5996 32.9522L48.6201 32.8584C48.6883 32.6487 48.8893 32.5037 49.1172 32.5137C49.3777 32.5253 49.5857 32.7355 49.5947 32.9961L49.6094 33.4199L49.6104 33.4297L49.6387 35.5459V35.5469L49.6533 36.9033C49.7687 36.9895 49.8465 37.1234 49.8545 37.2773L49.8691 37.5557L49.8701 37.5732L49.8848 38.4727C49.9814 38.4575 50.0823 38.471 50.1738 38.5137C50.3309 38.5871 50.4389 38.737 50.459 38.9092L50.4736 39.0342L50.4766 39.0703L50.5029 39.7051C50.5585 39.7715 50.5962 39.8519 50.6113 39.9414L50.6201 39.833L50.6338 39.748C50.6827 39.5543 50.8445 39.405 51.0479 39.376C51.1802 39.3571 51.3088 39.3935 51.4111 39.4678C51.4378 39.4625 51.4651 39.4589 51.4932 39.458C51.5424 39.4565 51.5902 39.4636 51.6357 39.4756C51.6686 39.2358 51.8688 39.0516 52.1143 39.0439C52.3723 39.0361 52.5943 39.2262 52.626 39.4824L52.6406 39.5977L52.6436 39.6436L52.6729 40.5469V40.5508L52.7207 42.4902L52.7227 42.4912L52.7715 41.2647V41.2549L53.042 41.2705L52.7725 41.2549L52.8438 40.0518L52.8867 38.2432L52.8955 38.1631L52.9092 38.0869L52.9355 37.9961C53.0138 37.7954 53.2155 37.6637 53.4375 37.6797C53.6912 37.6982 53.8903 37.904 53.9004 38.1582L53.9131 38.4844C53.9215 38.483 53.93 38.4804 53.9385 38.4795C54.1781 38.4529 54.403 38.6012 54.4727 38.832L54.4863 38.8799L54.501 38.9404C54.5044 38.9608 54.5069 38.9822 54.5078 39.0029L54.5137 39.1436C54.6019 39.0646 54.7174 39.0151 54.8447 39.0147C54.9013 39.0145 54.9551 39.0258 55.0059 39.043L55.0107 38.8857L55.0215 38.7949L55.0508 38.6602L55.0674 38.6006C55.1144 38.4654 55.218 38.3552 55.3525 38.3008C55.5062 38.2388 55.6808 38.2572 55.8184 38.3496L55.833 38.3594L55.8994 38.4131C55.9611 38.4721 56.0071 38.5464 56.0322 38.6289L56.0469 38.6768L56.0664 38.7783L56.0957 39.1055L56.0967 39.1279L56.1328 39.9766C56.1521 39.9732 56.1714 39.9689 56.1914 39.9678C56.4397 39.9542 56.6602 40.1253 56.709 40.3691L56.7383 40.5127L56.7471 40.584L56.7588 40.8174C56.7923 40.8302 56.8248 40.847 56.8555 40.8672L56.8848 40.8867L56.8857 40.8877L56.918 40.082L56.9307 39.9893C56.9789 39.7793 57.159 39.619 57.3809 39.6025C57.6345 39.5838 57.8619 39.7589 57.9092 40.0088L57.9238 40.0859L57.9316 40.1553L57.9404 40.3535C58.0155 40.3694 58.0838 40.4026 58.1426 40.4482L58.1748 39.3467L58.1787 39.3037L58.1924 39.1787L58.2119 39.0869C58.2757 38.8824 58.4663 38.7373 58.6875 38.7363C58.7892 38.7359 58.8841 38.7668 58.9639 38.8193C59.0543 38.7061 59.1921 38.6329 59.3477 38.6309C59.4753 38.6292 59.5921 38.6759 59.6816 38.7539C59.7255 38.7221 59.7753 38.6971 59.8291 38.6807C60.0303 38.6193 60.2486 38.6903 60.375 38.8584L60.3896 38.8779L60.4307 38.9424C60.4668 39.0099 60.4869 39.0858 60.4893 39.1631L60.5107 39.8721C60.5146 39.8719 60.5185 39.8712 60.5225 39.8711C60.6423 39.8672 60.7531 39.9076 60.8418 39.9756L60.8477 39.4893L60.8486 39.4756L60.8633 39.1191L60.877 39.0215C60.9303 38.8015 61.1285 38.6394 61.3633 38.6397C61.6315 38.6401 61.8518 38.8521 61.8623 39.1201L61.877 39.4951V39.5049L61.8877 40.0508C61.9676 40.0707 62.04 40.1088 62.0996 40.1621L62.1201 38.7959L62.1309 38.6963C62.1798 38.4713 62.3802 38.3029 62.6191 38.3027H62.6338L62.7334 38.3135C62.9591 38.3592 63.1302 38.5568 63.1338 38.7959L63.1348 38.9063C63.1977 38.8776 63.2677 38.8616 63.3408 38.8613C63.5967 38.8607 63.8114 39.0532 63.8389 39.3076L63.8652 39.5508C63.882 39.5441 63.8994 39.539 63.917 39.5342C63.9995 39.4744 64.0999 39.4385 64.209 39.4385H64.2236L64.2881 39.4434C64.2926 39.4251 64.2971 39.4064 64.3037 39.3887L64.3184 39.3496L64.3555 39.2705C64.4579 39.0961 64.6588 38.9981 64.8643 39.0303C65.0859 39.0653 65.2531 39.2434 65.2803 39.4629C65.3578 39.5457 65.4092 39.6539 65.416 39.7754L65.4307 40.0352L65.4316 40.0488L65.4492 40.7022C65.5201 40.6381 65.6094 40.5942 65.709 40.5791C65.7158 40.5241 65.7294 40.4699 65.7539 40.4199L65.7686 40.3906L65.8125 40.3174C65.9271 40.1593 66.1263 40.08 66.3223 40.1221C66.5465 40.1704 66.7092 40.3655 66.7168 40.5947L66.7256 40.877C66.7269 40.8782 66.7282 40.8797 66.7295 40.8809C66.7406 40.8687 66.7524 40.8568 66.7646 40.8457C66.8461 40.6777 67.0175 40.5636 67.2139 40.5635C67.3458 40.5635 67.4667 40.6155 67.5566 40.7002C67.5839 40.6856 67.6126 40.6735 67.6426 40.6641C67.7245 40.5328 67.8643 40.4445 68.0234 40.4307C68.04 40.4292 68.0569 40.4295 68.0732 40.4297C68.1048 40.4283 68.1368 40.4288 68.1689 40.4336C68.1731 40.4342 68.1775 40.4358 68.1816 40.4365C68.2549 40.2529 68.4319 40.1232 68.6396 40.1211C68.9014 40.1185 69.1206 40.3183 69.1426 40.5791L69.1719 40.9258L69.1729 40.9443L69.21 41.749C69.2652 41.754 69.3202 41.7674 69.3721 41.791C69.4269 41.816 69.4751 41.8513 69.5166 41.8926L69.5176 41.8838V41.8828L69.5615 41.0654L69.5693 40.999C69.5981 40.8474 69.6959 40.716 69.8359 40.6455C69.9722 40.5771 70.1313 40.5748 70.2676 40.6367C70.2917 40.6244 70.3169 40.6137 70.3428 40.6055C70.4249 40.5402 70.5274 40.4991 70.6396 40.4961C70.8264 40.4912 70.9922 40.5907 71.082 40.7422C71.156 40.6627 71.2555 40.607 71.3691 40.5889C71.3779 40.5875 71.3868 40.5878 71.3955 40.5869C71.4856 40.4958 71.6099 40.4405 71.7441 40.4385C71.9619 40.4354 72.1567 40.5736 72.2256 40.7803L72.2539 40.8672L72.2637 40.916C72.3735 40.9438 72.4695 41.0072 72.5371 41.0947C72.5951 41.0937 72.6538 41.1006 72.71 41.1201C72.8226 41.1593 72.916 41.2372 72.9756 41.3379C73.0661 41.3675 73.1448 41.4239 73.2051 41.4971C73.2792 41.4941 73.3501 41.5083 73.415 41.5352L73.4346 41.3008L73.4512 41.207C73.5103 40.9957 73.7038 40.8428 73.9307 40.8418C73.9381 40.8418 73.9458 40.8435 73.9531 40.8438C73.9931 40.8163 74.0379 40.7963 74.085 40.7813L74.0889 40.7588L74.1084 40.6748C74.1711 40.486 74.3421 40.3492 74.5459 40.334C74.7261 40.3207 74.8943 40.4055 74.9932 40.5479V44.2373C74.9421 44.2611 74.8869 44.2781 74.8281 44.2832C74.6039 44.3024 74.3968 44.169 74.3184 43.9609C74.3019 43.9568 74.2854 43.953 74.2695 43.9473C74.2057 43.9695 74.1372 43.9812 74.0664 43.9756C73.9908 43.9696 73.9209 43.9451 73.8584 43.9092L73.8398 44.2022C73.8225 44.4648 73.604 44.6697 73.3408 44.6699H73.3262C73.0692 44.6699 72.858 44.4749 72.8311 44.2227C72.8232 44.2382 72.8141 44.2531 72.8047 44.2676L72.792 44.3389C72.7494 44.5655 72.5564 44.7339 72.3262 44.7461C72.0961 44.7581 71.8875 44.6104 71.8213 44.3897L71.8066 44.3418C71.7949 44.3027 71.788 44.2615 71.7861 44.2207L71.7832 44.1738C71.769 44.1792 71.755 44.1854 71.7402 44.1895C71.7388 44.1924 71.7368 44.1953 71.7354 44.1982L71.6992 44.3301C71.6454 44.5266 71.4768 44.6716 71.2744 44.6953C71.0721 44.7189 70.8751 44.6171 70.7773 44.4385L70.7197 44.333C70.7011 44.299 70.687 44.262 70.6768 44.2246L70.6475 44.1191L70.6309 44.0244L70.625 43.957C70.4655 43.8806 70.353 43.7222 70.3418 43.5361L70.3262 43.2734C70.2952 43.2738 70.2645 43.2719 70.2344 43.2666L70.1992 44.0205L70.1973 44.0459L70.1826 44.1904C70.1611 44.4041 70.0066 44.5725 69.8076 44.623C69.7476 44.7936 69.6 44.92 69.417 44.9492C69.3304 45.1438 69.1297 45.2657 68.9131 45.2441C68.6753 45.2204 68.4875 45.0317 68.4648 44.7939L68.4502 44.6397L68.4482 44.6094L68.4287 44.0205C68.3845 44.034 68.3383 44.0443 68.29 44.0449C68.2153 44.0459 68.1446 44.0279 68.0801 43.999L68.0605 44.6748V44.6865L68.0459 44.9561C68.0437 44.9959 68.0369 45.036 68.0254 45.0742L68.0107 45.1221C67.9403 45.3548 67.7121 45.5032 67.4707 45.4736C67.2677 45.4485 67.1055 45.3033 67.0518 45.1133C66.9624 45.186 66.8491 45.2305 66.7256 45.2275C66.5966 45.2245 66.4797 45.1719 66.3926 45.0889C66.2036 45.0324 66.0601 44.8689 66.0381 44.665L66.0234 44.5313C66.0221 44.5185 66.0209 44.505 66.0205 44.4922L66.0068 44.0303C65.9905 44.0181 65.9737 44.0062 65.959 43.9922L65.9512 44.166C65.9509 44.171 65.9506 44.1767 65.9502 44.1816L65.9209 44.5371C65.9003 44.7883 65.6961 44.9851 65.4443 44.9961C65.3427 45.0005 65.2468 44.9723 65.165 44.9229L65.1562 45.3818V45.3867L65.1279 46.3965C65.1277 46.4052 65.1267 46.4142 65.126 46.4229L65.1123 46.5957C65.091 46.8516 64.8788 47.0503 64.6221 47.0547C64.3653 47.059 64.1471 46.8674 64.1172 46.6123L64.1025 46.4883C64.1009 46.474 64.1 46.4588 64.0996 46.4443L64.0625 45.1836C63.9835 45.2314 63.8906 45.2583 63.792 45.2559C63.767 45.2552 63.7427 45.2503 63.7188 45.2461L63.7119 45.5654L63.7109 45.5859L63.6963 45.8164C63.6939 45.8539 63.6875 45.8917 63.6768 45.9277L63.6621 45.9766C63.5934 46.2066 63.3707 46.3556 63.1318 46.3311C62.8928 46.3063 62.7047 46.1145 62.6846 45.875L62.6611 45.5967C62.4141 45.5671 62.2242 45.3611 62.2207 45.1094L62.2158 44.8057C62.1875 44.784 62.1617 44.7596 62.1387 44.7324L62.0938 45.8164C62.0894 45.9184 62.0531 46.0174 61.9912 46.0986L61.9766 46.1172C61.8479 46.2858 61.6266 46.3554 61.4248 46.29C61.2295 46.2267 61.0943 46.0502 61.0811 45.8467C60.9809 45.9481 60.84 46.0077 60.6885 45.9961C60.4344 45.9766 60.2351 45.7683 60.2266 45.5137L60.2021 44.7617C60.18 44.7634 60.1575 44.7659 60.1348 44.7647C60.1087 44.7632 60.0834 44.7582 60.0586 44.7529C59.964 44.8188 59.8467 44.8527 59.7246 44.8408C59.6159 44.8302 59.5191 44.7831 59.4424 44.7148C59.434 44.7144 59.4254 44.7157 59.417 44.7148C59.3677 44.7096 59.3212 44.6951 59.2773 44.6768C59.1815 44.7939 59.0364 44.8649 58.8779 44.8604C58.7937 45.0326 58.6162 45.1446 58.4189 45.1406C58.2187 45.1365 58.043 45.014 57.9678 44.834C57.8406 44.7913 57.7343 44.7011 57.6758 44.5811C57.6707 44.5771 57.666 44.5725 57.6611 44.5684L57.6279 45.0967C57.627 45.1106 57.6251 45.1248 57.623 45.1387L57.6094 45.2344C57.5858 45.3905 57.4907 45.5192 57.3623 45.5928C57.3288 45.8391 57.1202 46.0253 56.8691 46.0254C56.6102 46.0254 56.3941 45.8273 56.3711 45.5693L56.3564 45.4063C56.3555 45.396 56.3548 45.3853 56.3545 45.375L56.3486 45.1436C56.294 45.1356 56.2399 45.1201 56.1895 45.0938C56.0857 45.0395 56.0066 44.9509 55.9619 44.8467C55.9234 44.8587 55.8836 44.8668 55.8418 44.8691L55.8223 45.3252C55.8142 45.5131 55.7018 45.6714 55.543 45.75C55.5188 45.9841 55.3361 46.1696 55.1006 46.1943C55.0232 46.3733 54.8472 46.4971 54.6436 46.4971C54.3916 46.4969 54.1789 46.3086 54.1475 46.0586L54.1328 45.9434L54.1299 45.8975L54.1279 45.8643C53.9161 45.8092 53.7605 45.6206 53.7539 45.3955L53.7324 44.6582C53.7292 44.6581 53.7259 44.6593 53.7227 44.6592C53.6329 44.6546 53.5497 44.6257 53.4785 44.5801L53.4238 45.8926L53.4229 45.9063L53.4092 46.1172C53.391 46.3814 53.1692 46.5859 52.9043 46.583C52.6395 46.58 52.4226 46.371 52.4102 46.1064L52.3945 45.7783C52.3176 45.6997 52.2657 45.5961 52.2539 45.4795L52.2422 45.3623L52.1699 44.9004C52.1678 44.8866 52.167 44.8723 52.166 44.8584C52.0516 44.7909 51.9637 44.6796 51.9316 44.542L51.9023 44.418C51.8956 44.389 51.8921 44.3588 51.8906 44.3291L51.8809 44.1338C51.8216 44.1574 51.757 44.1709 51.6895 44.1699C51.6267 44.169 51.5669 44.1548 51.5117 44.1328L51.5029 44.5469L51.502 44.5547L51.4736 45.3047C51.4665 45.4844 51.3629 45.6469 51.2031 45.7295C51.1752 45.7439 51.1457 45.7539 51.1162 45.7627L51.084 47.7939C51.0839 47.799 51.0832 47.8045 51.083 47.8096L51.0684 48.1172C51.0556 48.3832 50.8367 48.5931 50.5703 48.5938C50.3327 48.5942 50.1335 48.4277 50.083 48.2031L50.0723 48.6641V48.6719L50.043 49.4023C50.0413 49.4445 50.0346 49.487 50.0225 49.5273L50.0078 49.5752C49.9372 49.8086 49.7078 49.9574 49.4658 49.9268C49.2886 49.9043 49.1429 49.7897 49.0732 49.6348C48.982 49.7678 48.8295 49.855 48.6572 49.8535C48.6387 49.8533 48.6206 49.8498 48.6025 49.8477L48.5986 49.9941L48.5977 50.0029L48.5693 50.5996C48.568 50.6264 48.5642 50.6534 48.5586 50.6797L48.5439 50.7471C48.4912 50.9922 48.2647 51.1608 48.0146 51.1406C47.7961 51.1228 47.6189 50.9654 47.5693 50.7588L47.5557 50.667L47.541 50.3789V50.3594L47.4902 46.0996C47.4435 46.1412 47.3893 46.1735 47.3291 46.1953L47.2979 47.1397L47.2959 47.1689L47.2666 47.4766C47.244 47.7146 47.0564 47.9042 46.8184 47.9277C46.5804 47.9512 46.3588 47.8023 46.29 47.5732L46.2754 47.5254C46.2668 47.4969 46.2611 47.4671 46.2578 47.4375L46.2373 47.2607C46.1549 47.207 46.0872 47.1308 46.0479 47.0371L46.0205 46.9482L46.0059 46.8799C45.9993 46.8488 45.9957 46.8169 45.9951 46.7852L45.9805 45.9922L45.9688 46.332L45.9658 46.3672L45.9521 46.502C45.9244 46.761 45.7019 46.956 45.4414 46.9492C45.4376 46.9491 45.4335 46.9475 45.4297 46.9473L45.4199 47.2647C45.419 47.2896 45.4157 47.3153 45.4111 47.3398L45.3965 47.416C45.3497 47.6648 45.1246 47.8401 44.8721 47.8232C44.7662 47.8161 44.6702 47.7744 44.5928 47.7119L44.582 48.7813V48.7881L44.5527 49.9912L44.5469 50.0537L44.5332 50.1494C44.4943 50.4051 44.266 50.5899 44.0078 50.5742C43.7499 50.5584 43.547 50.3481 43.5391 50.0898L43.5 48.7813C43.4647 48.7638 43.4323 48.7417 43.4023 48.7168L43.3965 48.8311C43.3823 49.0985 43.1594 49.3084 42.8916 49.3057C42.6574 49.3032 42.4615 49.1389 42.4102 48.9189L42.3975 48.8213L42.3848 48.4346C42.3377 48.4196 42.2946 48.3972 42.2549 48.3701L42.2412 48.8672C42.2365 49.0278 42.1545 49.1774 42.0215 49.2676L42.0068 49.2773C41.8573 49.3784 41.6644 49.3913 41.5029 49.3106C41.3413 49.2297 41.2362 49.0672 41.2275 48.8867L41.2178 48.6934C41.1917 48.6894 41.1653 48.684 41.1396 48.6758C41.0508 48.6472 40.9754 48.5935 40.917 48.5264L40.9102 48.6162C40.8877 48.8817 40.6609 49.0834 40.3945 49.0742C40.1963 49.0673 40.0278 48.9451 39.9531 48.7734L39.9297 50.8213C39.9296 50.8296 39.9292 50.8384 39.9287 50.8467L39.9141 51.0772C39.9085 51.1648 39.8784 51.2452 39.834 51.3145L39.8135 51.9189C39.811 51.9907 39.7929 52.0618 39.7607 52.126L39.7461 52.1553C39.6434 52.3598 39.4149 52.4692 39.1914 52.4199C38.9677 52.3704 38.8064 52.1743 38.7998 51.9453L38.7852 51.4258V51.417L38.7793 50.835L38.7734 51.3789V51.3818L38.7441 53.1416C38.7413 53.3074 38.6565 53.4611 38.5176 53.5518L38.5029 53.5615C38.3505 53.6607 38.1557 53.6693 37.9951 53.584C37.8947 53.5305 37.817 53.4454 37.7725 53.3447L37.7617 55.627V55.6299L37.7471 56.9375C37.7438 57.2118 37.5204 57.4323 37.2461 57.4316C37.0061 57.431 36.8054 57.2613 36.7578 57.0352L36.7471 56.9346L36.7402 55.9629C36.7157 55.9664 36.6906 55.9709 36.665 55.9707C36.5422 55.9696 36.4312 55.9221 36.3447 55.8477L36.3174 58.3711C36.3143 58.6112 36.1408 58.8155 35.9043 58.8574C35.6677 58.8992 35.4348 58.7666 35.3496 58.542L35.335 58.5039C35.3142 58.4489 35.3033 58.3899 35.3027 58.3311L35.2676 54.1231L35.2627 55.0977V55.1055L35.248 55.8262C35.2423 56.0995 35.0176 56.3183 34.7441 56.3164C34.4708 56.3144 34.2499 56.0927 34.248 55.8193L34.2432 55.1777C34.1002 55.1148 33.9924 54.9867 33.957 54.8311L33.9443 54.7334L33.9307 54.1943L33.9297 54.1846L33.9121 51.8106C33.859 51.8269 33.8027 51.8364 33.7441 51.834C33.4786 51.8227 33.2685 51.6056 33.2656 51.3398L33.2578 50.6006C33.2078 50.6878 33.1333 50.7569 33.043 50.8008L33.0371 52.0586L32.9941 59.4834V59.4854L32.9648 62.2744V62.2861L32.9502 62.7285C32.9412 62.9981 32.72 63.2121 32.4502 63.2119C32.1803 63.2116 31.9596 62.9972 31.9512 62.7275L31.9219 61.7754V61.7656L31.8779 57.7939V57.79L31.8691 55.7002C31.8167 55.6621 31.7716 55.6149 31.7373 55.5596L31.7227 56.9092C31.7225 56.9175 31.7222 56.9263 31.7217 56.9346L31.707 57.165C31.6901 57.4325 31.4652 57.6395 31.1973 57.6338C31.0337 57.6302 30.8894 57.548 30.8008 57.4238L30.7832 61.3682V61.3799L30.7686 61.8897C30.7605 62.1621 30.5354 62.3781 30.2627 62.375C29.9901 62.3717 29.7702 62.1505 29.7686 61.8779L29.7422 56.7441C29.5874 56.6598 29.4805 56.498 29.4795 56.3096L29.4697 54.4453C29.4568 54.4463 29.4439 54.4502 29.4307 54.4502C29.2521 54.4501 29.0962 54.3553 29.0078 54.2139L28.9912 58.127V58.1289L28.9775 59.8604C28.975 60.1242 28.7674 60.3414 28.5039 60.3555C28.4348 60.3591 28.368 60.3475 28.3066 60.3252L28.2979 63.752V63.7529L28.2695 71.9277V71.9297L28.2549 73.5078C28.252 73.7788 28.0337 73.9986 27.7627 74.0029C27.4914 74.007 27.2658 73.7935 27.2549 73.5225L27.2402 73.1572C27.24 73.1513 27.2402 73.1446 27.2402 73.1387L27.208 62.4023C27.1104 62.5155 26.9645 62.5852 26.8047 62.5772C26.5729 62.5654 26.3843 62.3963 26.3398 62.1768L26.3301 62.0801L26.2812 52.9541C26.2623 52.9563 26.2432 52.9599 26.2236 52.96C25.9498 52.96 25.7269 52.7396 25.7236 52.4658L25.6543 46.2998C25.6109 46.2371 25.5794 46.1643 25.5684 46.084L25.5547 45.9775C25.5541 45.9734 25.5541 45.969 25.5537 45.9648C25.5156 45.9268 25.4832 45.8833 25.459 45.835C25.4198 45.8219 25.3819 45.806 25.3477 45.7842L25.3359 46.6582C25.3358 46.6661 25.3355 46.6747 25.335 46.6826L25.3203 46.9131C25.3033 47.1805 25.0785 47.3876 24.8105 47.3818C24.5962 47.3771 24.4171 47.2366 24.3506 47.0439C24.2972 47.0627 24.2404 47.0748 24.1807 47.0742C24.1255 47.0736 24.0729 47.061 24.0234 47.0439V47.0449C23.7508 47.043 23.5302 46.8225 23.5273 46.5498L23.5215 45.999C23.4478 45.9883 23.3798 45.9628 23.3203 45.9238L23.3125 46.1064C23.2998 46.3761 23.0756 46.5871 22.8057 46.583C22.6725 46.5809 22.5523 46.5261 22.4639 46.4395L22.4316 47.6553L22.4297 47.6875L22.415 47.8418C22.3904 48.1036 22.1672 48.3028 21.9043 48.2959C21.6415 48.289 21.4291 48.079 21.418 47.8164L21.4102 47.6348C21.2357 47.5926 21.0953 47.4596 21.0469 47.2822L21.0303 48.2852L21.0293 48.3008L21.0156 48.5986C21.0022 48.869 20.7755 49.0801 20.5049 49.0742C20.2343 49.0683 20.0173 48.8478 20.0156 48.5772L20.0078 47.2441C19.988 47.25 19.9681 47.2563 19.9473 47.2598C19.8913 47.269 19.8357 47.2669 19.7822 47.2578L19.7734 47.6445C19.7665 47.9162 19.5433 48.1328 19.2715 48.1318C19.1292 48.1313 19.0009 48.0707 18.9102 47.9746C18.8541 47.9952 18.7937 48.0078 18.7305 48.0068C18.4595 48.0024 18.2411 47.7826 18.2383 47.5117L18.2217 45.708C18.2135 45.7042 18.2061 45.6986 18.1982 45.6943C18.189 45.7099 18.1788 45.7249 18.168 45.7393L18.1543 46.0127C18.1423 46.247 17.9698 46.4362 17.7461 46.4775L17.7363 47.1582C17.7362 47.1655 17.7358 47.1734 17.7354 47.1807L17.7207 47.4219C17.7043 47.6901 17.4786 47.8978 17.21 47.8916C17.0787 47.8886 16.9605 47.8343 16.873 47.749C16.8585 47.7594 16.8438 47.7696 16.8281 47.7783C16.7493 47.9347 16.593 48.0459 16.4072 48.0547C16.145 48.067 15.9174 47.874 15.8867 47.6133L15.8721 47.4873C15.8702 47.4713 15.8694 47.4546 15.8691 47.4385L15.8555 46.6895C15.8008 46.6999 15.744 46.7003 15.6865 46.6914C15.6281 46.7147 15.5647 46.7281 15.498 46.7275C15.4189 46.7268 15.3446 46.7062 15.2783 46.6729C15.24 46.745 15.1852 46.8088 15.1152 46.8555L15.1006 46.8652C14.9594 46.9592 14.7806 46.9737 14.626 46.9072C14.5674 46.9415 14.5021 46.9637 14.4316 46.9717L14.4268 47.5693C14.4267 47.5744 14.427 47.5799 14.4268 47.585L14.4121 47.9414C14.4007 48.2124 14.1755 48.4255 13.9043 48.4209C13.6329 48.4162 13.415 48.1952 13.4131 47.9238L13.4111 47.7529C13.3615 47.824 13.2945 47.8806 13.2158 47.918L13.2139 48.1758C13.2114 48.3895 13.0731 48.5786 12.8701 48.6455C12.6672 48.7124 12.4435 48.643 12.3145 48.4727L12.3008 48.4531C12.2362 48.3677 12.2004 48.2633 12.1992 48.1563L12.1953 47.8115C12.1436 47.8225 12.0893 47.8277 12.0342 47.8213C11.7853 47.7922 11.5969 47.5826 11.5928 47.332L11.5723 45.9629C11.481 46.0887 11.3329 46.1704 11.166 46.1699C11.0928 46.1697 11.0236 46.1526 10.9609 46.124C10.9022 46.302 10.7486 46.4339 10.5596 46.4609L10.54 47.6309L10.5381 47.6729L10.5234 47.8164C10.4968 48.0799 10.2695 48.2769 10.0049 48.2656C9.74018 48.2542 9.53021 48.0383 9.52637 47.7734L9.48438 44.6494C9.36633 44.7301 9.22167 44.7543 9.08594 44.7217L9.08105 44.9336C9.07427 45.1738 8.89853 45.369 8.66992 45.4102L8.66211 45.9375V45.9473L8.64746 46.3604C8.6378 46.6317 8.4131 46.847 8.1416 46.8438C7.87021 46.8404 7.65072 46.62 7.64746 46.3486L7.64062 45.8047C7.44084 45.769 7.28246 45.6162 7.24023 45.4189L7.22852 45.3203L7.2207 44.7246C7.09982 44.7687 6.96495 44.7668 6.84473 44.7129C6.68752 44.6423 6.5782 44.4949 6.55469 44.3242L6.54004 44.2188C6.53751 44.2002 6.5356 44.1808 6.53516 44.1621L6.52539 43.7344C6.40712 43.73 6.29878 43.6858 6.21484 43.6123C6.16078 43.6309 6.10312 43.6418 6.04297 43.6406C5.9857 43.6395 5.93102 43.6273 5.87988 43.6084C5.83895 43.6169 5.79644 43.6233 5.75293 43.6211C5.5301 43.6098 5.34553 43.4529 5.29297 43.2432C5.19894 43.2362 5.11089 43.2039 5.03711 43.1504C4.93754 43.1671 4.83432 43.1562 4.74121 43.1123C4.73549 43.1096 4.7302 43.1045 4.72461 43.1016C4.60338 43.1429 4.47656 43.1355 4.36523 43.0869C4.33347 43.0947 4.30113 43.0992 4.26855 43.1006C4.23859 43.1092 4.20746 43.1163 4.17578 43.1191C4.14755 43.1217 4.11954 43.1204 4.0918 43.1182C4.07812 43.1191 4.06455 43.1184 4.05078 43.1182C3.99022 43.1225 3.92817 43.118 3.86816 43.0996C3.85811 43.0965 3.84862 43.0916 3.83887 43.0879C3.83212 43.0873 3.82511 43.0888 3.81836 43.0879C3.80851 43.0866 3.79875 43.082 3.78906 43.0801C3.72153 43.0948 3.65087 43.0956 3.58105 43.0811C3.55369 43.0826 3.52593 43.0832 3.49805 43.0801C3.49145 43.0794 3.48503 43.0772 3.47852 43.0762C3.45042 43.0802 3.42252 43.0809 3.39453 43.0801C3.35911 43.0875 3.323 43.0913 3.28613 43.0908C3.26022 43.092 3.23453 43.0907 3.20898 43.0879C3.18194 43.0904 3.15504 43.0908 3.12793 43.0889C3.10153 43.0948 3.07455 43.1 3.04688 43.1016C3.01622 43.1033 2.98573 43.1014 2.95605 43.0977C2.94775 43.0986 2.93908 43.1011 2.93066 43.1016C2.8798 43.1044 2.82985 43.0988 2.78223 43.0869C2.74067 43.0913 2.6991 43.0901 2.65723 43.084C2.59669 43.1003 2.53286 43.1062 2.46875 43.0986C2.42884 43.0939 2.39033 43.083 2.35352 43.0693C2.28058 43.0963 2.20169 43.108 2.12207 43.0986C2.09478 43.0954 2.06794 43.0886 2.04199 43.0811C2.03315 43.0812 2.0244 43.0814 2.01562 43.0811C1.94927 43.1003 1.87865 43.1076 1.80762 43.0977C1.77498 43.0931 1.74328 43.0838 1.71289 43.0732H1.64941C1.61877 43.0818 1.58712 43.0873 1.55469 43.0898C1.53589 43.0953 1.51668 43.0993 1.49707 43.1025C1.40116 43.1276 1.30125 43.1254 1.20898 43.0938C1.16821 43.1045 1.12566 43.1113 1.08203 43.1113C1.08073 43.1113 1.07943 43.1104 1.07812 43.1104C1.06105 43.1137 1.04392 43.1175 1.02637 43.1191C1.00258 43.1213 0.978542 43.1213 0.955078 43.1201L0.849609 43.2979L-0.0078125 42.7832L0.249023 42.3545L0.27832 42.3066L0.320312 42.2461C0.405589 42.1423 0.529167 42.0783 0.662109 42.0664C0.743727 42.0232 0.835625 42.0003 0.929688 42.0068C0.988741 42.011 1.0448 42.0281 1.09766 42.0518C1.16881 42.028 1.24431 42.0206 1.31934 42.0303C1.38203 42.0101 1.44894 42.0018 1.5166 42.0078C1.54563 42.0104 1.57394 42.016 1.60156 42.0234C1.70276 41.9892 1.81293 41.987 1.91602 42.0205L1.92676 42.0234L1.94531 42.0283L1.98438 42.04C1.99183 42.039 1.99929 42.0378 2.00684 42.0371C2.03972 42.0343 2.0725 42.0346 2.10449 42.0381C2.18055 42.0146 2.26115 42.0115 2.33984 42.0254C2.37899 42.0243 2.41793 42.0282 2.45605 42.0361C2.5294 42.0143 2.60694 42.0117 2.68262 42.0244C2.74483 42.003 2.81196 41.9931 2.88086 41.998C2.94514 42.0027 3.0061 42.0192 3.06152 42.0459C3.10202 42.0424 3.14222 42.0456 3.18164 42.0518C3.19927 42.046 3.21701 42.039 3.23535 42.0352C3.30267 42.0213 3.3715 42.0215 3.4375 42.0352C3.48764 42.0248 3.54 42.0226 3.59277 42.0283C3.62186 42.0315 3.65029 42.037 3.67773 42.0449C3.68023 42.045 3.68305 42.0448 3.68555 42.0449C3.6921 42.0451 3.69858 42.0464 3.70508 42.0469C3.7122 42.0466 3.7194 42.0449 3.72656 42.0449H3.75488L3.83594 42.0508C3.83951 42.0514 3.84312 42.0521 3.84668 42.0527C3.88354 42.0466 3.92068 42.0447 3.95801 42.0469C3.98083 42.0449 4.00396 42.0437 4.02734 42.0449C4.06601 42.047 4.10367 42.055 4.13965 42.0654C4.15784 42.0647 4.17602 42.0642 4.19434 42.0654C4.28004 42.0348 4.37165 42.0288 4.46094 42.0469C4.47102 42.0462 4.48106 42.0449 4.49121 42.0449H4.51172C4.51614 42.0433 4.52092 42.0425 4.52539 42.041C4.64702 41.9791 4.7894 41.9706 4.91895 42.0166C4.99982 41.9824 5.08809 41.9707 5.1748 41.9814C5.23208 41.9565 5.2927 41.9438 5.35449 41.9414C5.41033 41.7368 5.59157 41.584 5.81152 41.5732C5.85614 41.5711 5.89956 41.5769 5.94141 41.5859C6.01749 41.5012 6.12148 41.4432 6.23926 41.4258L6.26074 40.9453L6.27539 40.8477C6.32924 40.628 6.52729 40.4663 6.76172 40.4668H6.76465L6.76758 40.4307L6.78125 40.335C6.82059 40.1787 6.93339 40.0521 7.08008 39.9932C7.16358 39.9296 7.26714 39.8911 7.37988 39.8906C7.44248 39.8904 7.50222 39.902 7.55762 39.9229L7.56152 39.8086L7.57324 39.7129C7.62198 39.4953 7.81223 39.3316 8.04297 39.3232C8.30649 39.3137 8.53217 39.5101 8.55859 39.7725L8.57324 39.917L8.5752 39.9609L8.57715 40.1377C8.59325 40.1352 8.6094 40.1318 8.62598 40.1309C8.70113 40.1268 8.77306 40.1415 8.83887 40.168C8.87114 39.9324 9.06568 39.748 9.30859 39.7363C9.49164 39.7277 9.65599 39.8204 9.75 39.9648L9.78613 38.4834L9.79883 38.3838C9.84981 38.1602 10.0501 37.9942 10.2881 37.9951C10.3501 37.9954 10.4091 38.0084 10.4639 38.0293L10.4648 38.0283L10.4766 37.9287C10.5249 37.7034 10.7247 37.5348 10.9639 37.5342C11.1242 37.5338 11.2656 37.6102 11.3574 37.7275L11.3613 37.4697L11.3721 37.3711C11.42 37.1467 11.6184 36.9778 11.8564 36.9756C11.9604 36.9747 12.0571 37.0068 12.1377 37.0605C12.2242 36.9713 12.3441 36.9144 12.4775 36.9092C12.7105 36.9002 12.9136 37.0525 12.9766 37.2686C13.1172 37.2815 13.2397 37.3519 13.3223 37.457L13.3262 36.7715V36.7568L13.3408 36.3242L13.3545 36.2256C13.4074 36.0022 13.6095 35.8376 13.8477 35.8408C14.1197 35.8447 14.339 36.0658 14.3408 36.3379L14.3506 37.8115C14.3935 37.8004 14.438 37.7922 14.4844 37.793C14.4942 37.7931 14.504 37.7952 14.5137 37.7959L14.5254 37.083L14.5371 36.9844C14.5858 36.7611 14.7834 36.5942 15.0205 36.5918C15.2915 36.5891 15.5156 36.8024 15.5254 37.0732L15.5293 37.2109C15.6158 37.133 15.7292 37.0843 15.8545 37.082C16.0696 37.0782 16.2535 37.2119 16.3271 37.4023L16.3311 37.1709L16.3428 37.0713C16.3917 36.8459 16.5925 36.6775 16.832 36.6777C16.8509 36.6778 16.8694 36.6815 16.8877 36.6836C16.9576 36.5095 17.1226 36.3835 17.3203 36.3711C17.5818 36.3549 17.8115 36.5431 17.8467 36.8027L17.8613 36.9092L17.8662 36.9688L17.8945 39.1514L17.9033 39.7529C17.9695 39.699 18.0496 39.6628 18.1377 39.6484L18.1523 38.8135L18.1641 38.7148C18.1897 38.5978 18.257 38.4972 18.3486 38.4268L18.3691 36.5664L18.3975 33.6533L18.4062 33.5645C18.4444 33.3637 18.6034 33.2028 18.8105 33.166C19.0473 33.1241 19.2803 33.2565 19.3652 33.4814L19.3799 33.5195L19.4033 33.6045C19.4087 33.6332 19.4119 33.663 19.4121 33.6924L19.4365 36.624C19.4757 36.6198 19.516 36.6196 19.5566 36.625C19.7039 36.6449 19.8279 36.7281 19.9053 36.8447L19.9287 34.3936L19.9404 34.2939C19.9885 34.068 20.1888 33.8986 20.4287 33.8984C20.7027 33.8982 20.9255 34.1186 20.9287 34.3926L20.9434 35.7197V35.7227L20.958 38.415C20.9687 38.4137 20.9793 38.4108 20.9902 38.4102C21.0424 38.4069 21.0932 38.4128 21.1416 38.4248L21.1719 35.9404V35.9307L21.1865 35.4883L21.1934 35.4199C21.2198 35.2652 21.3185 35.1297 21.4609 35.0576C21.6237 34.9755 21.8183 34.9888 21.9688 35.0918L21.9834 35.1016L22.0732 35.1797C22.1519 35.2673 22.1972 35.3817 22.2002 35.502L22.2295 36.7041V36.709L22.2646 39.0576C22.2788 39.0564 22.2931 39.0537 22.3076 39.0537H22.3223L22.4199 39.0625C22.6407 39.1064 22.81 39.2963 22.8213 39.5293L22.8301 39.7275C22.9139 39.5653 23.0842 39.4567 23.2764 39.457L23.2959 37.4902V37.4707L23.3105 37.1729L23.3252 37.0742C23.3808 36.8537 23.5825 36.6935 23.8184 36.6973C24.088 36.7017 24.3059 36.9189 24.3105 37.1885V37.208C24.4875 37.2839 24.6115 37.4595 24.6133 37.6641L24.6191 38.4453C24.6467 38.4493 24.6733 38.4556 24.6992 38.4639C24.7557 38.4153 24.8223 38.3789 24.8965 38.3594L24.9141 37.7217L24.9258 37.626C24.9742 37.4098 25.1625 37.2466 25.3916 37.2363C25.5939 37.2274 25.7734 37.3409 25.8594 37.5127C25.9062 37.5282 25.9496 37.5502 25.9893 37.5781L26.0703 28.9023V28.9004L26.1133 25.5244L26.124 25.4297C26.1686 25.2141 26.3518 25.0479 26.5791 25.0322C26.6476 25.0275 26.714 25.0375 26.7754 25.0586L26.7783 24.4609V24.4531L26.792 23.7227L26.8047 23.624C26.8544 23.3999 27.0537 23.2326 27.292 23.2324C27.5642 23.2323 27.7864 23.4505 27.792 23.7227L27.8066 24.4336V24.4404L27.8359 28.7012V28.7022L27.8389 29.3066C27.9621 29.3871 28.0495 29.5197 28.0645 29.6768L28.0791 29.8311L28.0811 29.874V29.9092C28.2731 29.9778 28.4112 30.1587 28.4131 30.374L28.4434 33.9561C28.5043 34.0377 28.5425 34.1385 28.5439 34.248L28.5527 34.9395C28.556 34.9385 28.5592 34.9374 28.5625 34.9365L28.5986 28.8652V28.8486L28.6133 28.4834L28.627 28.3848C28.6804 28.1637 28.8803 28.0014 29.1162 28.0029C29.1797 28.0034 29.2401 28.0161 29.2959 28.0381L29.3066 25.2988L29.3076 25.2705L29.3213 25.0303L29.3369 24.9326C29.3946 24.7124 29.598 24.5534 29.834 24.5596C30.1035 24.5667 30.3194 24.787 30.3213 25.0566L30.3359 27.2949C30.4003 27.3332 30.4557 27.3862 30.498 27.4512C30.5635 27.3145 30.6885 27.2109 30.8438 27.1777C30.9314 27.159 31.0195 27.1644 31.1006 27.1904L31.1562 14.498L31.166 14.3975C31.2132 14.1709 31.414 14.0008 31.6543 14Z" fill="white"/>
<path d="M6 31L8.88675 26L3.11325 26L6 31ZM6.5 14C6.5 13.7239 6.27614 13.5 6 13.5C5.72386 13.5 5.5 13.7239 5.5 14L6.5 14ZM6 26.5L6.5 26.5L6.5 14L6 14L5.5 14L5.5 26.5L6 26.5Z" fill="white"/>
<path d="M21 31L23.8868 26L18.1132 26L21 31ZM21.5 14C21.5 13.7239 21.2761 13.5 21 13.5C20.7239 13.5 20.5 13.7239 20.5 14L21.5 14ZM21 26.5L21.5 26.5L21.5 14L21 14L20.5 14L20.5 26.5L21 26.5Z" fill="white"/>
<path d="M3.75852 12V3.27273H7.2017C7.86364 3.27273 8.42756 3.39915 8.89347 3.65199C9.35938 3.90199 9.71449 4.25 9.95881 4.69602C10.206 5.1392 10.3295 5.65057 10.3295 6.23011C10.3295 6.80966 10.2045 7.32102 9.95455 7.7642C9.70455 8.20739 9.34233 8.55256 8.8679 8.79972C8.39631 9.04687 7.82528 9.17045 7.15483 9.17045H4.96023V7.69176H6.85653C7.21165 7.69176 7.50426 7.63068 7.73438 7.50852C7.96733 7.38352 8.14063 7.21165 8.25426 6.9929C8.37074 6.77131 8.42898 6.51705 8.42898 6.23011C8.42898 5.94034 8.37074 5.6875 8.25426 5.47159C8.14063 5.25284 7.96733 5.08381 7.73438 4.96449C7.50142 4.84233 7.20597 4.78125 6.84801 4.78125H5.60369V12H3.75852Z" fill="white"/>
<path d="M22.4929 5.78267C22.4588 5.43892 22.3125 5.17187 22.054 4.98153C21.7955 4.79119 21.4446 4.69602 21.0014 4.69602C20.7003 4.69602 20.446 4.73864 20.2386 4.82386C20.0313 4.90625 19.8722 5.02131 19.7614 5.16903C19.6534 5.31676 19.5994 5.48438 19.5994 5.67188C19.5938 5.82812 19.6264 5.96449 19.6974 6.08097C19.7713 6.19744 19.8722 6.2983 20 6.38352C20.1278 6.46591 20.2756 6.53835 20.4432 6.60085C20.6108 6.66051 20.7898 6.71165 20.9801 6.75426L21.7642 6.94176C22.1449 7.02699 22.4943 7.14062 22.8125 7.28267C23.1307 7.42472 23.4063 7.59943 23.6392 7.80682C23.8722 8.0142 24.0526 8.25852 24.1804 8.53977C24.3111 8.82102 24.3778 9.14347 24.3807 9.5071C24.3778 10.0412 24.2415 10.5043 23.9716 10.8963C23.7045 11.2855 23.3182 11.5881 22.8125 11.804C22.3097 12.017 21.7031 12.1236 20.9929 12.1236C20.2884 12.1236 19.6747 12.0156 19.152 11.7997C18.6321 11.5838 18.2259 11.2642 17.9332 10.8409C17.6435 10.4148 17.4915 9.88778 17.4773 9.25994H19.2628C19.2827 9.55256 19.3665 9.79687 19.5142 9.9929C19.6648 10.1861 19.8651 10.3324 20.1151 10.4318C20.3679 10.5284 20.6534 10.5767 20.9716 10.5767C21.2841 10.5767 21.5554 10.5312 21.7855 10.4403C22.0185 10.3494 22.1989 10.223 22.3267 10.0611C22.4545 9.89915 22.5185 9.71307 22.5185 9.50284C22.5185 9.30682 22.4602 9.14205 22.3438 9.00852C22.2301 8.875 22.0625 8.76136 21.8409 8.66761C21.6222 8.57386 21.3537 8.48864 21.0355 8.41193L20.0852 8.1733C19.3494 7.99432 18.7685 7.71449 18.3423 7.33381C17.9162 6.95312 17.7045 6.44034 17.7074 5.79545C17.7045 5.26705 17.8452 4.8054 18.1293 4.41051C18.4162 4.01562 18.8097 3.70739 19.3097 3.4858C19.8097 3.2642 20.3778 3.15341 21.0142 3.15341C21.6619 3.15341 22.2273 3.2642 22.7102 3.4858C23.196 3.70739 23.5739 4.01562 23.8438 4.41051C24.1136 4.8054 24.2528 5.26278 24.2614 5.78267H22.4929Z" fill="white"/>
</svg>
