<svg width="75" height="74" viewBox="0 0 75 74" fill="none" xmlns="http://www.w3.org/2000/svg">
<path d="M32.0996 6.8935C32.3733 6.89211 32.5977 7.11106 32.6025 7.38471L32.6152 8.13569V8.14252L32.6406 14.9072L32.6514 18.3984C32.6529 18.3984 32.6547 18.3984 32.6562 18.3984C32.6825 18.3986 32.7083 18.4021 32.7334 18.4062L32.7783 9.42573L32.7793 9.39448L32.792 9.20795L32.8086 9.1103C32.8679 8.89197 33.0703 8.73577 33.3047 8.74213C33.5729 8.74973 33.7879 8.96792 33.791 9.23627L33.8164 11.4248V11.4257L33.8672 16.0429L33.8818 17.1835C33.908 16.9382 34.1099 16.7453 34.3613 16.7373C34.5166 16.7324 34.6566 16.8002 34.752 16.9091C34.8114 16.6979 35.0058 16.545 35.2334 16.5449C35.2873 16.5449 35.3389 16.5553 35.3877 16.5712L35.4102 12.6269L35.4199 12.5312C35.463 12.3148 35.6464 12.1475 35.874 12.1308C36.1344 12.112 36.3663 12.2965 36.4053 12.5546L36.418 12.6396L36.4229 12.708L36.4492 14.6953V14.6982L36.4668 17.2548C36.5787 17.3396 36.6552 17.4698 36.665 17.6201L36.6689 17.6904L36.6758 17.288L36.7266 12.6503L36.7373 12.5517C36.7845 12.3288 36.9806 12.161 37.2168 12.1562C37.4869 12.1508 37.7128 12.361 37.7266 12.6308L37.7393 12.8808V12.9023L37.7646 15.7089L37.79 18.5898L37.7998 17.4716V17.4706L37.8389 14.2958V14.2783L37.8516 14.0068L37.8643 13.916C37.9124 13.7102 38.0877 13.5526 38.3047 13.5322C38.5525 13.509 38.78 13.6719 38.8379 13.914L38.8506 13.9677L38.8633 14.0595L38.9121 15.079L38.918 15.1083L38.9268 15.1699L38.9395 15.3408L38.9404 15.3691L38.9658 16.8876V16.8906L38.9814 18.416C39.0302 18.3734 39.0875 18.3397 39.1514 18.3183C39.3494 18.2522 39.5671 18.316 39.6982 18.4785L39.7119 18.4941L39.7578 18.5615C39.7781 18.5973 39.7918 18.6361 39.8027 18.6757C39.8278 18.6875 39.8513 18.702 39.874 18.7177C39.9432 18.6795 40.0222 18.6557 40.1064 18.6542C40.375 18.6498 40.5995 18.8587 40.6143 19.1269L40.6201 19.2333C40.671 19.2841 40.71 19.3456 40.7354 19.415C40.7625 19.4083 40.7907 19.4044 40.8193 19.4023L40.8281 18.9902L40.8398 18.8935L40.8525 18.8349L40.8799 18.747C40.9125 18.6693 40.9647 18.6028 41.0283 18.5517L41.0459 17.5956L41.0537 17.5126C41.0688 17.4317 41.104 17.3548 41.1562 17.29L41.1689 17.2744L41.2227 17.2177C41.3557 17.097 41.5459 17.056 41.7197 17.1152C41.9185 17.183 42.0541 17.3681 42.0586 17.5781L42.084 18.7656V18.7705L42.0898 19.2851C42.1741 19.1458 42.3237 19.0508 42.4971 19.0439C42.661 19.0375 42.8111 19.1106 42.9072 19.2304C43.0071 19.1319 43.1469 19.0756 43.2959 19.0869C43.5478 19.1062 43.7463 19.3111 43.7578 19.5634L43.7627 19.6845C43.8677 19.7587 43.9445 19.8717 43.9678 20.0068L43.9805 20.081L43.9873 20.1396L44.0127 20.6249V20.6269L44.0293 20.9794C44.0839 20.7846 44.253 20.6404 44.459 20.6191L44.4707 20.2519L44.4746 20.2001L44.5 20.0136L44.5215 19.9238C44.5885 19.7216 44.7792 19.5797 44.999 19.581C45.2502 19.5827 45.4614 19.7711 45.4922 20.0205L45.5176 20.2275L45.5205 20.2656L45.5254 20.3847C45.5337 20.3708 45.5432 20.3576 45.5527 20.3447L45.5576 20.2695L45.5654 20.204C45.5697 20.1823 45.5759 20.1607 45.583 20.1396L45.5957 20.1025L45.6006 20.0908L45.6211 19.6113L45.6592 18.6289L45.6719 18.5322C45.7237 18.3142 45.9184 18.1524 46.1504 18.1484C46.4156 18.144 46.638 18.3477 46.6572 18.6123L46.6699 18.788L46.6709 18.8134L46.6895 19.7158C46.7691 19.6597 46.8651 19.6256 46.9688 19.624H46.9697L47.0137 17.6992L47.0225 17.6142L47.0352 17.5498L47.0615 17.4609C47.1408 17.2627 47.3408 17.1332 47.5605 17.1484C47.8118 17.1661 48.0114 17.3676 48.0254 17.6191L48.0381 17.8535L48.0391 17.8701L48.0645 19.0419V19.0439L48.0742 19.6396C48.1743 19.7228 48.2424 19.843 48.2539 19.9814L48.2666 20.1357L48.2686 20.163L48.2754 20.4472C48.3635 20.4442 48.4519 20.4617 48.5312 20.5048C48.6636 20.5768 48.7566 20.7044 48.7842 20.8525L48.7969 20.9218L48.8047 20.9785L48.8203 21.2158C48.8317 21.2297 48.8417 21.2445 48.8516 21.2597C48.9124 21.1075 49.0452 20.9914 49.2109 20.956C49.329 20.9309 49.4482 20.9506 49.5498 21.0048C49.5778 20.9985 49.6072 20.9945 49.6367 20.9931C49.6865 20.9908 49.735 20.9971 49.7812 21.0087C49.8648 20.8685 50.0134 20.7729 50.1855 20.7646C50.4331 20.7528 50.6522 20.9238 50.7002 21.1669L50.7129 21.2304L50.7217 21.3017L50.7471 21.8027V21.8085L50.75 21.871L50.7842 21.5146L50.8213 20.5312L50.8281 20.4687C50.8315 20.4482 50.8359 20.4272 50.8418 20.4072L50.8545 20.3652L50.8877 20.2822C50.9803 20.0983 51.179 19.9871 51.3896 20.0107C51.6223 20.037 51.8031 20.2206 51.8291 20.4511C52.0293 20.4395 52.22 20.5485 52.3086 20.7324L52.3213 20.7587L52.3447 20.8242C52.4213 20.7758 52.5126 20.7485 52.6094 20.748C52.648 20.7478 52.6855 20.7526 52.7217 20.7607C52.7232 20.7556 52.7248 20.7501 52.7266 20.7451L52.752 20.6708L52.7949 20.5771C52.8471 20.4892 52.9258 20.4185 53.0205 20.3759C53.1469 20.3193 53.2913 20.3174 53.4189 20.371L53.4316 20.3769L53.5117 20.4189C53.5869 20.4681 53.6477 20.5373 53.6875 20.6191L53.7002 20.6455L53.7285 20.7187C53.736 20.7433 53.7425 20.7684 53.7461 20.7939L53.7715 20.9755L53.7754 21.0117L53.793 21.2763C54.0217 21.2613 54.2318 21.4038 54.3018 21.623L54.3271 21.7031L54.3398 21.7665L54.3623 21.7763L54.3711 21.7802L54.3867 21.541L54.4004 21.4531C54.4494 21.2536 54.6181 21.1007 54.8281 21.0761C55.0685 21.0483 55.2952 21.1961 55.3652 21.4277L55.3779 21.4706L55.3828 21.5009C55.4166 21.5097 55.4488 21.5217 55.4795 21.5371L55.498 21.1396L55.5059 21.0712L55.5195 21.0019L55.543 20.9169C55.6147 20.7264 55.7974 20.5954 56.0068 20.5937C56.1001 20.593 56.1887 20.6182 56.2646 20.663C56.3508 20.5857 56.4637 20.5378 56.5879 20.5351C56.6974 20.5329 56.7989 20.5675 56.8828 20.6259C56.9054 20.6118 56.93 20.5993 56.9551 20.5888C57.1271 20.517 57.3246 20.5475 57.4678 20.6669L57.4814 20.6777L57.5537 20.7519C57.6172 20.8326 57.6549 20.9318 57.6602 21.0361L57.6689 21.2246C57.7374 21.2276 57.8021 21.244 57.8613 21.2724L57.8623 21.2275L57.8633 21.204L57.876 21.0078L57.8916 20.9121C57.9485 20.6964 58.1451 20.5396 58.376 20.54C58.6397 20.5406 58.8579 20.7464 58.874 21.0097L58.8867 21.2167L58.8877 21.2324L58.8906 21.3398C58.9196 21.3495 58.9473 21.3613 58.9736 21.3759L58.9863 20.8417L58.999 20.7431C59.0494 20.5197 59.2488 20.3536 59.4863 20.3535H59.499L59.5986 20.3632C59.772 20.3982 59.911 20.5239 59.9688 20.6884C60.0175 20.6723 60.0694 20.6623 60.123 20.6621C60.3563 20.661 60.5555 20.8219 60.6094 21.0458C60.6315 21.0393 60.6545 21.0347 60.6777 21.0312C60.7428 21.0002 60.8153 20.9825 60.8916 20.9824H60.9053L60.9785 20.9882C61.0918 20.8063 61.3093 20.7169 61.5186 20.7665C61.6672 20.8019 61.7863 20.9026 61.8506 21.0341C61.9426 21.116 62.0049 21.2319 62.0166 21.3632L62.0293 21.5068L62.0303 21.5283L62.0361 21.6757C62.0849 21.6478 62.1396 21.6284 62.1973 21.6181C62.2065 21.6165 62.2163 21.6163 62.2256 21.6152C62.2365 21.5968 62.2494 21.5794 62.2627 21.5624L62.2754 21.5458L62.3271 21.4892C62.4575 21.3675 62.6456 21.3229 62.8193 21.3779C63.0025 21.436 63.1322 21.5939 63.1602 21.7812C63.1673 21.7762 63.1752 21.7721 63.1826 21.7675C63.2746 21.6676 63.4057 21.6055 63.5498 21.6054C63.6567 21.6055 63.7558 21.6409 63.8379 21.6992C63.8789 21.6787 63.9241 21.6658 63.9707 21.6572C64.0466 21.5895 64.143 21.5461 64.2471 21.5341C64.2734 21.5311 64.3002 21.53 64.3262 21.5312C64.3378 21.5311 64.3497 21.5305 64.3613 21.5312L64.4316 21.541C64.522 21.4326 64.6564 21.3629 64.8066 21.3603C65.0602 21.3562 65.2769 21.5426 65.3105 21.7939L65.3359 21.9853L65.3389 22.0146L65.3574 22.2695C65.4088 22.2781 65.4596 22.2926 65.5068 22.3173C65.5208 22.3246 65.5328 22.3352 65.5459 22.3437L65.5693 22.079L65.5928 21.9638C65.6297 21.8525 65.7053 21.7565 65.8076 21.6943C65.9409 21.6133 66.1041 21.5996 66.249 21.6562C66.2531 21.655 66.2576 21.6543 66.2617 21.6533C66.2947 21.6398 66.3291 21.6292 66.3643 21.623C66.4266 21.5912 66.4964 21.5714 66.5703 21.5683C66.7258 21.5619 66.8691 21.6278 66.9658 21.7373C67.025 21.686 67.0979 21.649 67.1777 21.6298C67.2144 21.6211 67.2515 21.6176 67.2881 21.6171C67.365 21.5668 67.4563 21.5381 67.5518 21.5361C67.7404 21.5322 67.9154 21.6351 68.0039 21.8017L68.0254 21.8056C68.0972 21.823 68.1625 21.8573 68.2188 21.9023C68.3592 21.8891 68.4979 21.9355 68.6016 22.0302C68.6786 22.0449 68.7501 22.0778 68.8115 22.1249C68.814 22.1247 68.8168 22.1242 68.8193 22.124C68.8841 22.1179 68.9475 22.125 69.0068 22.1425C69.0601 21.9214 69.2574 21.7611 69.4893 21.7597C69.5067 21.7596 69.524 21.7619 69.541 21.7636C69.5702 21.7493 69.6009 21.7379 69.6328 21.7294C69.7108 21.593 69.8509 21.4982 70.0127 21.4804C70.1717 21.4631 70.3245 21.5239 70.4297 21.6367V24.0751C70.3915 24.0903 70.3516 24.1029 70.3096 24.1083C70.1394 24.1302 69.974 24.0627 69.8662 23.9365C69.8402 23.9326 69.8148 23.9266 69.79 23.9189C69.7253 23.9386 69.656 23.9467 69.5859 23.9384C69.5414 23.9331 69.4992 23.9204 69.459 23.9042C69.4205 24.1453 69.2146 24.3261 68.9678 24.3261H68.9551C68.7618 24.326 68.5928 24.2153 68.5098 24.0527C68.4397 24.2282 68.2779 24.3522 68.0869 24.3671C67.881 24.3831 67.6858 24.2703 67.5967 24.0839L67.584 24.0576C67.5824 24.0542 67.5816 24.0502 67.5801 24.0468C67.5666 24.0509 67.5529 24.0546 67.5391 24.0576C67.4679 24.2057 67.3292 24.3106 67.166 24.3359C66.9969 24.3619 66.8255 24.2997 66.7129 24.1708L66.6621 24.1122C66.6454 24.0931 66.6298 24.0722 66.6162 24.0507L66.5801 23.9824L66.5547 23.9238C66.553 23.9199 66.5514 23.916 66.5498 23.9121C66.4048 23.8457 66.2983 23.7128 66.2676 23.5517C66.2657 23.5516 66.2636 23.5518 66.2617 23.5517L66.2461 23.7675L66.2412 23.8085L66.2285 23.8886C66.1937 24.1058 66.0226 24.2698 65.8125 24.3027C65.7335 24.3982 65.6208 24.4649 65.4912 24.4814C65.4819 24.4825 65.4721 24.4817 65.4629 24.4824C65.3525 24.6023 65.1888 24.6648 65.0215 24.6396C64.8046 24.6068 64.6342 24.4365 64.6016 24.2197L64.5889 24.1337L64.584 24.0859L64.5781 23.9716C64.5545 23.9756 64.5304 23.9789 64.5059 23.9794C64.4567 23.9804 64.4088 23.9724 64.3633 23.9599L64.3564 24.1201L64.3545 24.1396L64.3418 24.289C64.3366 24.3495 64.3203 24.4091 64.2939 24.4638L64.2812 24.4902C64.1831 24.6936 63.9603 24.8063 63.7383 24.7646C63.6001 24.7385 63.4837 24.6563 63.4111 24.5439C63.325 24.6034 63.221 24.638 63.1094 24.6337C63.023 24.6304 62.9429 24.6042 62.873 24.5624C62.6626 24.5299 62.4927 24.3684 62.4561 24.1552L62.4502 24.1191C62.401 24.3315 62.2204 24.4909 61.999 24.5058C61.9255 24.5107 61.8545 24.4974 61.7891 24.4726L61.7881 24.5078V24.5146L61.7617 25.0732C61.7611 25.0874 61.7597 25.1021 61.7578 25.1162L61.7451 25.2119C61.7129 25.4555 61.5084 25.64 61.2627 25.6464C61.0173 25.6526 60.8039 25.4795 60.7588 25.2382L60.7451 25.1689C60.7409 25.1464 60.7384 25.1234 60.7373 25.1005L60.7148 24.6142C60.6526 24.6385 60.5852 24.6531 60.5146 24.6503C60.5122 24.6502 60.5093 24.6485 60.5068 24.6484L60.4951 24.7705C60.4894 24.8275 60.4738 24.8837 60.4492 24.9355L60.4365 24.9619C60.3414 25.1617 60.1259 25.2755 59.9072 25.2412C59.6953 25.2078 59.5297 25.0429 59.4932 24.833C59.3 24.8005 59.1481 24.6602 59.0967 24.4765L59.0781 24.7597C59.0688 24.8971 59.0028 25.0248 58.8965 25.1122L58.8838 25.123C58.7371 25.2434 58.5345 25.2701 58.3613 25.1923C58.2525 25.1434 58.1665 25.0586 58.1162 24.955C58.0154 25.0326 57.887 25.0736 57.7529 25.0576C57.5117 25.0284 57.3262 24.8295 57.3135 24.5869L57.3027 24.3769C57.2918 24.3767 57.2806 24.3779 57.2695 24.3769C57.2454 24.3747 57.2222 24.3687 57.1992 24.3632C57.1078 24.4108 57.0022 24.4322 56.8945 24.416C56.8297 24.4061 56.7697 24.3824 56.7158 24.3505C56.6843 24.3515 56.6522 24.3509 56.6201 24.3456C56.583 24.3395 56.5475 24.3281 56.5137 24.3144C56.5124 24.3147 56.511 24.3151 56.5098 24.3154C56.4101 24.3985 56.2799 24.4401 56.1445 24.4277C56.0482 24.5303 55.9116 24.5912 55.7656 24.5869C55.6265 24.5826 55.4997 24.5194 55.4102 24.4199C55.3116 24.3992 55.2245 24.3493 55.1562 24.2792C55.1502 24.2761 55.1436 24.2738 55.1377 24.2705L55.1279 24.372L55.1172 24.4384L55.1045 24.4912C55.0681 24.6421 54.965 24.761 54.833 24.8242C54.7461 24.9756 54.5842 25.0771 54.4004 25.0771C54.1515 25.0769 53.9401 24.8929 53.9053 24.6464L53.8945 24.5761C53.8394 24.5636 53.7853 24.5448 53.7363 24.5136C53.692 24.4854 53.6548 24.4495 53.6221 24.4101C53.5939 24.4193 53.5651 24.4265 53.5352 24.4306L53.5322 24.4882C53.5189 24.682 53.3959 24.8439 53.2256 24.915C53.1501 25.0502 53.0153 25.1484 52.8535 25.1689C52.8376 25.1709 52.8214 25.1694 52.8057 25.1699C52.7133 25.2734 52.5793 25.3378 52.4326 25.3378C52.2087 25.3377 52.0154 25.1884 51.9541 24.9765C51.7485 24.9193 51.5979 24.7375 51.5879 24.5195L51.5781 24.3144C51.5315 24.3085 51.487 24.297 51.4453 24.2792L51.4111 24.8017C51.4107 24.8084 51.4099 24.8155 51.4092 24.8222L51.3965 24.9394C51.3684 25.1963 51.149 25.3902 50.8906 25.3857C50.6324 25.3811 50.4197 25.1803 50.4004 24.9228L50.3955 24.8642C50.329 24.7933 50.2809 24.7039 50.2646 24.6025L50.2549 24.539L50.2207 24.4052C50.12 24.3487 50.0386 24.2579 49.9961 24.1435L49.9707 24.0742C49.9652 24.0592 49.9611 24.0436 49.957 24.0283C49.9115 24.0407 49.8638 24.0499 49.8145 24.0488C49.7792 24.0479 49.745 24.0419 49.7119 24.0341V24.0585L49.6865 24.4746C49.6765 24.6352 49.5894 24.7815 49.4531 24.8671C49.4254 24.8845 49.3952 24.8967 49.3652 24.9081L49.3418 25.8417C49.3416 25.8498 49.3414 25.8581 49.3408 25.8662L49.3281 26.0361C49.3084 26.2961 49.0918 26.498 48.8311 26.499C48.6774 26.4994 48.5397 26.4293 48.4473 26.3193V26.3271L48.4463 26.3398L48.4209 26.7441C48.4168 26.8085 48.4001 26.8715 48.3721 26.9296L48.3594 26.956C48.2608 27.1603 48.0371 27.2734 47.8145 27.2304C47.6877 27.2058 47.5804 27.1329 47.5078 27.0341C47.4145 27.1349 47.2825 27.1982 47.1357 27.1962L47.1338 27.1953L47.1172 27.4121C47.1139 27.4539 47.1054 27.4954 47.0918 27.5351L47.0791 27.5722C47.0023 27.7962 46.7789 27.9356 46.5439 27.9062C46.309 27.8767 46.1265 27.6862 46.1074 27.4501L46.0947 27.291L46.0928 27.2597L46.0518 25.1269C46.0389 25.1339 46.0252 25.1396 46.0117 25.1455L45.9932 25.4882L45.9883 25.5351L45.9629 25.706C45.93 25.9228 45.7598 26.0933 45.543 26.1259C45.3258 26.1583 45.1123 26.0447 45.0176 25.8466L45.0049 25.8203C44.9908 25.7908 44.9798 25.76 44.9717 25.7285C44.878 25.6692 44.8036 25.5791 44.7656 25.4677L44.7529 25.4306C44.7436 25.4034 44.7369 25.375 44.7324 25.3466C44.6473 25.4868 44.497 25.5778 44.3271 25.5849C44.3238 25.6147 44.3211 25.645 44.3125 25.6738L44.2998 25.7158C44.2307 25.9462 44.0068 26.0956 43.7676 26.0703C43.7069 26.0638 43.6498 26.0455 43.5977 26.0195L43.5918 26.3857V26.3964L43.5664 27.0624C43.5651 27.0953 43.5604 27.1281 43.5527 27.1601L43.5391 27.2138C43.4804 27.4555 43.2534 27.6174 43.0059 27.5937C42.7583 27.5699 42.5653 27.3675 42.5537 27.1191L42.5273 26.5654C42.5228 26.5628 42.5181 26.5603 42.5137 26.5576C42.4441 26.7562 42.2558 26.896 42.0361 26.8925C41.8062 26.8887 41.6124 26.7301 41.5586 26.5146L41.5449 26.4189L41.543 26.3896C41.5366 26.3871 41.5297 26.3855 41.5234 26.3828L41.5215 26.4423C41.5127 26.6345 41.3939 26.8047 41.2168 26.8798L41.2041 26.8857C41.056 26.9483 40.8864 26.9361 40.749 26.8525C40.6359 26.7836 40.558 26.6722 40.5264 26.5458C40.4907 26.5386 40.455 26.5289 40.4209 26.5136C40.3805 26.4955 40.3439 26.4715 40.3105 26.4443C40.2341 26.6424 40.0391 26.7769 39.8184 26.7646C39.6916 26.7575 39.5782 26.7027 39.4941 26.6191L39.4775 27.5156C39.4773 27.5289 39.4759 27.5424 39.4746 27.5556L39.4619 27.6835C39.4541 27.7618 39.4268 27.8335 39.3877 27.8964L39.374 28.1357C39.3683 28.2394 39.3304 28.3387 39.2656 28.4199L39.2529 28.4365C39.1229 28.5991 38.905 28.664 38.707 28.5996C38.5935 28.5624 38.5013 28.4863 38.4404 28.3896L38.4297 28.8027C38.4244 29.0009 38.3018 29.1779 38.1182 29.2529L38.1055 29.2578C37.9535 29.3197 37.7809 29.3035 37.6436 29.2138C37.6158 29.1957 37.5916 29.1731 37.5684 29.1503L37.5605 30.1738V30.1787L37.5479 30.9023C37.5429 31.1756 37.3192 31.3945 37.0459 31.3935C36.8069 31.3925 36.6068 31.2241 36.5586 30.999L36.5479 30.8984L36.5439 30.582C36.5395 30.5821 36.5348 30.584 36.5303 30.5839C36.4483 30.5828 36.3716 30.5603 36.3037 30.5244L36.2822 31.6962C36.2782 31.919 36.1272 32.113 35.9121 32.1708C35.7241 32.2211 35.5268 32.1569 35.4033 32.0126L35.3545 31.9462L35.3418 31.9247C35.2959 31.8488 35.2708 31.7615 35.2695 31.6728L35.2549 30.5478C35.1646 30.6862 35.009 30.7781 34.832 30.7763C34.5602 30.7732 34.3398 30.553 34.3369 30.2812L34.335 30.1083C34.1833 30.0275 34.0772 29.8726 34.0693 29.6904L34.0566 29.3915C34.0564 29.3865 34.0557 29.381 34.0557 29.3759L34.043 28.2871C34.0078 28.2923 33.9714 28.2954 33.9346 28.2929C33.6752 28.2753 33.4729 28.0616 33.4688 27.8017L33.4658 27.6259C33.441 27.6476 33.4144 27.6671 33.3857 27.6835L33.3818 28.1972V28.1982L33.3438 32.3105V32.3134L33.3184 33.8583L33.3174 33.8759L33.3047 34.121C33.2908 34.3869 33.0709 34.596 32.8047 34.5956C32.5384 34.5951 32.3186 34.385 32.3057 34.1191L32.2803 33.5917V33.5761L32.2412 31.3769V31.371L32.2344 30.374C32.2322 30.3722 32.2297 30.3709 32.2275 30.3691L32.2188 30.8867C32.2185 30.9001 32.2181 30.9143 32.2168 30.9277L32.2041 31.0556C32.1778 31.3176 31.9526 31.5148 31.6895 31.5058C31.5812 31.502 31.4824 31.4621 31.4023 31.4003L31.3887 33.3535L31.3877 33.372L31.375 33.6542C31.3627 33.9246 31.1378 34.1365 30.8672 34.1318C30.5964 34.1267 30.3783 33.9065 30.376 33.6357L30.3545 30.9697C30.2154 30.8818 30.1215 30.7282 30.1201 30.5517L30.1133 29.7392C30.0008 29.7344 29.8988 29.6934 29.8174 29.6259L29.8037 31.5576V31.5615L29.791 32.5195C29.7875 32.7765 29.5901 32.9898 29.334 33.0117C29.2873 33.0156 29.2413 33.0104 29.1973 33.0019L29.1904 34.6728V34.6738L29.165 39.2011V39.205L29.1523 40.079C29.1482 40.3473 28.9332 40.5645 28.665 40.5712C28.3967 40.5776 28.1703 40.3704 28.1533 40.1025L28.1406 39.9003C28.14 39.8908 28.1397 39.8806 28.1396 39.871L28.1123 34.1562C28.0215 34.2173 27.9116 34.2514 27.7949 34.2421C27.5693 34.2238 27.388 34.0572 27.3447 33.8427L27.335 33.748L27.2939 28.916C27.0572 28.914 26.8588 28.7485 26.8096 28.5253L26.7979 28.4257L26.7393 25.122C26.7137 25.083 26.6947 25.0394 26.6807 24.9931C26.674 24.987 26.6674 24.981 26.6611 24.9746C26.6323 24.9687 26.604 24.9618 26.5771 24.9511L26.5713 25.2109C26.571 25.2237 26.5696 25.2372 26.5684 25.2499L26.5557 25.3779C26.5291 25.6397 26.3041 25.8361 26.041 25.8271C25.885 25.8216 25.7481 25.7443 25.6602 25.6279C25.6059 25.6467 25.548 25.6583 25.4873 25.6572C25.4468 25.6564 25.4077 25.6494 25.3701 25.6396C25.3638 25.6398 25.357 25.6416 25.3506 25.6415C25.0798 25.6387 24.86 25.4202 24.8555 25.1494L24.8535 25.0507C24.8223 25.0431 24.7922 25.0326 24.7637 25.0195C24.7035 25.2361 24.5025 25.3916 24.2695 25.3857C24.1783 25.3833 24.0942 25.3543 24.0215 25.3095L24.002 25.7695C24.0012 25.7869 23.9997 25.8049 23.9971 25.8222L23.9844 25.9072C23.9466 26.1597 23.7248 26.3434 23.4697 26.333C23.245 26.3235 23.0576 26.1665 23.0049 25.955C22.9144 25.9285 22.8336 25.8777 22.7715 25.8076L22.7637 26.1142L22.7617 26.1386L22.749 26.3037C22.7281 26.5704 22.5009 26.7738 22.2334 26.7646C21.966 26.7553 21.7535 26.537 21.751 26.2695L21.7461 25.7568C21.7363 25.7582 21.7266 25.7618 21.7168 25.7626H21.6514C21.6408 26.0321 21.4181 26.2448 21.1484 26.2431C21.0374 26.2424 20.9362 26.2035 20.8535 26.1415C20.7952 26.1633 20.7319 26.1754 20.666 26.1738C20.4314 26.1677 20.2369 26.0006 20.1895 25.7792L20.1787 25.6816L20.1699 25.0497C20.1077 25.1781 19.9927 25.2739 19.8535 25.3124L19.8496 25.4882C19.8493 25.5001 19.8488 25.5125 19.8477 25.5244L19.835 25.6581C19.8095 25.9214 19.5827 26.12 19.3184 26.1103C19.2119 26.1063 19.1153 26.067 19.0361 26.0068C19.0104 26.0227 18.9835 26.0367 18.9551 26.0478C18.8726 26.133 18.7601 26.1896 18.6338 26.1992C18.4112 26.2157 18.2081 26.0833 18.1299 25.8818L18.1045 25.7919L18.0918 25.7226L18.083 25.6455L18.0771 25.4472C18.04 25.4495 18.0025 25.4467 17.9648 25.4404C17.9156 25.4557 17.8638 25.4665 17.8096 25.4658C17.735 25.4647 17.6648 25.4453 17.6016 25.415C17.5527 25.4698 17.4913 25.5145 17.4209 25.5439L17.4082 25.5497C17.2885 25.5995 17.1561 25.5976 17.0371 25.5517C17.0016 25.5689 16.9643 25.5823 16.9248 25.5908L16.9238 25.7128L16.9229 25.7382L16.9102 25.9355C16.8927 26.2036 16.6661 26.4105 16.3975 26.4033C16.1718 26.397 15.9856 26.2409 15.9297 26.0322C15.9042 26.0539 15.8762 26.0725 15.8467 26.0888C15.8299 26.2651 15.7222 26.4212 15.5596 26.496C15.385 26.5762 15.1792 26.5492 15.0312 26.4267L15.0186 26.416C14.914 26.3293 14.8512 26.2038 14.8408 26.0693C14.7985 26.0727 14.7553 26.0722 14.7119 26.0644C14.4786 26.0221 14.3066 25.8219 14.3008 25.5849L14.2881 25.0497C14.2027 25.116 14.0965 25.1567 13.9805 25.1562C13.9118 25.1558 13.8467 25.1407 13.7871 25.1152C13.7179 25.2104 13.6156 25.2786 13.498 25.3066L13.4863 25.7519L13.4805 25.8173L13.4668 25.8964C13.4258 26.1517 13.1974 26.334 12.9395 26.3164C12.6815 26.2985 12.4793 26.0866 12.4736 25.8281L12.4414 24.3222C12.3583 24.3577 12.2688 24.3676 12.1816 24.3564C12.1394 24.5347 12.002 24.6728 11.8271 24.7206L11.8252 24.8124C11.8251 24.8175 11.8245 24.823 11.8242 24.8281L11.8115 25.0576C11.7963 25.3259 11.5715 25.5343 11.3027 25.5292C11.0677 25.5246 10.8727 25.3581 10.8242 25.1367L10.8125 25.039L10.8105 24.9404C10.6014 24.8834 10.447 24.6956 10.4424 24.4697L10.4395 24.3622C10.3287 24.3845 10.2123 24.3703 10.1104 24.3173C9.97883 24.2488 9.88422 24.1253 9.85254 23.9804L9.83984 23.9218C9.83356 23.893 9.83022 23.8634 9.8291 23.8339L9.82715 23.8027C9.75287 23.7927 9.68372 23.7668 9.62305 23.7275C9.56693 23.7469 9.50667 23.7577 9.44434 23.7558C9.39997 23.7544 9.35728 23.7446 9.31641 23.7324C9.27166 23.7415 9.22516 23.7478 9.17773 23.7441C9.02642 23.7322 8.89414 23.6527 8.81055 23.5361C8.73046 23.5345 8.65348 23.5142 8.58496 23.4775C8.48538 23.4972 8.38615 23.4864 8.29688 23.4492L8.27637 23.455C8.17514 23.4829 8.07041 23.4772 7.97559 23.4433C7.93647 23.4524 7.8965 23.4565 7.85645 23.456C7.84126 23.459 7.82607 23.4642 7.81055 23.4658C7.7802 23.4688 7.74971 23.4682 7.71973 23.4658C7.6985 23.4668 7.67733 23.4665 7.65625 23.4648C7.61773 23.4647 7.57992 23.4593 7.54199 23.4501C7.51213 23.4501 7.48245 23.4477 7.45312 23.4423C7.4023 23.4515 7.35061 23.4511 7.29883 23.4443C7.28712 23.4448 7.27536 23.4455 7.26367 23.4453C7.23746 23.446 7.21103 23.4448 7.18457 23.4414C7.15325 23.4454 7.12193 23.4462 7.09082 23.4443C7.07048 23.4472 7.05 23.4487 7.0293 23.4492C7.00184 23.4511 6.97452 23.4497 6.94727 23.4472C6.92053 23.4495 6.89397 23.4492 6.86719 23.4472C6.85025 23.4504 6.83285 23.4546 6.81543 23.456C6.78489 23.4584 6.75442 23.4571 6.72461 23.454C6.72108 23.4544 6.71742 23.4557 6.71387 23.456C6.66824 23.4596 6.62275 23.4557 6.5791 23.4472C6.53491 23.4524 6.49078 23.4508 6.44727 23.4443C6.37582 23.4597 6.30296 23.4582 6.23242 23.4423L6.21387 23.4414L6.19922 23.4384C6.18723 23.4393 6.17513 23.4404 6.16309 23.4404C6.08776 23.4603 6.00976 23.4598 5.93457 23.4443H5.8623C5.80268 23.456 5.74113 23.461 5.67969 23.4501C5.66837 23.4481 5.65755 23.4422 5.64648 23.4394C5.63975 23.4397 5.63275 23.4414 5.62598 23.4414H5.53125C5.51419 23.4443 5.49697 23.45 5.47949 23.4511C5.47436 23.4514 5.46898 23.45 5.46387 23.4501C5.44535 23.4542 5.42639 23.457 5.40723 23.4589C5.33107 23.4725 5.25321 23.4696 5.17969 23.4482C5.14222 23.4571 5.10304 23.4628 5.06348 23.4628C5.05699 23.4628 5.05039 23.4611 5.04395 23.4609C5.0375 23.4618 5.03092 23.4651 5.02441 23.4658C4.98842 23.4694 4.95236 23.4679 4.91699 23.4638L4.7207 23.6699L3.99902 22.9775L4.34473 22.6171L4.37012 22.5898L4.46484 22.5136C4.54081 22.4657 4.6286 22.4408 4.71875 22.4384C4.83282 22.3945 4.9581 22.3936 5.07129 22.4355C5.14054 22.4144 5.21405 22.4108 5.28613 22.4208C5.34176 22.4067 5.39977 22.4005 5.45801 22.4062C5.48022 22.4084 5.50196 22.4148 5.52344 22.4199C5.59965 22.3974 5.68235 22.3924 5.76465 22.4091L5.7998 22.415L5.83203 22.4218C5.8411 22.4223 5.85032 22.4228 5.85938 22.4238H5.98145C6.04428 22.4086 6.10965 22.4062 6.17383 22.416C6.21025 22.4149 6.2469 22.4177 6.2832 22.4248C6.35131 22.4076 6.4227 22.4048 6.49219 22.4169C6.55072 22.4011 6.61299 22.3947 6.67578 22.4013C6.71303 22.4053 6.74875 22.415 6.7832 22.4267C6.79809 22.4265 6.8131 22.4275 6.82812 22.4287C6.86138 22.427 6.89419 22.4287 6.92676 22.4335C6.99608 22.4148 7.06883 22.4106 7.14062 22.4228C7.14218 22.4229 7.14395 22.4227 7.14551 22.4228C7.19849 22.413 7.25368 22.4118 7.30859 22.4199C7.31872 22.4214 7.32893 22.4246 7.33887 22.4267C7.35048 22.4264 7.36231 22.4252 7.37402 22.4257C7.37756 22.4259 7.38125 22.4265 7.38477 22.4267C7.39054 22.4265 7.39655 22.4257 7.40234 22.4257H7.42773L7.48633 22.4316H7.4873L7.50293 22.4326C7.51845 22.4301 7.53414 22.4277 7.5498 22.4267H7.68457C7.70906 22.4286 7.73337 22.4321 7.75684 22.4374C7.78299 22.4359 7.80954 22.4358 7.83594 22.4384C7.90625 22.4196 7.97796 22.4152 8.04688 22.4267C8.05688 22.426 8.06709 22.4267 8.07715 22.4267C8.08787 22.4261 8.09871 22.4285 8.10938 22.4287C8.12185 22.4251 8.13474 22.4224 8.14746 22.4199C8.24786 22.3855 8.35662 22.3876 8.45898 22.4199C8.53535 22.3922 8.61595 22.3848 8.69531 22.3955C8.75023 22.3764 8.80797 22.3663 8.86621 22.3671C8.95002 22.254 9.08044 22.1775 9.22949 22.166C9.28456 22.1617 9.33851 22.1678 9.38965 22.1806C9.4457 22.1384 9.51032 22.1065 9.58105 22.0908L9.58691 22.0165L9.60254 21.9208C9.66017 21.7077 9.85488 21.553 10.083 21.5517C10.1482 21.4172 10.2716 21.3165 10.4199 21.2822C10.4842 21.2514 10.5561 21.2329 10.6318 21.2324C10.6782 21.2321 10.7228 21.2403 10.7656 21.2519C10.8311 21.0665 11.0015 20.9308 11.207 20.9189C11.4631 20.9042 11.6889 21.0856 11.7295 21.3388L11.7334 21.3671C11.8017 21.3635 11.8675 21.3744 11.9287 21.3964C12.0091 21.2582 12.1538 21.1612 12.3232 21.1484C12.4576 21.1384 12.5839 21.1836 12.6807 21.2646L12.7041 20.664L12.7178 20.5654C12.7711 20.3442 12.9711 20.1811 13.207 20.1826C13.2588 20.1829 13.3085 20.193 13.3555 20.208C13.4365 20.0426 13.6058 19.9287 13.8018 19.9277C13.9161 19.9272 14.0209 19.9668 14.1055 20.0312C14.1465 19.7989 14.3468 19.6215 14.5898 19.6181C14.6849 19.6169 14.7741 19.6432 14.8506 19.6884C14.9278 19.6278 15.0232 19.5885 15.1279 19.582C15.2999 19.5714 15.4565 19.6507 15.5547 19.7792C15.6583 19.7818 15.7532 19.8165 15.832 19.873L15.834 19.7255L15.835 19.7031L15.8477 19.4628L15.8623 19.3652C15.9188 19.1448 16.1215 18.9854 16.3574 18.9902C16.6272 18.9959 16.8436 19.2146 16.8467 19.4843L16.8525 20.0751C16.8651 20.0737 16.8779 20.0737 16.8906 20.0732L16.8955 19.8925L16.9072 19.7949C16.957 19.5743 17.1524 19.4092 17.3867 19.4052C17.6121 19.4016 17.8039 19.549 17.8691 19.7548C17.9425 19.7083 18.0292 19.6804 18.1221 19.6777C18.273 19.6735 18.4091 19.7378 18.5039 19.8417C18.5547 19.6185 18.7555 19.4527 18.9932 19.4531C19.0197 19.4531 19.0459 19.4568 19.0713 19.4609C19.1527 19.3646 19.2693 19.2983 19.4033 19.2851C19.6562 19.2603 19.8879 19.4293 19.9414 19.6777L19.9541 19.7363L19.9648 19.831L19.9902 21.038L19.9922 21.1494C20.0246 21.1328 20.0587 21.1185 20.0947 21.1093L20.1025 20.8505L20.1152 20.7519C20.1396 20.6457 20.1985 20.5536 20.2783 20.4853L20.2939 19.6093L20.3193 17.996L20.3271 17.914C20.3613 17.7267 20.5011 17.5723 20.6895 17.5214C20.9048 17.4634 21.1329 17.555 21.248 17.746L21.2607 17.7665L21.291 17.8261C21.3172 17.8866 21.3312 17.9521 21.332 18.0185L21.3496 19.4218C21.3809 19.4222 21.4127 19.4251 21.4443 19.4316C21.5245 19.4482 21.5967 19.4842 21.6572 19.5331L21.6738 18.4062L21.6855 18.3076C21.7343 18.0827 21.9341 17.9146 22.1729 17.914C22.4458 17.9136 22.669 18.1323 22.6738 18.4052L22.6865 19.1406V19.1445L22.6982 20.414C22.7153 20.414 22.7323 20.4133 22.749 20.415L22.7725 19.2617L22.7734 19.2451L22.7861 18.9999L22.8076 18.8808C22.8425 18.7663 22.9176 18.6662 23.0215 18.6015C23.1603 18.5152 23.3332 18.5028 23.4834 18.5673L23.4961 18.5722L23.5596 18.6054C23.7008 18.6918 23.7913 18.8441 23.7979 19.0126L23.8232 19.6787L23.8242 19.6855L23.8496 20.7685C24.0812 20.7693 24.2771 20.9286 24.332 21.1464C24.4118 21.0637 24.519 21.0098 24.6377 20.997L24.6514 20.122L24.6523 20.0898L24.666 19.9248L24.6826 19.829C24.743 19.6127 24.9441 19.458 25.1768 19.4638C25.3755 19.4689 25.5451 19.59 25.6211 19.7617C25.8017 19.8353 25.9299 20.0118 25.9326 20.2187L25.9346 20.4433C25.9459 20.4461 25.9568 20.4505 25.9678 20.454C26.0009 20.4328 26.0373 20.4163 26.0752 20.4033L26.083 20.2402L26.0957 20.1474C26.1449 19.9382 26.3254 19.7795 26.5469 19.7636C26.697 19.7531 26.8371 19.8109 26.9365 19.9111C26.9715 19.9181 27.005 19.9293 27.0371 19.9433L27.1045 15.3652V15.3623L27.1436 13.4931L27.1533 13.4003C27.1968 13.192 27.3705 13.0297 27.5889 13.0058C27.6369 13.0006 27.684 13.0046 27.7295 13.0126L27.7305 12.9081V12.8955H27.7314L27.7441 12.4912L27.7568 12.3925C27.8086 12.1711 28.0073 12.007 28.2432 12.0068C28.5129 12.0066 28.7342 12.2206 28.7432 12.4902L28.7559 12.8847L28.7568 12.8955L28.7822 15.2548V15.2568L28.7832 15.4238C28.8789 15.4946 28.9467 15.5993 28.9727 15.7226C29.1576 15.7941 29.29 15.9709 29.293 16.1806L29.3164 17.915L29.3408 15.3466L29.3418 15.3203L29.3545 15.1171L29.3701 15.0205C29.4274 14.8036 29.6261 14.6462 29.8584 14.6484C29.8927 14.6487 29.9266 14.6532 29.959 14.6601L29.9668 13.372L29.9697 13.3271L29.9824 13.1943L30.001 13.0986C30.0652 12.8835 30.2686 12.7324 30.501 12.7421C30.7665 12.7534 30.9765 12.9706 30.9795 13.2363L30.9902 14.3046C31.0223 14.3264 31.0514 14.3524 31.0781 14.3818C31.1396 14.3011 31.2269 14.2396 31.3281 14.208C31.4029 14.1847 31.4805 14.1796 31.5547 14.1914L31.6025 7.38959L31.6133 7.28998C31.6608 7.06445 31.8604 6.89501 32.0996 6.8935Z" fill="white"/>
<rect x="1.5" y="1.5" width="72" height="71" rx="4.5" stroke="white" stroke-width="3"/>
<rect x="3" y="55" width="69" height="1" fill="#D9D9D9"/>
<rect x="18.7" y="7.7" width="30.6" height="30.6" stroke="white" stroke-width="1.4" stroke-dasharray="4 4"/>
<path d="M34.8447 42.0001C35.1134 41.996 35.3372 42.2054 35.3516 42.4737L35.3828 43.0684L35.3838 43.0889L35.4453 48.4424V48.4434L35.4717 51.0801C35.6004 51.154 35.6881 51.2817 35.7139 51.4268C35.7882 51.234 35.9769 51.1012 36.1924 51.1065C36.3514 51.1105 36.4922 51.1892 36.5811 51.3087C36.6279 51.2455 36.6896 51.193 36.7627 51.1573C36.8646 51.1075 36.9785 51.0945 37.0859 51.1172L37.1924 44.1026L37.2031 44.0079L37.2334 43.8604L37.2607 43.7715C37.3426 43.5738 37.5454 43.4462 37.7656 43.4649C38.0174 43.4864 38.2135 43.6929 38.2227 43.9454L38.2842 45.6778V45.6788L38.4082 49.3311L38.459 50.6348C38.4922 50.6304 38.5269 50.6285 38.5615 50.6309C38.8032 50.6482 38.9981 50.8372 39.0234 51.0782L39.0537 51.378L39.0566 51.4131L39.1494 54.2549H39.1484V54.2637C39.1818 54.2641 39.2151 54.2694 39.248 54.2764L39.3232 52.1456L39.332 52.0665L39.3623 51.9112L39.3867 51.8272C39.4552 51.6496 39.6204 51.5252 39.8135 51.5098L39.8477 50.2774L39.8584 50.1846C39.9038 49.9758 40.0802 49.814 40.2998 49.793C40.5512 49.7692 40.7815 49.9371 40.8359 50.1837L40.8662 50.3223L40.877 50.4073L40.9277 51.5381C40.9908 51.5119 41.0598 51.4963 41.1318 51.4981C41.2266 51.5006 41.3157 51.5297 41.3906 51.5782L41.3916 51.5674L41.4072 51.4737C41.4619 51.2676 41.6447 51.1166 41.8633 51.1046L41.8848 50.2784L41.8945 50.1905L41.9258 50.0391L41.9502 49.9551C42.0244 49.7675 42.2075 49.639 42.415 49.6387C42.6522 49.6385 42.857 49.806 42.9053 50.0381L42.9355 50.1856L42.9443 50.2393L43.2158 53.1085C43.2177 53.1084 43.2198 53.1084 43.2217 53.1085C43.3002 53.1091 43.3749 53.1299 43.4414 53.1631L43.5518 46.6358L43.5605 46.5499C43.598 46.3552 43.7489 46.1975 43.9482 46.1553C44.1763 46.1074 44.4081 46.2231 44.5059 46.4346L44.5371 46.503L44.5684 46.5948C44.576 46.6265 44.5807 46.6597 44.582 46.6924L44.6436 48.2647L44.6445 48.2735L44.6836 50.1212C44.9153 50.1278 45.1133 50.2933 45.1592 50.5225L45.1904 50.6778L45.1992 50.7422L45.2607 51.6485L45.2617 51.6612H45.2607L45.3105 52.8663C45.3332 52.8632 45.3564 52.8604 45.3799 52.8604C45.5669 52.8609 45.7291 52.9655 45.8145 53.1192L45.8379 52.8536L45.8545 52.7628C45.9114 52.5576 46.0949 52.4061 46.3145 52.3965C46.3889 52.3933 46.4602 52.4088 46.5254 52.4356L46.5459 51.6319V51.6202L46.6074 50.3204L46.7314 46.6485L46.7432 46.5538C46.7917 46.3412 46.9762 46.1797 47.2012 46.1661C47.4584 46.1506 47.6856 46.3335 47.7256 46.5879L47.7559 46.7862L47.7617 46.8497L47.8232 49.0713V49.0723L47.9033 52.1329C47.9205 52.1305 47.9383 52.1276 47.9561 52.127C48.207 52.1189 48.4252 52.2983 48.4658 52.546L48.4961 52.7364L48.5029 52.794L48.5645 54.1856V54.1885L48.6367 56.0538L48.7383 54.2637L48.7461 54.2003L48.9004 53.378L48.9326 53.2715C48.9766 53.1698 49.0542 53.0843 49.1533 53.0303C49.1859 53.0127 49.2199 52.9983 49.2549 52.9883L49.3242 50.4669V50.462L49.417 47.9493L49.4219 47.8965L49.4531 47.6817L49.4688 47.6075C49.5194 47.441 49.6548 47.3105 49.8271 47.2676C50.0242 47.2187 50.2317 47.2942 50.3516 47.4581L50.3828 47.5001L50.4414 47.6055C50.4567 47.6428 50.4677 47.6826 50.4736 47.7227L50.583 48.4708C50.5985 48.5033 50.612 48.5371 50.6201 48.5723L50.6514 48.7071L50.6631 48.794L50.7246 49.9952L50.7256 50.0049L50.874 54.6729C50.8818 54.672 50.8896 54.6706 50.8975 54.67C51.0719 54.6567 51.2387 54.7365 51.3398 54.876L51.3457 54.8555L51.3721 54.7754C51.4218 54.661 51.5129 54.5712 51.624 54.5206L51.7324 51.793L51.7354 51.7608L51.7656 51.4698L51.791 51.3565C51.8285 51.2498 51.902 51.1574 52 51.0967V57.7422L51.959 58.4483C51.9567 58.4876 51.9499 58.5268 51.9385 58.5645L51.9072 58.6661C51.8736 58.7764 51.8038 58.8672 51.7139 58.9297L51.707 58.9776C51.6786 59.1485 51.5636 59.2927 51.4033 59.3585L51.3721 59.3712C51.229 59.4298 51.0666 59.4191 50.9326 59.3419C50.7988 59.2645 50.7073 59.1289 50.6865 58.9756L50.6562 58.7481C50.6543 58.7338 50.653 58.7186 50.6523 58.7042L50.5771 57.0919C50.5206 57.0897 50.4634 57.0791 50.4082 57.0567L50.377 57.045C50.2366 56.9879 50.1294 56.8698 50.0859 56.7247L50.0244 56.5176L50.0098 56.4542L49.9727 56.2266C49.9443 56.2522 49.9132 56.2752 49.8789 56.294C49.799 56.3378 49.7104 56.3576 49.6221 56.3546L49.4902 58.6924L49.4893 58.7032L49.4277 59.4747C49.409 59.7094 49.2285 59.8995 48.9951 59.9307L48.9648 59.9346C48.8287 59.9528 48.6908 59.9145 48.584 59.8282C48.4921 59.7538 48.4314 59.6491 48.4092 59.5342C48.3715 59.5299 48.3336 59.523 48.2969 59.5098C48.1076 59.4417 47.9774 59.2663 47.9668 59.0655L47.8994 57.7852C47.7731 57.6956 47.6946 57.5526 47.6885 57.3975L47.6143 55.4903C47.5565 55.4771 47.5026 55.4543 47.4541 55.4229L47.3301 60.5391C47.33 60.5438 47.3294 60.5491 47.3291 60.5538L47.2979 61.128C47.2831 61.3953 47.0607 61.6038 46.793 61.6006C46.5585 61.5978 46.3622 61.4334 46.3115 61.2129L46.2988 61.1153L46.1855 57.3907L46.0947 60.1895C46.0943 60.2018 46.0931 60.2144 46.0918 60.2266L46.0615 60.5128C46.0334 60.7747 45.8062 60.97 45.543 60.959C45.2801 60.9478 45.0708 60.7348 45.0645 60.4717L44.9893 57.336C44.9792 57.3362 44.9691 57.3364 44.959 57.336L44.9219 59.2637L44.9209 59.2813L44.8906 59.8379C44.8762 60.0987 44.6634 60.3048 44.4023 60.3106C44.3712 60.3113 44.3403 60.3076 44.3105 60.3028L44.3047 60.6133C44.3046 60.6187 44.304 60.6246 44.3037 60.6299L44.2422 61.7559C44.2328 61.9271 44.136 62.0815 43.9863 62.1651C43.8368 62.2485 43.6554 62.2496 43.5049 62.168L43.4736 62.1514C43.3192 62.0674 43.2192 61.9082 43.2119 61.7325L43.0586 57.9747L43.0547 57.8907C43.0281 57.8935 43.0011 57.8952 42.9736 57.8936C42.8627 57.8872 42.7625 57.8433 42.6826 57.7764L42.668 58.2579L42.6582 58.3448L42.627 58.4932C42.5746 58.7406 42.3456 58.9099 42.0938 58.8878C42.0711 58.8857 42.049 58.8799 42.0273 58.8751L41.9893 60.3087C41.9889 60.3202 41.9884 60.3323 41.9873 60.3438L41.9561 60.6602C41.9303 60.9227 41.705 61.1204 41.4414 61.1114C41.1779 61.1023 40.9669 60.8896 40.959 60.626L40.958 60.6065C40.8937 60.6265 40.8251 60.6358 40.7549 60.628C40.5263 60.6023 40.3442 60.4235 40.3145 60.1954L40.2832 59.959C40.2812 59.9437 40.2798 59.9276 40.2793 59.9122L40.1875 57.2989L40.166 56.835C40.1622 56.8351 40.1582 56.837 40.1543 56.837C40.1519 56.8369 40.1489 56.8361 40.1465 56.836L40.1367 57.0596C40.1303 57.1982 40.0655 57.3264 39.96 57.4161L39.8896 58.6094C39.886 58.6708 39.8702 58.7312 39.8447 58.7872L39.8145 58.8546C39.7186 59.0645 39.4912 59.1815 39.2646 59.1378C39.0382 59.0938 38.871 58.9005 38.8604 58.67L38.7529 56.3497C38.5559 56.354 38.3774 56.2441 38.293 56.0713C38.2572 56.0723 38.2208 56.0715 38.1846 56.0645C38.1197 56.052 38.0599 56.0259 38.0068 55.9913V56.0284L37.9453 57.5499C37.9449 57.5598 37.9434 57.5702 37.9424 57.5801L37.8809 58.1876C37.8787 58.2092 37.8751 58.2309 37.8701 58.252L37.8506 58.3145L37.8203 58.3946C37.7397 58.6061 37.5269 58.7371 37.3018 58.7139C37.2815 58.7118 37.2617 58.7067 37.2422 58.7022L37.2354 58.9756V58.9776L37.1426 62.2315V62.2432L37.0801 63.4659C37.0792 63.4834 37.0779 63.5013 37.0752 63.5186L37.0439 63.7129C37.0051 63.9565 36.7945 64.135 36.5479 64.1338C36.301 64.1324 36.0917 63.9513 36.0557 63.7071L35.9941 63.2901L35.9893 63.2432L35.8965 61.502C35.8962 61.4966 35.8956 61.4908 35.8955 61.4854L35.8828 60.8799C35.6708 60.8587 35.4913 60.705 35.4443 60.4913L35.4141 60.3516L35.4023 60.2657L35.3994 60.212C35.3946 60.2119 35.3896 60.2132 35.3848 60.2129C35.1333 60.201 34.93 60.0039 34.9102 59.753L34.8789 59.3565C34.8781 59.3467 34.8771 59.336 34.877 59.3262L34.8613 58.501C34.7477 58.4489 34.657 58.3562 34.6084 58.2393C34.5953 58.2418 34.5818 58.2417 34.5684 58.2432L34.5498 58.8975L34.5488 58.9112L34.4258 61.1163C34.4235 61.1559 34.4158 61.1955 34.4043 61.2335L34.374 61.335C34.3043 61.5635 34.0824 61.7108 33.8447 61.6866C33.607 61.662 33.4192 61.4725 33.3975 61.2344L33.3662 60.8926C33.3653 60.8824 33.3645 60.8717 33.3643 60.8614L33.3057 58.6924L33.2832 59.0499C33.2819 59.0697 33.279 59.0899 33.2754 59.1094L33.2451 59.2745C33.1999 59.5158 32.9857 59.6881 32.7402 59.6817C32.6501 59.6793 32.5657 59.6528 32.4932 59.6085L32.4814 60.2462V60.2471L32.4199 63.0547C32.4195 63.0735 32.4176 63.0928 32.415 63.1114L32.3848 63.335C32.3495 63.5932 32.1215 63.7811 31.8613 63.7667C31.6012 63.752 31.3959 63.5399 31.3896 63.2794L31.3418 61.3194C31.3162 61.323 31.2903 61.3267 31.2637 61.3262C30.9953 61.3218 30.7778 61.1063 30.7715 60.8379L30.7314 59.1671C30.7026 59.1754 30.6731 59.1815 30.6426 59.1846L30.6289 59.543L30.626 59.5801L30.5957 59.8506C30.5666 60.1034 30.3521 60.2935 30.0977 60.293C29.8432 60.2924 29.6294 60.1007 29.6016 59.8477L29.5703 59.5655C29.5689 59.5523 29.5678 59.5387 29.5674 59.5254L29.4785 56.3399C29.4273 56.3871 29.3676 56.4238 29.3008 56.4463L29.209 58.2881L29.2051 58.3301L29.1738 58.5577C29.1388 58.8163 28.9109 59.0049 28.6504 58.9903L28.6484 58.9893L28.5918 61.6338V61.6436L28.5605 62.4024C28.5515 62.6258 28.3952 62.816 28.1777 62.8682C27.9876 62.9138 27.7914 62.844 27.6719 62.6954L27.625 62.627L27.5947 62.5723C27.5554 62.5022 27.5328 62.4232 27.5303 62.3428L27.4072 58.2999V58.2979L27.2881 53.9932C27.2734 53.9923 27.2586 53.9906 27.2441 53.9883L27.1104 64.0967V64.0987L27.0488 67.6817L27.0479 67.6954L27.0176 68.3868C27.0063 68.64 26.8065 68.8449 26.5537 68.8633C26.3011 68.8815 26.0743 68.7078 26.0264 68.459L25.9961 68.2989C25.9906 68.2704 25.9877 68.241 25.9873 68.212L25.8516 58.8829C25.8456 58.8827 25.839 58.8843 25.833 58.8838C25.6493 58.8704 25.4954 58.7584 25.4199 58.6016C25.388 58.613 25.355 58.6232 25.3203 58.628L25.2891 58.6319C25.2653 58.6351 25.2414 58.634 25.2178 58.6338L25.1348 62.0147V62.0264L25.0078 62.0196L25.1338 62.0264L25.0723 63.3213C25.0687 63.3936 25.0491 63.4643 25.0156 63.5284L24.9854 63.5879C24.8798 63.7897 24.6506 63.8943 24.4287 63.8428C24.2072 63.7912 24.048 63.5966 24.042 63.3692L23.874 56.8135L23.873 56.8145L23.8066 58.0167L23.7451 59.1671C23.7309 59.4324 23.5108 59.6406 23.2451 59.6407C22.9797 59.6404 22.7604 59.4321 22.7461 59.1671L22.6133 56.7198C22.5803 56.6959 22.5501 56.6677 22.5234 56.6358C22.446 56.6291 22.3696 56.6049 22.3018 56.5626C22.259 56.5358 22.2227 56.5012 22.1904 56.4639C22.1327 56.496 22.0685 56.517 22 56.5245V52.3145C22.0274 52.3067 22.0557 52.3008 22.085 52.2979C22.3308 52.2737 22.5581 52.4326 22.6191 52.6719L22.6494 52.795L22.6641 52.8819L22.7207 53.6758C22.7329 53.6854 22.7455 53.6953 22.7568 53.7061L22.7881 53.7364L22.8496 53.8077C22.9033 53.8828 22.9352 53.9722 22.9414 54.0655C23.0571 54.113 23.151 54.2031 23.2041 54.3165L23.2705 53.5684L23.4863 48.793L23.4873 48.7842L23.5801 47.3047L23.5908 47.2276C23.6298 47.0521 23.7612 46.9085 23.9375 46.8565C24.139 46.7971 24.3566 46.8702 24.4814 47.0391L24.5127 47.0811L24.5518 47.1436C24.5866 47.2093 24.6063 47.2826 24.6094 47.3575L24.6709 48.8712L24.6719 48.879L24.7021 50.0909C24.7715 50.0458 24.8527 50.0188 24.9395 50.0128L24.999 46.8585L25.001 46.8194L25.0322 46.4991L25.0498 46.4063C25.1111 46.1976 25.3044 46.0474 25.5293 46.0469C25.7862 46.0467 26.0017 46.2424 26.0273 46.4981L26.0586 46.8096L26.0605 46.8428L26.1201 48.6749C26.3106 48.6763 26.488 48.7863 26.5703 48.9649L26.6006 49.0303C26.6786 48.9837 26.7711 48.9589 26.8682 48.961C27.1319 48.9669 27.3455 49.177 27.3564 49.4405L27.4092 50.7413C27.5365 50.8248 27.6233 50.9658 27.6338 51.128L27.6865 51.9678C27.7713 51.9671 27.8566 51.9865 27.9326 52.0284C27.9594 52.0432 27.9836 52.062 28.0068 52.0811L28.0244 51.6495L28.0381 51.5518C28.0917 51.3305 28.2921 51.1681 28.5283 51.17C28.6365 51.1709 28.7359 51.2073 28.8174 51.2667L28.8887 48.7842L28.8975 48.7042L28.9287 48.544L28.9531 48.4571C29.0286 48.263 29.22 48.1324 29.4346 48.1387C29.6795 48.1462 29.883 48.3304 29.915 48.5733L29.9463 48.8096L29.9492 48.8458L30.2285 53.6338C30.2477 53.6279 30.2671 53.6218 30.2871 53.6182L30.4014 47.2256L30.4072 47.1592C30.4106 47.1374 30.4147 47.115 30.4209 47.0938L30.4521 46.9883L30.4854 46.9044C30.5789 46.7185 30.7813 46.6063 30.9941 46.6329C31.2377 46.6636 31.4232 46.8671 31.4316 47.1124L31.4541 47.7989C31.5296 47.7938 31.6067 47.8053 31.6787 47.835L31.71 47.8477L31.7744 47.8799C31.9197 47.9665 32.0134 48.1227 32.0186 48.295L32.0498 49.4014C32.13 49.3294 32.2329 49.2816 32.3477 49.2735C32.5175 49.2616 32.6738 49.3381 32.7734 49.4639L32.8096 48.3985L32.8203 48.3096L32.8516 48.1661L32.8857 48.0626C32.9313 47.9637 33.0084 47.8809 33.1064 47.8292C33.2372 47.7602 33.3925 47.7528 33.5293 47.8087L33.5605 47.8213L33.6221 47.8516C33.7605 47.932 33.853 48.0762 33.8682 48.2383L33.9307 48.9044L33.9326 48.9288L34.0078 50.7149C34.0594 50.6837 34.1172 50.6623 34.1787 50.6514L34.3525 42.4893L34.3643 42.3917C34.4134 42.1701 34.6095 42.0038 34.8447 42.0001Z" fill="white"/>
</svg>
