<?xml version="1.0" encoding="utf-8" standalone="no"?>
<!DOCTYPE svg PUBLIC "-//W3C//DTD SVG 1.1//EN"
  "http://www.w3.org/Graphics/SVG/1.1/DTD/svg11.dtd">
<svg xmlns:xlink="http://www.w3.org/1999/xlink" width="837pt" height="498.96pt" viewBox="0 0 837 498.96" xmlns="http://www.w3.org/2000/svg" version="1.1">
 <metadata>
  <rdf:RDF xmlns:dc="http://purl.org/dc/elements/1.1/" xmlns:cc="http://creativecommons.org/ns#" xmlns:rdf="http://www.w3.org/1999/02/22-rdf-syntax-ns#">
   <cc:Work>
    <dc:type rdf:resource="http://purl.org/dc/dcmitype/StillImage"/>
    <dc:date>2023-06-10T18:39:21.499336</dc:date>
    <dc:format>image/svg+xml</dc:format>
    <dc:creator>
     <cc:Agent>
      <dc:title>Matplotlib v3.7.0, https://matplotlib.org/</dc:title>
     </cc:Agent>
    </dc:creator>
   </cc:Work>
  </rdf:RDF>
 </metadata>
 <defs>
  <style type="text/css">*{stroke-linejoin: round; stroke-linecap: butt}</style>
 </defs>
 <g id="figure_1">
  <g id="patch_1">
   <path d="M 0 498.96 
L 837 498.96 
L 837 -0 
L 0 -0 
L 0 498.96 
z
" style="fill: none"/>
  </g>
  <g id="axes_1">
   <g id="patch_2">
    <path d="M 0 498.96 
L 837 498.96 
L 837 -0 
L 0 -0 
L 0 498.96 
z
" style="fill: none"/>
   </g>
   <g id="matplotlib.axis_1"/>
   <g id="matplotlib.axis_2"/>
   <g id="line2d_1">
    <path d="M -0.108701 249.639578 
L 0.108701 249.483129 
L 0.217403 249.639578 
L 0.543506 249.576999 
L 0.760909 249.608289 
L 0.86961 249.514419 
L 0.978312 249.608289 
L 1.304416 249.389259 
L 1.521818 249.295389 
L 2.174026 249.670869 
L 2.391429 249.483129 
L 2.50013 249.576999 
L 2.826234 249.483129 
L 2.934935 249.639578 
L 3.043636 249.483129 
L 3.261039 249.545709 
L 3.587143 249.451839 
L 3.695844 249.545709 
L 4.239351 249.357969 
L 4.674156 249.420549 
L 5.108961 249.670869 
L 5.217662 249.639578 
L 5.326364 249.483129 
L 5.435065 249.639578 
L 5.543766 249.389259 
L 5.761169 249.357969 
L 5.86987 249.295389 
L 6.195974 249.576999 
L 6.304675 249.451839 
L 6.630779 249.514419 
L 7.717792 249.514419 
L 7.826494 249.389259 
L 7.935195 249.451839 
L 8.043896 249.264099 
L 8.261299 249.295389 
L 8.587403 249.32668 
L 8.696104 249.514419 
L 8.804805 249.451839 
L 8.913506 249.608289 
L 9.23961 249.389259 
L 9.674416 249.545709 
L 10.000519 249.451839 
L 10.109221 249.545709 
L 10.217922 249.389259 
L 10.326623 249.483129 
L 10.544026 249.451839 
L 11.087532 249.514419 
L 11.196234 249.608289 
L 11.73974 249.32668 
L 12.283247 249.514419 
L 12.500649 249.357969 
L 12.935455 249.483129 
L 13.587662 249.576999 
L 13.696364 249.514419 
L 13.805065 249.608289 
L 14.348571 249.32668 
L 14.783377 249.483129 
L 15.109481 249.420549 
L 15.326883 249.576999 
L 15.652987 249.483129 
L 15.979091 249.32668 
L 16.087792 249.420549 
L 16.196494 249.264099 
L 16.305195 249.576999 
L 16.522597 249.483129 
L 16.631299 249.608289 
L 16.74 249.420549 
L 17.066104 249.514419 
L 17.392208 249.483129 
L 17.500909 249.608289 
L 17.60961 249.420549 
L 17.827013 249.451839 
L 18.153117 249.420549 
L 18.370519 249.545709 
L 18.587922 249.576999 
L 19.131429 249.483129 
L 19.348831 249.576999 
L 19.457532 249.451839 
L 19.566234 249.576999 
L 19.892338 249.357969 
L 20.10974 249.420549 
L 20.218442 249.389259 
L 20.435844 249.545709 
L 21.196753 249.389259 
L 21.305455 249.451839 
L 21.414156 249.357969 
L 21.522857 249.545709 
L 21.631558 249.451839 
L 21.74026 249.545709 
L 21.957662 249.451839 
L 22.283766 249.545709 
L 22.392468 249.420549 
L 22.501169 249.576999 
L 22.827273 249.420549 
L 23.044675 249.420549 
L 23.262078 249.451839 
L 23.914286 249.483129 
L 24.022987 249.576999 
L 24.349091 249.420549 
L 24.783896 249.576999 
L 24.892597 249.420549 
L 25.001299 249.670869 
L 25.218701 249.576999 
L 25.327403 249.670869 
L 25.653506 249.545709 
L 25.870909 249.670869 
L 26.088312 249.483129 
L 26.740519 249.608289 
L 26.957922 249.545709 
L 27.61013 249.389259 
L 27.718831 249.514419 
L 27.827532 249.420549 
L 28.044935 249.545709 
L 28.47974 249.483129 
L 28.588442 249.420549 
L 28.697143 249.545709 
L 28.805844 249.420549 
L 29.131948 249.702159 
L 29.458052 249.639578 
L 29.675455 249.451839 
L 30.001558 249.32668 
L 30.327662 249.32668 
L 30.545065 249.232809 
L 30.762468 249.295389 
L 30.871169 249.483129 
L 30.97987 249.389259 
L 31.305974 249.545709 
L 31.523377 249.389259 
L 31.740779 249.389259 
L 31.849481 249.451839 
L 32.066883 249.796028 
L 32.392987 249.733449 
L 32.827792 249.32668 
L 33.262597 249.201519 
L 33.371299 249.420549 
L 33.697403 249.357969 
L 33.806104 249.32668 
L 34.132208 249.639578 
L 34.458312 249.295389 
L 34.675714 249.764739 
L 34.893117 250.077638 
L 35.001818 249.827319 
L 35.219221 249.076359 
L 35.436623 249.107649 
L 35.654026 249.389259 
L 35.98013 249.764739 
L 36.523636 249.17023 
L 36.84974 250.296669 
L 37.284545 249.201519 
L 37.610649 249.733449 
L 37.828052 248.982489 
L 37.936753 249.138939 
L 38.262857 251.297948 
L 38.371558 251.016338 
L 38.697662 247.887341 
L 38.915065 248.54443 
L 39.132468 249.796028 
L 39.34987 249.921188 
L 39.458571 249.796028 
L 39.675974 250.546988 
L 39.893377 249.670869 
L 40.002078 249.702159 
L 40.328182 251.360527 
L 40.436883 250.985048 
L 40.762987 248.200239 
L 40.871688 248.41927 
L 41.089091 250.015059 
L 41.197792 249.983769 
L 41.415195 248.826039 
L 41.523896 248.919909 
L 41.85 250.953758 
L 42.067403 249.232809 
L 42.284805 247.3867 
L 42.393506 247.887341 
L 42.71961 250.640858 
L 42.937013 250.953758 
L 43.045714 250.985048 
L 43.263117 249.483129 
L 43.480519 247.762181 
L 43.589221 247.762181 
L 43.806623 250.640858 
L 44.024026 251.673427 
L 44.458831 249.17023 
L 44.567532 248.982489 
L 44.676234 249.295389 
L 44.893636 250.421828 
L 45.002338 250.108928 
L 45.21974 248.513139 
L 45.654545 244.288993 
L 45.871948 246.604451 
L 46.198052 250.390538 
L 46.415455 249.545709 
L 46.524156 249.608289 
L 46.632857 249.483129 
L 46.741558 248.919909 
L 46.958961 246.416711 
L 47.067662 246.197681 
L 47.176364 246.416711 
L 47.393766 248.513139 
L 47.71987 254.645975 
L 47.828571 254.990165 
L 47.937273 254.958875 
L 48.154675 253.644696 
L 48.263377 253.707276 
L 48.372078 254.333076 
L 48.480779 253.613406 
L 49.024286 246.072521 
L 49.459091 242.630624 
L 49.567792 243.099974 
L 49.893896 249.04507 
L 50.002597 248.043791 
L 50.328701 242.411594 
L 50.437403 243.788353 
L 50.872208 253.269216 
L 50.980909 253.394376 
L 51.633117 250.046349 
L 51.959221 252.267937 
L 52.067922 251.266658 
L 52.394026 242.755784 
L 52.502727 243.412873 
L 52.937532 258.432063 
L 53.046234 257.430783 
L 53.372338 247.91863 
L 53.481039 248.10637 
L 53.807143 251.736008 
L 53.915844 251.110208 
L 54.133247 247.79347 
L 54.241948 247.762181 
L 54.459351 248.794749 
L 54.676753 247.94992 
L 54.894156 246.510581 
L 55.002857 246.354131 
L 55.111558 245.728332 
L 55.437662 240.565486 
L 55.546364 241.034836 
L 55.763766 249.32668 
L 56.08987 261.78009 
L 56.198571 260.434621 
L 56.742078 245.071242 
L 56.850779 245.102532 
L 56.959481 246.135102 
L 57.394286 253.175347 
L 57.611688 252.361807 
L 58.046494 248.10637 
L 58.372597 248.70088 
L 58.481299 248.60701 
L 58.698701 247.51186 
L 58.807403 247.82476 
L 59.024805 250.985048 
L 59.350909 257.149174 
L 59.45961 255.428225 
L 59.894416 243.193843 
L 60.003117 243.569323 
L 60.546623 252.580837 
L 60.872727 249.670869 
L 61.198831 252.987606 
L 61.416234 251.423108 
L 61.633636 249.295389 
L 61.742338 250.265378 
L 61.95974 254.520815 
L 62.068442 253.300506 
L 62.394545 246.103811 
L 62.503247 245.039953 
L 62.611948 245.290272 
L 63.046753 249.545709 
L 63.264156 250.734728 
L 63.481558 251.423108 
L 63.698961 251.736008 
L 63.916364 253.738566 
L 64.025065 254.927585 
L 64.133766 254.896295 
L 64.351169 254.489525 
L 64.45987 253.488246 
L 65.003377 241.910954 
L 65.112078 242.317725 
L 65.438182 246.009942 
L 65.655584 248.356689 
L 65.764286 248.29411 
L 65.872987 248.70088 
L 66.416494 253.832436 
L 66.525195 253.801146 
L 67.177403 242.630624 
L 67.394805 244.977372 
L 67.938312 251.485687 
L 68.047013 251.141498 
L 68.373117 249.01378 
L 68.590519 250.077638 
L 68.699221 249.764739 
L 69.242727 242.724494 
L 69.351429 243.131264 
L 69.568831 246.291552 
L 69.786234 252.455677 
L 70.221039 266.411007 
L 70.32974 265.941657 
L 71.199351 243.631903 
L 71.308052 243.381583 
L 71.525455 246.072521 
L 71.634156 246.041232 
L 72.177662 236.247469 
L 72.395065 242.129984 
L 72.721169 252.424387 
L 72.938571 254.207915 
L 73.264675 251.016338 
L 73.373377 252.174067 
L 73.699481 260.559781 
L 73.808182 259.057863 
L 74.242987 240.346455 
L 74.351688 241.598055 
L 74.677792 253.863726 
L 74.786494 253.331797 
L 75.112597 244.382863 
L 75.221299 244.414153 
L 75.764805 256.241764 
L 75.873506 255.928864 
L 76.19961 249.04507 
L 76.417013 244.789632 
L 76.525714 245.227692 
L 76.851818 249.389259 
L 76.960519 247.042511 
L 77.286623 234.74555 
L 77.395325 237.624227 
L 77.83013 256.398214 
L 78.047532 252.048908 
L 78.264935 249.545709 
L 78.482338 253.456956 
L 78.808442 259.589792 
L 78.917143 257.962713 
L 79.243247 248.513139 
L 79.351948 249.01378 
L 79.678052 256.617244 
L 79.786753 256.210474 
L 80.004156 250.171509 
L 80.33026 241.347735 
L 80.438961 241.879665 
L 80.656364 247.54315 
L 80.873766 253.675986 
L 80.982468 252.518257 
L 81.308571 239.595497 
L 81.417273 239.783236 
L 81.743377 249.076359 
L 81.852078 248.88862 
L 82.178182 244.038673 
L 82.286883 244.883503 
L 82.721688 258.338193 
L 82.83039 258.025293 
L 83.591299 248.356689 
L 84.026104 232.930731 
L 84.134805 234.52652 
L 84.460909 244.695763 
L 84.56961 245.728332 
L 84.678312 245.665752 
L 84.895714 242.943524 
L 85.004416 243.256424 
L 85.439221 255.396935 
L 85.765325 264.971668 
L 85.874026 264.783927 
L 86.091429 258.275613 
L 86.417532 247.35541 
L 86.634935 245.759622 
L 86.961039 244.539313 
L 87.178442 247.94992 
L 87.504545 252.956316 
L 87.613247 252.674707 
L 87.830649 251.141498 
L 88.156753 256.773693 
L 88.265455 255.490804 
L 88.482857 245.884782 
L 88.808961 232.711701 
L 88.917662 233.243631 
L 89.135065 240.878386 
L 89.461169 253.675986 
L 89.56987 253.988886 
L 89.787273 250.766019 
L 89.895974 250.859888 
L 90.113377 258.213032 
L 90.330779 267.662605 
L 90.439481 267.725186 
L 90.656883 258.932702 
L 90.982987 244.288993 
L 91.091688 242.943524 
L 91.20039 243.944803 
L 91.526494 250.766019 
L 91.635195 248.982489 
L 92.07 233.869431 
L 92.287403 246.041232 
L 92.613506 265.441018 
L 92.722208 264.220708 
L 93.265714 251.704717 
L 93.483117 252.205357 
L 93.591818 251.047628 
L 94.026623 240.409036 
L 94.135325 241.285155 
L 94.352727 244.257703 
L 94.57013 242.255144 
L 94.678831 242.568044 
L 94.896234 249.17023 
L 95.222338 258.713672 
L 95.331039 256.742404 
L 95.657143 244.789632 
L 95.765844 245.759622 
L 96.091948 252.048908 
L 96.309351 253.206636 
L 96.526753 251.861167 
L 96.635455 250.922468 
L 96.744156 250.953758 
L 96.852857 252.267937 
L 97.178961 261.123 
L 97.287662 261.029131 
L 97.505065 250.922468 
L 97.722468 237.749388 
L 97.831169 236.310049 
L 98.048571 246.948641 
L 98.265974 260.059142 
L 98.374675 261.154291 
L 98.592078 247.82476 
L 98.809481 230.646562 
L 98.918182 229.238514 
L 99.135584 243.068683 
L 99.461688 266.911647 
L 99.57039 265.753917 
L 100.113896 239.094856 
L 100.548701 253.550826 
L 100.657403 251.892458 
L 101.092208 237.154878 
L 101.30961 245.415432 
L 101.635714 258.025293 
L 102.070519 255.459515 
L 102.179221 255.709835 
L 102.505325 255.303065 
L 102.614026 256.554664 
L 102.94013 262.218149 
L 103.048831 260.77881 
L 103.266234 252.017617 
L 103.592338 236.403919 
L 103.701039 235.590379 
L 103.918442 239.345176 
L 104.244545 245.571882 
L 104.353247 246.103811 
L 104.461948 245.884782 
L 104.679351 243.319004 
L 104.896753 239.939686 
L 105.005455 239.282597 
L 105.114156 240.127426 
L 105.331558 247.887341 
L 105.657662 259.808821 
L 105.875065 260.77881 
L 106.092468 260.434621 
L 106.30987 262.12428 
L 106.418571 262.09299 
L 106.527273 259.621082 
L 107.070779 237.154878 
L 107.396883 241.973534 
L 107.505584 240.471615 
L 107.831688 231.679132 
L 107.94039 232.962021 
L 108.483896 255.866285 
L 108.592597 255.709835 
L 108.81 254.896295 
L 109.136104 257.493363 
L 109.353506 259.026572 
L 109.570909 254.896295 
L 109.897013 248.951199 
L 110.005714 248.85733 
L 110.114416 249.138939 
L 110.223117 248.85733 
L 110.440519 245.478011 
L 110.766623 237.561648 
L 110.875325 238.594217 
L 111.092727 248.982489 
L 111.418831 261.40461 
L 111.527532 259.777531 
L 111.962338 246.729611 
L 112.17974 252.643416 
L 112.397143 259.026572 
L 112.505844 259.402052 
L 112.723247 255.615965 
L 112.940649 251.078918 
L 113.049351 251.391817 
L 113.375455 261.310741 
L 113.484156 261.185581 
L 113.701558 253.144056 
L 114.136364 233.274921 
L 114.245065 234.30749 
L 114.571169 241.942244 
L 114.67987 242.036115 
L 114.788571 242.380304 
L 115.005974 246.135102 
L 115.332078 254.458236 
L 115.440779 253.112766 
L 115.766883 243.037394 
L 115.875584 242.724494 
L 116.31039 247.63702 
L 116.527792 249.483129 
L 116.636494 249.420549 
L 116.962597 246.291552 
L 117.071299 246.604451 
L 117.397403 251.642137 
L 117.723506 260.027852 
L 117.940909 265.315858 
L 118.04961 265.722627 
L 118.158312 263.563619 
L 118.701818 242.661914 
L 118.919221 241.817084 
L 119.027922 243.006104 
L 119.245325 250.640858 
L 119.571429 265.034248 
L 119.68013 264.314578 
L 119.897532 253.331797 
L 120.223636 238.938406 
L 120.332338 239.751947 
L 120.767143 250.953758 
L 120.875844 249.420549 
L 121.419351 231.960742 
L 121.636753 241.003545 
L 121.962857 255.741125 
L 122.071558 256.022735 
L 122.288961 254.802425 
L 122.397662 255.741125 
L 122.615065 259.120442 
L 122.723766 259.089152 
L 122.941169 251.673427 
L 123.267273 241.034836 
L 123.375974 241.723215 
L 123.919481 252.142777 
L 124.354286 265.190698 
L 124.462987 264.408448 
L 124.68039 258.056583 
L 125.332597 230.959462 
L 125.441299 231.303653 
L 125.658701 238.406477 
L 125.984805 247.261541 
L 126.310909 245.697042 
L 126.637013 250.327959 
L 126.745714 249.889899 
L 126.963117 247.19896 
L 127.071818 247.292831 
L 127.289221 253.206636 
L 127.506623 260.059142 
L 127.615325 260.622361 
L 127.724026 259.683661 
L 128.05013 254.145336 
L 128.158831 254.958875 
L 128.376234 258.463353 
L 128.484935 258.838832 
L 128.702338 254.145336 
L 128.91974 248.200239 
L 129.028442 247.51186 
L 129.245844 250.327959 
L 129.571948 254.552105 
L 129.680649 254.489525 
L 129.898052 251.297948 
L 130.332857 243.412873 
L 130.441558 243.412873 
L 130.658961 244.195122 
L 130.767662 243.819643 
L 130.985065 242.317725 
L 131.093766 242.380304 
L 131.41987 247.48057 
L 131.528571 247.417991 
L 131.854675 241.598055 
L 131.963377 242.192564 
L 132.180779 249.889899 
L 132.398182 257.430783 
L 132.506883 257.900133 
L 132.724286 253.801146 
L 132.941688 250.640858 
L 133.05039 251.642137 
L 133.376494 258.056583 
L 133.485195 258.244322 
L 133.702597 255.553385 
L 133.92 252.768577 
L 134.137403 252.299227 
L 134.246104 252.299227 
L 134.463506 252.424387 
L 134.572208 251.391817 
L 135.115714 237.311328 
L 135.224416 239.658076 
L 135.767922 265.566177 
L 135.876623 264.408448 
L 136.746234 229.989473 
L 136.963636 220.50861 
L 137.072338 220.63377 
L 137.28974 231.992032 
L 137.615844 249.639578 
L 137.833247 252.768577 
L 138.050649 255.303065 
L 138.376753 259.308182 
L 138.485455 259.276892 
L 138.702857 255.396935 
L 139.028961 250.453119 
L 139.137662 250.578278 
L 139.355065 254.645975 
L 139.78987 265.972947 
L 139.898571 264.032969 
L 140.333377 249.232809 
L 140.442078 248.513139 
L 140.768182 251.642137 
L 140.876883 249.32668 
L 141.311688 231.929452 
L 141.42039 231.773002 
L 141.963896 241.942244 
L 142.29 244.695763 
L 142.833506 252.361807 
L 142.942208 250.859888 
L 143.268312 242.943524 
L 143.377013 243.913513 
L 143.594416 250.578278 
L 143.920519 260.77881 
L 144.137922 263.031689 
L 144.246623 263.156849 
L 144.464026 260.153011 
L 144.79013 254.865005 
L 145.007532 253.926305 
L 145.224935 249.483129 
L 145.551039 242.286434 
L 145.65974 243.006104 
L 145.985844 248.669589 
L 146.094545 249.04507 
L 146.420649 247.66831 
L 146.638052 251.704717 
L 146.855455 256.335634 
L 146.964156 256.836274 
L 147.072857 255.396935 
L 147.507662 241.379025 
L 147.616364 241.535475 
L 147.942468 245.947361 
L 148.051169 243.225133 
L 148.485974 222.917938 
L 148.594675 227.235955 
L 149.138182 269.039365 
L 149.246883 268.069376 
L 149.572987 259.840111 
L 149.681688 259.746242 
L 150.007792 261.623641 
L 150.225195 258.025293 
L 150.768701 244.539313 
L 150.877403 245.978652 
L 151.203506 256.648533 
L 151.312208 256.711114 
L 151.747013 245.227692 
L 151.855714 246.510581 
L 152.073117 251.454398 
L 152.181818 251.423108 
L 152.942727 237.592938 
L 153.051429 237.905837 
L 153.268831 243.475453 
L 153.703636 259.621082 
L 153.812338 259.965271 
L 153.921039 258.807542 
L 154.355844 251.423108 
L 154.681948 246.009942 
L 155.008052 239.720656 
L 155.116753 239.908396 
L 155.442857 243.757064 
L 156.095065 255.772414 
L 156.203766 256.304344 
L 156.421169 259.589792 
L 156.638571 264.095548 
L 156.747273 264.408448 
L 156.964675 260.246881 
L 157.508182 239.439047 
L 157.834286 227.955625 
L 157.942987 226.516286 
L 158.051688 226.547576 
L 158.269091 230.458823 
L 159.464805 264.189419 
L 159.682208 266.504876 
L 159.790909 266.004237 
L 160.334416 257.274333 
L 160.769221 249.796028 
L 160.877922 249.608289 
L 161.095325 250.077638 
L 161.204026 249.483129 
L 161.747532 243.381583 
L 162.182338 247.292831 
L 162.39974 243.475453 
L 162.617143 239.689366 
L 162.725844 239.689366 
L 163.160649 243.569323 
L 163.704156 254.020176 
L 163.812857 253.206636 
L 164.138961 245.884782 
L 164.247662 246.228971 
L 164.682468 258.588513 
L 164.791169 258.275613 
L 165.225974 252.643416 
L 165.334675 253.206636 
L 165.443377 253.175347 
L 165.878182 246.385421 
L 165.986883 248.043791 
L 166.421688 260.93526 
L 166.53039 259.933981 
L 167.073896 244.069963 
L 167.182597 244.633182 
L 167.508701 249.483129 
L 167.617403 249.138939 
L 168.26961 241.879665 
L 168.378312 242.411594 
L 168.595714 248.043791 
L 168.921818 256.742404 
L 169.030519 257.117883 
L 169.247922 253.832436 
L 169.791429 241.441605 
L 169.90013 241.003545 
L 170.008831 241.566765 
L 170.878442 252.236647 
L 171.095844 254.990165 
L 171.204545 255.021455 
L 171.421948 250.734728 
L 171.748052 244.695763 
L 171.965455 250.797308 
L 172.291558 259.057863 
L 172.40026 258.651092 
L 172.726364 253.769856 
L 172.835065 254.207915 
L 173.161169 258.525932 
L 173.26987 257.117883 
L 173.487273 247.98121 
L 173.813377 232.993311 
L 173.922078 232.023322 
L 174.139481 237.718098 
L 174.465584 249.076359 
L 174.574286 248.481849 
L 175.009091 239.094856 
L 175.226494 248.13766 
L 175.552597 262.43718 
L 175.661299 260.340752 
L 176.204805 233.556531 
L 176.422208 245.102532 
L 176.748312 262.531049 
L 176.857013 260.997841 
L 177.291818 243.162554 
L 177.400519 244.069963 
L 177.944026 261.4359 
L 178.378831 250.922468 
L 178.487532 251.047628 
L 178.813636 255.772414 
L 178.922338 255.522094 
L 179.13974 248.54443 
L 179.357143 238.875827 
L 179.465844 237.686808 
L 179.683247 243.099974 
L 179.900649 248.13766 
L 180.009351 247.79347 
L 180.226753 244.508022 
L 180.335455 245.008662 
L 180.878961 256.116604 
L 181.096364 255.490804 
L 181.205065 256.460794 
L 181.531169 263.532329 
L 181.63987 262.781369 
L 182.183377 246.385421 
L 182.292078 246.479291 
L 182.400779 246.228971 
L 182.509481 245.415432 
L 183.052987 237.373908 
L 183.161688 238.375187 
L 183.487792 248.356689 
L 183.705195 252.580837 
L 183.813896 251.454398 
L 184.14 245.697042 
L 184.248701 246.948641 
L 184.683506 257.524653 
L 184.792208 257.211753 
L 185.00961 251.955037 
L 185.335714 243.381583 
L 185.770519 237.217458 
L 185.987922 233.77556 
L 186.096623 234.18233 
L 186.314026 241.660635 
L 186.64013 253.895016 
L 186.748831 254.239205 
L 186.966234 252.956316 
L 187.074935 253.269216 
L 187.50974 258.588513 
L 187.618442 256.460794 
L 188.161948 234.5891 
L 188.270649 235.496509 
L 188.814156 251.454398 
L 189.14026 244.038673 
L 189.248961 244.257703 
L 189.466364 252.236647 
L 189.683766 259.402052 
L 189.792468 259.308182 
L 190.335974 247.449281 
L 190.553377 253.644696 
L 190.770779 260.372041 
L 190.879481 260.716231 
L 191.314286 253.832436 
L 191.422987 256.241764 
L 192.075195 281.680515 
L 192.292597 273.138352 
L 192.618701 260.747521 
L 192.727403 260.903971 
L 192.944805 262.03041 
L 193.053506 261.123 
L 193.923117 240.534195 
L 194.684026 205.051361 
L 195.01013 194.068579 
L 195.118831 194.381479 
L 195.336234 205.614581 
L 196.640649 312.970493 
L 196.749351 312.532434 
L 196.966753 302.92641 
L 197.401558 265.785207 
L 197.945065 221.760209 
L 198.162468 217.629932 
L 198.271169 219.569911 
L 198.488571 232.085902 
L 199.032078 274.233501 
L 199.140779 274.202211 
L 199.249481 270.478704 
L 199.466883 251.767298 
L 200.01039 190.595392 
L 200.119091 188.217354 
L 200.227792 190.532812 
L 200.445195 204.394272 
L 201.314805 276.079609 
L 201.423506 274.734141 
L 201.640909 258.838832 
L 202.184416 207.71101 
L 202.293117 208.211649 
L 202.510519 219.851521 
L 202.836623 254.082755 
L 203.488831 348.953967 
L 203.597532 350.142986 
L 203.706234 345.011429 
L 203.923636 318.414948 
L 204.575844 215.251894 
L 204.793247 209.838728 
L 205.228052 232.336221 
L 205.336753 232.179771 
L 205.771558 222.448589 
L 205.988961 229.613993 
L 206.315065 239.564206 
L 206.423766 239.783236 
L 206.74987 237.780677 
L 207.075974 239.094856 
L 207.184675 238.625506 
L 207.402078 235.46522 
L 207.619481 232.242351 
L 207.728182 232.148482 
L 207.836883 233.431371 
L 208.054286 241.910954 
L 208.489091 275.32865 
L 208.923896 305.335739 
L 209.032597 305.742508 
L 209.141299 300.110312 
L 209.793506 236.372628 
L 210.11961 250.734728 
L 210.228312 249.264099 
L 210.663117 226.234676 
L 210.880519 246.166392 
L 211.206623 276.861859 
L 211.315325 275.172201 
L 211.75013 256.992724 
L 211.858831 256.523374 
L 211.967532 256.554664 
L 212.076234 255.897575 
L 212.402338 251.579558 
L 212.511039 252.205357 
L 212.837143 258.181743 
L 212.945844 256.867564 
L 213.163247 244.946082 
L 213.706753 204.926201 
L 213.815455 203.737182 
L 213.924156 205.489421 
L 215.11987 248.73217 
L 215.228571 248.60701 
L 215.445974 246.854771 
L 215.554675 248.07508 
L 215.772078 259.777531 
L 216.098182 284.434034 
L 216.206883 286.530462 
L 216.315584 284.527903 
L 216.75039 261.09171 
L 217.076494 245.822202 
L 217.185195 244.351572 
L 217.293896 246.385421 
L 217.62 267.725186 
L 217.837403 277.550238 
L 217.946104 278.332488 
L 218.054805 277.331209 
L 218.272208 272.293522 
L 218.48961 257.587233 
L 219.033117 193.31762 
L 219.141818 192.535371 
L 219.359221 206.20909 
L 220.337532 294.196507 
L 220.446234 290.097519 
L 220.663636 263.469749 
L 221.098442 201.202694 
L 221.207143 201.296564 
L 221.424545 217.442193 
L 222.511558 312.313403 
L 222.62026 310.655035 
L 222.837662 289.815909 
L 223.163766 254.051466 
L 223.381169 245.571882 
L 223.598571 241.253865 
L 223.815974 232.430092 
L 224.250779 212.154187 
L 224.359481 213.374495 
L 224.576883 227.986915 
L 225.011688 266.911647 
L 225.446494 280.272466 
L 225.555195 281.993415 
L 225.663896 280.773107 
L 226.316104 259.402052 
L 226.424805 259.558502 
L 226.533506 258.557222 
L 226.750909 250.296669 
L 227.511818 202.078813 
L 227.620519 201.014954 
L 227.729221 201.108824 
L 227.946623 206.05264 
L 229.033636 260.246881 
L 229.468442 294.352957 
L 229.577143 296.887445 
L 229.685844 296.136485 
L 230.120649 279.771827 
L 230.338052 264.345869 
L 230.772857 224.451148 
L 230.881558 222.323428 
L 230.99026 223.324708 
L 231.207662 233.556531 
L 231.751169 271.354824 
L 231.968571 254.927585 
L 232.946883 158.178975 
L 233.055584 162.590862 
L 233.272987 202.329133 
L 233.599091 270.885474 
L 233.707792 273.576412 
L 233.925195 249.483129 
L 234.142597 225.264687 
L 234.251299 225.076947 
L 234.468701 246.354131 
L 234.794805 282.994695 
L 234.903506 285.935953 
L 235.012208 284.621774 
L 235.555714 266.285847 
L 235.881818 262.12428 
L 235.990519 262.31202 
L 236.207922 268.194536 
L 236.642727 289.87849 
L 236.751429 290.911059 
L 236.86013 288.72076 
L 237.077532 272.512552 
L 237.512338 227.861755 
L 237.621039 225.765326 
L 237.72974 229.707864 
L 237.947143 252.111487 
L 238.381948 299.015163 
L 238.708052 311.937924 
L 238.925455 315.035631 
L 239.034156 313.596292 
L 239.251558 304.522199 
L 239.577662 280.366337 
L 240.121169 236.841978 
L 240.447273 225.765326 
L 240.555974 225.921776 
L 240.773377 231.460103 
L 241.316883 258.463353 
L 241.642987 273.388671 
L 241.751688 274.82801 
L 241.86039 274.233501 
L 242.077792 269.727744 
L 242.295195 258.432063 
L 242.512597 230.771722 
L 242.947403 170.131746 
L 243.056104 169.036597 
L 243.273506 181.896778 
L 243.708312 209.025188 
L 244.034416 226.422416 
L 244.360519 244.476732 
L 245.012727 255.209194 
L 245.121429 254.802425 
L 245.338831 246.510581 
L 245.773636 223.136968 
L 245.882338 222.229559 
L 245.991039 224.451148 
L 246.317143 245.540592 
L 246.534545 256.429504 
L 246.643247 257.274333 
L 247.186753 250.140219 
L 247.404156 249.952478 
L 247.512857 249.983769 
L 248.056364 249.201519 
L 248.165065 250.421828 
L 248.382468 257.962713 
L 248.817273 278.019588 
L 248.925974 277.518948 
L 249.360779 262.15557 
L 249.469481 262.40589 
L 249.686883 266.254557 
L 249.795584 266.066817 
L 250.012987 256.054025 
L 250.447792 229.895603 
L 250.556494 228.737875 
L 250.773896 230.646562 
L 251.1 237.499067 
L 251.643506 260.872681 
L 251.752208 258.119163 
L 252.295714 216.002854 
L 252.404416 217.035422 
L 253.491429 267.850346 
L 253.817532 287.281421 
L 253.926234 289.03366 
L 254.034935 288.40786 
L 254.252338 280.335047 
L 254.687143 243.381583 
L 254.904545 230.145923 
L 255.013247 228.675294 
L 255.230649 233.18105 
L 255.665455 243.913513 
L 255.991558 277.331209 
L 256.208961 292.600718 
L 256.317662 290.253969 
L 256.96987 239.282597 
L 257.187273 240.690645 
L 257.295974 238.969697 
L 257.730779 225.734037 
L 257.839481 227.799175 
L 258.056883 239.157437 
L 258.60039 276.110899 
L 258.709091 275.015751 
L 258.926494 260.497201 
L 259.47 216.002854 
L 259.578701 214.876414 
L 259.687403 215.971564 
L 260.665714 237.655517 
L 260.883117 243.475453 
L 261.644026 268.726465 
L 261.752727 267.443576 
L 261.97013 257.837553 
L 262.296234 241.973534 
L 262.404935 240.628065 
L 262.513636 242.098694 
L 263.057143 259.089152 
L 263.383247 262.90653 
L 263.600649 272.856742 
L 264.144156 300.767402 
L 264.252857 300.892562 
L 264.47026 292.538137 
L 264.687662 270.509993 
L 265.33987 188.937023 
L 265.448571 189.437662 
L 265.665974 201.108824 
L 265.992078 233.024601 
L 266.426883 284.340164 
L 266.535584 286.655622 
L 266.644286 282.525345 
L 266.97039 247.324121 
L 267.296494 221.25957 
L 267.513896 218.443472 
L 267.622597 219.6012 
L 267.84 226.328545 
L 268.600909 264.596188 
L 268.70961 264.189419 
L 269.144416 253.988886 
L 269.470519 256.867564 
L 269.579221 254.708555 
L 270.014026 238.781956 
L 270.122727 243.193843 
L 270.666234 291.474279 
L 270.774935 289.34656 
L 271.318442 254.239205 
L 271.644545 256.429504 
L 271.753247 255.115325 
L 272.296753 241.598055 
L 272.514156 244.946082 
L 272.731558 248.826039 
L 272.84026 248.669589 
L 273.057662 243.319004 
L 273.383766 235.340059 
L 273.492468 236.654238 
L 273.818571 244.038673 
L 274.253377 247.324121 
L 274.470779 258.432063 
L 275.014286 296.230355 
L 275.122987 291.974918 
L 275.883896 226.046936 
L 276.101299 216.347043 
L 276.536104 189.093473 
L 276.644805 190.564101 
L 276.862208 207.05392 
L 277.297013 242.129984 
L 277.514416 244.633182 
L 277.731818 243.819643 
L 277.840519 244.758343 
L 278.275325 250.985048 
L 278.492727 247.762181 
L 279.144935 233.3375 
L 279.253636 234.74555 
L 279.471039 245.071242 
L 279.905844 268.601305 
L 280.014545 268.757755 
L 280.340649 262.24944 
L 280.449351 263.407169 
L 280.884156 280.929557 
L 280.992857 280.679236 
L 281.536364 265.597468 
L 281.645065 265.660047 
L 281.862468 269.227104 
L 282.405974 283.902104 
L 282.514675 283.870814 
L 282.732078 278.144748 
L 283.601688 245.697042 
L 284.145195 239.595497 
L 284.253896 239.689366 
L 284.471299 243.882223 
L 284.906104 257.180464 
L 285.014805 257.305624 
L 285.232208 250.891178 
L 285.667013 217.410903 
L 285.993117 198.762076 
L 286.101818 197.166287 
L 286.210519 197.479187 
L 286.645325 203.705893 
L 286.754026 204.081372 
L 286.862727 205.082651 
L 287.08013 214.000295 
L 287.732338 256.867564 
L 288.058442 261.154291 
L 288.275844 262.687499 
L 288.384545 262.781369 
L 288.493247 262.34331 
L 289.254156 253.550826 
L 289.471558 252.799866 
L 289.58026 252.205357 
L 289.688961 252.612127 
L 289.906364 258.525932 
L 290.341169 278.269908 
L 290.44987 279.959567 
L 290.558571 279.865697 
L 290.993377 274.358661 
L 291.319481 277.080888 
L 291.428182 276.32993 
L 291.645584 268.382275 
L 291.971688 254.958875 
L 292.08039 253.801146 
L 292.297792 254.176626 
L 292.406494 253.582116 
L 292.732597 250.766019 
L 292.841299 251.642137 
L 293.058701 258.119163 
L 293.276104 264.502318 
L 293.384805 264.345869 
L 293.602208 256.304344 
L 294.145714 227.298536 
L 294.254416 225.139527 
L 294.363117 225.233397 
L 294.580519 231.115912 
L 295.124026 253.363086 
L 295.341429 256.085314 
L 295.45013 256.241764 
L 295.558831 255.584675 
L 295.776234 249.608289 
L 296.211039 232.117192 
L 296.537143 227.736595 
L 296.645844 227.110795 
L 296.754545 227.454985 
L 296.971948 231.616552 
L 297.515455 246.729611 
L 297.624156 246.479291 
L 297.95026 243.944803 
L 298.058961 244.946082 
L 298.276364 250.859888 
L 298.81987 269.039365 
L 298.928571 268.476146 
L 299.254675 263.438459 
L 299.363377 263.532329 
L 299.580779 266.098107 
L 299.689481 265.691337 
L 299.906883 257.086593 
L 300.232987 243.131264 
L 300.341688 242.661914 
L 300.559091 243.319004 
L 300.667792 241.879665 
L 301.102597 227.267245 
L 301.211299 228.612714 
L 301.754805 254.771135 
L 301.863506 252.893737 
L 302.407013 229.801733 
L 302.515714 230.552693 
L 303.059221 241.691925 
L 303.385325 239.313887 
L 303.494026 240.002266 
L 304.037532 251.923747 
L 304.146234 251.704717 
L 304.363636 250.985048 
L 304.472338 251.235368 
L 304.798442 253.175347 
L 305.015844 256.742404 
L 305.450649 267.819055 
L 305.559351 267.756476 
L 305.994156 264.126838 
L 306.211558 265.722627 
L 306.32026 265.378437 
L 306.537662 258.150453 
L 306.972468 238.594217 
L 307.407273 231.647842 
L 307.515974 232.304932 
L 307.733377 239.689366 
L 308.276883 263.219429 
L 308.602987 268.976785 
L 308.711688 269.978064 
L 308.82039 269.946774 
L 309.037792 266.630037 
L 309.255195 263.000399 
L 309.363896 262.90653 
L 309.69 265.284568 
L 309.798701 264.846508 
L 310.016104 260.872681 
L 310.450909 251.736008 
L 310.777013 247.54315 
L 310.994416 241.191285 
L 311.429221 226.359836 
L 311.537922 226.015646 
L 311.755325 228.362394 
L 312.19013 235.684249 
L 312.516234 241.285155 
L 312.624935 240.721936 
L 312.842338 234.5891 
L 313.277143 218.161862 
L 313.385844 218.067992 
L 313.603247 225.045656 
L 314.255455 261.84267 
L 314.472857 265.441018 
L 314.798961 267.036807 
L 314.907662 266.942936 
L 315.016364 266.160687 
L 315.233766 261.4359 
L 315.885974 241.973534 
L 315.994675 242.849654 
L 316.212078 249.545709 
L 316.646883 264.877798 
L 316.755584 265.159408 
L 316.972987 263.845229 
L 317.081688 263.907809 
L 317.516494 269.790324 
L 317.625195 268.882915 
L 317.951299 259.276892 
L 318.277403 252.549547 
L 318.92961 245.571882 
L 319.255714 244.163833 
L 320.016623 234.80813 
L 320.125325 234.80813 
L 320.342727 235.778119 
L 320.56013 237.905837 
L 320.886234 241.441605 
L 320.994935 241.003545 
L 321.212338 236.841978 
L 321.538442 229.551414 
L 321.647143 230.239793 
L 322.190649 241.472894 
L 322.408052 241.316445 
L 322.516753 242.380304 
L 322.842857 251.892458 
L 323.168961 259.808821 
L 323.712468 268.257115 
L 323.821169 267.912926 
L 324.038571 262.531049 
L 324.364675 251.297948 
L 324.473377 249.952478 
L 324.582078 251.110208 
L 325.125584 266.223266 
L 325.234286 266.066817 
L 325.451688 265.253277 
L 325.56039 265.628758 
L 325.777792 269.070655 
L 326.103896 273.920602 
L 326.212597 273.607702 
L 326.43 269.696454 
L 326.756104 256.429504 
L 327.082208 244.633182 
L 327.734416 230.177213 
L 327.843117 229.801733 
L 327.951818 231.460103 
L 328.386623 243.068683 
L 328.495325 242.536754 
L 328.93013 236.184888 
L 329.038831 236.091019 
L 329.147532 236.341338 
L 329.256234 236.153599 
L 329.364935 235.559089 
L 329.691039 232.774281 
L 329.79974 233.212341 
L 330.017143 236.059728 
L 330.886753 248.513139 
L 330.995455 248.200239 
L 331.43026 243.600614 
L 331.538961 243.757064 
L 331.756364 247.574441 
L 332.408571 263.094269 
L 332.625974 264.971668 
L 332.734675 264.721348 
L 332.952078 261.99912 
L 333.821688 247.85605 
L 333.93039 248.73217 
L 334.473896 259.965271 
L 334.908701 256.742404 
L 335.234805 258.306903 
L 335.452208 254.583395 
L 335.887013 241.817084 
L 335.995714 241.942244 
L 336.213117 247.167671 
L 336.647922 261.21687 
L 336.756623 262.12428 
L 336.865325 261.68622 
L 337.30013 256.460794 
L 337.408831 256.523374 
L 337.626234 258.306903 
L 337.734935 258.338193 
L 337.843636 257.117883 
L 338.16974 246.448002 
L 338.387143 239.939686 
L 338.495844 238.781956 
L 338.604545 239.282597 
L 339.039351 244.539313 
L 339.256753 242.505464 
L 339.474156 239.407756 
L 339.582857 238.781956 
L 339.80026 241.410315 
L 340.126364 244.789632 
L 340.235065 244.476732 
L 340.561169 242.411594 
L 340.66987 242.693204 
L 341.322078 248.919909 
L 341.430779 248.919909 
L 341.756883 246.322842 
L 341.974286 243.162554 
L 342.409091 233.80685 
L 342.626494 232.711701 
L 342.843896 233.93201 
L 343.17 238.844537 
L 343.713506 250.515698 
L 344.03961 251.266658 
L 344.257013 255.553385 
L 344.583117 263.188139 
L 344.691818 263.407169 
L 344.909221 260.059142 
L 345.126623 257.024014 
L 345.235325 257.024014 
L 345.452727 259.652371 
L 345.778831 263.250719 
L 345.887532 263.375879 
L 345.996234 263.125559 
L 346.104935 263.188139 
L 346.322338 264.314578 
L 346.53974 265.159408 
L 346.648442 265.315858 
L 346.865844 264.314578 
L 347.191948 260.121721 
L 347.844156 245.165112 
L 347.952857 245.603172 
L 348.496364 251.454398 
L 348.713766 251.266658 
L 348.931169 253.237926 
L 349.365974 259.433342 
L 349.583377 259.777531 
L 349.909481 256.930143 
L 350.235584 250.421828 
L 350.779091 235.997149 
L 350.887792 236.310049 
L 351.213896 238.625506 
L 351.431299 236.497788 
L 351.648701 233.99459 
L 351.757403 233.77556 
L 351.866104 233.9633 
L 351.974805 233.49395 
L 352.192208 230.083343 
L 352.518312 224.294698 
L 352.627013 225.327266 
L 352.953117 236.310049 
L 353.279221 245.165112 
L 353.496623 246.354131 
L 353.714026 244.664472 
L 354.148831 240.534195 
L 354.257532 240.690645 
L 354.366234 241.285155 
L 354.90974 247.730891 
L 355.018442 247.91863 
L 355.235844 247.23025 
L 355.344545 247.417991 
L 355.453247 248.3254 
L 355.670649 254.990165 
L 356.214156 274.82801 
L 356.322857 275.76671 
L 356.431558 275.54768 
L 356.648961 273.607702 
L 356.866364 270.541283 
L 357.40987 256.773693 
L 357.518571 257.274333 
L 357.844675 261.21687 
L 357.953377 260.903971 
L 358.279481 254.677265 
L 358.496883 251.923747 
L 358.714286 250.390538 
L 358.931688 246.041232 
L 359.366494 233.587821 
L 359.475195 232.962021 
L 359.583896 233.462661 
L 359.91 240.158716 
L 360.344805 254.958875 
L 360.77961 270.603864 
L 360.888312 271.573853 
L 360.997013 270.854183 
L 361.214416 265.941657 
L 361.866623 246.729611 
L 361.975325 245.947361 
L 362.084026 246.291552 
L 362.301429 249.576999 
L 362.736234 256.554664 
L 362.844935 256.116604 
L 363.062338 252.017617 
L 363.605844 232.148482 
L 364.040649 218.787661 
L 364.149351 218.412182 
L 364.258052 219.78894 
L 364.475455 226.672736 
L 365.018961 247.6996 
L 365.127662 247.85605 
L 365.345065 244.163833 
L 365.888571 233.400081 
L 366.105974 232.367511 
L 366.214675 233.274921 
L 366.432078 238.781956 
L 366.866883 257.399493 
L 367.301688 270.697733 
L 367.41039 271.824173 
L 367.519091 271.667723 
L 367.736494 269.289685 
L 368.062597 263.407169 
L 368.497403 250.265378 
L 368.714805 246.416711 
L 368.823506 247.042511 
L 369.475714 256.648533 
L 369.584416 255.647254 
L 369.910519 246.886061 
L 370.236623 239.689366 
L 370.562727 237.811967 
L 370.671429 237.780677 
L 370.78013 238.187447 
L 371.106234 241.441605 
L 371.323636 243.225133 
L 371.432338 243.256424 
L 371.867143 241.222575 
L 371.975844 241.942244 
L 372.519351 249.702159 
L 372.736753 249.858609 
L 372.954156 252.862447 
L 373.497662 265.221987 
L 373.606364 264.032969 
L 374.367273 248.23153 
L 374.475974 247.48057 
L 374.584675 248.23153 
L 374.802078 253.926305 
L 375.128182 266.567457 
L 375.236883 267.474866 
L 375.345584 266.473587 
L 375.889091 251.986327 
L 375.997792 252.111487 
L 376.323896 254.301786 
L 376.432597 253.331797 
L 376.976104 244.476732 
L 377.193506 247.324121 
L 377.628312 255.365644 
L 378.171818 258.306903 
L 378.280519 258.338193 
L 378.497922 255.897575 
L 379.258831 241.347735 
L 379.367532 240.721936 
L 379.476234 240.847095 
L 379.693636 241.754505 
L 380.01974 244.351572 
L 380.345844 248.481849 
L 380.671948 252.705997 
L 380.780649 252.299227 
L 381.324156 246.103811 
L 381.65026 245.352852 
L 382.302468 241.003545 
L 382.411169 241.379025 
L 382.737273 244.132543 
L 382.954675 245.039953 
L 383.280779 248.23153 
L 383.715584 253.081476 
L 383.824286 252.393097 
L 384.585195 242.255144 
L 384.802597 243.569323 
L 385.237403 249.138939 
L 385.454805 251.172788 
L 385.563506 250.703438 
L 386.215714 243.444164 
L 386.541818 242.661914 
L 386.976623 239.658076 
L 387.085325 240.033556 
L 387.302727 242.974814 
L 387.737532 250.484408 
L 387.954935 251.391817 
L 388.281039 251.172788 
L 388.38974 251.204077 
L 388.607143 252.267937 
L 388.933247 255.146615 
L 389.150649 255.553385 
L 389.368052 253.863726 
L 389.694156 251.141498 
L 389.911558 250.734728 
L 390.237662 250.891178 
L 390.563766 252.831157 
L 390.998571 256.836274 
L 391.542078 258.338193 
L 391.650779 258.807542 
L 391.759481 258.557222 
L 391.976883 257.086593 
L 392.194286 255.866285 
L 392.302987 255.866285 
L 392.846494 260.93526 
L 392.955195 260.246881 
L 393.39 255.772414 
L 393.607403 254.145336 
L 393.933506 251.204077 
L 394.042208 250.985048 
L 394.150909 251.266658 
L 394.477013 252.925026 
L 394.694416 253.300506 
L 394.803117 253.081476 
L 395.020519 251.235368 
L 395.564026 245.321562 
L 396.107532 241.379025 
L 396.433636 235.46522 
L 396.542338 235.214899 
L 396.75974 237.592938 
L 397.085844 241.660635 
L 397.303247 242.630624 
L 397.411948 243.006104 
L 397.629351 245.540592 
L 397.955455 249.295389 
L 398.064156 248.73217 
L 398.39026 244.789632 
L 398.498961 244.695763 
L 398.716364 247.762181 
L 399.042468 253.957596 
L 399.151169 254.677265 
L 399.25987 254.395655 
L 399.803377 250.515698 
L 400.020779 249.889899 
L 400.238182 248.26282 
L 400.672987 241.316445 
L 400.89039 238.469057 
L 400.999091 237.811967 
L 401.107792 237.968417 
L 401.216494 239.032277 
L 401.542597 247.19896 
L 401.76 252.111487 
L 401.868701 252.737287 
L 401.977403 252.361807 
L 402.303506 249.858609 
L 402.412208 250.359248 
L 402.955714 258.651092 
L 403.064416 258.432063 
L 403.390519 256.742404 
L 403.825325 256.711114 
L 404.042727 255.615965 
L 404.26013 253.050187 
L 404.586234 249.076359 
L 404.694935 248.76346 
L 404.803636 248.826039 
L 404.912338 249.295389 
L 405.455844 255.866285 
L 405.781948 260.278171 
L 405.890649 260.653651 
L 405.999351 260.278171 
L 406.216753 257.524653 
L 407.412468 239.564206 
L 407.62987 242.223854 
L 407.955974 246.698321 
L 408.173377 247.85605 
L 408.499481 253.112766 
L 408.825584 259.464632 
L 408.934286 259.683661 
L 409.042987 258.682382 
L 409.695195 246.448002 
L 410.021299 244.414153 
L 410.13 244.351572 
L 410.347403 247.19896 
L 410.782208 257.336914 
L 410.99961 258.400772 
L 411.217013 256.179184 
L 412.412727 237.561648 
L 412.63013 237.123588 
L 412.738831 237.154878 
L 412.847532 237.311328 
L 413.064935 238.375187 
L 414.151948 249.389259 
L 414.586753 255.365644 
L 414.695455 255.365644 
L 414.912857 254.020176 
L 415.347662 251.047628 
L 415.673766 247.85605 
L 415.99987 244.226413 
L 416.108571 244.508022 
L 416.652078 252.299227 
L 416.760779 251.736008 
L 417.521688 243.725773 
L 417.739091 242.661914 
L 417.956494 243.131264 
L 418.717403 249.232809 
L 419.260909 256.273054 
L 419.36961 256.241764 
L 419.587013 254.552105 
L 420.239221 245.790911 
L 420.456623 245.321562 
L 420.674026 245.384142 
L 420.891429 246.322842 
L 421.217532 247.98121 
L 421.326234 248.0125 
L 421.652338 247.136381 
L 421.761039 247.167671 
L 421.978442 248.982489 
L 422.304545 254.802425 
L 422.521948 258.588513 
L 422.630649 259.120442 
L 422.739351 258.588513 
L 423.065455 252.956316 
L 423.391558 248.23153 
L 423.50026 247.91863 
L 423.717662 249.264099 
L 424.478571 257.931422 
L 424.587273 257.618524 
L 425.130779 253.957596 
L 425.239481 254.114046 
L 425.456883 254.645975 
L 425.674286 253.769856 
L 426.109091 248.669589 
L 426.761299 241.472894 
L 426.87 241.723215 
L 427.522208 247.6996 
L 427.73961 247.261541 
L 427.957013 248.76346 
L 428.174416 250.202798 
L 428.283117 250.234088 
L 428.391818 249.545709 
L 428.717922 245.853492 
L 428.935325 245.133822 
L 429.152727 245.728332 
L 429.37013 246.228971 
L 429.478831 246.228971 
L 429.913636 243.882223 
L 430.131039 244.852213 
L 431.000649 254.771135 
L 431.109351 254.802425 
L 431.326753 253.519536 
L 431.544156 252.236647 
L 431.652857 252.393097 
L 432.087662 255.334355 
L 432.305065 252.705997 
L 432.631169 248.41927 
L 432.848571 249.389259 
L 433.065974 250.828598 
L 433.283377 249.733449 
L 433.500779 248.23153 
L 433.609481 248.45056 
L 433.826883 251.047628 
L 434.152987 255.834994 
L 434.37039 256.241764 
L 434.587792 255.897575 
L 434.805195 255.303065 
L 434.913896 255.240485 
L 435.131299 254.364365 
L 435.457403 250.296669 
L 436.218312 239.063566 
L 436.327013 238.656797 
L 436.435714 239.032277 
L 436.761818 244.382863 
L 436.979221 247.042511 
L 437.087922 247.417991 
L 437.305325 247.167671 
L 437.414026 247.91863 
L 437.848831 255.334355 
L 437.957532 255.115325 
L 438.174935 249.514419 
L 438.501039 240.440326 
L 438.60974 240.471615 
L 438.827143 245.947361 
L 439.153247 253.519536 
L 439.261948 254.176626 
L 439.479351 253.988886 
L 439.696753 254.489525 
L 439.805455 254.708555 
L 439.914156 254.520815 
L 440.131558 252.518257 
L 440.457662 248.982489 
L 440.675065 248.356689 
L 440.892468 245.947361 
L 441.327273 238.312608 
L 441.435974 239.251306 
L 441.653377 244.633182 
L 441.979481 253.112766 
L 442.196883 254.865005 
L 442.414286 254.520815 
L 443.066494 252.236647 
L 443.392597 252.799866 
L 443.61 252.205357 
L 443.827403 250.953758 
L 443.936104 250.985048 
L 444.044805 251.423108 
L 444.47961 255.271775 
L 444.588312 255.084035 
L 444.805714 252.580837 
L 445.457922 243.006104 
L 445.784026 240.221295 
L 446.001429 238.406477 
L 446.11013 238.469057 
L 446.327532 241.504185 
L 446.762338 248.23153 
L 446.97974 249.514419 
L 447.414545 255.021455 
L 447.523247 254.708555 
L 447.740649 250.985048 
L 448.066753 245.321562 
L 448.175455 245.509302 
L 448.718961 253.394376 
L 448.827662 253.081476 
L 449.153766 250.296669 
L 449.262468 250.703438 
L 449.588571 253.895016 
L 449.697273 253.112766 
L 449.914675 248.54443 
L 450.240779 242.349014 
L 450.349481 242.880944 
L 451.001688 250.421828 
L 451.653896 259.026572 
L 451.762597 258.776252 
L 452.088701 254.176626 
L 452.306104 251.078918 
L 452.414805 250.640858 
L 452.958312 254.176626 
L 453.067013 253.707276 
L 453.719221 247.35541 
L 453.827922 247.3867 
L 453.936623 247.261541 
L 454.154026 247.261541 
L 454.697532 245.790911 
L 454.914935 247.35541 
L 455.675844 257.274333 
L 455.784545 256.961433 
L 456.001948 251.141498 
L 456.328052 239.501626 
L 456.436753 238.343897 
L 456.545455 239.564206 
L 457.088961 251.516977 
L 457.415065 249.01378 
L 457.523766 249.639578 
L 457.741169 254.207915 
L 458.067273 260.059142 
L 458.175974 259.996561 
L 458.610779 255.553385 
L 458.936883 250.766019 
L 459.371688 243.350293 
L 459.48039 242.880944 
L 459.589091 243.506743 
L 459.806494 247.23025 
L 460.023896 251.016338 
L 460.132597 251.485687 
L 460.241299 250.766019 
L 460.676104 243.882223 
L 460.784805 244.038673 
L 461.110909 250.828598 
L 461.328312 253.300506 
L 461.437013 252.799866 
L 461.763117 248.23153 
L 461.871818 248.26282 
L 462.197922 250.985048 
L 462.306623 250.578278 
L 462.85013 244.038673 
L 463.067532 245.947361 
L 463.284935 248.23153 
L 463.393636 248.38798 
L 463.611039 247.605731 
L 463.71974 247.82476 
L 463.937143 250.296669 
L 464.263247 254.301786 
L 464.371948 254.333076 
L 464.698052 252.612127 
L 464.806753 252.925026 
L 465.132857 255.490804 
L 465.241558 254.927585 
L 465.458961 250.327959 
L 465.893766 237.248748 
L 466.002468 237.248748 
L 466.21987 243.506743 
L 466.654675 257.743683 
L 466.763377 257.399493 
L 466.980779 253.738566 
L 467.306883 247.98121 
L 467.415584 247.136381 
L 467.524286 247.35541 
L 467.85039 249.076359 
L 467.959091 248.76346 
L 468.393896 244.445443 
L 468.502597 244.695763 
L 469.154805 251.204077 
L 469.263506 250.797308 
L 469.372208 251.047628 
L 469.58961 253.769856 
L 469.915714 258.995282 
L 470.133117 260.121721 
L 470.241818 259.965271 
L 470.350519 259.214312 
L 470.567922 254.833715 
L 471.111429 240.002266 
L 471.328831 239.063566 
L 471.546234 239.939686 
L 471.872338 241.410315 
L 472.08974 241.504185 
L 472.198442 241.472894 
L 472.307143 241.785794 
L 472.524545 243.913513 
L 472.850649 247.0738 
L 472.959351 247.105091 
L 473.285455 246.604451 
L 473.394156 246.948641 
L 474.046364 251.548267 
L 474.263766 251.861167 
L 474.372468 252.267937 
L 474.807273 256.617244 
L 474.915974 256.116604 
L 475.350779 249.858609 
L 475.459481 249.983769 
L 475.894286 255.115325 
L 476.002987 254.458236 
L 476.22039 249.576999 
L 476.546494 241.879665 
L 476.655195 241.191285 
L 476.763896 241.535475 
L 477.198701 244.320283 
L 477.307403 244.195122 
L 477.524805 243.037394 
L 477.850909 240.940965 
L 477.95961 240.940965 
L 478.177013 243.381583 
L 478.611818 249.514419 
L 479.155325 253.050187 
L 479.481429 256.210474 
L 479.59013 256.147894 
L 479.807532 254.458236 
L 480.024935 252.956316 
L 480.133636 252.956316 
L 480.351039 255.459515 
L 480.785844 262.0617 
L 480.894545 262.46847 
L 481.003247 261.90525 
L 481.220649 258.619803 
L 482.09026 239.720656 
L 482.198961 239.595497 
L 482.416364 241.754505 
L 482.633766 244.069963 
L 482.742468 243.913513 
L 483.177273 240.502905 
L 483.285974 241.347735 
L 483.938182 251.235368 
L 484.155584 251.767298 
L 484.699091 252.831157 
L 484.807792 252.768577 
L 484.916494 252.424387 
L 485.133896 252.956316 
L 485.568701 255.553385 
L 485.677403 255.271775 
L 486.32961 250.985048 
L 486.547013 252.580837 
L 486.873117 255.490804 
L 486.981818 255.772414 
L 487.199221 254.614686 
L 487.525325 251.829877 
L 487.96013 246.729611 
L 488.068831 246.792191 
L 488.286234 249.076359 
L 488.503636 251.642137 
L 488.612338 251.892458 
L 488.721039 251.485687 
L 489.699351 244.633182 
L 489.808052 244.789632 
L 489.916753 245.165112 
L 490.134156 246.448002 
L 490.351558 246.667031 
L 490.895065 246.228971 
L 491.112468 245.790911 
L 491.221169 245.916071 
L 491.438571 247.54315 
L 491.873377 250.891178 
L 492.199481 250.171509 
L 492.416883 248.45056 
L 492.851688 243.225133 
L 492.96039 243.131264 
L 493.177792 245.978652 
L 493.503896 252.393097 
L 493.612597 252.956316 
L 493.83 250.265378 
L 494.156104 245.603172 
L 494.264805 245.196402 
L 494.373506 245.446722 
L 494.590909 246.698321 
L 494.808312 249.107649 
L 495.243117 255.709835 
L 495.351818 256.147894 
L 495.460519 255.897575 
L 495.786623 253.081476 
L 496.004026 251.673427 
L 496.221429 251.329238 
L 496.438831 252.361807 
L 496.873636 256.523374 
L 496.982338 256.022735 
L 497.525844 251.141498 
L 497.851948 252.518257 
L 497.960649 252.612127 
L 498.286753 251.579558 
L 499.156364 246.948641 
L 499.591169 245.102532 
L 499.69987 245.290272 
L 499.917273 246.573161 
L 500.025974 246.667031 
L 500.243377 245.478011 
L 500.460779 244.601893 
L 500.569481 245.039953 
L 501.221688 249.796028 
L 501.439091 250.609569 
L 501.765195 252.174067 
L 501.982597 252.361807 
L 502.091299 252.080197 
L 502.2 252.142777 
L 502.308701 252.549547 
L 502.852208 257.336914 
L 502.960909 257.180464 
L 503.06961 256.304344 
L 503.721818 246.541871 
L 503.830519 246.291552 
L 504.047922 247.23025 
L 504.265325 248.23153 
L 504.374026 248.0125 
L 504.482727 247.51186 
L 504.808831 244.852213 
L 504.917532 245.071242 
L 505.56974 251.986327 
L 505.787143 251.047628 
L 506.221948 246.979931 
L 506.548052 244.633182 
L 506.874156 244.163833 
L 506.982857 244.257703 
L 507.091558 244.163833 
L 507.308961 244.727053 
L 508.178571 250.359248 
L 508.395974 252.361807 
L 508.504675 252.674707 
L 509.048182 250.766019 
L 509.156883 251.047628 
L 509.265584 251.016338 
L 509.482987 250.015059 
L 509.917792 246.009942 
L 510.135195 245.446722 
L 510.243896 245.540592 
L 510.57 246.91735 
L 510.678701 246.886061 
L 511.222208 243.162554 
L 511.43961 244.288993 
L 512.200519 251.360527 
L 512.309221 251.266658 
L 512.852727 248.07508 
L 513.07013 250.265378 
L 513.504935 256.085314 
L 513.613636 256.585954 
L 513.93974 256.116604 
L 514.048442 255.709835 
L 514.157143 255.741125 
L 514.374545 254.645975 
L 515.026753 248.481849 
L 515.135455 248.45056 
L 515.678961 250.140219 
L 515.896364 251.892458 
L 516.222468 255.271775 
L 516.43987 255.647254 
L 517.418182 250.484408 
L 517.526883 250.327959 
L 517.961688 250.672148 
L 518.396494 248.919909 
L 518.505195 249.451839 
L 519.048701 254.614686 
L 519.157403 254.145336 
L 519.700909 249.201519 
L 519.918312 248.951199 
L 520.027013 248.88862 
L 520.244416 249.01378 
L 520.461818 249.04507 
L 520.896623 249.389259 
L 521.114026 249.576999 
L 521.331429 249.17023 
L 521.548831 247.35541 
L 521.874935 244.695763 
L 521.983636 244.727053 
L 522.418442 246.197681 
L 522.635844 246.166392 
L 522.744545 246.291552 
L 522.961948 247.19896 
L 523.288052 249.264099 
L 523.505455 249.952478 
L 523.831558 250.171509 
L 524.048961 248.60701 
L 524.375065 245.196402 
L 524.592468 244.789632 
L 524.80987 244.977372 
L 525.135974 244.664472 
L 525.353377 246.448002 
L 525.679481 249.608289 
L 525.788182 249.32668 
L 526.331688 244.382863 
L 526.549091 245.321562 
L 527.201299 248.57572 
L 527.744805 252.549547 
L 527.853506 252.299227 
L 528.505714 248.73217 
L 528.831818 248.41927 
L 529.157922 249.764739 
L 529.918831 254.114046 
L 530.136234 254.458236 
L 530.571039 254.802425 
L 531.005844 254.114046 
L 531.114545 254.082755 
L 531.331948 253.675986 
L 531.549351 252.330517 
L 532.31026 244.664472 
L 532.418961 244.789632 
L 532.636364 246.541871 
L 533.071169 251.423108 
L 533.397273 253.018897 
L 533.505974 253.206636 
L 533.614675 253.081476 
L 533.832078 251.172788 
L 534.375584 244.508022 
L 534.592987 244.195122 
L 534.81039 244.476732 
L 535.027792 245.665752 
L 535.353896 248.513139 
L 535.462597 248.73217 
L 535.571299 248.638299 
L 535.788701 248.26282 
L 535.897403 248.45056 
L 536.114805 249.702159 
L 536.332208 250.421828 
L 536.440909 250.140219 
L 536.767013 247.79347 
L 537.093117 246.416711 
L 537.527922 245.697042 
L 537.636623 246.009942 
L 537.962727 248.57572 
L 538.614935 254.802425 
L 538.723636 254.958875 
L 539.158442 253.957596 
L 539.375844 254.145336 
L 539.484545 253.926305 
L 539.593247 253.425666 
L 540.354156 246.385421 
L 540.571558 246.322842 
L 540.788961 246.604451 
L 541.658571 248.70088 
L 541.875974 248.38798 
L 542.310779 247.887341 
L 542.636883 247.042511 
L 542.962987 247.574441 
L 543.289091 249.451839 
L 543.615195 250.797308 
L 543.723896 250.891178 
L 543.941299 250.640858 
L 544.267403 249.796028 
L 544.376104 249.764739 
L 544.484805 250.108928 
L 544.91961 253.456956 
L 545.028312 253.456956 
L 545.137013 252.893737 
L 545.680519 247.63702 
L 545.789221 247.91863 
L 546.115325 251.579558 
L 546.441429 254.708555 
L 546.55013 254.708555 
L 546.767532 253.269216 
L 547.093636 251.078918 
L 547.202338 250.797308 
L 547.311039 250.828598 
L 547.745844 250.390538 
L 548.289351 251.548267 
L 548.615455 249.576999 
L 548.832857 248.13766 
L 548.941558 247.91863 
L 549.158961 248.73217 
L 549.485065 250.484408 
L 549.593766 250.390538 
L 549.811169 249.545709 
L 550.028571 248.982489 
L 550.354675 248.826039 
L 550.680779 247.19896 
L 551.006883 245.509302 
L 551.224286 246.541871 
L 551.659091 249.858609 
L 552.093896 251.767298 
L 552.311299 252.455677 
L 552.528701 252.142777 
L 552.854805 249.295389 
L 553.28961 245.227692 
L 553.398312 245.227692 
L 553.941818 248.41927 
L 554.702727 252.236647 
L 554.811429 252.455677 
L 555.028831 251.892458 
L 555.246234 250.390538 
L 555.78974 244.163833 
L 555.898442 243.850933 
L 556.007143 244.007383 
L 556.441948 246.041232 
L 556.876753 249.483129 
L 557.311558 253.300506 
L 557.42026 253.456956 
L 557.746364 252.299227 
L 557.855065 252.142777 
L 558.28987 253.206636 
L 558.398571 253.050187 
L 558.942078 250.672148 
L 559.159481 250.797308 
L 559.376883 250.327959 
L 559.702987 247.82476 
L 560.029091 245.884782 
L 560.246494 245.728332 
L 560.355195 245.634461 
L 560.572597 245.227692 
L 560.79 245.196402 
L 561.007403 246.197681 
L 561.333506 248.043791 
L 561.442208 248.16895 
L 561.550909 248.043791 
L 561.768312 248.60701 
L 562.311818 253.550826 
L 562.420519 253.675986 
L 562.529221 253.363086 
L 562.855325 251.673427 
L 562.964026 251.923747 
L 563.181429 253.769856 
L 563.398831 255.584675 
L 563.507532 255.553385 
L 563.724935 253.519536 
L 564.051039 250.734728 
L 564.268442 251.297948 
L 564.485844 251.986327 
L 564.703247 251.829877 
L 565.029351 251.548267 
L 565.246753 251.266658 
L 565.464156 250.390538 
L 566.225065 247.292831 
L 566.442468 247.324121 
L 566.768571 247.48057 
L 566.877273 247.417991 
L 567.094675 246.510581 
L 567.203377 246.479291 
L 567.420779 247.79347 
L 567.964286 254.426946 
L 568.072987 254.364365 
L 568.29039 252.862447 
L 568.725195 248.513139 
L 569.051299 247.0738 
L 569.377403 246.166392 
L 569.486104 245.884782 
L 569.703506 246.854771 
L 570.138312 250.672148 
L 570.247013 250.766019 
L 570.355714 250.640858 
L 570.681818 249.17023 
L 570.899221 248.76346 
L 571.007922 248.45056 
L 571.334026 245.728332 
L 571.66013 242.880944 
L 571.768831 242.724494 
L 571.986234 243.944803 
L 572.421039 246.948641 
L 572.747143 247.730891 
L 573.181948 250.359248 
L 573.399351 250.640858 
L 573.834156 250.046349 
L 574.486364 248.29411 
L 574.703766 248.88862 
L 575.138571 250.390538 
L 575.355974 250.891178 
L 575.573377 250.891178 
L 576.008182 249.514419 
L 576.225584 248.88862 
L 576.442987 249.608289 
L 576.769091 251.110208 
L 576.986494 250.797308 
L 577.421299 248.76346 
L 577.638701 248.54443 
L 577.856104 248.88862 
L 577.964805 249.01378 
L 578.073506 248.951199 
L 578.182208 248.70088 
L 578.39961 248.76346 
L 579.269221 251.485687 
L 579.812727 249.639578 
L 580.138831 248.45056 
L 580.356234 248.29411 
L 580.464935 248.45056 
L 580.791039 249.889899 
L 581.334545 252.956316 
L 581.660649 254.020176 
L 581.769351 254.176626 
L 581.878052 254.114046 
L 582.204156 253.269216 
L 582.856364 249.420549 
L 583.073766 249.357969 
L 583.39987 250.578278 
L 583.725974 252.205357 
L 583.943377 252.768577 
L 584.160779 252.612127 
L 584.704286 249.670869 
L 585.03039 247.762181 
L 585.139091 247.574441 
L 585.356494 247.6996 
L 585.791299 248.919909 
L 586.117403 249.733449 
L 586.334805 250.609569 
L 586.443506 250.891178 
L 586.660909 250.578278 
L 587.421818 247.0738 
L 587.639221 246.228971 
L 588.074026 244.414153 
L 588.291429 244.195122 
L 588.40013 244.101253 
L 588.617532 243.694483 
L 588.834935 243.850933 
L 589.378442 245.916071 
L 589.813247 246.698321 
L 590.791558 251.047628 
L 591.008961 250.672148 
L 591.335065 249.796028 
L 591.443766 249.764739 
L 591.878571 250.202798 
L 592.204675 249.545709 
L 592.530779 249.076359 
L 592.748182 249.32668 
L 593.726494 252.862447 
L 593.835195 252.893737 
L 594.704805 250.359248 
L 595.030909 249.639578 
L 595.248312 250.077638 
L 595.683117 252.299227 
L 595.900519 252.236647 
L 596.226623 250.703438 
L 596.335325 250.453119 
L 596.444026 250.546988 
L 596.552727 250.453119 
L 596.661429 250.546988 
L 596.878831 250.828598 
L 597.422338 250.077638 
L 597.748442 249.889899 
L 597.857143 249.670869 
L 598.291948 246.760901 
L 598.509351 245.571882 
L 598.618052 245.509302 
L 599.27026 247.730891 
L 599.487662 247.94992 
L 599.596364 248.10637 
L 599.922468 249.138939 
L 600.031169 249.232809 
L 600.248571 249.17023 
L 600.683377 250.108928 
L 600.900779 250.766019 
L 601.009481 250.797308 
L 601.335584 251.110208 
L 601.444286 251.078918 
L 601.879091 251.579558 
L 601.987792 251.516977 
L 602.64 249.138939 
L 603.074805 247.136381 
L 603.183506 247.136381 
L 603.835714 249.420549 
L 604.161818 248.73217 
L 604.270519 248.70088 
L 604.379221 248.794749 
L 604.922727 249.952478 
L 605.357532 249.32668 
L 605.792338 250.672148 
L 606.770649 253.081476 
L 606.988052 252.424387 
L 607.857662 248.356689 
L 608.075065 249.201519 
L 608.50987 251.516977 
L 608.727273 251.204077 
L 608.944675 250.484408 
L 609.379481 249.608289 
L 610.031688 247.54315 
L 610.14039 247.63702 
L 610.357792 247.19896 
L 610.901299 244.601893 
L 611.118701 244.414153 
L 611.770909 246.729611 
L 611.87961 246.823481 
L 612.097013 247.54315 
L 612.423117 249.764739 
L 612.749221 251.454398 
L 612.857922 251.516977 
L 613.292727 249.827319 
L 613.727532 248.57572 
L 614.053636 248.10637 
L 614.162338 248.26282 
L 614.488442 247.98121 
L 614.705844 247.6996 
L 614.814545 247.63702 
L 615.466753 249.608289 
L 615.575455 249.514419 
L 615.901558 249.201519 
L 616.01026 249.295389 
L 616.445065 250.766019 
L 616.662468 250.703438 
L 616.988571 249.889899 
L 617.205974 250.265378 
L 617.314675 250.484408 
L 617.640779 251.861167 
L 617.858182 252.330517 
L 617.966883 252.236647 
L 618.184286 251.548267 
L 618.51039 250.546988 
L 618.619091 250.640858 
L 618.727792 250.578278 
L 618.945195 250.766019 
L 619.488701 251.204077 
L 620.140909 251.955037 
L 620.467013 251.579558 
L 620.901818 251.610848 
L 621.662727 250.421828 
L 622.423636 248.10637 
L 622.641039 248.07508 
L 622.74974 248.13766 
L 622.967143 248.669589 
L 623.184545 248.826039 
L 623.293247 248.794749 
L 623.401948 248.919909 
L 623.619351 248.85733 
L 623.728052 248.88862 
L 623.836753 249.04507 
L 623.945455 248.85733 
L 624.054156 249.01378 
L 624.706364 248.26282 
L 625.141169 249.357969 
L 625.684675 250.609569 
L 626.010779 250.766019 
L 626.445584 250.046349 
L 626.662987 250.171509 
L 627.097792 249.576999 
L 627.423896 248.57572 
L 627.532597 248.356689 
L 627.641299 248.481849 
L 627.967403 249.733449 
L 628.402208 251.548267 
L 628.510909 251.704717 
L 628.728312 251.141498 
L 628.945714 250.077638 
L 629.489221 247.6996 
L 629.924026 246.448002 
L 630.141429 245.540592 
L 630.25013 245.634461 
L 630.358831 245.603172 
L 630.576234 246.448002 
L 631.011039 248.38798 
L 631.337143 248.513139 
L 631.554545 248.3254 
L 632.206753 247.35541 
L 632.641558 248.13766 
L 632.967662 248.919909 
L 633.185065 249.01378 
L 633.728571 247.79347 
L 633.945974 247.011221 
L 634.598182 246.760901 
L 634.924286 247.0738 
L 635.576494 249.357969 
L 636.12 251.673427 
L 636.228701 251.673427 
L 636.337403 251.548267 
L 636.663506 251.986327 
L 637.207013 253.707276 
L 637.315714 253.675986 
L 637.641818 253.144056 
L 637.859221 252.455677 
L 638.185325 250.985048 
L 638.294026 250.797308 
L 638.511429 251.204077 
L 638.837532 252.893737 
L 639.163636 253.801146 
L 639.381039 253.613406 
L 639.598442 252.643416 
L 640.250649 249.107649 
L 640.468052 249.04507 
L 640.794156 249.295389 
L 641.555065 247.91863 
L 641.772468 248.07508 
L 642.315974 247.449281 
L 642.968182 248.73217 
L 643.076883 248.70088 
L 643.62039 247.79347 
L 643.729091 247.63702 
L 643.837792 247.730891 
L 644.055195 247.48057 
L 644.163896 247.324121 
L 644.707403 245.759622 
L 644.816104 245.790911 
L 645.35961 246.698321 
L 646.120519 248.85733 
L 646.446623 248.76346 
L 646.664026 248.57572 
L 646.99013 250.046349 
L 647.533636 252.925026 
L 647.642338 253.081476 
L 647.85974 253.519536 
L 648.511948 253.081476 
L 648.838052 253.394376 
L 648.946753 253.425666 
L 649.49026 252.737287 
L 649.816364 252.893737 
L 650.033766 252.424387 
L 650.794675 248.41927 
L 651.012078 247.730891 
L 651.229481 247.91863 
L 651.446883 248.85733 
L 651.664286 250.140219 
L 651.881688 250.640858 
L 651.99039 250.766019 
L 652.207792 250.390538 
L 652.642597 249.32668 
L 652.751299 249.545709 
L 652.86 249.483129 
L 653.403506 250.390538 
L 653.72961 251.297948 
L 653.947013 251.110208 
L 654.273117 250.234088 
L 654.490519 250.453119 
L 654.816623 251.204077 
L 655.034026 250.891178 
L 655.468831 248.919909 
L 655.577532 248.826039 
L 656.012338 249.32668 
L 656.338442 248.70088 
L 656.555844 248.70088 
L 656.990649 249.702159 
L 657.425455 248.88862 
L 657.642857 248.3254 
L 658.295065 247.324121 
L 658.403766 247.449281 
L 658.621169 248.3254 
L 659.164675 251.110208 
L 659.382078 251.454398 
L 659.599481 250.985048 
L 659.925584 249.670869 
L 660.142987 249.04507 
L 660.469091 248.638299 
L 660.903896 247.887341 
L 661.990909 244.789632 
L 662.09961 244.695763 
L 662.317013 245.227692 
L 662.643117 246.948641 
L 662.751818 247.35541 
L 663.186623 247.261541 
L 663.404026 247.730891 
L 663.947532 248.88862 
L 664.056234 248.88862 
L 664.59974 250.327959 
L 664.708442 250.546988 
L 664.817143 250.515698 
L 664.925844 250.609569 
L 665.360649 249.827319 
L 665.578052 249.576999 
L 665.686753 249.733449 
L 666.012857 249.576999 
L 666.121558 249.576999 
L 666.447662 249.232809 
L 666.665065 249.483129 
L 667.09987 249.983769 
L 667.534675 249.451839 
L 668.078182 248.200239 
L 668.295584 248.200239 
L 668.621688 248.356689 
L 668.73039 248.13766 
L 668.839091 248.16895 
L 669.056494 248.0125 
L 669.165195 248.07508 
L 669.382597 248.0125 
L 669.708701 248.07508 
L 669.817403 247.98121 
L 670.034805 247.54315 
L 670.143506 247.417991 
L 670.360909 247.105091 
L 670.578312 247.105091 
L 670.687013 247.105091 
L 671.013117 247.574441 
L 671.556623 249.764739 
L 671.882727 251.297948 
L 671.991429 251.266658 
L 672.10013 251.360527 
L 672.208831 251.266658 
L 672.426234 251.360527 
L 672.752338 252.549547 
L 672.96974 252.768577 
L 673.621948 252.330517 
L 673.730649 252.330517 
L 674.60026 250.390538 
L 675.035065 248.3254 
L 675.143766 248.29411 
L 675.252468 248.38798 
L 675.795974 249.733449 
L 676.013377 249.420549 
L 676.448182 248.57572 
L 676.665584 248.669589 
L 676.774286 248.638299 
L 676.882987 248.73217 
L 677.209091 249.483129 
L 677.643896 251.642137 
L 677.861299 252.518257 
L 678.296104 252.925026 
L 678.622208 252.455677 
L 678.730909 252.455677 
L 679.165714 250.953758 
L 679.709221 248.38798 
L 679.817922 248.356689 
L 680.578831 249.827319 
L 680.904935 250.515698 
L 681.013636 250.609569 
L 681.231039 250.484408 
L 681.991948 250.859888 
L 682.209351 250.859888 
L 682.426753 250.828598 
L 682.644156 250.640858 
L 682.752857 250.640858 
L 683.078961 250.108928 
L 683.405065 250.202798 
L 683.622468 250.515698 
L 683.948571 250.515698 
L 684.274675 249.983769 
L 684.492078 250.171509 
L 684.709481 249.702159 
L 685.144286 248.57572 
L 685.361688 248.513139 
L 685.579091 248.23153 
L 685.796494 248.10637 
L 686.013896 248.0125 
L 686.231299 248.10637 
L 686.34 247.94992 
L 686.883506 248.70088 
L 686.992208 248.73217 
L 687.318312 248.0125 
L 687.535714 248.3254 
L 687.644416 248.26282 
L 687.753117 248.38798 
L 687.970519 248.043791 
L 688.187922 247.762181 
L 688.514026 248.88862 
L 688.84013 250.640858 
L 689.166234 251.204077 
L 689.383636 251.016338 
L 689.492338 250.953758 
L 689.601039 250.734728 
L 689.818442 249.420549 
L 690.361948 246.604451 
L 690.688052 247.0738 
L 690.905455 247.63702 
L 691.014156 247.574441 
L 691.34026 247.91863 
L 691.448961 247.94992 
L 691.992468 249.232809 
L 692.20987 249.670869 
L 692.427273 250.015059 
L 692.644675 250.484408 
L 692.753377 250.578278 
L 693.079481 251.454398 
L 693.188182 251.548267 
L 693.405584 252.174067 
L 693.622987 252.236647 
L 693.84039 252.580837 
L 693.949091 252.236647 
L 694.057792 252.267937 
L 694.166494 252.174067 
L 694.383896 251.516977 
L 694.71 249.952478 
L 695.036104 248.200239 
L 695.253506 247.605731 
L 695.362208 247.574441 
L 695.57961 247.82476 
L 696.340519 245.603172 
L 696.449221 245.446722 
L 696.666623 245.665752 
L 697.21013 247.51186 
L 697.427532 248.16895 
L 697.536234 248.356689 
L 697.753636 248.982489 
L 697.862338 249.107649 
L 698.188442 248.70088 
L 698.405844 248.3254 
L 698.514545 248.29411 
L 698.731948 248.60701 
L 698.949351 249.04507 
L 699.492857 249.483129 
L 699.927662 248.88862 
L 700.253766 247.887341 
L 700.57987 247.54315 
L 701.014675 247.85605 
L 701.884286 249.451839 
L 702.101688 249.639578 
L 702.21039 249.608289 
L 702.753896 250.327959 
L 702.971299 250.327959 
L 703.188701 249.952478 
L 703.297403 250.015059 
L 703.623506 249.639578 
L 703.94961 250.015059 
L 704.167013 250.171509 
L 704.275714 250.077638 
L 704.601818 249.295389 
L 704.819221 249.201519 
L 705.362727 250.985048 
L 705.471429 251.141498 
L 705.58013 250.985048 
L 705.906234 251.266658 
L 706.123636 251.423108 
L 706.232338 251.736008 
L 706.341039 251.704717 
L 706.44974 251.798587 
L 706.558442 251.736008 
L 707.101948 253.050187 
L 707.210649 253.144056 
L 707.319351 252.925026 
L 707.536753 252.893737 
L 708.08026 251.423108 
L 708.297662 250.766019 
L 708.841169 250.202798 
L 709.058571 250.546988 
L 709.493377 252.737287 
L 709.710779 253.394376 
L 710.036883 253.081476 
L 710.145584 253.175347 
L 710.58039 251.798587 
L 711.341299 247.0738 
L 711.776104 245.540592 
L 711.993506 245.258982 
L 712.102208 245.102532 
L 712.31961 245.321562 
L 712.537013 245.853492 
L 712.754416 246.886061 
L 713.080519 247.48057 
L 713.297922 247.449281 
L 713.624026 248.0125 
L 713.841429 248.16895 
L 714.058831 248.0125 
L 714.276234 248.07508 
L 714.493636 248.638299 
L 714.711039 248.826039 
L 715.037143 249.264099 
L 715.145844 249.295389 
L 715.580649 249.858609 
L 715.798052 249.921188 
L 716.558961 248.41927 
L 716.776364 248.513139 
L 716.885065 248.41927 
L 717.102468 248.88862 
L 717.754675 251.172788 
L 717.972078 250.578278 
L 718.732987 248.638299 
L 719.059091 248.38798 
L 719.167792 248.200239 
L 719.493896 248.60701 
L 720.037403 249.764739 
L 720.254805 249.858609 
L 720.363506 249.889899 
L 720.907013 248.73217 
L 721.233117 247.82476 
L 721.450519 247.63702 
L 721.885325 248.26282 
L 722.211429 249.04507 
L 722.428831 249.389259 
L 723.18974 250.046349 
L 723.407143 250.296669 
L 724.059351 251.391817 
L 724.385455 251.204077 
L 724.494156 251.516977 
L 725.146364 250.828598 
L 725.255065 250.609569 
L 725.472468 250.734728 
L 725.68987 250.672148 
L 725.907273 250.828598 
L 726.124675 250.953758 
L 726.342078 251.360527 
L 726.450779 251.391817 
L 726.559481 251.673427 
L 726.776883 251.642137 
L 726.885584 251.391817 
L 726.994286 251.548267 
L 727.537792 250.766019 
L 727.863896 249.04507 
L 727.972597 248.88862 
L 728.19 248.13766 
L 728.407403 248.26282 
L 728.624805 248.669589 
L 728.950909 249.483129 
L 729.168312 249.702159 
L 729.711818 249.451839 
L 730.255325 248.45056 
L 730.364026 248.481849 
L 730.581429 248.85733 
L 730.69013 248.951199 
L 731.016234 248.60701 
L 731.124935 248.29411 
L 731.342338 248.26282 
L 731.885844 247.417991 
L 732.646753 248.16895 
L 732.755455 248.23153 
L 732.864156 248.07508 
L 732.972857 248.16895 
L 733.298961 247.35541 
L 733.516364 247.3867 
L 733.625065 247.3867 
L 734.05987 248.45056 
L 734.494675 250.234088 
L 734.820779 250.797308 
L 735.038182 250.797308 
L 735.255584 250.985048 
L 735.581688 250.672148 
L 735.69039 250.578278 
L 735.907792 250.015059 
L 736.016494 249.889899 
L 736.342597 250.265378 
L 736.56 250.859888 
L 736.886104 251.548267 
L 737.212208 251.329238 
L 737.42961 251.204077 
L 737.973117 249.608289 
L 738.407922 247.605731 
L 738.734026 247.19896 
L 739.06013 246.854771 
L 739.277532 246.854771 
L 739.712338 248.13766 
L 740.255844 249.01378 
L 740.581948 250.234088 
L 740.799351 250.922468 
L 741.342857 251.579558 
L 741.451558 251.454398 
L 741.56026 251.548267 
L 741.995065 250.859888 
L 742.212468 250.953758 
L 742.538571 251.235368 
L 742.647273 251.235368 
L 742.755974 250.985048 
L 742.864675 251.047628 
L 743.190779 250.296669 
L 743.516883 249.796028 
L 743.625584 249.858609 
L 743.842987 249.764739 
L 744.06039 249.702159 
L 744.712597 249.451839 
L 744.821299 249.764739 
L 744.93 249.733449 
L 745.79961 250.859888 
L 746.125714 250.672148 
L 746.343117 250.609569 
L 746.777922 250.672148 
L 746.886623 250.578278 
L 747.104026 250.734728 
L 747.321429 250.953758 
L 748.191039 249.107649 
L 748.625844 248.826039 
L 749.169351 247.292831 
L 749.386753 246.91735 
L 749.495455 247.011221 
L 749.604156 246.979931 
L 749.93026 247.417991 
L 750.256364 247.63702 
L 750.365065 247.35541 
L 751.452078 248.638299 
L 751.560779 248.45056 
L 751.778182 248.54443 
L 751.886883 248.45056 
L 751.995584 248.513139 
L 752.212987 248.13766 
L 752.647792 247.730891 
L 752.756494 247.82476 
L 752.865195 247.730891 
L 753.191299 248.16895 
L 753.408701 248.45056 
L 753.626104 248.794749 
L 753.952208 249.04507 
L 754.16961 249.076359 
L 754.387013 249.295389 
L 755.039221 248.70088 
L 755.147922 248.76346 
L 755.80013 250.327959 
L 756.126234 250.484408 
L 756.778442 249.389259 
L 757.321948 248.10637 
L 757.756753 248.3254 
L 757.865455 248.41927 
L 758.082857 248.73217 
L 758.408961 249.264099 
L 758.517662 249.420549 
L 758.626364 249.32668 
L 758.843766 249.545709 
L 758.952468 249.764739 
L 759.16987 249.733449 
L 759.278571 249.764739 
L 759.387273 250.077638 
L 759.604675 250.108928 
L 759.713377 250.140219 
L 759.930779 250.046349 
L 760.365584 250.421828 
L 760.474286 250.390538 
L 760.80039 250.703438 
L 761.452597 251.172788 
L 761.561299 251.204077 
L 761.778701 250.985048 
L 761.887403 250.953758 
L 762.104805 250.609569 
L 762.213506 250.672148 
L 762.322208 250.578278 
L 762.865714 249.420549 
L 762.974416 249.357969 
L 763.191818 249.514419 
L 763.409221 249.670869 
L 763.735325 249.858609 
L 763.952727 249.796028 
L 764.061429 249.733449 
L 764.278831 249.389259 
L 764.387532 249.389259 
L 764.604935 249.138939 
L 764.931039 249.01378 
L 765.148442 248.73217 
L 765.800649 248.45056 
L 766.126753 249.232809 
L 766.452857 249.420549 
L 766.67026 249.827319 
L 766.996364 250.140219 
L 767.105065 250.140219 
L 767.213766 249.952478 
L 767.322468 250.140219 
L 767.53987 249.858609 
L 767.865974 249.858609 
L 767.974675 249.858609 
L 768.409481 250.734728 
L 768.518182 250.672148 
L 768.626883 250.828598 
L 769.822597 249.295389 
L 770.257403 248.982489 
L 770.366104 249.04507 
L 770.583506 248.951199 
L 770.800909 248.794749 
L 770.90961 248.826039 
L 771.018312 248.73217 
L 771.235714 248.88862 
L 771.670519 248.85733 
L 771.887922 248.951199 
L 771.996623 248.982489 
L 772.322727 249.483129 
L 772.757532 249.983769 
L 772.866234 249.889899 
L 773.083636 249.576999 
L 773.627143 249.17023 
L 773.844545 248.826039 
L 774.170649 248.45056 
L 774.822857 248.919909 
L 774.931558 248.826039 
L 775.475065 249.357969 
L 775.692468 249.232809 
L 776.018571 249.01378 
L 776.562078 250.265378 
L 777.431688 252.737287 
L 777.649091 252.925026 
L 778.083896 252.580837 
L 778.301299 252.486966 
L 778.518701 252.017617 
L 779.27961 249.514419 
L 779.605714 249.608289 
L 780.040519 249.201519 
L 780.475325 249.670869 
L 780.91013 249.295389 
L 781.018831 249.01378 
L 781.236234 249.076359 
L 781.671039 248.88862 
L 781.888442 248.481849 
L 782.105844 248.3254 
L 782.323247 248.200239 
L 782.431948 248.3254 
L 782.649351 248.200239 
L 782.758052 248.200239 
L 782.866753 248.0125 
L 782.975455 248.07508 
L 783.192857 247.98121 
L 783.41026 247.82476 
L 783.627662 247.82476 
L 784.062468 247.887341 
L 785.149481 249.952478 
L 785.584286 249.983769 
L 785.801688 249.827319 
L 786.019091 249.608289 
L 786.236494 249.201519 
L 786.453896 248.88862 
L 786.671299 248.73217 
L 786.78 248.73217 
L 787.214805 249.232809 
L 787.323506 249.201519 
L 787.432208 249.608289 
L 787.758312 249.483129 
L 787.867013 249.796028 
L 788.084416 249.702159 
L 788.193117 249.733449 
L 788.301818 249.576999 
L 788.410519 249.921188 
L 788.627922 249.858609 
L 788.736623 249.576999 
L 788.954026 249.545709 
L 789.171429 249.389259 
L 789.388831 249.889899 
L 789.497532 249.545709 
L 789.606234 249.733449 
L 790.367143 249.107649 
L 790.584545 248.794749 
L 790.693247 249.17023 
L 790.910649 248.794749 
L 791.128052 249.420549 
L 791.345455 248.70088 
L 791.671558 249.01378 
L 791.888961 248.54443 
L 792.323766 249.138939 
L 792.432468 249.107649 
L 792.541169 249.201519 
L 792.758571 249.733449 
L 792.975974 249.483129 
L 793.302078 250.546988 
L 793.410779 250.546988 
L 793.736883 251.204077 
L 793.954286 250.953758 
L 794.171688 251.110208 
L 794.28039 251.454398 
L 794.497792 250.640858 
L 794.823896 250.734728 
L 794.932597 250.327959 
L 795.15 250.546988 
L 795.258701 250.390538 
L 795.476104 249.545709 
L 795.584805 249.639578 
L 796.237013 249.357969 
L 796.563117 248.481849 
L 796.671818 248.23153 
L 796.889221 248.513139 
L 797.106623 247.91863 
L 797.215325 247.85605 
L 797.324026 248.16895 
L 797.432727 247.54315 
L 797.758831 248.16895 
L 797.867532 248.29411 
L 797.976234 248.23153 
L 798.084935 248.85733 
L 798.193636 248.23153 
L 798.302338 248.38798 
L 798.411039 248.26282 
L 798.628442 248.76346 
L 798.737143 248.38798 
L 798.845844 248.85733 
L 798.954545 248.57572 
L 799.063247 248.60701 
L 799.171948 248.356689 
L 799.606753 248.85733 
L 799.715455 248.88862 
L 800.258961 249.764739 
L 800.367662 249.889899 
L 800.802468 250.828598 
L 801.128571 250.922468 
L 801.345974 251.297948 
L 801.563377 251.047628 
L 801.672078 251.016338 
L 802.106883 250.453119 
L 802.215584 250.484408 
L 802.541688 249.889899 
L 802.65039 249.921188 
L 802.976494 249.232809 
L 803.085195 248.919909 
L 803.193896 249.04507 
L 803.302597 248.826039 
L 803.737403 249.04507 
L 803.846104 249.17023 
L 803.954805 249.733449 
L 804.172208 249.389259 
L 804.280909 249.639578 
L 804.38961 249.514419 
L 804.498312 249.639578 
L 805.041818 249.295389 
L 805.150519 249.264099 
L 805.476623 248.85733 
L 805.694026 248.88862 
L 805.802727 248.70088 
L 805.911429 248.76346 
L 806.563636 247.762181 
L 806.672338 247.887341 
L 806.781039 247.79347 
L 807.324545 248.10637 
L 807.433247 248.481849 
L 807.976753 248.200239 
L 808.52026 248.54443 
L 808.628961 248.513139 
L 808.846364 248.70088 
L 809.498571 250.640858 
L 809.715974 251.329238 
L 809.824675 251.078918 
L 810.042078 251.642137 
L 810.368182 251.485687 
L 810.476883 251.610848 
L 810.911688 251.141498 
L 811.346494 250.234088 
L 811.89 249.514419 
L 811.998701 249.483129 
L 812.650909 250.421828 
L 812.75961 250.359248 
L 812.868312 250.515698 
L 813.411818 250.140219 
L 813.629221 249.764739 
L 813.955325 249.17023 
L 814.498831 249.264099 
L 814.824935 249.514419 
L 814.933636 249.420549 
L 815.042338 249.514419 
L 815.477143 249.295389 
L 815.585844 249.389259 
L 815.694545 249.232809 
L 815.803247 249.389259 
L 816.129351 248.919909 
L 816.238052 248.951199 
L 817.216364 247.730891 
L 817.542468 247.66831 
L 818.085974 248.13766 
L 818.194675 248.043791 
L 819.064286 248.70088 
L 819.172987 248.73217 
L 819.499091 249.04507 
L 819.607792 249.138939 
L 820.042597 250.108928 
L 820.151299 250.108928 
L 820.368701 250.484408 
L 820.477403 250.515698 
L 820.586104 250.672148 
L 820.803506 250.609569 
L 820.912208 250.546988 
L 821.238312 250.766019 
L 821.564416 250.828598 
L 822.542727 251.360527 
L 822.76013 251.235368 
L 823.303636 251.016338 
L 824.064545 250.202798 
L 824.173247 250.234088 
L 824.608052 250.953758 
L 825.151558 251.297948 
L 825.477662 251.391817 
L 825.912468 250.953758 
L 826.021169 250.953758 
L 826.238571 250.202798 
L 826.999481 248.85733 
L 827.434286 247.51186 
L 827.869091 246.854771 
L 827.977792 246.823481 
L 828.086494 246.541871 
L 828.195195 246.635741 
L 828.63 246.510581 
L 828.847403 246.573161 
L 829.608312 247.98121 
L 829.825714 248.13766 
L 830.369221 248.60701 
L 830.695325 248.76346 
L 831.021429 248.76346 
L 831.673636 249.389259 
L 832.217143 249.796028 
L 832.760649 250.484408 
L 832.869351 250.515698 
L 833.195455 250.140219 
L 833.304156 249.952478 
L 833.412857 250.015059 
L 834.065065 248.60701 
L 834.282468 248.60701 
L 834.934675 250.077638 
L 835.152078 250.171509 
L 835.369481 250.234088 
L 835.478182 250.108928 
L 835.912987 250.390538 
L 836.782597 250.484408 
L 837.108701 251.047628 
L 837.108701 251.047628 
" clip-path="url(#p059de901de)" style="fill: none; stroke: #000000; stroke-width: 0.5; stroke-linecap: square"/>
   </g>
  </g>
 </g>
 <defs>
  <clipPath id="p059de901de">
   <rect x="0" y="-0" width="837" height="498.96"/>
  </clipPath>
 </defs>
</svg>
