<svg width="505" height="505" xmlns="http://www.w3.org/2000/svg" xmlns:xlink="http://www.w3.org/1999/xlink" xml:space="preserve" overflow="hidden"><defs><clipPath id="clip0"><rect x="70" y="74" width="505" height="505"/></clipPath></defs><g clip-path="url(#clip0)" transform="translate(-70 -74)"><path d="M364.583 242.333 443.49 242.333 443.49 252.854 364.583 252.854Z"/><path d="M364.583 273.896 443.49 273.896 443.49 284.417 364.583 284.417Z"/><path d="M364.583 305.458 417.188 305.458 417.188 315.979 364.583 315.979Z"/><path d="M527.656 200.25 496.094 200.25 496.094 177.104C496.094 174.857 494.668 172.858 492.543 172.128 437.389 153.716 377.778 153.513 322.5 171.549 267.222 153.512 207.612 153.713 152.457 172.123 150.33 172.853 148.903 174.855 148.906 177.104L148.906 200.25 117.344 200.25C114.438 200.25 112.083 202.605 112.083 205.51L112.083 458.01C112.083 460.916 114.438 463.271 117.344 463.271L286.203 463.271C288.41 472.524 296.68 479.053 306.193 479.052L338.807 479.052C348.32 479.053 356.59 472.524 358.797 463.271L527.656 463.271C530.562 463.271 532.917 460.916 532.917 458.01L532.917 205.51C532.917 202.605 530.562 200.25 527.656 200.25ZM485.573 180.892 485.573 422.345C434.124 406.753 379.209 406.753 327.76 422.345L327.76 180.892C379.106 164.619 434.227 164.619 485.573 180.892ZM159.427 180.892C210.773 164.619 265.894 164.619 317.24 180.892L317.24 422.345C265.791 406.753 210.876 406.753 159.427 422.345ZM522.396 452.75 354.062 452.75C351.157 452.75 348.802 455.105 348.802 458.01L348.802 458.536C348.802 464.056 344.327 468.531 338.807 468.531L306.193 468.531C300.673 468.531 296.198 464.056 296.198 458.536L296.198 458.01C296.198 455.105 293.843 452.75 290.938 452.75L122.604 452.75 122.604 210.771 148.906 210.771 148.906 429.604C148.905 432.509 151.26 434.865 154.165 434.866 154.747 434.866 155.326 434.77 155.876 434.581 209.398 416.73 267.268 416.73 320.79 434.581 320.877 434.6 320.965 434.614 321.053 434.623 321.442 434.737 321.843 434.804 322.247 434.823 322.332 434.823 322.416 434.865 322.5 434.865 322.584 434.865 322.632 434.838 322.695 434.833 323.095 434.82 323.492 434.76 323.878 434.654 323.962 434.654 324.052 434.623 324.141 434.596L324.21 434.596C377.732 416.746 435.602 416.746 489.124 434.596 489.675 434.778 490.253 434.869 490.833 434.865 493.739 434.865 496.094 432.509 496.094 429.604L496.094 210.771 522.396 210.771Z"/></g></svg>