<svg xmlns="http://www.w3.org/2000/svg" fill="none" stroke="black" viewBox="30.638297872340424 177.112 1392.340425531915 1447.55" style="max-height: 500px" width="1392.340425531915" height="1447.55">

<g mask="url(#mask0_1_188)">
<path stroke-linejoin="round" stroke-width="2.92252" stroke="#CECEC2" fill="white" d="M-30.7751 2890.41H2206.64V-1256.74H-30.7751V2890.41Z"/>
<path stroke-linejoin="round" stroke-width="2.92252" stroke="#CECECE" fill="white" d="M-30.7751 2890.41H2206.64V-1256.74H-30.7751V2890.41Z"/>
<path fill="white" d="M-31.0659 818.162L-30.4848 816.86L-30.1942 818.162L-29.3225 817.638L-28.7413 817.9L-28.4508 817.114L-28.1602 817.9L-27.2885 816.082L-26.7073 815.296L-24.9639 818.424L-24.3827 816.86L-24.0922 817.638L-23.2205 816.86L-22.9299 818.162L-22.6393 816.86L-22.0582 817.384L-21.1865 816.606L-20.8959 817.384L-19.443 815.82L-18.2807 816.344L-17.1184 818.424L-16.8278 818.162L-16.5373 816.86L-16.2467 818.162L-15.9561 816.082L-15.375 815.82L-15.0844 815.296L-14.2127 817.638L-13.9221 816.606L-13.0504 817.114H-10.1447L-9.8541 816.082L-9.56353 816.606L-9.27295 815.041L-8.69179 815.296L-7.82008 815.565L-7.52953 817.114L-7.23895 816.606L-6.94835 817.9L-6.07664 816.082L-4.91433 817.384L-4.04265 816.606L-3.75217 817.384L-3.46144 816.082L-3.17097 816.86L-2.58976 816.606L-1.13688 817.114L-0.846397 817.9L0.606493 815.565L2.05938 817.114L2.64034 815.82L3.80299 816.86L5.54636 817.638L5.83684 817.114L6.12757 817.9L7.58046 815.565L8.74261 816.86L9.6143 816.344L10.1955 817.638L11.0672 816.86L11.9389 815.565L12.2293 816.344L12.5201 815.041L12.8106 817.638L13.3918 816.86L13.6822 817.9L13.973 816.344L14.8446 817.114L15.7163 816.86L16.0068 817.9L16.2975 816.344L16.8785 816.606L17.7502 816.344L18.3314 817.384L18.9126 817.638L20.3655 816.86L20.9464 817.638L21.2372 816.606L21.5276 817.638L22.3993 815.82L22.9805 816.344L23.271 816.082L23.8522 817.384L25.8865 816.082L26.177 816.606L26.4678 815.82L26.7582 817.384L27.0487 816.606L27.3394 817.384L27.9204 816.606L28.7921 817.384L29.0828 816.344L29.3733 817.638L30.245 816.344H30.8262L31.4074 816.606L33.1507 816.86L33.4412 817.638L34.3129 816.344L35.4753 817.638L35.7658 816.344L36.0565 818.424L36.6375 817.638L36.9282 818.424L37.7999 817.384L38.3811 818.424L38.962 816.86L40.7057 817.9L41.2866 817.384L43.03 816.082L43.3207 817.114L43.6112 816.344L44.1924 817.384L45.3546 816.86L45.6453 816.344L45.9358 817.384L46.2262 816.344L47.0982 818.679L47.9701 818.162L48.5513 816.606L49.423 815.565H50.2947L50.8756 814.779L51.4568 815.296L51.7476 816.86L52.038 816.082L52.9097 817.384L53.4909 816.082H54.0719L54.3626 816.606L54.9438 819.465L55.8155 818.941L56.9777 815.565L58.1401 814.525L58.4305 816.344L59.3022 815.82L59.5927 815.565L60.4646 818.162L61.3363 815.296L61.9173 819.203L62.4985 821.807L62.789 819.719L63.3702 813.477L63.9514 813.747L64.5326 816.082L65.4043 819.203L66.8571 814.255L67.7288 823.626L68.891 814.525L69.7627 818.941L70.3441 812.699L70.6346 814.001L71.5065 831.949L71.797 829.599L72.6687 803.597L73.2499 809.053L73.8309 819.465L74.4121 820.497L74.7028 819.465L75.2838 825.707L75.865 818.424L76.1554 818.679L77.0274 832.473L77.3178 829.344L78.1895 806.194L78.48 808.013L79.0612 821.283L79.3517 821.021L79.9329 811.396L80.2236 812.182L81.0953 829.09L81.6763 814.779L82.2575 799.436L82.5482 803.597L83.4199 826.485L84.0008 829.09L84.2916 829.344L84.8725 816.86L85.4537 802.557H85.7444L86.3254 826.485L86.9066 835.062L88.069 814.255L88.3595 812.699L88.65 815.296L89.2312 824.667L89.5217 822.062L90.1029 808.799L91.2653 773.689L91.8462 792.932L92.7182 824.405L93.2994 817.384L93.5901 817.9L93.8806 816.86L94.171 812.182L94.7523 791.375L95.0427 789.556L95.3335 791.375L95.9144 808.799L96.7863 859.777L97.0768 862.636L97.3673 862.374L97.9485 851.454L98.239 851.97L98.5297 857.172L98.8202 851.184L100.273 788.516L101.435 759.91L101.726 763.809L102.598 813.223L102.888 804.9L103.76 758.091L104.051 769.527L105.213 848.325L105.503 849.366L107.247 821.538L108.118 840.01L108.409 831.687L109.281 760.95L109.571 766.406L110.734 891.242L111.024 882.919L111.896 803.859L112.186 805.416L113.058 835.587L113.349 830.385L113.93 802.811L114.221 802.557L114.802 811.142L115.383 804.121L115.964 792.161L116.255 790.851L116.545 785.649L117.417 742.74L117.707 746.647L118.289 815.565L119.16 919.07L119.451 907.888L120.904 780.193L121.194 780.455L121.485 789.032L122.647 847.547L123.228 840.788L124.391 805.416L125.262 810.364L125.553 809.578L126.134 800.476L126.425 803.081L127.006 829.344L127.877 880.576L128.168 866.273L129.33 764.588L129.621 767.709L131.074 842.607L131.945 818.424L132.817 845.99L133.398 832.982L133.979 815.296L134.27 823.357L134.851 858.737L135.142 848.595L136.013 788.778L136.304 779.931L136.595 782.012L137.757 817.384L138.338 827.264L138.919 832.982L139.501 835.587L140.082 852.232L140.372 862.12L140.663 861.85L141.244 858.475L141.534 850.152L142.987 753.922L143.278 757.305L144.15 787.992L144.731 807.505L145.021 806.981L145.312 810.364L146.765 853.011L147.055 852.749L148.799 759.91L149.38 779.407L150.833 833.506L151.123 830.639L151.995 812.961L152.576 821.807L152.867 819.203L154.319 760.681L154.61 764.064L155.191 790.335L155.772 841.574L156.935 957.555L157.225 953.664L159.55 768.233L159.841 766.152L160.422 788.516L160.712 788.254L162.165 706.851L162.746 755.748L163.618 841.305L164.199 856.132L165.071 829.599L165.361 839.224L166.233 908.928L166.524 896.444L167.686 740.914L167.977 751.325L168.848 853.273L169.139 848.849L170.01 774.475L170.301 774.729L171.754 873.039L172.045 870.435L172.916 813.223L173.497 777.85L173.788 781.495L174.66 816.082L174.95 796.577L175.822 694.375L176.113 718.296L177.275 874.334L177.856 838.191L178.437 817.384L179.018 849.89L179.89 900.867L180.18 887.342L181.052 808.799L181.343 812.961L182.215 876.153L182.505 872.77L183.086 822.586L183.958 749.244L184.249 753.668L184.83 800.738L185.411 851.708L185.702 842.083L186.573 734.672L186.864 736.236L187.736 813.477L188.026 811.92L188.898 771.608L189.188 778.629L190.351 890.456L190.641 887.859L192.675 807.505L193.837 679.286L194.128 692.549L195 777.072L195.29 785.649L195.581 785.133L196.162 762.507L196.453 765.104L197.615 866.011L198.487 945.595L198.777 944.038L199.358 889.947L200.23 799.174L200.811 785.919L201.683 775.77L202.264 804.121L203.136 845.728L203.427 843.393L204.008 830.639L204.879 877.463L205.17 866.797L205.751 786.952L206.623 677.467L206.913 681.891L207.495 745.337L208.366 851.708L208.657 854.313L209.238 827.526L209.528 828.304L210.11 889.423L210.691 967.967L210.981 968.483L211.563 895.403L212.434 773.689L212.725 762.507L213.015 770.83L213.887 827.526L214.178 812.699L215.34 687.085L215.921 788.254L216.793 949.494L217.083 939.353L218.535 835.332L219.118 839.486L219.408 829.868L220.57 741.438L220.86 748.72L221.443 773.435L222.023 756.781L222.313 759.386L222.895 814.255L223.768 893.585L224.058 877.193L224.928 777.85L225.22 785.919L226.09 838.191L226.672 847.809L227.252 836.627L227.545 828.82L227.835 829.09L228.125 840.01L228.997 913.606L229.287 912.827L229.87 828.82L230.45 719.336L230.74 707.368L231.322 795.798L231.902 904.767L232.194 913.868L232.774 803.081L233.354 660.305L233.647 648.599L234.227 763.547L235.099 961.724L235.389 952.099L236.842 730.518L238.006 850.676L238.294 836.881L239.456 714.396L240.039 783.052L240.911 887.859L242.074 866.535L242.364 868.616L243.234 865.233L243.526 875.637L244.396 922.707L244.688 910.747L245.268 837.929L246.141 708.154L246.431 701.388L247.011 732.599L247.886 784.355L248.173 788.778L248.466 786.952L249.046 765.628L249.628 737.546L249.918 732.082L250.208 739.095L250.79 803.597L251.663 902.686L252.243 910.747L252.823 907.888L253.405 921.929L253.698 921.667L253.985 901.122L255.44 714.396L256.31 754.446L256.603 741.962L257.475 668.882L257.762 679.548L259.217 869.911L259.507 868.616L260.087 861.85L260.96 883.435L261.542 896.189L262.122 861.85L262.995 812.437L263.285 811.658L263.575 814.001L263.865 811.658L264.447 783.569L265.319 717.779L265.609 726.356L266.192 812.699L267.062 915.949L267.354 902.432L268.514 793.98L269.097 843.123L269.677 896.189L269.969 899.303L270.549 867.838L271.131 830.123L271.419 832.728L272.291 915.17L272.581 914.13L273.166 847.292L274.326 682.145L274.616 690.722L275.489 754.184L275.779 754.962L276.071 757.822L276.651 789.032L277.523 858.212L277.813 847.03L278.686 763.285L278.976 760.681L280.136 801.517L280.718 816.86L281.008 816.344L281.883 790.335L282.171 792.932L283.043 834.808L283.915 904.505L284.495 948.454L284.788 951.837L285.075 933.897L286.53 760.164L287.11 753.144L287.403 763.023L287.983 826.485L288.853 946.111L289.145 940.139L289.727 848.849L290.6 729.215L290.887 735.982L292.05 829.09L292.342 816.344L293.795 671.225L294.377 746.385L295.247 868.87L295.54 871.221L296.12 861.071L296.409 868.87L296.992 896.96L297.282 896.698L297.862 835.062L298.734 746.647L299.024 752.365L300.477 838.97L301.639 947.422L301.932 940.91L302.512 888.121L304.256 662.894L304.544 665.761L305.129 724.792L305.999 798.403L306.871 785.395L307.741 823.881L308.034 820.243L308.614 797.879L308.906 798.657L309.486 847.809L310.068 904.767L310.356 909.444L310.648 901.646L311.518 855.608L311.811 862.374L312.391 891.496L312.683 894.625L313.263 855.608L313.846 806.194L314.133 800.476L314.716 823.881L315.588 858.991L315.878 858.475L316.458 831.949L317.623 766.406H317.913L318.493 772.91L318.785 769.789L319.365 757.305L319.655 757.822L320.528 800.222L320.82 799.698L321.69 751.325L321.98 756.272L322.562 820.243L323.142 882.919L323.432 886.818L324.012 852.749L324.597 826.485L324.885 834.808L325.757 888.121L326.047 889.678L326.63 867.314L327.21 844.171L327.79 840.264H328.082L328.665 841.305L328.954 832.728L330.407 715.691L330.697 735.196L332.149 950.535L332.442 940.91L334.764 654.833L335.346 576.043L335.637 577.076L336.219 671.479L337.091 818.162L337.671 844.171L338.254 865.233L339.124 898.525L339.414 898.263L339.996 866.011L340.869 824.921L341.159 825.961L341.738 859.777L342.901 953.918L343.193 937.796L344.353 814.779L344.646 808.799L345.516 834.808L345.808 815.565L346.971 670.955L347.258 669.661L348.713 754.184L349.585 777.072L351.038 840.788L351.328 828.304L352.198 762.507L352.49 770.576L353.07 825.961L353.945 910.747L354.525 929.473L354.815 930.514L355.395 905.545L356.267 861.596L356.85 853.789L357.43 816.86L358.302 757.043L358.592 763.023L359.465 810.102L359.755 813.223L360.627 801.771L361.207 835.332L361.787 873.818L362.079 877.972L362.369 866.011L363.532 749.506L363.822 750.801L364.694 787.468L364.984 764.85L366.147 596.065L366.439 631.953L367.889 979.403L368.181 971.342L369.054 902.94L369.344 902.162L370.216 917.775L370.796 887.859L372.251 775.77L372.539 787.738L373.414 876.423L373.701 876.939L374.863 781.495L375.156 792.161L375.736 833.244L376.028 832.982L378.061 718.034L378.351 720.638L378.933 766.923L380.096 901.122L380.386 903.981L380.676 894.363L381.838 832.982L382.71 787.992L383.58 735.72L383.873 737.276L384.745 769.265L386.488 869.132L386.778 873.556L387.358 900.867L387.942 938.32L388.23 940.91L388.812 906.323L390.265 733.377L391.135 637.933L391.427 625.965L391.72 626.235L392.3 658.741L395.494 939.091L396.077 958.341L396.367 954.172L397.819 881.617L398.982 819.465L399.272 817.9L399.854 821.807L400.144 816.86L401.599 766.152L402.759 798.657L403.341 766.923L403.921 735.458H404.214L405.376 767.709L406.826 854.567L407.118 847.809L407.991 786.952L408.281 789.811L409.441 892.544L409.733 889.947L410.896 843.123L411.188 847.809L411.476 847.547L412.638 791.113L412.931 804.9L414.093 912.042L414.38 903.726L415.835 771.87L416.128 776.548L416.998 816.86L417.288 814.001L419.033 753.668L419.32 758.091L419.905 804.9L420.775 877.193L421.067 880.322L421.647 853.011L423.097 750.03L423.39 746.385L423.682 751.063L426.005 839.748L426.587 862.636L426.877 862.89L427.459 827.264L428.329 777.072L428.909 827.78L429.784 896.444L430.072 893.061L430.944 852.494L431.237 856.132L432.107 892.02L432.399 880.322L432.979 804.376L433.849 679.802L434.141 671.741L434.721 719.074L435.596 813.477L435.884 808.537L437.046 730.518L437.629 805.678L438.501 924.526L438.789 907.109L440.243 684.488L440.823 780.455L441.696 925.312L441.986 912.565L443.151 764.333L443.441 771.87L444.893 916.211L446.055 828.82L446.345 829.868L447.218 869.132L447.508 867.052L448.09 809.053L448.67 728.699L448.96 718.82L449.54 763.809L450.123 805.678L450.413 802.811L450.995 775.508L451.285 779.677L452.737 871.999L453.317 866.797L453.61 874.858L454.48 933.627L454.772 927.385L456.225 791.113L456.515 791.891L456.807 789.811L457.095 783.052L458.55 716.215L458.842 724.538L459.712 807.505L460.292 842.607L460.584 833.244L461.454 785.395L461.747 795.798L462.909 883.705L463.199 881.1L463.782 837.405L464.652 766.152L465.814 714.912L466.394 686.306L466.686 689.682L467.266 751.849L468.139 853.535L468.429 856.394L469.009 845.728L469.301 848.325L470.464 892.544L470.751 874.858L472.206 693.065L472.498 700.617L473.948 833.244L474.821 771.608L475.113 773.435L475.693 839.748L476.276 899.303L476.563 898.525L478.018 799.952L478.598 851.454L479.18 907.364L479.47 910.223L480.633 853.011L480.923 873.039L482.668 1084.48L483.25 1013.47L484.12 910.493L484.41 911.787L484.992 921.143L485.282 913.606L487.607 742.478L489.64 447.563L490.512 356.281L490.805 358.878L491.385 452.248L494.872 1344.54L495.162 1340.9L495.744 1261.06L496.907 952.353L498.359 586.439L498.939 552.107L499.229 568.237L499.811 672.265L501.264 1022.57L501.554 1022.31L501.844 991.371L502.426 835.841L503.879 327.405L504.169 307.646L504.461 326.889L505.041 442.099L507.366 1037.93L507.658 1026.74L508.238 894.625L509.688 469.665L509.981 473.834L510.563 570.58L511.435 855.091L513.178 1643.62L513.468 1653.5L513.758 1610.85L514.34 1389.8L516.083 532.348L516.663 487.358L517.825 674.338L518.117 673.044L519.28 592.165L519.86 651.72L520.732 734.417L521.022 736.236L521.895 719.598L522.767 730.518L523.057 726.618L523.637 700.347L524.217 673.56L524.509 672.782L524.799 683.44L525.379 753.922L526.544 1031.68L527.707 1281.08L527.997 1284.47L528.287 1237.65L530.032 707.892L530.904 827.264L531.191 815.041L532.354 623.63L532.936 789.294L533.809 1044.42L534.099 1030.38L535.261 879.282L535.551 875.375L535.844 875.637L536.131 870.18L537.003 834.292L537.293 839.486L538.166 889.161L538.458 878.241L539.038 779.153L540.491 446.522L540.781 436.635L541.071 451.2L544.268 810.618L544.56 809.578L545.14 795.02L545.43 805.154L546.013 902.432L546.883 1107.36L547.175 1124.78L547.465 1108.14L548.625 913.351L549.498 786.435L549.79 774.213L550.08 791.113L550.952 968.483L551.532 1050.14L551.822 1056.64L552.115 1048.32L552.695 1006.45L553.277 884.214L554.73 350.039L555.02 343.534L555.6 457.188L558.217 1188.51L558.507 1154.44L559.089 933.111L560.249 415.574L560.539 416.36L561.122 550.551L564.029 1339.07L564.316 1325.3L564.899 1152.1L565.771 854.829L566.351 784.355L566.934 748.466L567.514 675.124L568.676 506.594L568.966 516.735L569.549 638.195L570.711 961.724L571.871 1072.77L572.163 1087.07L572.453 1076.93L574.198 899.303L574.488 900.605L574.781 892.282L575.361 823.626L577.395 422.856L577.685 414.017L577.975 414.795L578.558 455.886L581.463 906.323L582.622 1189.8L582.915 1210.86L583.205 1204.62L584.367 1068.61L584.947 940.393L586.112 608.803L586.402 591.117L586.692 599.448L587.275 684.488L588.725 998.653L589.309 862.12L591.922 57.9823L592.214 94.6492L592.794 424.937L593.667 994.746L593.957 1017.11L594.537 816.86L595.119 615.569L595.409 614.005L595.991 790.851L596.861 1095.4L597.154 1119.84L597.444 1108.92L598.896 956.523L599.769 921.929L600.059 923.493L600.639 972.39L601.803 1152.6L602.091 1161.2L602.383 1142.99L602.966 1008.28L604.126 637.155L604.416 619.723L604.708 652.498L605.288 838.7L606.451 1228.55L607.323 1335.96L607.903 1361.71L608.193 1349.74L608.778 1274.32L609.648 1073.54L611.1 711.791L611.97 619.723L612.263 621.033L612.843 667.063L614.298 891.496L615.168 1015.55L615.46 1027.51L615.747 1022.57L616.33 985.129L616.912 891.242L617.495 661.345L618.655 157.325L618.945 148.224L619.525 255.111L620.687 480.592L621.56 625.187L622.434 775.253L624.177 864.455L624.464 861.071L625.049 792.161L626.212 597.883L626.499 590.346L626.792 608.803L627.662 784.093L628.247 874.604L628.534 881.617L629.989 822.324L630.569 820.759L630.859 821.021L632.311 814.525L632.604 824.667L633.184 887.342L634.346 1054.05L634.636 1049.89L635.798 922.191L636.088 924.272L636.671 956.261L636.963 954.696L637.543 871.475L638.706 654.063L638.993 644.438L639.576 660.305L640.448 717.255L641.903 911.533L642.19 888.637L643.645 538.59L643.933 547.168L646.84 969.516L647.713 1131.02L648.003 1145.59L648.295 1140.39L648.875 1073.29L650.037 766.152L650.62 656.136L650.907 643.914L651.49 681.367L652.65 770.576L653.525 1048.32L654.104 1175.24L654.397 1155.73L656.139 732.082L656.719 743.788L657.012 729.477L658.174 619.469L658.462 636.631L659.044 731.034L660.497 1038.18L660.789 1029.08L661.369 908.404L662.821 538.59L663.114 529.22L663.401 538.328L666.019 718.558L666.599 766.923L668.633 976.798L668.926 966.148L669.506 886.302L670.376 754.446L670.668 743.264L670.958 755.486L672.411 896.698L673.283 928.433L673.866 1011.14L675.315 1243.12L675.608 1244.16L676.188 1174.71L676.77 991.625L678.513 313.626L678.805 317.787L679.385 414.795L680.258 680.064L681.42 1106.58L681.71 1125.82L682 1091.49L682.87 798.912L683.745 582.286L684.325 558.866L684.617 568.491L685.197 624.416L687.229 942.474L687.522 939.091L688.682 854.313L689.557 878.241L689.844 860.293L691.007 727.921L691.299 764.588L692.752 1165.87L693.042 1148.2L694.494 856.394L695.366 874.604L695.656 863.669L697.111 751.325L697.691 779.153L698.274 811.396L698.561 810.102L699.144 765.628L700.016 699.307L700.306 710.235L701.178 771.608L702.338 798.912L702.921 891.242L704.373 1205.4L704.666 1170.04L706.698 622.066L707.278 541.45L708.443 314.921L708.733 327.151L709.313 464.209L710.475 755.748L711.055 776.548L711.64 769.789L711.93 777.588L713.09 829.344L713.672 802.557L715.417 682.661L715.707 694.375L716.287 780.193L717.45 975.758L717.742 977.068L718.612 922.969L718.902 932.594L720.064 1078.24L720.357 1076.15L721.807 950.797L722.099 951.313L722.679 980.967L724.134 1102.94L724.424 1102.68L725.004 1055.09L727.331 785.395L728.781 734.672L729.074 735.458L729.654 770.306L730.816 880.838L731.109 881.879L731.689 828.566L732.851 550.289L733.721 395.29L734.013 382.02L734.303 384.625L735.463 436.381L735.756 439.494L736.048 447.825L736.628 521.937L738.371 878.241L739.243 913.868L739.825 926.614L740.115 927.385L740.405 923.748L742.438 850.676L743.023 844.433L743.31 839.486L743.603 842.869L744.183 892.02L745.345 1056.13L745.635 1070.18L745.927 1069.39L747.087 1023.62L747.96 1046.24L748.25 1040L748.832 973.939L749.705 862.374L749.992 852.749L750.575 855.878L750.865 850.93L751.74 827.526L752.027 834.808L752.609 888.637L753.189 941.696L753.482 940.393L754.062 873.556L755.517 632.477L755.804 614.529L756.097 615.307L756.679 664.204L758.129 849.111L758.709 871.737L759.002 873.039L759.294 867.576L759.874 817.9L761.036 672.52L761.906 636.115L762.199 630.913L762.491 633.772L763.071 668.366L764.521 793.98L764.813 791.891L765.683 770.83L765.976 779.153L766.556 828.304L768.011 979.403L768.301 974.725L769.173 932.849L769.461 933.627L770.043 954.958L770.333 951.575L770.916 880.06L771.788 764.064L772.078 760.164L772.658 765.628L772.95 753.668L774.113 632.208L774.4 643.397L775.855 860.809L776.145 845.212L777.598 653.277L777.89 659.519L779.342 752.103L780.212 732.336L780.505 738.055L781.957 837.151L782.247 835.332L782.83 829.344L783.12 831.425L783.99 847.547L784.572 877.193L785.734 969.261L786.024 968.737L787.187 938.575L787.769 951.837L788.059 948.97L788.642 888.899L789.802 726.356L790.964 668.62L791.256 674.084L791.836 735.458L793.289 931.03L794.161 978.887L794.454 987.209L794.741 986.948L795.324 959.382L795.904 929.211L796.196 928.433L797.066 948.2L797.359 944.555L797.938 911.533L799.101 835.587L799.973 800.738L800.553 747.942L801.716 624.671L802.006 621.812L802.588 641.309L803.751 702.166L804.62 748.72L804.913 744.043L805.493 693.065L806.655 556.531L806.948 555.753L807.528 613.751L809.27 919.594L809.853 949.494L810.725 962.765L811.015 961.979L811.305 955.482L811.887 916.211L813.63 754.446L813.92 761.729L814.502 817.384L815.665 944.817L815.955 947.152L816.535 936.232L816.827 936.756L817.987 985.645L818.279 978.108L819.149 898.263L820.022 842.353L821.767 784.355L822.639 772.648L824.671 694.891H824.961L825.544 702.952L826.124 720.638L826.996 750.03L827.286 746.385L827.866 711.791L828.739 651.196L829.029 656.922L830.483 750.285L831.063 748.982L831.356 757.822L832.226 836.881L833.098 902.686L834.551 972.899L834.841 970.04L835.423 925.312L836.295 831.949L836.583 820.759L836.875 830.385L838.33 955.999L838.618 954.696L839.2 947.938L839.49 951.059L840.073 979.665L840.943 1019.98L841.235 1017.38L841.815 984.859L842.688 874.604L843.557 776.548L845.3 656.398L845.592 653.277L845.885 667.063L847.047 763.547L847.335 759.131L848.497 706.335L848.79 705.549L849.08 707.63L849.37 706.073L849.662 701.133L850.532 677.983L850.824 681.621L851.404 705.295L853.729 808.799L854.019 806.194L855.182 767.971L855.472 769.265L856.052 800.993L857.799 929.99L858.379 945.595L858.669 943.514L859.249 920.888L861.576 803.335L861.864 810.618L863.318 903.981L864.481 877.193L865.351 890.202L865.933 859.253L867.096 753.144L867.386 754.184L867.966 797.617L869.128 914.392L869.42 921.929L869.708 918.284L870.873 874.858L871.163 875.375L871.743 890.202L872.035 890.456L872.325 880.322L873.198 791.637L873.778 737.546L874.07 727.921L874.36 732.082L875.52 775.77L876.102 758.862L876.682 733.122L876.975 727.921L877.555 749.76L878.427 777.85L878.717 775.253L879.59 758.091L879.88 760.426L881.625 812.182H881.914L882.787 790.597L883.367 764.333L884.529 686.568L885.109 677.467L885.692 687.609L886.564 728.445L888.017 825.445L888.889 831.687L889.469 867.314L890.341 930.768L890.631 932.594L891.211 904.767L891.794 879.536H892.084L892.666 901.384L893.539 931.292L893.829 932.332L894.119 930.252L894.409 930.768L894.989 940.139L895.571 947.152L895.861 948.454L896.443 940.139L897.316 905.291L899.058 780.971L899.348 784.609L900.801 833.244L901.383 831.687L901.963 848.071L903.125 899.557L903.705 902.432L904.578 878.758L905.453 824.667L906.903 704.771L907.195 707.368L908.065 726.618L908.645 708.932L909.23 688.133L909.517 686.306L909.81 687.863L910.1 683.964L910.68 655.612L911.552 607.509L911.842 616.086L912.715 707.368L913.587 780.971L914.17 790.851L914.75 776.81L915.912 742.478L916.202 743.788L916.492 748.72L917.947 802.295L918.234 803.859L918.817 798.133L919.109 799.698L919.397 807.235L919.979 862.636L921.431 1027.51L921.724 1035.32L922.014 1033.5L922.594 1017.38L923.174 991.887L924.629 877.463L924.921 881.617L925.791 914.392L926.081 911.787L926.951 860.031L927.534 837.151L928.114 824.405L928.698 788.254L929.858 684.75L930.148 679.548L930.441 683.709L931.311 739.365L932.476 862.374L933.638 992.411L933.926 1000.47L934.218 994.484L934.798 953.664L936.543 793.98L936.833 787.468L937.123 790.335L937.703 817.638L938.865 875.637L939.158 871.999L939.738 837.929L941.192 672.782L942.355 561.733L942.642 558.612L942.935 570.056L943.515 627.276L944.97 802.041L945.26 803.335L945.84 772.648L947.294 683.185L947.874 674.608L948.164 682.145L948.747 727.921L949.909 882.665L951.072 993.19L951.359 1002.55L951.652 1001.25L952.232 981.491L953.107 932.594L954.266 823.357L954.849 791.375L955.139 796.577L956.884 876.423L957.171 868.092L958.046 795.274L958.916 735.458L959.789 719.852L960.076 719.598L960.368 722.973L961.241 750.03L961.823 764.85L962.111 765.104L963.273 748.204L963.566 754.184L965.018 818.679L965.601 819.989L966.18 844.942L967.633 947.676L967.923 937.796L969.958 806.464L970.248 800.222L970.54 806.464L971.12 853.789L971.99 958.858L972.283 966.402L972.575 958.079L974.025 837.667L974.317 838.7L975.187 856.91L975.48 848.849L976.932 775.253L977.515 798.912L978.675 865.757L980.129 890.202L980.419 890.456L980.999 870.18L983.034 749.244L983.324 744.043L983.614 745.083L984.197 752.627L985.069 774.213L985.939 808.537L986.811 843.647L987.101 840.264L988.554 788.778L989.426 782.536L991.169 746.385L991.459 749.506L992.331 772.394L992.913 779.931L993.786 806.464L994.948 846.768L995.236 841.05L997.271 756.781L997.853 767.709L999.013 814.001L999.598 830.909L999.888 827.002L1001.63 766.668L1002.5 760.164L1003.67 735.196L1003.95 738.324L1004.54 762.769L1005.7 825.183L1006.28 832.728L1007.15 830.909L1007.44 831.163L1008.02 840.01L1008.89 863.938L1009.48 867.314L1010.06 853.273L1010.93 830.639L1011.51 827.264L1012.38 828.566L1013.25 844.688L1014.42 877.972L1015.87 890.456L1016.16 894.363L1016.45 892.282L1017.03 880.06L1017.61 869.911H1017.9L1019.35 912.042L1019.64 906.323L1020.81 869.132L1021.39 855.608L1022.26 831.163L1022.55 829.344L1022.84 831.687L1023.71 845.466L1024.29 848.595L1024.59 846.768L1025.17 831.425L1026.62 782.274L1028.07 749.506L1028.95 700.347L1029.23 698.267L1029.82 718.034L1030.69 751.849L1031.27 759.91L1031.56 763.023L1032.14 784.093L1033.01 815.296L1033.3 810.618L1034.17 777.85L1034.47 777.072L1035.05 802.557L1035.92 854.051L1036.21 860.031L1036.5 857.696L1037.95 825.445L1038.53 820.243L1039.11 806.719L1040.28 748.982L1040.86 725.316L1041.15 719.852L1041.44 721.155L1041.73 729.994L1042.6 797.879L1043.18 838.7L1043.47 843.909L1043.76 840.788L1044.63 819.989L1044.92 824.143L1046.38 893.061L1046.67 891.242L1047.54 877.193L1048.7 876.939L1049.28 867.838L1049.86 846.506L1050.74 813.477L1051.03 810.872L1051.32 811.396L1051.61 815.296L1053.06 869.911L1053.93 906.585L1054.22 909.706L1054.51 906.585L1055.1 883.705L1058.29 734.417L1058.87 756.527L1059.75 793.71L1060.33 803.335L1061.2 847.03L1062.07 899.827L1062.36 901.646L1062.65 893.315L1064.39 791.637L1065.27 774.729L1065.56 774.213L1066.14 797.879L1067.3 882.141L1067.88 890.98L1068.46 872.516L1071.66 717.779L1072.24 714.134L1072.53 714.396L1072.82 715.691L1073.4 724.538L1076.31 816.082L1077.47 865.757H1077.76L1078.34 854.567L1079.5 829.868L1080.38 803.335L1081.25 773.165L1081.54 775.508L1082.99 840.264L1083.28 835.587L1085.32 769.011L1085.9 760.164L1086.48 764.064L1088.51 814.779L1089.96 873.294L1090.26 873.039L1090.84 858.991L1092.58 786.173L1093.16 782.274L1093.74 782.79L1094.32 790.597L1095.2 804.376L1095.49 804.638L1096.36 797.355L1096.65 797.617L1097.23 812.699L1098.1 861.071L1098.68 892.544L1098.97 896.96L1099.26 892.544L1100.13 845.728L1101.01 806.464L1101.3 803.859L1101.88 815.041L1103.91 887.073L1104.2 884.484L1105.65 854.051L1105.94 855.354L1106.53 859.777L1107.11 852.494L1108.27 810.102L1110.01 750.285L1110.3 752.365L1112.05 802.041L1112.63 798.403L1113.21 810.872L1113.79 822.848L1114.08 823.102L1114.37 817.384L1115.24 786.69L1115.82 780.709L1116.41 785.649L1116.99 789.811H1117.28L1118.44 770.306L1119.02 778.367L1121.35 860.809L1121.64 861.071L1122.22 850.414L1122.8 839.748L1123.09 841.05L1124.25 865.495L1124.83 843.647L1125.7 808.013L1126.29 816.082L1126.87 828.05L1127.45 818.941L1128.03 806.464L1128.32 808.283L1128.9 829.868L1129.77 869.656L1130.35 873.039L1130.94 870.18L1131.52 865.233L1131.81 864.709L1132.39 857.426L1133.26 823.626L1135.29 730.263L1135.58 726.88L1135.88 729.994L1136.75 774.475L1137.33 796.577L1137.62 799.698L1138.2 797.617L1138.49 803.859L1139.65 865.495L1139.94 863.669L1140.52 817.114L1141.39 741.7L1141.69 741.962L1142.27 787.468L1143.14 850.414L1143.43 855.878L1144.01 854.313L1144.59 858.475L1144.88 860.293L1145.17 858.737L1145.76 842.083L1146.63 812.699L1147.21 807.505L1147.79 787.468L1148.95 724.021L1149.24 731.812L1149.82 776.548L1150.69 847.03L1151.28 861.596L1151.86 858.737L1153.6 839.748L1154.47 844.433L1155.05 839.486L1155.63 829.09L1155.92 829.344L1156.22 832.982L1157.38 864.979L1157.67 863.414L1158.25 842.607L1159.99 763.023L1160.86 739.881L1161.44 724.792L1161.74 725.316L1162.32 750.539L1163.48 806.464L1164.06 817.114L1165.23 862.89L1165.51 860.293L1166.1 829.344L1166.97 782.274L1167.26 783.831L1168.71 849.366L1169 846.768L1169.87 823.626L1170.16 827.002L1171.03 853.535L1171.32 847.03L1171.91 809.053L1172.78 757.567L1173.07 761.991L1174.81 824.667L1176.55 896.189L1176.85 894.101L1177.72 855.878L1178.3 830.123L1178.59 826.485L1180.04 855.878L1180.33 851.97L1182.08 799.174L1182.37 799.436L1182.66 798.403H1183.24L1184.69 786.173L1185.27 799.174L1187.31 881.617L1187.6 879.012L1188.18 830.639L1189.05 733.901L1189.34 724.276L1189.63 734.417L1191.08 833.768L1191.96 812.961L1192.25 818.162L1192.83 856.132L1193.7 904.767L1193.99 904.25L1195.15 867.314L1196.02 827.526L1197.19 765.882L1197.48 761.991L1197.77 767.193L1198.35 798.133L1198.93 829.599L1199.22 833.506L1199.51 827.526L1200.67 770.306L1200.96 771.608L1201.83 828.05L1202.41 848.595L1202.71 844.433L1203.58 806.464L1203.87 806.719L1204.74 829.344L1205.03 825.961L1206.48 771.608L1207.07 787.468L1207.65 806.464L1207.94 807.759L1208.52 801.262L1208.81 803.081L1209.39 823.626L1210.26 856.91L1210.55 857.172L1211.42 842.869L1211.71 845.466L1212.59 866.797L1212.88 862.12L1213.46 823.881L1214.62 715.174H1214.91L1215.49 767.193L1216.65 885.524L1216.94 882.665L1217.53 852.232L1218.4 804.376L1218.69 797.355L1218.98 799.174L1219.85 813.477L1220.14 810.872L1221.3 774.984L1221.6 777.072L1223.34 831.163L1223.63 827.78L1223.92 829.868L1224.5 852.494L1225.37 895.92L1225.95 905.291L1226.24 903.981L1226.54 897.739L1227.12 861.333L1228.57 738.055L1229.15 730.263L1229.73 737.546L1230.6 749.76L1231.18 750.539L1231.47 750.285L1231.76 752.889L1232.35 770.576L1233.22 796.839L1233.51 797.093L1234.38 792.932L1234.67 795.798L1236.41 834.022L1236.99 836.627L1237.28 840.01L1238.45 876.153L1238.74 871.999L1239.9 819.989L1240.19 821.021L1241.35 863.669L1241.64 858.212L1242.22 817.638L1243.1 753.668L1243.39 747.942L1243.68 750.801L1244.84 773.951L1245.13 772.91L1245.71 763.285L1246.58 745.861H1246.87L1247.45 766.152L1248.62 817.114L1250.07 846.506L1250.94 872.77L1251.23 872.254L1251.82 858.212L1252.4 845.728H1252.69L1253.27 866.535L1254.43 921.412L1254.72 924.788L1255.01 920.11L1255.59 892.806L1257.92 735.72L1258.21 734.672L1258.79 752.627L1259.37 771.87L1259.66 770.576L1260.82 742.224L1261.11 749.244L1262.86 831.425L1263.44 835.841L1264.89 844.688L1265.18 844.171L1265.47 841.305L1266.05 845.728L1267.21 867.314L1267.5 864.979L1269.25 829.344L1269.83 842.607L1270.7 866.797L1270.99 869.132L1271.57 859.515L1272.44 836.365L1273.61 793.98L1273.9 794.496L1274.48 813.477L1275.06 834.808L1275.35 836.881L1275.64 833.506L1278.25 776.548L1278.55 777.85L1278.84 780.971L1279.42 791.637L1280 793.456L1281.45 789.811L1282.03 786.173L1282.32 787.214L1282.91 800.738L1284.07 828.566L1284.94 822.586L1285.52 808.283L1286.68 764.85L1286.97 764.064L1287.55 787.738L1288.43 841.05L1288.72 845.728L1289.3 823.357L1290.17 784.609L1290.46 781.226L1290.75 783.314L1291.33 793.71L1291.91 813.747L1293.08 868.616L1293.37 872.254L1293.66 870.18L1294.53 846.768L1295.11 835.062L1295.69 832.203L1296.27 840.788L1297.44 875.375L1297.72 871.221L1299.18 830.639L1300.05 842.083L1300.34 842.869L1301.21 834.292L1303.53 795.798L1304.7 780.455L1304.99 782.012L1305.57 792.67L1305.86 793.456L1306.44 783.569L1307.02 776.294L1307.31 779.931L1309.06 819.465L1309.64 826.231L1310.51 839.224L1311.09 840.788L1311.38 838.446L1311.67 838.97L1311.96 842.353L1313.41 882.141L1313.71 880.838L1314 873.556L1315.74 792.415L1316.03 790.335L1316.61 798.133L1317.19 806.464L1317.48 804.638L1317.77 800.476L1318.65 778.367L1318.94 780.193L1320.68 837.667L1321.26 829.868L1322.42 796.053L1323.29 776.548L1324.17 772.648L1324.46 773.435L1324.75 772.648L1325.33 777.334L1327.66 824.143L1328.24 840.788L1328.53 843.393L1329.98 827.526L1330.27 829.868L1330.56 829.599L1331.14 821.283L1332.3 787.992L1332.88 783.314L1333.17 784.093L1334.04 795.536L1334.34 795.274L1335.79 764.333L1336.37 773.689L1338.4 832.473L1338.69 831.687L1340.15 805.154L1340.73 823.357L1341.89 871.737L1342.18 875.899L1343.05 871.999L1343.34 868.616L1343.63 868.87L1344.22 859.777L1345.96 808.537L1346.25 808.283L1347.7 822.324L1348.28 836.881L1349.15 864.979L1349.74 868.092L1352.35 825.183L1352.64 823.881L1353.81 826.74L1354.97 812.182L1355.26 816.606L1356.71 859.515L1357 855.608L1358.45 814.525L1359.04 812.437L1359.33 811.92L1359.91 812.961L1360.49 813.223L1361.65 816.082L1362.23 817.638L1362.81 814.255L1363.39 799.174L1364.26 777.072L1364.56 777.334L1365.72 789.556L1366.3 789.294L1366.59 790.335L1367.17 797.879L1368.04 815.041L1368.62 820.759L1369.5 822.586L1370.08 809.578L1370.95 781.226L1371.53 777.85L1372.11 779.407L1372.98 776.81L1373.56 791.637L1374.44 817.9L1374.73 815.565L1376.18 774.475L1376.76 782.274L1378.5 809.323L1379.96 842.353L1380.25 840.264L1381.99 810.618L1382.86 808.013L1383.73 819.203L1385.77 855.354L1386.35 858.212L1387.51 861.071L1388.67 855.354L1388.97 855.091L1389.55 851.708L1390.13 840.534L1392.16 776.81L1392.45 777.85L1393.03 792.415L1394.19 832.982L1395.07 846.252L1395.36 847.809L1395.65 846.768L1396.23 830.909L1397.68 775.508L1398.26 772.91L1398.84 775.253L1399.42 785.133L1400.3 808.799L1400.59 810.618L1400.88 809.84L1401.46 806.719L1401.75 808.283L1402.33 818.679L1402.91 824.667L1403.2 822.324L1404.07 802.811L1404.94 791.375L1406.11 785.395L1406.4 787.992L1407.27 809.323L1409.01 861.071L1409.3 862.374L1410.46 854.051L1411.05 855.608L1411.34 853.789L1411.63 849.635L1413.66 791.113L1414.25 790.597L1414.83 792.932L1417.15 810.364L1417.73 807.759L1418.89 803.597L1419.77 796.577L1420.64 800.993L1421.51 816.606L1422.38 827.78L1422.67 828.566L1423.25 826.485L1424.12 819.465L1424.41 819.203L1424.71 822.062L1425.87 849.89H1426.16L1426.45 845.212L1427.9 801.517L1428.19 803.859L1429.06 834.292L1429.93 860.293H1430.22L1430.81 848.325L1431.68 830.123L1431.97 827.78L1432.26 828.05L1433.42 824.405L1434.87 834.022L1435.74 817.638L1436.33 805.678L1436.62 803.859L1437.2 810.618L1438.07 825.183L1438.36 824.405L1438.94 817.384L1439.52 812.699L1440.4 811.396L1441.27 797.879L1442.14 783.831L1442.72 792.415L1443.88 819.989L1445.04 835.841L1445.62 841.574L1446.21 838.97L1447.08 815.296L1448.24 781.495H1448.53L1449.99 808.013L1452.02 839.748L1452.31 841.574L1452.89 836.881L1453.47 824.405L1454.93 772.648L1455.21 770.052L1455.51 771.346L1456.67 788.254L1457.83 816.86L1458.99 848.595L1459.28 849.89L1460.15 840.264L1460.45 838.97L1461.61 847.809L1461.9 846.506L1463.35 826.74L1463.93 827.78L1464.51 823.881L1465.38 803.081L1466.26 786.952L1466.84 785.649L1467.13 784.871L1467.71 781.495L1468.29 781.226L1468.87 789.556L1469.74 804.9L1470.03 805.94L1470.32 804.9L1470.9 809.578L1472.36 850.676L1472.65 851.708L1472.94 849.111L1473.81 835.062L1474.1 837.151L1474.68 852.494L1475.26 867.576L1475.56 867.314L1476.14 850.414L1477.01 827.264L1477.59 831.949L1478.17 837.667L1478.75 836.365L1479.62 834.022L1480.2 831.687L1480.78 824.405L1482.82 798.657L1483.4 798.912L1484.27 800.222L1484.56 799.698L1485.14 792.161L1485.43 791.891L1486.02 802.811L1487.47 857.95L1487.76 857.426L1488.34 844.942L1489.5 808.799L1490.37 796.839L1491.25 789.294L1491.54 786.952L1492.12 795.02L1493.28 826.74L1493.57 827.526L1493.86 826.485L1494.73 814.255L1495.31 810.872L1495.6 808.283L1496.47 785.649L1497.35 761.991L1497.64 760.681L1498.22 770.83L1499.38 795.798L1500.25 802.295L1501.42 824.143L1502 826.485L1503.16 821.538L1504.9 806.981L1505.48 811.92L1506.65 824.405L1507.23 828.566H1507.81L1508.97 817.114L1509.55 811.92L1510.13 817.9L1511 830.385L1511.59 827.78L1512.75 810.872L1513.33 809.053L1513.91 811.92L1514.2 812.961L1514.49 812.437L1514.78 810.364L1515.36 810.872L1517.69 833.506L1519.14 818.162L1520.01 808.283L1520.59 806.981L1520.89 808.283L1521.76 820.243L1523.21 845.728L1524.08 854.567L1524.37 855.878L1524.66 855.354L1525.53 848.325L1527.27 816.344L1527.86 815.82L1528.73 825.961L1529.6 839.486L1530.18 844.171L1530.76 842.869L1532.21 818.424L1533.09 802.557L1533.38 800.993L1533.96 802.041L1535.12 812.182L1535.99 818.941L1536.58 826.231L1536.86 828.566L1537.45 825.961L1539.48 796.839L1540.06 789.811L1541.22 774.729L1541.8 772.91L1542.1 772.125L1542.68 768.741L1543.26 770.052L1544.71 787.214L1545.87 793.71L1548.49 829.868L1549.07 826.74L1549.94 819.465L1550.23 819.203L1551.4 822.848L1552.27 817.384L1553.14 813.477L1553.72 815.565L1556.34 844.942L1556.63 845.212L1558.95 824.143L1559.82 818.162L1560.4 821.807L1561.56 840.264L1562.15 839.748L1563.02 827.002L1563.31 824.921L1563.6 825.707L1563.89 824.921L1564.18 825.707L1564.76 828.05L1566.21 821.807L1567.08 820.243L1567.37 818.424L1568.54 794.234L1569.12 784.355L1569.41 783.831L1571.15 802.295L1571.73 804.121L1572.02 805.416L1572.9 814.001L1573.19 814.779L1573.77 814.255L1574.93 822.062L1575.51 827.526L1575.8 827.78L1576.68 830.385L1576.96 830.123L1578.13 834.292L1578.42 833.768L1580.16 814.001L1581.32 797.355H1581.62L1583.36 816.344L1584.23 810.618L1584.52 810.364L1584.81 811.142L1586.26 820.759L1587.43 815.565L1588.59 826.74L1591.2 846.768L1591.78 841.305L1594.11 807.505L1594.69 814.525L1595.85 833.768L1596.43 831.163L1597.01 825.183L1598.17 817.9L1599.92 800.738L1600.21 801.517L1600.79 797.879L1602.24 776.294L1602.83 774.729L1604.57 793.98L1604.86 794.75L1605.44 800.738L1606.31 819.203L1607.18 833.244L1607.47 833.768L1608.64 819.719L1609.8 809.323L1610.67 805.416L1610.96 806.719L1611.83 804.376L1612.42 802.041L1612.71 801.517L1614.45 817.9L1614.74 817.114L1615.61 814.525L1615.9 815.296L1617.06 827.526L1617.64 827.002L1618.52 820.243L1619.1 823.357L1619.39 825.183L1620.26 836.627L1620.84 840.534L1621.13 839.748L1621.71 834.022L1622.58 825.707L1622.88 826.485L1623.17 825.961L1623.75 827.526L1625.2 831.163L1626.94 837.405L1627.81 834.292L1628.98 834.546L1631.01 824.667L1633.05 805.416L1633.63 805.154L1633.92 805.678L1634.5 810.102L1635.08 811.396L1635.37 811.142L1635.66 812.182L1636.24 811.658L1636.53 811.92L1636.82 813.223L1637.11 811.658L1637.4 812.961L1639.15 806.719L1640.31 815.82L1641.76 826.231L1642.63 827.526L1643.8 821.538L1644.38 822.586L1645.54 817.638L1646.41 809.323L1646.7 807.505L1646.99 808.537L1647.86 818.941L1649.03 834.022L1649.32 835.332L1649.9 830.639L1650.48 821.807L1651.93 802.041L1653.1 791.637L1653.68 784.093L1653.97 784.871L1654.26 784.609L1654.84 791.637L1656 807.759L1656.87 808.799L1657.45 807.235L1659.2 799.174L1660.36 805.678L1661.23 812.182L1661.81 812.961L1663.27 802.811L1663.85 796.315L1665.59 794.234L1666.46 796.839L1668.2 815.82L1669.66 835.062H1669.95L1670.24 834.022L1671.11 837.667L1672.56 851.97L1672.85 851.708L1673.73 847.292L1674.31 841.574L1675.18 829.344L1675.47 827.78L1676.05 831.163L1676.92 845.212L1677.79 852.749L1678.37 851.184L1678.96 843.123L1680.7 813.747L1681.28 813.223L1682.15 815.296L1684.19 803.859L1684.77 805.154L1686.22 799.952L1687.96 810.618L1688.26 810.364L1689.7 802.811L1690 801.517L1690.29 802.295L1690.87 800.222L1691.16 798.912L1692.61 785.919L1692.9 786.173L1694.36 793.71L1696.39 811.658L1697.26 810.872L1697.84 809.323L1698.71 821.538L1700.17 845.466L1700.46 846.768L1701.04 850.414L1702.78 846.768L1703.65 849.366L1703.95 849.635L1705.4 843.909L1706.27 845.212L1706.85 841.305L1708.89 808.013L1709.47 802.295L1710.05 803.859L1710.63 811.658L1711.21 822.324L1711.79 826.485L1712.08 827.526L1712.66 824.405L1713.83 815.565L1714.11 817.384L1714.41 816.86L1715.86 824.405L1716.73 831.949L1717.31 830.385L1718.18 823.102L1718.77 824.921L1719.64 831.163L1720.22 828.566L1721.38 812.182L1721.67 811.396L1722.83 815.565L1723.7 810.364H1724.28L1725.45 818.679L1726.61 811.92L1727.19 807.235L1728.93 798.912L1729.22 799.952L1729.8 807.235L1731.26 830.385L1731.84 833.244L1732.42 829.344L1733.29 818.424L1733.87 813.223L1734.75 809.84L1735.91 803.597L1738.81 777.85L1739.11 777.072L1739.69 781.495L1740.56 795.798L1740.85 799.174L1742.01 798.403L1742.59 802.295L1744.05 811.92H1744.33L1745.79 823.881L1746.08 825.707L1746.37 825.445L1746.66 826.231L1747.82 819.719L1748.4 817.638L1748.69 818.941L1749.57 817.638H1749.86L1750.73 814.779L1751.31 816.86L1752.47 821.021L1753.63 816.606L1755.08 806.194H1755.67L1756.54 807.505L1756.83 805.678L1757.12 805.94L1757.7 804.638L1757.99 805.154L1758.57 804.638L1759.44 805.154L1759.73 804.376L1760.32 800.738L1760.6 799.698L1761.19 797.093H1761.77H1762.06L1762.93 800.993L1764.38 819.203L1765.26 831.949L1765.55 831.687L1765.84 832.473L1766.13 831.687L1766.71 832.473L1767.58 842.353L1768.16 844.171L1769.91 840.534H1770.2L1772.52 824.405L1773.68 807.235L1773.97 806.981L1774.26 807.759L1775.72 818.941L1776.3 816.344L1777.46 809.323L1778.04 810.102L1778.33 809.84L1778.62 810.618L1779.49 816.86L1780.66 834.808L1781.24 842.083L1782.4 845.466L1783.27 841.574H1783.56L1784.73 829.09L1786.18 807.759L1786.47 807.505L1788.5 819.719L1789.37 825.445L1789.66 826.231L1790.24 825.183L1792.28 828.304H1792.86L1793.44 828.05L1794.02 826.485H1794.31L1795.18 822.062L1796.06 822.848L1796.64 825.445H1797.51L1798.38 821.021L1798.96 822.586L1799.54 818.679L1800.7 809.323L1801.29 808.799L1801.87 806.464L1802.45 805.416L1803.03 804.638L1803.61 805.416L1803.9 804.121L1805.35 810.364L1805.65 810.618L1806.52 804.638L1807.1 807.235L1807.39 806.719L1807.68 807.759L1808.26 804.9L1808.84 802.557L1809.71 811.92L1810.59 826.485L1811.46 831.163L1812.04 829.599L1812.33 829.09L1812.62 827.264L1813.2 816.344L1814.65 792.932L1815.53 796.839L1816.11 801.517L1816.4 800.993L1817.27 803.859L1817.56 804.121L1819.01 814.779L1819.59 818.424L1820.17 821.283L1820.76 825.183L1821.04 825.961L1821.92 833.244L1822.21 834.022L1822.79 839.224L1823.37 839.748L1823.95 842.607L1824.24 839.748L1824.53 840.01L1824.82 839.224L1825.4 833.768L1826.28 820.759L1827.15 806.194L1827.73 801.262L1828.02 800.993L1828.6 803.081L1830.64 784.609L1830.92 783.314L1831.51 785.133L1832.96 800.476L1833.54 805.94L1833.83 807.505L1834.41 812.699L1834.7 813.747L1835.57 810.364L1836.16 807.235L1836.45 806.981L1837.03 809.578L1837.61 813.223L1839.06 816.86L1840.22 811.92L1841.1 803.597L1841.97 800.738L1843.13 803.335L1845.45 816.606L1846.04 818.162L1846.33 817.9L1847.78 823.881H1848.36L1848.94 820.759L1849.23 821.283L1850.11 818.162L1850.98 821.283L1851.56 822.586L1851.85 821.807L1852.72 815.296L1853.3 814.525L1854.75 829.344L1855.04 830.639L1855.33 829.344L1856.2 831.687L1856.79 832.982L1857.08 835.587L1857.37 835.332L1857.66 836.111L1857.95 835.587L1859.4 846.506L1859.69 847.292L1859.98 845.466L1860.56 845.212L1862.02 832.982L1862.6 827.526L1864.05 822.848L1864.63 825.707L1865.79 843.909L1866.38 849.366L1867.25 846.768L1867.54 847.547L1868.7 836.111L1870.73 796.839L1871.9 784.093L1872.48 781.75L1872.77 780.455L1873.35 782.274L1873.93 786.69L1874.51 795.274L1875.38 800.222L1875.96 799.952L1876.84 804.638L1877.42 805.94L1878 804.638L1878.58 805.154L1879.16 809.84L1879.74 811.396L1880.61 815.041L1880.91 815.296L1882.07 819.989L1882.65 820.497L1884.68 808.013L1885.26 808.799L1885.55 808.013L1886.13 811.92L1887.88 830.909L1888.46 825.961L1890.49 809.84L1891.36 807.759L1891.66 806.194L1892.53 809.578L1893.98 819.203L1894.56 819.989L1894.85 820.243L1896.3 810.618L1897.18 803.081L1897.76 801.517L1898.92 806.719L1899.79 813.223L1900.37 816.082L1902.41 821.538L1902.99 823.626L1904.73 832.728L1905.6 831.163L1905.89 833.768L1907.64 828.05L1907.93 826.231L1908.51 827.264L1909.09 826.74L1909.67 828.05L1910.25 829.09L1910.83 832.473L1911.12 832.728L1911.42 835.062L1912 834.808L1912.29 832.728L1912.58 834.022L1914.03 827.526L1914.9 813.223L1915.19 811.92L1915.77 805.678L1916.35 806.719L1916.93 810.102L1917.81 816.86L1918.39 818.679L1919.84 816.606L1921.29 808.283L1921.58 808.537L1922.16 811.658L1922.45 812.437L1923.33 809.578L1923.62 806.981L1924.2 806.719L1925.65 799.698L1927.69 805.94L1927.98 806.464L1928.27 805.154L1928.56 805.94L1929.43 799.174L1930.01 799.436H1930.3L1931.46 808.283L1932.63 823.102L1933.5 827.78H1934.08L1934.66 829.344L1935.53 826.74L1935.82 825.961L1936.4 821.283L1936.69 820.243L1937.57 823.357L1938.15 828.304L1939.02 834.022L1939.89 832.203L1940.47 831.163L1941.92 817.9L1943.09 801.262L1943.96 797.879L1944.83 795.02H1945.41L1946.57 805.678L1948.03 812.961L1948.9 823.102L1949.48 828.82L1950.93 834.292L1951.22 833.244L1951.51 834.022L1952.67 828.304L1953.25 829.09L1954.13 831.425H1954.42L1954.71 829.344L1955 829.868L1955.87 823.626L1956.74 819.465L1957.03 819.989L1957.61 819.203L1958.19 818.679L1959.94 816.606L1960.23 819.203L1960.52 818.941L1962.85 828.304L1963.72 826.74L1964.3 826.231L1965.46 826.74L1965.75 825.961L1966.33 827.264L1966.91 829.09L1969.24 813.747L1970.4 811.396L1971.85 798.657L1972.44 795.536L1972.72 796.315L1973.02 796.053L1973.89 799.698L1974.76 801.517L1975.05 799.174L1977.96 809.84L1978.25 808.283L1978.83 809.053L1979.12 808.283L1979.41 808.799L1979.99 805.678L1981.15 802.295L1981.44 803.081L1981.73 802.295L1982.6 805.94L1983.19 808.283L1983.77 811.142L1984.64 813.223L1985.22 813.477L1985.8 815.296L1987.54 810.364L1987.83 810.872L1989.58 823.881L1990.45 825.183L1992.19 816.082L1993.65 805.416L1994.81 807.235L1995.1 808.013L1995.68 810.618L1996.55 815.041L1996.84 816.344L1997.13 815.565L1997.71 817.384L1998 819.203L1998.59 818.941L1998.88 819.203L1999.17 821.807L1999.75 822.062L2000.04 822.324L2000.62 821.538L2001.78 824.667L2002.07 824.405L2002.94 827.002L2004.69 830.909L2004.98 831.163L2005.56 829.344L2005.85 829.09L2006.43 826.231L2006.72 826.74L2007.01 825.961L2008.47 816.344L2008.76 815.82L2009.34 817.114L2009.92 818.424L2010.79 819.989L2011.37 819.465L2011.66 818.941L2012.24 816.082H2012.54L2013.12 814.001L2013.99 812.961L2014.57 810.618L2016.31 808.283L2017.18 814.779L2018.05 816.344L2018.63 819.719L2019.51 822.324H2019.8L2020.09 820.759L2020.38 822.324L2020.96 819.989H2021.83H2022.12L2023.28 827.264L2023.57 826.74L2023.87 828.05L2027.06 815.296L2028.22 812.699L2028.51 813.223L2029.09 812.437L2029.68 811.142L2029.97 811.396L2030.26 810.618L2030.84 811.92L2032 811.658L2032.58 812.437L2032.87 812.699L2033.75 816.86L2034.91 821.021L2035.2 820.243L2035.78 817.638L2037.23 814.255L2037.81 811.396L2038.69 808.283L2040.43 812.182L2040.72 811.396L2042.17 815.82L2042.75 814.779L2043.63 812.961L2045.08 823.357L2047.4 843.909L2047.98 845.466L2049.14 842.607L2049.72 841.829L2050.31 837.929L2052.34 817.114L2053.21 817.9L2054.38 814.525L2055.54 818.424L2056.7 815.296L2056.99 812.961L2057.57 813.477L2058.73 811.92L2059.31 808.537L2059.9 807.235L2060.48 806.194L2060.77 807.235L2061.35 806.194H2061.64L2061.93 804.638L2062.22 805.154L2062.8 804.376L2063.38 803.081H2063.97L2065.13 803.597L2068.03 820.759L2069.19 821.021L2069.78 819.719L2070.36 817.9L2070.94 814.525L2071.52 811.92L2072.1 810.618H2072.39L2073.56 814.779L2073.84 814.525L2074.14 817.9L2075.01 816.86L2075.3 819.465L2075.88 818.679L2076.17 818.941L2076.46 817.638L2076.75 820.497L2077.33 819.989L2077.62 817.638L2078.2 817.384L2078.78 816.082L2079.36 820.243L2079.66 817.384L2079.95 818.941L2081.98 813.747L2082.56 811.142L2082.85 814.255L2083.43 811.142L2084.01 816.344L2084.59 810.364L2085.47 812.961L2086.05 809.053L2087.21 814.001L2087.5 813.747L2087.79 814.525L2088.37 818.941L2088.95 816.86L2089.83 825.707H2090.12L2090.99 831.163L2091.57 829.09L2092.15 830.385L2092.44 833.244L2093.02 826.485L2093.89 827.264L2094.19 823.881L2094.77 825.707L2095.06 824.405L2095.64 817.384L2095.93 818.162L2097.67 815.82L2098.54 808.537L2098.83 806.464L2099.41 808.799L2100 803.859L2100.29 803.335L2100.58 805.94L2100.87 800.738L2101.74 805.94L2102.03 806.981L2102.32 806.464L2102.61 811.658L2102.9 806.464L2103.19 807.759L2103.48 806.719L2104.06 810.872L2104.35 807.759L2104.65 811.658L2104.94 809.323L2105.23 809.578L2105.52 807.505L2106.68 811.658L2106.97 811.92L2108.42 819.203L2108.71 820.243L2109.88 828.05L2110.75 828.82L2111.33 831.949L2111.91 829.868L2112.2 829.599L2113.36 824.921L2113.65 825.183L2114.52 820.243L2114.81 820.497L2115.69 814.779L2115.98 812.182L2116.27 813.223L2116.56 811.396L2117.72 813.223L2118.01 814.255L2118.3 818.941L2118.88 816.082L2119.17 818.162L2119.46 817.114L2119.75 818.162L2121.21 815.296L2121.5 815.041L2122.37 811.658L2122.95 811.92L2123.24 810.364L2123.53 810.872L2125.28 802.557L2125.57 803.597L2125.86 802.811L2127.31 805.416L2127.6 808.537L2129.05 806.194L2130.51 809.053L2130.8 808.799L2131.38 810.364L2133.12 826.485L2133.7 832.203L2133.99 830.123L2134.57 834.808L2135.45 833.506L2135.74 834.546L2136.9 830.639L2138.06 823.102L2139.51 817.114L2139.81 816.86L2141.55 824.667L2141.84 824.143L2142.13 825.445L2143.58 822.324L2144.16 819.203L2145.03 814.255L2146.49 815.041L2147.36 817.114L2147.65 816.344L2147.94 817.114L2149.1 815.296L2149.39 816.082L2149.68 814.779L2149.97 816.082L2150.84 812.182L2151.14 812.437L2153.75 802.295L2154.62 801.771L2156.08 805.678L2156.37 804.9L2158.69 810.364L2158.98 810.618L2159.85 813.223L2160.14 814.001L2161.31 822.062H2161.6L2162.18 825.183L2162.47 825.445L2162.76 826.74L2163.34 826.231L2163.63 825.707L2164.5 827.526L2165.37 828.05L2167.99 832.473L2168.57 831.425L2170.03 829.599L2172.06 822.848L2172.35 823.102L2173.51 829.09L2174.97 831.949L2175.84 832.728L2177 829.09H2177.29L2177.87 822.848L2179.9 811.658L2181.06 800.476L2182.23 795.02L2182.52 794.75L2182.81 792.415L2183.1 793.194L2184.26 792.161L2184.84 792.67L2186.88 804.376L2187.46 805.678L2188.91 809.578L2189.78 810.872H2190.65L2192.4 816.082L2193.85 819.465L2195.3 825.183L2195.59 825.445L2196.47 822.324L2196.76 820.759L2197.05 821.283L2198.79 809.578H2199.37L2201.12 821.807L2201.7 822.586L2202.28 823.102L2202.57 822.062L2203.73 824.405L2206.06 825.183L2206.93 829.868"/>
<path stroke-linejoin="round" stroke-linecap="square" stroke-width="2" stroke="#d1d5db" d="M-31.0659 818.162L-30.4848 816.86L-30.1942 818.162L-29.3225 817.638L-28.7413 817.9L-28.4508 817.114L-28.1602 817.9L-27.2885 816.082L-26.7073 815.296L-24.9639 818.424L-24.3827 816.86L-24.0922 817.638L-23.2205 816.86L-22.9299 818.162L-22.6393 816.86L-22.0582 817.384L-21.1865 816.606L-20.8959 817.384L-19.443 815.82L-18.2807 816.344L-17.1184 818.424L-16.8278 818.162L-16.5373 816.86L-16.2467 818.162L-15.9561 816.082L-15.375 815.82L-15.0844 815.296L-14.2127 817.638L-13.9221 816.606L-13.0504 817.114H-10.1447L-9.8541 816.082L-9.56353 816.606L-9.27295 815.041L-8.69179 815.296L-7.82008 815.565L-7.52953 817.114L-7.23896 816.606L-6.94835 817.9L-6.07665 816.082L-4.91433 817.384L-4.04265 816.606L-3.75217 817.384L-3.46145 816.082L-3.17097 816.86L-2.58976 816.606L-1.13687 817.114L-0.846397 817.9L0.606493 815.565L2.05938 817.114L2.64034 815.82L3.80299 816.86L5.54636 817.638L5.83684 817.114L6.12757 817.9L7.58046 815.565L8.74262 816.86L9.6143 816.344L10.1955 817.638L11.0672 816.86L11.9389 815.565L12.2293 816.344L12.5201 815.041L12.8105 817.638L13.3918 816.86L13.6822 817.9L13.973 816.344L14.8446 817.114L15.7163 816.86L16.0068 817.9L16.2975 816.344L16.8785 816.606L17.7502 816.344L18.3314 817.384L18.9126 817.638L20.3655 816.86L20.9464 817.638L21.2372 816.606L21.5276 817.638L22.3993 815.82L22.9805 816.344L23.271 816.082L23.8522 817.384L25.8865 816.082L26.177 816.606L26.4678 815.82L26.7582 817.384L27.0487 816.606L27.3394 817.384L27.9204 816.606L28.7921 817.384L29.0828 816.344L29.3733 817.638L30.245 816.344H30.8262L31.4074 816.606L33.1507 816.86L33.4412 817.638L34.3129 816.344L35.4753 817.638L35.7658 816.344L36.0565 818.424L36.6375 817.638L36.9282 818.424L37.7999 817.384L38.3811 818.424L38.962 816.86L40.7057 817.9L41.2866 817.384L43.03 816.082L43.3207 817.114L43.6112 816.344L44.1924 817.384L45.3545 816.86L45.6453 816.344L45.9358 817.384L46.2262 816.344L47.0982 818.679L47.9701 818.162L48.5513 816.606L49.423 815.565H50.2947L50.8756 814.779L51.4568 815.296L51.7476 816.86L52.038 816.082L52.9097 817.384L53.4909 816.082H54.0719L54.3626 816.606L54.9438 819.465L55.8155 818.941L56.9777 815.565L58.1401 814.525L58.4305 816.344L59.3022 815.82L59.5927 815.565L60.4646 818.162L61.3363 815.296L61.9173 819.203L62.4985 821.807L62.789 819.719L63.3702 813.477L63.9514 813.747L64.5326 816.082L65.4043 819.203L66.8571 814.255L67.7288 823.626L68.891 814.525L69.7627 818.941L70.3441 812.699L70.6346 814.001L71.5065 831.949L71.797 829.599L72.6687 803.597L73.2499 809.053L73.8309 819.465L74.4121 820.497L74.7028 819.465L75.2838 825.707L75.865 818.424L76.1554 818.679L77.0274 832.473L77.3178 829.344L78.1895 806.194L78.48 808.013L79.0612 821.283L79.3517 821.021L79.9329 811.396L80.2236 812.182L81.0953 829.09L81.6763 814.779L82.2575 799.436L82.5482 803.597L83.4199 826.485L84.0008 829.09L84.2916 829.344L84.8725 816.86L85.4537 802.557H85.7444L86.3254 826.485L86.9066 835.062L88.069 814.255L88.3595 812.699L88.65 815.296L89.2312 824.667L89.5217 822.062L90.1029 808.799L91.2653 773.689L91.8462 792.932L92.7182 824.405L93.2994 817.384L93.5901 817.9L93.8806 816.86L94.171 812.182L94.7523 791.375L95.0427 789.556L95.3335 791.375L95.9144 808.799L96.7863 859.777L97.0768 862.636L97.3673 862.374L97.9485 851.454L98.239 851.97L98.5297 857.172L98.8202 851.184L100.273 788.516L101.435 759.91L101.726 763.809L102.598 813.223L102.888 804.9L103.76 758.091L104.051 769.527L105.213 848.325L105.503 849.366L107.247 821.538L108.118 840.01L108.409 831.687L109.281 760.95L109.571 766.406L110.734 891.242L111.024 882.919L111.896 803.859L112.186 805.416L113.058 835.587L113.349 830.385L113.93 802.811L114.221 802.557L114.802 811.142L115.383 804.121L115.964 792.161L116.255 790.851L116.545 785.649L117.417 742.74L117.707 746.647L118.289 815.565L119.16 919.07L119.451 907.888L120.904 780.193L121.194 780.455L121.485 789.032L122.647 847.547L123.228 840.788L124.391 805.416L125.262 810.364L125.553 809.578L126.134 800.476L126.425 803.081L127.006 829.344L127.877 880.576L128.168 866.273L129.33 764.588L129.621 767.709L131.074 842.607L131.945 818.424L132.817 845.99L133.398 832.982L133.979 815.296L134.27 823.357L134.851 858.737L135.142 848.595L136.013 788.778L136.304 779.931L136.595 782.012L137.757 817.384L138.338 827.264L138.919 832.982L139.501 835.587L140.082 852.232L140.372 862.12L140.663 861.85L141.244 858.475L141.534 850.152L142.987 753.922L143.278 757.305L144.15 787.992L144.731 807.504L145.021 806.981L145.312 810.364L146.765 853.011L147.055 852.749L148.799 759.91L149.38 779.407L150.833 833.506L151.123 830.639L151.995 812.961L152.576 821.807L152.867 819.203L154.319 760.681L154.61 764.064L155.191 790.335L155.772 841.574L156.935 957.555L157.225 953.664L159.55 768.233L159.841 766.152L160.422 788.516L160.712 788.254L162.165 706.851L162.746 755.748L163.618 841.305L164.199 856.132L165.071 829.599L165.361 839.224L166.233 908.928L166.524 896.444L167.686 740.914L167.977 751.325L168.848 853.273L169.139 848.849L170.01 774.475L170.301 774.729L171.754 873.04L172.045 870.435L172.916 813.223L173.497 777.85L173.788 781.495L174.66 816.082L174.95 796.577L175.822 694.375L176.113 718.296L177.275 874.334L177.856 838.191L178.437 817.384L179.018 849.89L179.89 900.867L180.18 887.342L181.052 808.799L181.343 812.961L182.215 876.153L182.505 872.77L183.086 822.586L183.958 749.244L184.249 753.668L184.83 800.738L185.411 851.708L185.702 842.083L186.573 734.672L186.864 736.236L187.736 813.477L188.026 811.92L188.898 771.608L189.188 778.629L190.351 890.456L190.641 887.859L192.675 807.504L193.837 679.286L194.128 692.549L195 777.072L195.29 785.649L195.581 785.133L196.162 762.507L196.453 765.104L197.615 866.011L198.487 945.595L198.777 944.038L199.358 889.947L200.23 799.174L200.811 785.919L201.683 775.77L202.264 804.121L203.136 845.728L203.427 843.393L204.008 830.639L204.879 877.463L205.17 866.797L205.751 786.952L206.623 677.467L206.913 681.891L207.495 745.337L208.366 851.708L208.657 854.313L209.238 827.526L209.528 828.304L210.11 889.423L210.691 967.967L210.981 968.483L211.563 895.403L212.434 773.689L212.725 762.507L213.015 770.83L213.887 827.526L214.178 812.699L215.34 687.085L215.921 788.254L216.793 949.494L217.083 939.353L218.535 835.332L219.118 839.486L219.408 829.868L220.57 741.438L220.86 748.72L221.443 773.435L222.023 756.781L222.313 759.386L222.895 814.255L223.768 893.585L224.058 877.193L224.928 777.85L225.22 785.919L226.09 838.191L226.672 847.809L227.252 836.627L227.545 828.82L227.835 829.09L228.125 840.01L228.997 913.606L229.287 912.827L229.87 828.82L230.45 719.336L230.74 707.368L231.322 795.798L231.902 904.767L232.194 913.868L232.774 803.081L233.354 660.305L233.647 648.599L234.227 763.547L235.099 961.724L235.389 952.099L236.842 730.518L238.006 850.676L238.294 836.881L239.456 714.396L240.039 783.052L240.911 887.859L242.074 866.535L242.364 868.616L243.234 865.233L243.526 875.637L244.396 922.707L244.688 910.747L245.268 837.929L246.141 708.154L246.431 701.388L247.011 732.598L247.886 784.355L248.173 788.778L248.466 786.952L249.046 765.628L249.628 737.546L249.918 732.082L250.208 739.095L250.791 803.597L251.663 902.686L252.243 910.747L252.823 907.888L253.405 921.929L253.698 921.667L253.985 901.122L255.44 714.396L256.31 754.446L256.603 741.962L257.475 668.882L257.762 679.548L259.217 869.911L259.507 868.616L260.087 861.85L260.96 883.435L261.542 896.189L262.122 861.85L262.995 812.437L263.285 811.658L263.575 814.001L263.865 811.658L264.447 783.569L265.319 717.779L265.609 726.356L266.192 812.699L267.062 915.949L267.354 902.432L268.514 793.98L269.097 843.123L269.677 896.189L269.969 899.303L270.549 867.838L271.131 830.123L271.419 832.728L272.291 915.17L272.581 914.13L273.166 847.292L274.326 682.145L274.616 690.722L275.489 754.184L275.779 754.962L276.071 757.822L276.651 789.032L277.523 858.212L277.813 847.03L278.686 763.285L278.976 760.681L280.136 801.517L280.718 816.86L281.008 816.344L281.883 790.335L282.171 792.932L283.043 834.808L283.915 904.505L284.495 948.454L284.788 951.837L285.075 933.897L286.53 760.164L287.11 753.144L287.403 763.023L287.983 826.485L288.853 946.111L289.145 940.139L289.727 848.849L290.6 729.215L290.887 735.982L292.05 829.09L292.342 816.344L293.795 671.225L294.377 746.385L295.247 868.87L295.54 871.221L296.12 861.071L296.409 868.87L296.992 896.96L297.282 896.698L297.862 835.062L298.734 746.647L299.024 752.365L300.477 838.97L301.639 947.422L301.932 940.91L302.512 888.121L304.256 662.894L304.544 665.761L305.129 724.792L305.999 798.403L306.871 785.395L307.741 823.881L308.034 820.243L308.614 797.879L308.906 798.657L309.486 847.809L310.068 904.767L310.356 909.444L310.648 901.646L311.518 855.608L311.811 862.374L312.391 891.496L312.683 894.625L313.263 855.608L313.846 806.194L314.133 800.476L314.716 823.881L315.588 858.991L315.878 858.475L316.458 831.949L317.623 766.406H317.913L318.493 772.91L318.785 769.789L319.365 757.305L319.655 757.822L320.528 800.222L320.82 799.698L321.69 751.325L321.98 756.272L322.562 820.243L323.142 882.919L323.432 886.818L324.012 852.749L324.597 826.485L324.885 834.808L325.757 888.121L326.047 889.678L326.63 867.314L327.21 844.171L327.79 840.264H328.082L328.665 841.305L328.955 832.728L330.407 715.691L330.697 735.196L332.149 950.535L332.442 940.91L334.764 654.833L335.347 576.043L335.636 577.076L336.219 671.479L337.091 818.162L337.671 844.171L338.254 865.233L339.124 898.525L339.414 898.263L339.996 866.011L340.869 824.921L341.159 825.961L341.739 859.777L342.901 953.918L343.193 937.796L344.353 814.779L344.646 808.799L345.516 834.808L345.808 815.565L346.971 670.955L347.258 669.661L348.713 754.184L349.585 777.072L351.038 840.788L351.328 828.304L352.198 762.507L352.49 770.576L353.07 825.961L353.945 910.747L354.525 929.473L354.815 930.514L355.395 905.545L356.267 861.596L356.85 853.789L357.43 816.86L358.302 757.043L358.592 763.023L359.465 810.102L359.755 813.223L360.627 801.771L361.207 835.332L361.787 873.818L362.079 877.972L362.369 866.011L363.532 749.506L363.822 750.801L364.694 787.468L364.984 764.85L366.147 596.065L366.439 631.953L367.889 979.403L368.181 971.342L369.054 902.94L369.344 902.162L370.216 917.775L370.796 887.859L372.251 775.77L372.539 787.738L373.414 876.423L373.701 876.939L374.863 781.495L375.156 792.161L375.736 833.244L376.028 832.982L378.061 718.034L378.351 720.638L378.933 766.923L380.096 901.122L380.386 903.981L380.676 894.363L381.838 832.982L382.71 787.992L383.58 735.72L383.873 737.276L384.745 769.265L386.488 869.132L386.778 873.556L387.358 900.867L387.942 938.32L388.23 940.91L388.812 906.323L390.265 733.377L391.135 637.933L391.427 625.965L391.72 626.235L392.3 658.741L395.494 939.091L396.077 958.341L396.367 954.172L397.819 881.617L398.982 819.465L399.272 817.9L399.854 821.807L400.144 816.86L401.599 766.152L402.759 798.657L403.341 766.923L403.921 735.458H404.214L405.376 767.709L406.826 854.567L407.118 847.809L407.991 786.952L408.281 789.811L409.441 892.544L409.733 889.947L410.896 843.123L411.188 847.809L411.476 847.547L412.638 791.113L412.931 804.9L414.093 912.042L414.38 903.726L415.835 771.87L416.128 776.548L416.998 816.86L417.288 814.001L419.033 753.668L419.32 758.091L419.905 804.9L420.775 877.193L421.067 880.322L421.647 853.011L423.097 750.03L423.39 746.385L423.682 751.063L426.005 839.748L426.587 862.636L426.877 862.89L427.459 827.264L428.329 777.072L428.909 827.78L429.784 896.444L430.072 893.061L430.944 852.494L431.237 856.132L432.107 892.02L432.399 880.322L432.979 804.376L433.849 679.802L434.141 671.741L434.721 719.074L435.596 813.477L435.884 808.537L437.046 730.518L437.629 805.678L438.501 924.526L438.789 907.109L440.243 684.488L440.823 780.455L441.696 925.312L441.986 912.565L443.151 764.333L443.441 771.87L444.893 916.211L446.055 828.82L446.345 829.868L447.218 869.132L447.508 867.052L448.09 809.053L448.67 728.699L448.96 718.82L449.54 763.809L450.123 805.678L450.413 802.811L450.995 775.508L451.285 779.677L452.737 871.999L453.317 866.797L453.61 874.858L454.48 933.627L454.772 927.385L456.225 791.113L456.515 791.891L456.807 789.811L457.095 783.052L458.55 716.215L458.842 724.538L459.712 807.504L460.292 842.607L460.584 833.244L461.454 785.395L461.747 795.798L462.909 883.705L463.199 881.1L463.782 837.405L464.652 766.152L465.814 714.912L466.394 686.306L466.686 689.682L467.266 751.849L468.139 853.535L468.429 856.394L469.009 845.728L469.301 848.325L470.464 892.544L470.751 874.858L472.206 693.065L472.498 700.617L473.948 833.244L474.821 771.608L475.113 773.435L475.693 839.748L476.276 899.303L476.563 898.525L478.018 799.952L478.598 851.454L479.18 907.364L479.47 910.223L480.633 853.011L480.923 873.04L482.668 1084.48L483.25 1013.47L484.12 910.493L484.41 911.787L484.993 921.143L485.282 913.606L487.607 742.478L489.64 447.563L490.512 356.281L490.805 358.878L491.385 452.248L494.872 1344.54L495.162 1340.9L495.744 1261.06L496.907 952.353L498.359 586.439L498.939 552.107L499.229 568.237L499.811 672.265L501.264 1022.57L501.554 1022.31L501.844 991.371L502.426 835.841L503.879 327.405L504.169 307.646L504.461 326.889L505.041 442.099L507.366 1037.93L507.658 1026.74L508.238 894.625L509.688 469.665L509.981 473.834L510.563 570.58L511.435 855.091L513.178 1643.62L513.468 1653.5L513.758 1610.85L514.34 1389.8L516.083 532.348L516.663 487.358L517.825 674.338L518.117 673.044L519.28 592.165L519.86 651.72L520.732 734.417L521.022 736.236L521.895 719.598L522.767 730.518L523.057 726.618L523.637 700.347L524.217 673.56L524.509 672.782L524.799 683.44L525.379 753.922L526.544 1031.68L527.707 1281.08L527.997 1284.47L528.287 1237.65L530.032 707.892L530.904 827.264L531.191 815.041L532.354 623.63L532.936 789.294L533.809 1044.42L534.099 1030.38L535.261 879.282L535.551 875.375L535.844 875.637L536.131 870.18L537.003 834.292L537.293 839.486L538.166 889.161L538.458 878.241L539.038 779.153L540.491 446.522L540.781 436.635L541.071 451.2L544.268 810.618L544.56 809.578L545.14 795.02L545.43 805.154L546.013 902.432L546.883 1107.36L547.175 1124.78L547.465 1108.14L548.625 913.351L549.498 786.435L549.79 774.213L550.08 791.113L550.952 968.483L551.532 1050.14L551.822 1056.64L552.115 1048.32L552.695 1006.45L553.277 884.214L554.73 350.039L555.02 343.534L555.6 457.188L558.217 1188.51L558.507 1154.44L559.089 933.111L560.249 415.574L560.539 416.36L561.122 550.551L564.029 1339.07L564.316 1325.3L564.899 1152.1L565.771 854.829L566.351 784.355L566.934 748.466L567.514 675.124L568.676 506.594L568.966 516.735L569.549 638.195L570.711 961.724L571.871 1072.77L572.163 1087.07L572.453 1076.93L574.198 899.303L574.488 900.605L574.781 892.282L575.361 823.626L577.395 422.856L577.685 414.017L577.975 414.795L578.558 455.886L581.463 906.323L582.622 1189.8L582.915 1210.86L583.205 1204.62L584.367 1068.61L584.947 940.393L586.112 608.803L586.402 591.117L586.692 599.448L587.275 684.488L588.725 998.653L589.309 862.12L591.922 57.9823L592.214 94.6492L592.794 424.937L593.667 994.746L593.957 1017.11L594.537 816.86L595.119 615.569L595.409 614.005L595.991 790.851L596.861 1095.4L597.154 1119.84L597.444 1108.92L598.896 956.523L599.769 921.929L600.059 923.493L600.639 972.39L601.803 1152.6L602.091 1161.2L602.383 1142.99L602.966 1008.28L604.126 637.155L604.416 619.723L604.708 652.498L605.288 838.7L606.451 1228.55L607.323 1335.96L607.903 1361.71L608.193 1349.74L608.778 1274.32L609.648 1073.54L611.1 711.791L611.97 619.723L612.263 621.033L612.843 667.063L614.298 891.496L615.168 1015.55L615.46 1027.51L615.748 1022.57L616.33 985.129L616.912 891.242L617.495 661.345L618.655 157.325L618.945 148.224L619.525 255.111L620.687 480.592L621.56 625.187L622.434 775.253L624.177 864.455L624.464 861.071L625.049 792.161L626.212 597.883L626.499 590.346L626.792 608.803L627.662 784.093L628.247 874.604L628.534 881.617L629.989 822.324L630.569 820.759L630.859 821.021L632.311 814.525L632.604 824.667L633.184 887.342L634.346 1054.05L634.636 1049.89L635.798 922.191L636.088 924.272L636.671 956.261L636.963 954.696L637.543 871.475L638.706 654.063L638.993 644.438L639.576 660.305L640.448 717.255L641.903 911.533L642.19 888.637L643.645 538.59L643.933 547.168L646.84 969.516L647.713 1131.02L648.003 1145.59L648.295 1140.39L648.875 1073.29L650.037 766.152L650.62 656.136L650.907 643.914L651.49 681.367L652.65 770.576L653.525 1048.32L654.105 1175.24L654.397 1155.73L656.139 732.082L656.719 743.788L657.012 729.477L658.174 619.469L658.462 636.631L659.044 731.034L660.497 1038.18L660.789 1029.08L661.369 908.404L662.821 538.59L663.114 529.22L663.401 538.328L666.019 718.558L666.599 766.923L668.633 976.798L668.926 966.148L669.506 886.302L670.376 754.446L670.668 743.264L670.958 755.486L672.411 896.698L673.283 928.433L673.866 1011.14L675.315 1243.12L675.608 1244.16L676.188 1174.71L676.77 991.625L678.513 313.626L678.805 317.787L679.385 414.795L680.257 680.064L681.42 1106.58L681.71 1125.82L682 1091.49L682.87 798.912L683.745 582.286L684.325 558.866L684.617 568.491L685.197 624.416L687.23 942.474L687.522 939.091L688.682 854.313L689.557 878.241L689.844 860.293L691.007 727.921L691.299 764.588L692.752 1165.87L693.042 1148.2L694.494 856.394L695.366 874.604L695.656 863.669L697.111 751.325L697.691 779.153L698.274 811.396L698.561 810.102L699.144 765.628L700.016 699.307L700.306 710.235L701.178 771.608L702.338 798.912L702.921 891.242L704.373 1205.4L704.666 1170.04L706.698 622.066L707.278 541.45L708.443 314.921L708.733 327.151L709.313 464.209L710.475 755.748L711.055 776.548L711.64 769.789L711.93 777.588L713.09 829.344L713.672 802.557L715.417 682.661L715.707 694.375L716.287 780.193L717.45 975.758L717.742 977.068L718.612 922.969L718.902 932.594L720.064 1078.24L720.357 1076.15L721.807 950.797L722.099 951.313L722.679 980.967L724.134 1102.94L724.424 1102.68L725.004 1055.09L727.331 785.395L728.781 734.672L729.074 735.458L729.654 770.306L730.816 880.838L731.109 881.879L731.689 828.566L732.851 550.289L733.721 395.29L734.013 382.02L734.303 384.625L735.463 436.381L735.756 439.494L736.048 447.825L736.628 521.937L738.371 878.241L739.243 913.868L739.825 926.614L740.115 927.385L740.405 923.748L742.438 850.676L743.023 844.433L743.31 839.486L743.603 842.869L744.183 892.02L745.345 1056.13L745.635 1070.18L745.927 1069.39L747.087 1023.62L747.96 1046.24L748.25 1040L748.832 973.939L749.705 862.374L749.992 852.749L750.575 855.877L750.865 850.93L751.739 827.526L752.027 834.808L752.609 888.637L753.189 941.696L753.482 940.393L754.062 873.556L755.517 632.477L755.804 614.529L756.097 615.307L756.679 664.204L758.129 849.111L758.709 871.737L759.002 873.04L759.294 867.576L759.874 817.9L761.036 672.52L761.906 636.115L762.199 630.913L762.491 633.772L763.071 668.366L764.521 793.98L764.813 791.891L765.683 770.83L765.976 779.153L766.556 828.304L768.011 979.403L768.301 974.725L769.173 932.849L769.461 933.627L770.043 954.958L770.333 951.575L770.916 880.06L771.788 764.064L772.078 760.164L772.658 765.628L772.95 753.668L774.113 632.208L774.4 643.397L775.855 860.809L776.145 845.212L777.598 653.277L777.89 659.519L779.342 752.103L780.212 732.337L780.505 738.055L781.957 837.151L782.247 835.332L782.83 829.344L783.12 831.425L783.99 847.547L784.572 877.193L785.734 969.261L786.024 968.737L787.187 938.575L787.769 951.837L788.059 948.97L788.642 888.899L789.802 726.356L790.964 668.62L791.256 674.084L791.836 735.458L793.289 931.03L794.161 978.887L794.454 987.209L794.741 986.948L795.324 959.382L795.904 929.211L796.196 928.433L797.066 948.2L797.359 944.555L797.938 911.533L799.101 835.587L799.973 800.738L800.553 747.942L801.716 624.671L802.006 621.812L802.588 641.309L803.751 702.166L804.62 748.72L804.913 744.043L805.493 693.065L806.655 556.531L806.948 555.753L807.528 613.751L809.27 919.594L809.853 949.494L810.725 962.765L811.015 961.979L811.305 955.482L811.887 916.211L813.63 754.446L813.92 761.729L814.502 817.384L815.665 944.817L815.955 947.152L816.535 936.232L816.827 936.756L817.987 985.645L818.279 978.108L819.149 898.263L820.022 842.353L821.767 784.355L822.639 772.648L824.671 694.891H824.961L825.544 702.952L826.124 720.638L826.996 750.03L827.286 746.385L827.866 711.791L828.739 651.196L829.029 656.922L830.483 750.285L831.063 748.982L831.356 757.822L832.226 836.881L833.098 902.686L834.551 972.899L834.841 970.04L835.423 925.312L836.295 831.949L836.583 820.759L836.875 830.385L838.33 955.999L838.618 954.696L839.2 947.938L839.49 951.059L840.073 979.665L840.943 1019.98L841.235 1017.38L841.815 984.859L842.688 874.604L843.558 776.548L845.3 656.398L845.592 653.277L845.885 667.063L847.047 763.547L847.335 759.131L848.497 706.335L848.79 705.549L849.08 707.63L849.37 706.073L849.662 701.133L850.532 677.983L850.824 681.621L851.404 705.295L853.729 808.799L854.019 806.194L855.182 767.971L855.472 769.265L856.052 800.993L857.799 929.99L858.379 945.595L858.669 943.514L859.249 920.889L861.576 803.335L861.864 810.618L863.318 903.981L864.481 877.193L865.351 890.202L865.933 859.253L867.096 753.144L867.386 754.184L867.966 797.617L869.128 914.392L869.42 921.929L869.708 918.284L870.873 874.858L871.163 875.375L871.743 890.202L872.035 890.456L872.325 880.322L873.198 791.637L873.778 737.546L874.07 727.921L874.36 732.082L875.52 775.77L876.102 758.862L876.682 733.122L876.975 727.921L877.555 749.761L878.427 777.85L878.717 775.253L879.59 758.091L879.88 760.426L881.625 812.182H881.915L882.787 790.597L883.367 764.333L884.529 686.568L885.109 677.467L885.692 687.609L886.564 728.445L888.017 825.445L888.889 831.687L889.469 867.314L890.341 930.768L890.631 932.594L891.211 904.767L891.794 879.536H892.084L892.666 901.384L893.539 931.292L893.829 932.332L894.119 930.252L894.409 930.768L894.988 940.139L895.571 947.152L895.861 948.454L896.443 940.139L897.316 905.291L899.058 780.971L899.348 784.609L900.801 833.244L901.383 831.687L901.963 848.071L903.125 899.557L903.705 902.432L904.578 878.758L905.453 824.667L906.903 704.771L907.195 707.368L908.065 726.618L908.645 708.932L909.23 688.133L909.517 686.306L909.81 687.863L910.1 683.964L910.68 655.612L911.552 607.509L911.842 616.086L912.715 707.368L913.587 780.971L914.17 790.851L914.75 776.81L915.912 742.478L916.202 743.788L916.492 748.72L917.947 802.295L918.234 803.859L918.817 798.134L919.109 799.698L919.397 807.235L919.979 862.636L921.431 1027.51L921.724 1035.32L922.014 1033.5L922.594 1017.38L923.174 991.887L924.629 877.463L924.921 881.617L925.791 914.392L926.081 911.787L926.951 860.031L927.534 837.151L928.114 824.405L928.698 788.254L929.858 684.75L930.148 679.548L930.441 683.709L931.311 739.365L932.476 862.374L933.638 992.411L933.926 1000.47L934.218 994.484L934.798 953.664L936.543 793.98L936.833 787.468L937.123 790.335L937.703 817.638L938.865 875.637L939.158 871.999L939.738 837.929L941.192 672.782L942.355 561.733L942.642 558.612L942.935 570.056L943.515 627.275L944.97 802.041L945.26 803.335L945.84 772.648L947.294 683.185L947.874 674.608L948.164 682.145L948.747 727.921L949.909 882.665L951.072 993.19L951.359 1002.55L951.652 1001.25L952.232 981.491L953.107 932.594L954.266 823.357L954.849 791.375L955.139 796.577L956.884 876.423L957.171 868.092L958.046 795.274L958.916 735.458L959.789 719.852L960.076 719.598L960.368 722.973L961.241 750.03L961.823 764.85L962.111 765.104L963.273 748.204L963.566 754.184L965.018 818.679L965.601 819.989L966.181 844.942L967.633 947.676L967.923 937.796L969.958 806.464L970.248 800.222L970.54 806.464L971.12 853.789L971.99 958.858L972.283 966.402L972.575 958.079L974.025 837.667L974.317 838.7L975.187 856.91L975.48 848.849L976.932 775.253L977.515 798.912L978.675 865.757L980.129 890.202L980.419 890.456L980.999 870.18L983.034 749.244L983.324 744.043L983.614 745.083L984.197 752.627L985.069 774.213L985.939 808.537L986.811 843.647L987.101 840.264L988.554 788.778L989.426 782.536L991.169 746.385L991.459 749.506L992.331 772.394L992.913 779.931L993.786 806.464L994.948 846.768L995.236 841.05L997.271 756.781L997.853 767.709L999.013 814.001L999.598 830.909L999.888 827.002L1001.63 766.668L1002.5 760.164L1003.67 735.196L1003.95 738.324L1004.54 762.769L1005.7 825.183L1006.28 832.728L1007.15 830.909L1007.44 831.163L1008.02 840.01L1008.89 863.938L1009.48 867.314L1010.06 853.273L1010.93 830.639L1011.51 827.264L1012.38 828.566L1013.25 844.688L1014.42 877.972L1015.87 890.456L1016.16 894.363L1016.45 892.282L1017.03 880.06L1017.61 869.911H1017.9L1019.35 912.042L1019.64 906.323L1020.81 869.132L1021.39 855.608L1022.26 831.163L1022.55 829.344L1022.84 831.687L1023.71 845.466L1024.29 848.595L1024.59 846.768L1025.17 831.425L1026.62 782.274L1028.07 749.506L1028.95 700.347L1029.23 698.267L1029.82 718.034L1030.69 751.849L1031.27 759.91L1031.56 763.023L1032.14 784.093L1033.01 815.296L1033.3 810.618L1034.17 777.85L1034.47 777.072L1035.05 802.557L1035.92 854.051L1036.21 860.031L1036.5 857.696L1037.95 825.445L1038.53 820.243L1039.11 806.719L1040.28 748.982L1040.86 725.316L1041.15 719.852L1041.44 721.155L1041.73 729.994L1042.6 797.879L1043.18 838.7L1043.47 843.909L1043.76 840.788L1044.63 819.989L1044.92 824.143L1046.38 893.061L1046.67 891.242L1047.54 877.193L1048.7 876.939L1049.28 867.838L1049.86 846.506L1050.74 813.477L1051.03 810.872L1051.32 811.396L1051.61 815.296L1053.06 869.911L1053.93 906.585L1054.22 909.706L1054.51 906.585L1055.1 883.705L1058.29 734.417L1058.87 756.527L1059.75 793.71L1060.33 803.335L1061.2 847.03L1062.07 899.827L1062.36 901.646L1062.65 893.315L1064.39 791.637L1065.27 774.729L1065.56 774.213L1066.14 797.879L1067.3 882.141L1067.88 890.98L1068.46 872.516L1071.66 717.779L1072.24 714.134L1072.53 714.396L1072.82 715.691L1073.4 724.538L1076.31 816.082L1077.47 865.757H1077.76L1078.34 854.567L1079.5 829.868L1080.38 803.335L1081.25 773.165L1081.54 775.508L1082.99 840.264L1083.28 835.587L1085.32 769.011L1085.9 760.164L1086.48 764.064L1088.51 814.779L1089.96 873.294L1090.26 873.04L1090.84 858.991L1092.58 786.173L1093.16 782.274L1093.74 782.79L1094.32 790.597L1095.2 804.376L1095.49 804.638L1096.36 797.355L1096.65 797.617L1097.23 812.699L1098.1 861.071L1098.68 892.544L1098.97 896.96L1099.26 892.544L1100.13 845.728L1101.01 806.464L1101.3 803.859L1101.88 815.041L1103.91 887.073L1104.2 884.484L1105.65 854.051L1105.94 855.353L1106.53 859.777L1107.11 852.494L1108.27 810.102L1110.01 750.285L1110.3 752.365L1112.05 802.041L1112.63 798.403L1113.21 810.872L1113.79 822.848L1114.08 823.102L1114.37 817.384L1115.24 786.69L1115.82 780.709L1116.41 785.649L1116.99 789.811H1117.28L1118.44 770.306L1119.02 778.367L1121.35 860.809L1121.64 861.071L1122.22 850.414L1122.8 839.748L1123.09 841.05L1124.25 865.495L1124.83 843.647L1125.7 808.013L1126.29 816.082L1126.87 828.05L1127.45 818.941L1128.03 806.464L1128.32 808.283L1128.9 829.868L1129.77 869.656L1130.35 873.04L1130.94 870.18L1131.52 865.233L1131.81 864.709L1132.39 857.426L1133.26 823.626L1135.29 730.263L1135.58 726.88L1135.87 729.994L1136.75 774.475L1137.33 796.577L1137.62 799.698L1138.2 797.617L1138.49 803.859L1139.65 865.495L1139.94 863.669L1140.52 817.114L1141.39 741.7L1141.69 741.962L1142.27 787.468L1143.14 850.414L1143.43 855.877L1144.01 854.313L1144.59 858.475L1144.88 860.293L1145.17 858.737L1145.76 842.083L1146.63 812.699L1147.21 807.504L1147.79 787.468L1148.95 724.021L1149.24 731.813L1149.82 776.548L1150.69 847.03L1151.28 861.596L1151.86 858.737L1153.6 839.748L1154.47 844.433L1155.05 839.486L1155.63 829.09L1155.92 829.344L1156.22 832.982L1157.38 864.979L1157.67 863.414L1158.25 842.607L1159.99 763.023L1160.86 739.881L1161.44 724.792L1161.74 725.316L1162.32 750.539L1163.48 806.464L1164.06 817.114L1165.23 862.89L1165.51 860.293L1166.1 829.344L1166.97 782.274L1167.26 783.831L1168.71 849.366L1169 846.768L1169.87 823.626L1170.16 827.002L1171.03 853.535L1171.32 847.03L1171.91 809.053L1172.78 757.567L1173.07 761.991L1174.81 824.667L1176.55 896.189L1176.85 894.101L1177.72 855.877L1178.3 830.123L1178.59 826.485L1180.04 855.877L1180.33 851.97L1182.08 799.174L1182.37 799.436L1182.66 798.403H1183.24L1184.69 786.173L1185.27 799.174L1187.31 881.617L1187.6 879.012L1188.18 830.639L1189.05 733.901L1189.34 724.276L1189.63 734.417L1191.08 833.768L1191.96 812.961L1192.25 818.162L1192.83 856.132L1193.7 904.767L1193.99 904.25L1195.15 867.314L1196.02 827.526L1197.19 765.882L1197.48 761.991L1197.77 767.193L1198.35 798.134L1198.93 829.599L1199.22 833.506L1199.51 827.526L1200.67 770.306L1200.96 771.608L1201.83 828.05L1202.41 848.595L1202.71 844.433L1203.58 806.464L1203.87 806.719L1204.74 829.344L1205.03 825.961L1206.48 771.608L1207.07 787.468L1207.65 806.464L1207.94 807.759L1208.52 801.262L1208.81 803.081L1209.39 823.626L1210.26 856.91L1210.55 857.172L1211.42 842.869L1211.71 845.466L1212.59 866.797L1212.88 862.12L1213.46 823.881L1214.62 715.174H1214.91L1215.49 767.193L1216.65 885.524L1216.94 882.665L1217.53 852.232L1218.4 804.376L1218.69 797.355L1218.98 799.174L1219.85 813.477L1220.14 810.872L1221.3 774.984L1221.6 777.072L1223.34 831.163L1223.63 827.78L1223.92 829.868L1224.5 852.494L1225.37 895.92L1225.95 905.291L1226.24 903.981L1226.54 897.739L1227.12 861.333L1228.57 738.055L1229.15 730.263L1229.73 737.546L1230.6 749.761L1231.18 750.539L1231.47 750.285L1231.76 752.889L1232.35 770.576L1233.22 796.839L1233.51 797.093L1234.38 792.932L1234.67 795.798L1236.41 834.022L1236.99 836.627L1237.28 840.01L1238.45 876.153L1238.74 871.999L1239.9 819.989L1240.19 821.021L1241.35 863.669L1241.64 858.212L1242.22 817.638L1243.1 753.668L1243.39 747.942L1243.68 750.801L1244.84 773.951L1245.13 772.91L1245.71 763.285L1246.58 745.861H1246.87L1247.45 766.152L1248.62 817.114L1250.07 846.506L1250.94 872.77L1251.23 872.254L1251.82 858.212L1252.4 845.728H1252.69L1253.27 866.535L1254.43 921.412L1254.72 924.788L1255.01 920.11L1255.59 892.806L1257.92 735.72L1258.21 734.672L1258.79 752.627L1259.37 771.87L1259.66 770.576L1260.82 742.224L1261.11 749.244L1262.86 831.425L1263.44 835.841L1264.89 844.688L1265.18 844.171L1265.47 841.305L1266.05 845.728L1267.21 867.314L1267.5 864.979L1269.25 829.344L1269.83 842.607L1270.7 866.797L1270.99 869.132L1271.57 859.515L1272.44 836.365L1273.61 793.98L1273.9 794.496L1274.48 813.477L1275.06 834.808L1275.35 836.881L1275.64 833.506L1278.25 776.548L1278.55 777.85L1278.84 780.971L1279.42 791.637L1280 793.456L1281.45 789.811L1282.03 786.173L1282.32 787.214L1282.91 800.738L1284.07 828.566L1284.94 822.586L1285.52 808.283L1286.68 764.85L1286.97 764.064L1287.55 787.738L1288.43 841.05L1288.72 845.728L1289.3 823.357L1290.17 784.609L1290.46 781.226L1290.75 783.314L1291.33 793.71L1291.91 813.747L1293.08 868.616L1293.37 872.254L1293.66 870.18L1294.53 846.768L1295.11 835.062L1295.69 832.203L1296.27 840.788L1297.44 875.375L1297.72 871.221L1299.18 830.639L1300.05 842.083L1300.34 842.869L1301.21 834.292L1303.53 795.798L1304.7 780.455L1304.99 782.012L1305.57 792.67L1305.86 793.456L1306.44 783.569L1307.02 776.294L1307.31 779.931L1309.06 819.465L1309.64 826.231L1310.51 839.224L1311.09 840.788L1311.38 838.446L1311.67 838.97L1311.96 842.353L1313.41 882.141L1313.71 880.838L1314 873.556L1315.74 792.415L1316.03 790.335L1316.61 798.134L1317.19 806.464L1317.48 804.638L1317.77 800.476L1318.65 778.367L1318.94 780.193L1320.68 837.667L1321.26 829.868L1322.42 796.053L1323.29 776.548L1324.17 772.648L1324.46 773.435L1324.75 772.648L1325.33 777.334L1327.66 824.143L1328.24 840.788L1328.53 843.393L1329.98 827.526L1330.27 829.868L1330.56 829.599L1331.14 821.283L1332.3 787.992L1332.88 783.314L1333.17 784.093L1334.04 795.536L1334.34 795.274L1335.79 764.333L1336.37 773.689L1338.4 832.473L1338.69 831.687L1340.15 805.154L1340.73 823.357L1341.89 871.737L1342.18 875.899L1343.05 871.999L1343.34 868.616L1343.63 868.87L1344.22 859.777L1345.96 808.537L1346.25 808.283L1347.7 822.324L1348.28 836.881L1349.15 864.979L1349.74 868.092L1352.35 825.183L1352.64 823.881L1353.81 826.74L1354.97 812.182L1355.26 816.606L1356.71 859.515L1357 855.608L1358.45 814.525L1359.04 812.437L1359.33 811.92L1359.91 812.961L1360.49 813.223L1361.65 816.082L1362.23 817.638L1362.81 814.255L1363.39 799.174L1364.26 777.072L1364.56 777.334L1365.72 789.556L1366.3 789.294L1366.59 790.335L1367.17 797.879L1368.04 815.041L1368.62 820.759L1369.5 822.586L1370.08 809.578L1370.95 781.226L1371.53 777.85L1372.11 779.407L1372.98 776.81L1373.56 791.637L1374.44 817.9L1374.73 815.565L1376.18 774.475L1376.76 782.274L1378.5 809.323L1379.96 842.353L1380.25 840.264L1381.99 810.618L1382.86 808.013L1383.73 819.203L1385.77 855.353L1386.35 858.212L1387.51 861.071L1388.67 855.353L1388.97 855.091L1389.55 851.708L1390.13 840.534L1392.16 776.81L1392.45 777.85L1393.03 792.415L1394.19 832.982L1395.07 846.252L1395.36 847.809L1395.65 846.768L1396.23 830.909L1397.68 775.508L1398.26 772.91L1398.84 775.253L1399.42 785.133L1400.3 808.799L1400.59 810.618L1400.88 809.84L1401.46 806.719L1401.75 808.283L1402.33 818.679L1402.91 824.667L1403.2 822.324L1404.07 802.811L1404.94 791.375L1406.11 785.395L1406.4 787.992L1407.27 809.323L1409.01 861.071L1409.3 862.374L1410.46 854.051L1411.05 855.608L1411.34 853.789L1411.63 849.635L1413.66 791.113L1414.25 790.597L1414.83 792.932L1417.15 810.364L1417.73 807.759L1418.89 803.597L1419.77 796.577L1420.64 800.993L1421.51 816.606L1422.38 827.78L1422.67 828.566L1423.25 826.485L1424.12 819.465L1424.41 819.203L1424.71 822.062L1425.87 849.89H1426.16L1426.45 845.212L1427.9 801.517L1428.19 803.859L1429.06 834.292L1429.93 860.293H1430.22L1430.81 848.325L1431.68 830.123L1431.97 827.78L1432.26 828.05L1433.42 824.405L1434.87 834.022L1435.74 817.638L1436.33 805.678L1436.62 803.859L1437.2 810.618L1438.07 825.183L1438.36 824.405L1438.94 817.384L1439.52 812.699L1440.4 811.396L1441.27 797.879L1442.14 783.831L1442.72 792.415L1443.88 819.989L1445.04 835.841L1445.62 841.574L1446.21 838.97L1447.08 815.296L1448.24 781.495H1448.53L1449.99 808.013L1452.02 839.748L1452.31 841.574L1452.89 836.881L1453.47 824.405L1454.93 772.648L1455.21 770.052L1455.51 771.346L1456.67 788.254L1457.83 816.86L1458.99 848.595L1459.28 849.89L1460.15 840.264L1460.45 838.97L1461.61 847.809L1461.9 846.506L1463.35 826.74L1463.93 827.78L1464.51 823.881L1465.38 803.081L1466.26 786.952L1466.84 785.649L1467.13 784.871L1467.71 781.495L1468.29 781.226L1468.87 789.556L1469.74 804.9L1470.03 805.94L1470.32 804.9L1470.9 809.578L1472.36 850.676L1472.65 851.708L1472.94 849.111L1473.81 835.062L1474.1 837.151L1474.68 852.494L1475.26 867.576L1475.56 867.314L1476.14 850.414L1477.01 827.264L1477.59 831.949L1478.17 837.667L1478.75 836.365L1479.62 834.022L1480.2 831.687L1480.78 824.405L1482.82 798.657L1483.4 798.912L1484.27 800.222L1484.56 799.698L1485.14 792.161L1485.43 791.891L1486.02 802.811L1487.47 857.95L1487.76 857.426L1488.34 844.942L1489.5 808.799L1490.37 796.839L1491.25 789.294L1491.54 786.952L1492.12 795.02L1493.28 826.74L1493.57 827.526L1493.86 826.485L1494.73 814.255L1495.31 810.872L1495.6 808.283L1496.47 785.649L1497.35 761.991L1497.64 760.681L1498.22 770.83L1499.38 795.798L1500.25 802.295L1501.42 824.143L1502 826.485L1503.16 821.538L1504.9 806.981L1505.48 811.92L1506.65 824.405L1507.23 828.566H1507.81L1508.97 817.114L1509.55 811.92L1510.13 817.9L1511 830.385L1511.59 827.78L1512.75 810.872L1513.33 809.053L1513.91 811.92L1514.2 812.961L1514.49 812.437L1514.78 810.364L1515.36 810.872L1517.69 833.506L1519.14 818.162L1520.01 808.283L1520.59 806.981L1520.89 808.283L1521.76 820.243L1523.21 845.728L1524.08 854.567L1524.37 855.877L1524.66 855.353L1525.53 848.325L1527.27 816.344L1527.86 815.82L1528.73 825.961L1529.6 839.486L1530.18 844.171L1530.76 842.869L1532.21 818.424L1533.09 802.557L1533.38 800.993L1533.96 802.041L1535.12 812.182L1535.99 818.941L1536.58 826.231L1536.86 828.566L1537.45 825.961L1539.48 796.839L1540.06 789.811L1541.22 774.729L1541.8 772.91L1542.1 772.124L1542.68 768.741L1543.26 770.052L1544.71 787.214L1545.87 793.71L1548.49 829.868L1549.07 826.74L1549.94 819.465L1550.23 819.203L1551.4 822.848L1552.27 817.384L1553.14 813.477L1553.72 815.565L1556.34 844.942L1556.63 845.212L1558.95 824.143L1559.82 818.162L1560.4 821.807L1561.56 840.264L1562.15 839.748L1563.02 827.002L1563.31 824.921L1563.6 825.707L1563.89 824.921L1564.18 825.707L1564.76 828.05L1566.21 821.807L1567.08 820.243L1567.37 818.424L1568.54 794.234L1569.12 784.355L1569.41 783.831L1571.15 802.295L1571.73 804.121L1572.02 805.416L1572.9 814.001L1573.19 814.779L1573.77 814.255L1574.93 822.062L1575.51 827.526L1575.8 827.78L1576.68 830.385L1576.96 830.123L1578.13 834.292L1578.42 833.768L1580.16 814.001L1581.32 797.355H1581.62L1583.36 816.344L1584.23 810.618L1584.52 810.364L1584.81 811.142L1586.26 820.759L1587.43 815.565L1588.59 826.74L1591.2 846.768L1591.78 841.305L1594.11 807.504L1594.69 814.525L1595.85 833.768L1596.43 831.163L1597.01 825.183L1598.17 817.9L1599.92 800.738L1600.21 801.517L1600.79 797.879L1602.24 776.294L1602.83 774.729L1604.57 793.98L1604.86 794.75L1605.44 800.738L1606.31 819.203L1607.18 833.244L1607.47 833.768L1608.64 819.719L1609.8 809.323L1610.67 805.416L1610.96 806.719L1611.83 804.376L1612.42 802.041L1612.71 801.517L1614.45 817.9L1614.74 817.114L1615.61 814.525L1615.9 815.296L1617.06 827.526L1617.64 827.002L1618.52 820.243L1619.1 823.357L1619.39 825.183L1620.26 836.627L1620.84 840.534L1621.13 839.748L1621.71 834.022L1622.58 825.707L1622.88 826.485L1623.17 825.961L1623.75 827.526L1625.2 831.163L1626.94 837.405L1627.81 834.292L1628.98 834.546L1631.01 824.667L1633.05 805.416L1633.63 805.154L1633.92 805.678L1634.5 810.102L1635.08 811.396L1635.37 811.142L1635.66 812.182L1636.24 811.658L1636.53 811.92L1636.82 813.223L1637.11 811.658L1637.4 812.961L1639.15 806.719L1640.31 815.82L1641.76 826.231L1642.63 827.526L1643.8 821.538L1644.38 822.586L1645.54 817.638L1646.41 809.323L1646.7 807.504L1646.99 808.537L1647.86 818.941L1649.03 834.022L1649.32 835.332L1649.9 830.639L1650.48 821.807L1651.93 802.041L1653.1 791.637L1653.68 784.093L1653.97 784.871L1654.26 784.609L1654.84 791.637L1656 807.759L1656.87 808.799L1657.45 807.235L1659.2 799.174L1660.36 805.678L1661.23 812.182L1661.81 812.961L1663.27 802.811L1663.85 796.315L1665.59 794.234L1666.46 796.839L1668.2 815.82L1669.66 835.062H1669.95L1670.24 834.022L1671.11 837.667L1672.56 851.97L1672.85 851.708L1673.73 847.292L1674.31 841.574L1675.18 829.344L1675.47 827.78L1676.05 831.163L1676.92 845.212L1677.79 852.749L1678.37 851.184L1678.96 843.123L1680.7 813.747L1681.28 813.223L1682.15 815.296L1684.19 803.859L1684.77 805.154L1686.22 799.952L1687.96 810.618L1688.26 810.364L1689.7 802.811L1690 801.517L1690.29 802.295L1690.87 800.222L1691.16 798.912L1692.61 785.919L1692.9 786.173L1694.36 793.71L1696.39 811.658L1697.26 810.872L1697.84 809.323L1698.71 821.538L1700.17 845.466L1700.46 846.768L1701.04 850.414L1702.78 846.768L1703.65 849.366L1703.95 849.635L1705.4 843.909L1706.27 845.212L1706.85 841.305L1708.89 808.013L1709.47 802.295L1710.05 803.859L1710.63 811.658L1711.21 822.324L1711.79 826.485L1712.08 827.526L1712.66 824.405L1713.83 815.565L1714.11 817.384L1714.41 816.86L1715.86 824.405L1716.73 831.949L1717.31 830.385L1718.18 823.102L1718.77 824.921L1719.64 831.163L1720.22 828.566L1721.38 812.182L1721.67 811.396L1722.83 815.565L1723.7 810.364H1724.28L1725.45 818.679L1726.61 811.92L1727.19 807.235L1728.93 798.912L1729.22 799.952L1729.8 807.235L1731.26 830.385L1731.84 833.244L1732.42 829.344L1733.29 818.424L1733.87 813.223L1734.75 809.84L1735.91 803.597L1738.81 777.85L1739.11 777.072L1739.69 781.495L1740.56 795.798L1740.85 799.174L1742.01 798.403L1742.59 802.295L1744.05 811.92H1744.33L1745.79 823.881L1746.08 825.707L1746.37 825.445L1746.66 826.231L1747.82 819.719L1748.4 817.638L1748.69 818.941L1749.57 817.638H1749.86L1750.73 814.779L1751.31 816.86L1752.47 821.021L1753.63 816.606L1755.08 806.194H1755.67L1756.54 807.504L1756.83 805.678L1757.12 805.94L1757.7 804.638L1757.99 805.154L1758.57 804.638L1759.44 805.154L1759.73 804.376L1760.32 800.738L1760.6 799.698L1761.19 797.093H1761.77H1762.06L1762.93 800.993L1764.38 819.203L1765.26 831.949L1765.55 831.687L1765.84 832.473L1766.13 831.687L1766.71 832.473L1767.58 842.353L1768.16 844.171L1769.91 840.534H1770.2L1772.52 824.405L1773.68 807.235L1773.97 806.981L1774.26 807.759L1775.72 818.941L1776.3 816.344L1777.46 809.323L1778.04 810.102L1778.33 809.84L1778.62 810.618L1779.49 816.86L1780.66 834.808L1781.24 842.083L1782.4 845.466L1783.27 841.574H1783.56L1784.73 829.09L1786.18 807.759L1786.47 807.504L1788.5 819.719L1789.37 825.445L1789.66 826.231L1790.24 825.183L1792.28 828.304H1792.86L1793.44 828.05L1794.02 826.485H1794.31L1795.18 822.062L1796.06 822.848L1796.64 825.445H1797.51L1798.38 821.021L1798.96 822.586L1799.54 818.679L1800.7 809.323L1801.29 808.799L1801.87 806.464L1802.45 805.416L1803.03 804.638L1803.61 805.416L1803.9 804.121L1805.35 810.364L1805.65 810.618L1806.52 804.638L1807.1 807.235L1807.39 806.719L1807.68 807.759L1808.26 804.9L1808.84 802.557L1809.71 811.92L1810.59 826.485L1811.46 831.163L1812.04 829.599L1812.33 829.09L1812.62 827.264L1813.2 816.344L1814.65 792.932L1815.53 796.839L1816.11 801.517L1816.4 800.993L1817.27 803.859L1817.56 804.121L1819.01 814.779L1819.59 818.424L1820.17 821.283L1820.76 825.183L1821.04 825.961L1821.92 833.244L1822.21 834.022L1822.79 839.224L1823.37 839.748L1823.95 842.607L1824.24 839.748L1824.53 840.01L1824.82 839.224L1825.4 833.768L1826.28 820.759L1827.15 806.194L1827.73 801.262L1828.02 800.993L1828.6 803.081L1830.64 784.609L1830.92 783.314L1831.51 785.133L1832.96 800.476L1833.54 805.94L1833.83 807.504L1834.41 812.699L1834.7 813.747L1835.57 810.364L1836.16 807.235L1836.45 806.981L1837.03 809.578L1837.61 813.223L1839.06 816.86L1840.22 811.92L1841.1 803.597L1841.97 800.738L1843.13 803.335L1845.45 816.606L1846.04 818.162L1846.33 817.9L1847.78 823.881H1848.36L1848.94 820.759L1849.23 821.283L1850.11 818.162L1850.98 821.283L1851.56 822.586L1851.85 821.807L1852.72 815.296L1853.3 814.525L1854.75 829.344L1855.04 830.639L1855.33 829.344L1856.2 831.687L1856.79 832.982L1857.08 835.587L1857.37 835.332L1857.66 836.111L1857.95 835.587L1859.4 846.506L1859.69 847.292L1859.98 845.466L1860.56 845.212L1862.02 832.982L1862.6 827.526L1864.05 822.848L1864.63 825.707L1865.79 843.909L1866.38 849.366L1867.25 846.768L1867.54 847.547L1868.7 836.111L1870.73 796.839L1871.9 784.093L1872.48 781.75L1872.77 780.455L1873.35 782.274L1873.93 786.69L1874.51 795.274L1875.38 800.222L1875.96 799.952L1876.84 804.638L1877.42 805.94L1878 804.638L1878.58 805.154L1879.16 809.84L1879.74 811.396L1880.61 815.041L1880.91 815.296L1882.07 819.989L1882.65 820.497L1884.68 808.013L1885.26 808.799L1885.55 808.013L1886.13 811.92L1887.88 830.909L1888.46 825.961L1890.49 809.84L1891.36 807.759L1891.66 806.194L1892.53 809.578L1893.98 819.203L1894.56 819.989L1894.85 820.243L1896.3 810.618L1897.18 803.081L1897.76 801.517L1898.92 806.719L1899.79 813.223L1900.37 816.082L1902.41 821.538L1902.99 823.626L1904.73 832.728L1905.6 831.163L1905.89 833.768L1907.64 828.05L1907.93 826.231L1908.51 827.264L1909.09 826.74L1909.67 828.05L1910.25 829.09L1910.83 832.473L1911.12 832.728L1911.42 835.062L1912 834.808L1912.29 832.728L1912.58 834.022L1914.03 827.526L1914.9 813.223L1915.19 811.92L1915.77 805.678L1916.35 806.719L1916.93 810.102L1917.81 816.86L1918.39 818.679L1919.84 816.606L1921.29 808.283L1921.58 808.537L1922.16 811.658L1922.45 812.437L1923.33 809.578L1923.62 806.981L1924.2 806.719L1925.65 799.698L1927.69 805.94L1927.98 806.464L1928.27 805.154L1928.56 805.94L1929.43 799.174L1930.01 799.436H1930.3L1931.46 808.283L1932.63 823.102L1933.5 827.78H1934.08L1934.66 829.344L1935.53 826.74L1935.82 825.961L1936.4 821.283L1936.69 820.243L1937.57 823.357L1938.15 828.304L1939.02 834.022L1939.89 832.203L1940.47 831.163L1941.92 817.9L1943.09 801.262L1943.96 797.879L1944.83 795.02H1945.41L1946.57 805.678L1948.03 812.961L1948.9 823.102L1949.48 828.82L1950.93 834.292L1951.22 833.244L1951.51 834.022L1952.67 828.304L1953.25 829.09L1954.13 831.425H1954.42L1954.71 829.344L1955 829.868L1955.87 823.626L1956.74 819.465L1957.03 819.989L1957.61 819.203L1958.19 818.679L1959.94 816.606L1960.23 819.203L1960.52 818.941L1962.85 828.304L1963.72 826.74L1964.3 826.231L1965.46 826.74L1965.75 825.961L1966.33 827.264L1966.91 829.09L1969.24 813.747L1970.4 811.396L1971.85 798.657L1972.44 795.536L1972.72 796.315L1973.02 796.053L1973.89 799.698L1974.76 801.517L1975.05 799.174L1977.96 809.84L1978.25 808.283L1978.83 809.053L1979.12 808.283L1979.41 808.799L1979.99 805.678L1981.15 802.295L1981.44 803.081L1981.73 802.295L1982.6 805.94L1983.19 808.283L1983.77 811.142L1984.64 813.223L1985.22 813.477L1985.8 815.296L1987.54 810.364L1987.83 810.872L1989.58 823.881L1990.45 825.183L1992.19 816.082L1993.65 805.416L1994.81 807.235L1995.1 808.013L1995.68 810.618L1996.55 815.041L1996.84 816.344L1997.13 815.565L1997.71 817.384L1998 819.203L1998.59 818.941L1998.88 819.203L1999.17 821.807L1999.75 822.062L2000.04 822.324L2000.62 821.538L2001.78 824.667L2002.07 824.405L2002.94 827.002L2004.69 830.909L2004.98 831.163L2005.56 829.344L2005.85 829.09L2006.43 826.231L2006.72 826.74L2007.01 825.961L2008.47 816.344L2008.76 815.82L2009.34 817.114L2009.92 818.424L2010.79 819.989L2011.37 819.465L2011.66 818.941L2012.24 816.082H2012.54L2013.12 814.001L2013.99 812.961L2014.57 810.618L2016.31 808.283L2017.18 814.779L2018.05 816.344L2018.63 819.719L2019.51 822.324H2019.8L2020.09 820.759L2020.38 822.324L2020.96 819.989H2021.83H2022.12L2023.28 827.264L2023.57 826.74L2023.87 828.05L2027.06 815.296L2028.22 812.699L2028.51 813.223L2029.09 812.437L2029.68 811.142L2029.97 811.396L2030.26 810.618L2030.84 811.92L2032 811.658L2032.58 812.437L2032.87 812.699L2033.75 816.86L2034.91 821.021L2035.2 820.243L2035.78 817.638L2037.23 814.255L2037.81 811.396L2038.69 808.283L2040.43 812.182L2040.72 811.396L2042.17 815.82L2042.75 814.779L2043.63 812.961L2045.08 823.357L2047.4 843.909L2047.98 845.466L2049.14 842.607L2049.72 841.829L2050.31 837.929L2052.34 817.114L2053.21 817.9L2054.38 814.525L2055.54 818.424L2056.7 815.296L2056.99 812.961L2057.57 813.477L2058.73 811.92L2059.31 808.537L2059.9 807.235L2060.48 806.194L2060.77 807.235L2061.35 806.194H2061.64L2061.93 804.638L2062.22 805.154L2062.8 804.376L2063.38 803.081H2063.97L2065.13 803.597L2068.03 820.759L2069.19 821.021L2069.78 819.719L2070.36 817.9L2070.94 814.525L2071.52 811.92L2072.1 810.618H2072.39L2073.56 814.779L2073.84 814.525L2074.14 817.9L2075.01 816.86L2075.3 819.465L2075.88 818.679L2076.17 818.941L2076.46 817.638L2076.75 820.497L2077.33 819.989L2077.62 817.638L2078.2 817.384L2078.78 816.082L2079.36 820.243L2079.66 817.384L2079.94 818.941L2081.98 813.747L2082.56 811.142L2082.85 814.255L2083.43 811.142L2084.01 816.344L2084.59 810.364L2085.47 812.961L2086.05 809.053L2087.21 814.001L2087.5 813.747L2087.79 814.525L2088.37 818.941L2088.95 816.86L2089.83 825.707H2090.12L2090.99 831.163L2091.57 829.09L2092.15 830.385L2092.44 833.244L2093.02 826.485L2093.89 827.264L2094.19 823.881L2094.77 825.707L2095.06 824.405L2095.64 817.384L2095.93 818.162L2097.67 815.82L2098.54 808.537L2098.83 806.464L2099.41 808.799L2100 803.859L2100.29 803.335L2100.58 805.94L2100.87 800.738L2101.74 805.94L2102.03 806.981L2102.32 806.464L2102.61 811.658L2102.9 806.464L2103.19 807.759L2103.48 806.719L2104.06 810.872L2104.35 807.759L2104.65 811.658L2104.94 809.323L2105.23 809.578L2105.52 807.504L2106.68 811.658L2106.97 811.92L2108.42 819.203L2108.71 820.243L2109.88 828.05L2110.75 828.82L2111.33 831.949L2111.91 829.868L2112.2 829.599L2113.36 824.921L2113.65 825.183L2114.52 820.243L2114.81 820.497L2115.69 814.779L2115.98 812.182L2116.27 813.223L2116.56 811.396L2117.72 813.223L2118.01 814.255L2118.3 818.941L2118.88 816.082L2119.17 818.162L2119.46 817.114L2119.75 818.162L2121.21 815.296L2121.5 815.041L2122.37 811.658L2122.95 811.92L2123.24 810.364L2123.53 810.872L2125.28 802.557L2125.57 803.597L2125.86 802.811L2127.31 805.416L2127.6 808.537L2129.05 806.194L2130.51 809.053L2130.8 808.799L2131.38 810.364L2133.12 826.485L2133.7 832.203L2133.99 830.123L2134.57 834.808L2135.45 833.506L2135.74 834.546L2136.9 830.639L2138.06 823.102L2139.51 817.114L2139.81 816.86L2141.55 824.667L2141.84 824.143L2142.13 825.445L2143.58 822.324L2144.16 819.203L2145.03 814.255L2146.49 815.041L2147.36 817.114L2147.65 816.344L2147.94 817.114L2149.1 815.296L2149.39 816.082L2149.68 814.779L2149.97 816.082L2150.84 812.182L2151.14 812.437L2153.75 802.295L2154.62 801.771L2156.08 805.678L2156.37 804.9L2158.69 810.364L2158.98 810.618L2159.85 813.223L2160.14 814.001L2161.31 822.062H2161.6L2162.18 825.183L2162.47 825.445L2162.76 826.74L2163.34 826.231L2163.63 825.707L2164.5 827.526L2165.37 828.05L2167.99 832.473L2168.57 831.425L2170.03 829.599L2172.06 822.848L2172.35 823.102L2173.51 829.09L2174.97 831.949L2175.84 832.728L2177 829.09H2177.29L2177.87 822.848L2179.9 811.658L2181.06 800.476L2182.23 795.02L2182.52 794.75L2182.81 792.415L2183.1 793.194L2184.26 792.161L2184.84 792.67L2186.88 804.376L2187.46 805.678L2188.91 809.578L2189.78 810.872H2190.65L2192.4 816.082L2193.85 819.465L2195.3 825.183L2195.59 825.445L2196.47 822.324L2196.76 820.759L2197.05 821.283L2198.79 809.578H2199.37L2201.12 821.807L2201.7 822.586L2202.28 823.102L2202.57 822.062L2203.73 824.405L2206.06 825.183L2206.93 829.868"/>
</g>
</svg>