<svg width="265" height="264" xmlns="http://www.w3.org/2000/svg" xmlns:xlink="http://www.w3.org/1999/xlink" xml:space="preserve" overflow="hidden"><defs><clipPath id="clip0"><rect x="781" y="191" width="265" height="264"/></clipPath></defs><g clip-path="url(#clip0)" transform="translate(-781 -191)"><path d="M74.25 88C74.25 91.0376 71.7876 93.5 68.75 93.5 65.7124 93.5 63.25 91.0376 63.25 88 63.25 84.9624 65.7124 82.5 68.75 82.5 71.7876 82.5 74.25 84.9624 74.25 88Z" stroke="#000000" stroke-width="1.33333" fill="#A5A5A5" transform="matrix(1.00379 0 0 1 781 191)"/><path d="M74.25 110C74.25 113.038 71.7876 115.5 68.75 115.5 65.7124 115.5 63.25 113.038 63.25 110 63.25 106.962 65.7124 104.5 68.75 104.5 71.7876 104.5 74.25 106.962 74.25 110Z" stroke="#000000" stroke-width="1.33333" fill="#A5A5A5" transform="matrix(1.00379 0 0 1 781 191)"/><path d="M63.25 99C63.25 102.038 60.7876 104.5 57.75 104.5 54.7124 104.5 52.25 102.038 52.25 99 52.25 95.9624 54.7124 93.5 57.75 93.5 60.7876 93.5 63.25 95.9624 63.25 99Z" stroke="#000000" stroke-width="1.33333" fill="#A5A5A5" transform="matrix(1.00379 0 0 1 781 191)"/><path d="M85.25 99C85.25 102.038 82.7876 104.5 79.75 104.5 76.7124 104.5 74.25 102.038 74.25 99 74.25 95.9624 76.7124 93.5 79.75 93.5 82.7876 93.5 85.25 95.9624 85.25 99Z" stroke="#000000" stroke-width="1.33333" fill="#A5A5A5" transform="matrix(1.00379 0 0 1 781 191)"/><path d="M151.25 77C151.25 80.0376 148.788 82.5 145.75 82.5 142.712 82.5 140.25 80.0376 140.25 77 140.25 73.9624 142.712 71.5 145.75 71.5 148.788 71.5 151.25 73.9624 151.25 77Z" stroke="#000000" stroke-width="1.33333" fill="#A5A5A5" transform="matrix(1.00379 0 0 1 781 191)"/><path d="M151.25 99C151.25 102.038 148.788 104.5 145.75 104.5 142.712 104.5 140.25 102.038 140.25 99 140.25 95.9624 142.712 93.5 145.75 93.5 148.788 93.5 151.25 95.9624 151.25 99Z" stroke="#000000" stroke-width="1.33333" fill="#A5A5A5" transform="matrix(1.00379 0 0 1 781 191)"/><path d="M140.25 88C140.25 91.0376 137.788 93.5 134.75 93.5 131.712 93.5 129.25 91.0376 129.25 88 129.25 84.9624 131.712 82.5 134.75 82.5 137.788 82.5 140.25 84.9624 140.25 88Z" stroke="#000000" stroke-width="1.33333" fill="#A5A5A5" transform="matrix(1.00379 0 0 1 781 191)"/><path d="M162.25 88C162.25 91.0376 159.788 93.5 156.75 93.5 153.712 93.5 151.25 91.0376 151.25 88 151.25 84.9624 153.712 82.5 156.75 82.5 159.788 82.5 162.25 84.9624 162.25 88Z" stroke="#000000" stroke-width="1.33333" fill="#A5A5A5" transform="matrix(1.00379 0 0 1 781 191)"/><path d="M225.5 123.75 209 140.25 187 140.25 187 200.75 209 200.75 225.5 217.25 242 217.25 242 123.75Z" stroke="#000000" stroke-width="1.33333" fill="#A5A5A5" transform="matrix(1.00379 0 0 1 781 191)"/><path d="M145.75 112.75C132 112.75 121 101.75 121 88 121 74.25 132 63.25 145.75 63.25 159.5 63.25 170.5 74.25 170.5 88 170.5 101.75 159.5 112.75 145.75 112.75ZM154 200.75C150.975 200.75 148.5 198.275 148.5 195.25 148.5 192.225 150.975 189.75 154 189.75 157.025 189.75 159.5 192.225 159.5 195.25 159.5 198.275 157.025 200.75 154 200.75ZM101.75 123.75C105.325 118.8 108.075 113.3 109.175 106.975 112.75 113.85 118.525 119.625 125.125 123.75L101.75 123.75ZM68.75 123.75C55 123.75 44 112.75 44 99 44 85.25 55 74.25 68.75 74.25 82.5 74.25 93.5 85.25 93.5 99 93.5 112.75 82.5 123.75 68.75 123.75ZM166.1 123.75C178.475 116.6 187 103.4 187 88 187 65.175 168.575 46.75 145.75 46.75 125.675 46.75 109.175 61.05 105.325 80.025 98.45 66.825 84.7 57.75 68.75 57.75 45.925 57.75 27.5 76.175 27.5 99 27.5 112.475 34.1 124.3 44 132L44 140.25 38.5 140.25 33 134.75 22 134.75 22 162.25 33 162.25 38.5 156.75 44 156.75 44 206.25C44 212.3 48.95 217.25 55 217.25L165 217.25C171.05 217.25 176 212.3 176 206.25L176 134.75C176 128.975 171.6 124.3 166.1 123.75Z" stroke="#000000" stroke-width="1.33333" fill="#A5A5A5" transform="matrix(1.00379 0 0 1 781 191)"/></g></svg>